<svg xmlns="http://www.w3.org/2000/svg" xmlns:xlink="http://www.w3.org/1999/xlink" viewBox="0 0 42 42"><defs><style>.cls-1{fill:none;}.cls-2{clip-path:url(#clip-path);}</style><clipPath id="clip-path"><rect class="cls-1" x="27.12" y="75" width="84" height="35"/></clipPath></defs><g id="字"><g class="cls-2"><image width="1200" height="630" transform="translate(-56.67 26.46) scale(0.21)" xlink:href="../../../../../Users/lian.chang/Desktop/DATA/1200x630wa.png"/></g><path d="M21,0A21,21,0,1,0,42,21,21,21,0,0,0,21,0Zm0,40A19,19,0,1,1,40,21,19,19,0,0,1,21,40Z"/><path d="M36.15,21.25a.37.37,0,0,1,0,.14,1,1,0,0,1-.21.32L28.8,28.8a1,1,0,0,1-1.41,0,1,1,0,0,1,0-1.41L32.78,22h-26a1,1,0,1,1,0-2h26l-5.39-5.39A1,1,0,1,1,28.8,13.2l7.1,7.09a1,1,0,0,1,.21.32.37.37,0,0,1,0,.14A.85.85,0,0,1,36.15,21.25Z"/></g></svg>