<?xml version="1.0" encoding="utf-8"?>
<!-- Generator: Adobe Illustrator 22.1.0, SVG Export Plug-In . SVG Version: 6.00 Build 0)  -->
<svg version="1.1" id="圖層_1" xmlns="http://www.w3.org/2000/svg" xmlns:xlink="http://www.w3.org/1999/xlink" x="0px" y="0px"
	 width="15px" height="15px" viewBox="0 0 15 15" style="enable-background:new 0 0 15 15;" xml:space="preserve">
<style type="text/css">
	.st0{fill:#FFFFFF;}
</style>
<path class="st0" d="M10.5,5.2C10.3,4.9,10,4.7,9.7,4.5S8.9,4.2,8.5,4.2c-0.4,0-0.8,0.1-1.2,0.3S6.7,4.8,6.5,5.1
	C6.2,5.4,6,5.7,5.9,6.1C5.8,6.5,5.7,6.9,5.7,7.3c0,0.4,0.1,0.8,0.2,1.2s0.3,0.7,0.5,1C6.7,9.7,7,9.9,7.3,10.1
	c0.3,0.2,0.7,0.3,1.2,0.3c0.4,0,0.8-0.1,1.2-0.3c0.4-0.2,0.6-0.4,0.9-0.7l1.1,1c-0.4,0.4-0.8,0.7-1.3,1c-0.5,0.2-1.2,0.4-1.8,0.4
	c-0.7,0-1.3-0.1-1.8-0.3c-0.6-0.2-1-0.5-1.4-0.9c-0.4-0.4-0.7-0.9-1-1.4C4.1,8.6,3.9,8,3.9,7.3c0-0.7,0.1-1.3,0.3-1.8
	c0.2-0.6,0.5-1,1-1.4c0.4-0.4,0.9-0.7,1.4-0.9c0.6-0.2,1.2-0.3,1.8-0.3c0.6,0,1.2,0.1,1.8,0.4c0.6,0.2,1.1,0.6,1.4,1L10.5,5.2z"/>
</svg>
