<?xml version="1.0" encoding="utf-8"?>
<!-- Generator: Adobe Illustrator 22.1.0, SVG Export Plug-In . SVG Version: 6.00 Build 0)  -->
<svg version="1.1" id="圖層_1" xmlns="http://www.w3.org/2000/svg" xmlns:xlink="http://www.w3.org/1999/xlink" x="0px" y="0px"
	 width="750px" height="180px" viewBox="0 0 750 180" style="enable-background:new 0 0 750 180;" xml:space="preserve">
<style type="text/css">
	.st0{stroke:#000000;stroke-miterlimit:10;}
	.st1{fill:#C2C3C3;}
</style>
<g>
	<g>
		<path class="st0" d="M200.1,19.3c-0.2-1.6-1.5-6.4-7-6.4c-6.3,0-8.3,6.1-8.3,12s2,12,8.3,12c4.5,0,6.3-3.2,7.1-7.3h13.2
			c0,8.8-7.1,18.1-19.9,18.1c-14.1,0-22.1-9.9-22.1-22.8c0-13.8,8.6-22.9,22-22.9c12,0.1,18.5,6.3,19.7,17.3
			C213.1,19.3,200.1,19.3,200.1,19.3z"/>
		<path class="st0" d="M241.3,2c13.2,0,22.1,9.5,22.1,22.8s-8.8,22.8-22.1,22.8s-22.1-9.5-22.1-22.8S228,2,241.3,2z M241.3,36.8
			c3.4,0,8.7-2.3,8.7-12s-5.2-12-8.7-12s-8.7,2.3-8.7,12C232.6,34.6,237.9,36.8,241.3,36.8z"/>
		<path class="st0" d="M270.5,3.1h19.1l6.2,25.6h0.1l6.2-25.6h19.1v43.6h-12.7v-28h-0.1l-7.6,27.9h-10l-7.6-27.9h-0.1v27.9h-12.7
			V3.1H270.5z"/>
		<path class="st0" d="M329.6,3.1h19.1l6.2,25.6h0.1l6.2-25.6h19.1v43.6h-12.7v-28h-0.1L360,46.6h-10l-7.6-27.9h-0.1v27.9h-12.7
			L329.6,3.1L329.6,3.1z"/>
		<path class="st0" d="M428.3,29.8c0,12.1-6.5,17.9-19.8,17.9s-19.9-5.8-19.9-17.9V3.1H402v23.7c0,4.5,0,10,6.5,10
			c6.3,0,6.3-5.6,6.3-10V3.1h13.4v26.7C428.2,29.8,428.3,29.8,428.3,29.8z"/>
		<path class="st0" d="M436.7,3.1h13.7l12.7,23.3h0.1V3.1h12.7v43.6h-13.1l-13.4-23.8h-0.1v23.8h-12.7L436.7,3.1L436.7,3.1z"/>
		<path class="st0" d="M484.4,3.1h13.4v43.6h-13.4V3.1z"/>
		<path class="st0" d="M533.7,19.3c-0.2-1.6-1.5-6.4-7-6.4c-6.3,0-8.3,6.1-8.3,12s2,12,8.3,12c4.5,0,6.3-3.2,7.1-7.3H547
			c0,8.8-7.1,18.1-19.9,18.1c-14.1,0-22.1-9.9-22.1-22.8C505,11.1,513.6,2,527.1,2c12,0.1,18.5,6.3,19.7,17.3H533.7z"/>
		<path class="st0" d="M566.2,3.1h13.1l15.9,43.6h-13.9l-1.8-6.2h-13.8l-2,6.2h-13.5L566.2,3.1z M576.7,31.1l-3.9-13.4h-0.1
			l-4.2,13.4H576.7z"/>
		<path class="st0" d="M605.7,14.2h-12.2V3.1h37.8v11.2h-12.2v32.4h-13.4L605.7,14.2L605.7,14.2z"/>
		<path class="st0" d="M637.8,3.1h13.4v43.6h-13.4V3.1z"/>
		<path class="st0" d="M680.4,2c13.2,0,22.1,9.5,22.1,22.8s-8.8,22.8-22.1,22.8c-13.2,0-22.1-9.5-22.1-22.8S667.2,2,680.4,2z
			 M680.4,36.8c3.4,0,8.7-2.3,8.7-12s-5.2-12-8.7-12c-3.4,0-8.7,2.3-8.7,12C671.7,34.6,677,36.8,680.4,36.8z"/>
		<path class="st0" d="M709.7,3.1h13.7l12.7,23.3h0.1V3.1H749v43.6h-13.1l-13.4-23.8h-0.1v23.8h-12.7V3.1z"/>
	</g>
	<g>
		<path class="st1" d="M0.9,168.9c0.5-0.5,1-0.8,1.6-0.9c0.6-0.1,1.1,0,1.7,0.1c0.6,0.2,1.2,0.5,1.7,0.9c0.6,0.4,1.1,0.9,1.6,1.4
			s1,1,1.4,1.6s0.7,1.1,0.9,1.7c0.2,0.6,0.2,1.2,0.1,1.7S9.5,176.5,9,177s-1,0.8-1.6,0.9c-0.6,0.1-1.1,0-1.7-0.1s-1.2-0.5-1.7-0.9
			c-0.6-0.4-1.1-0.9-1.6-1.4s-1-1-1.4-1.6s-0.7-1.1-0.9-1.7s-0.1-1.2,0-1.8C0.2,169.9,0.4,169.4,0.9,168.9z M1.6,169.5
			c-0.3,0.3-0.5,0.7-0.5,1.2c0,0.4,0.1,0.9,0.3,1.4s0.5,0.9,0.8,1.4c0.4,0.5,0.7,0.9,1.1,1.3s0.8,0.8,1.3,1.1
			c0.5,0.4,0.9,0.6,1.4,0.8s0.9,0.3,1.3,0.3s0.8-0.2,1.2-0.5c0.3-0.3,0.5-0.7,0.5-1.2c0-0.4-0.1-0.9-0.3-1.3s-0.5-0.9-0.8-1.4
			s-0.7-0.9-1.1-1.3s-0.8-0.8-1.3-1.1c-0.5-0.4-0.9-0.6-1.4-0.8s-0.9-0.3-1.4-0.3C2.3,169,1.9,169.2,1.6,169.5z"/>
		<path class="st1" d="M21.5,164.2l-0.8,0.8l-6.8-6.8l-0.2,2.6l-1-0.1l0.4-3.6l0.7-0.7L21.5,164.2z"/>
		<path class="st1" d="M24.7,145.1c0.5-0.5,1-0.8,1.6-0.9c0.6-0.1,1.1,0,1.7,0.1c0.6,0.2,1.2,0.5,1.7,0.9c0.6,0.4,1.1,0.9,1.6,1.4
			s1,1,1.4,1.6s0.7,1.1,0.9,1.7c0.2,0.6,0.2,1.2,0.1,1.7s-0.4,1.1-0.9,1.6s-1,0.8-1.6,0.9c-0.6,0.1-1.1,0-1.7-0.1s-1.2-0.5-1.7-0.9
			c-0.6-0.4-1.1-0.9-1.6-1.4s-1-1-1.4-1.6s-0.7-1.1-0.9-1.7s-0.2-1.2-0.1-1.7S24.2,145.6,24.7,145.1z M25.4,145.8
			c-0.3,0.3-0.5,0.7-0.5,1.2s0.1,0.9,0.3,1.4c0.2,0.5,0.5,0.9,0.8,1.4c0.4,0.5,0.7,0.9,1.1,1.3s0.8,0.8,1.3,1.1
			c0.5,0.4,0.9,0.6,1.4,0.8s0.9,0.3,1.3,0.3s0.8-0.2,1.2-0.5c0.3-0.3,0.5-0.7,0.5-1.2c0-0.4-0.1-0.9-0.3-1.3s-0.5-0.9-0.8-1.4
			s-0.7-0.9-1.1-1.3c-0.4-0.4-0.8-0.8-1.3-1.1c-0.5-0.4-0.9-0.6-1.4-0.8s-0.9-0.3-1.4-0.3C26.1,145.3,25.7,145.5,25.4,145.8z"/>
		<path class="st1" d="M45.3,140.5l-0.8,0.8l-6.8-6.8l-0.2,2.6l-1-0.1l0.4-3.6l0.7-0.7L45.3,140.5z"/>
		<path class="st1" d="M48.4,121.4c0.5-0.5,1-0.8,1.6-0.9s1.1,0,1.7,0.1c0.6,0.2,1.2,0.5,1.7,0.9s1.1,0.9,1.6,1.4s1,1,1.4,1.6
			s0.7,1.1,0.9,1.7s0.2,1.2,0.1,1.7s-0.4,1.1-0.9,1.6s-1,0.8-1.6,0.9c-0.6,0.1-1.1,0-1.7-0.1s-1.2-0.5-1.7-0.9s-1.1-0.9-1.6-1.4
			c-0.5-0.5-1-1-1.4-1.6s-0.7-1.1-0.9-1.7s-0.2-1.2-0.2-1.7C47.6,122.4,47.9,121.9,48.4,121.4z M49.1,122c-0.3,0.3-0.5,0.7-0.5,1.2
			c0,0.4,0.1,0.9,0.3,1.4s0.5,0.9,0.8,1.4c0.4,0.5,0.7,0.9,1.1,1.3s0.8,0.8,1.3,1.1c0.5,0.4,0.9,0.6,1.4,0.8s0.9,0.3,1.3,0.3
			s0.8-0.2,1.2-0.5c0.3-0.3,0.5-0.7,0.5-1.2c0-0.4-0.1-0.9-0.3-1.3c-0.2-0.5-0.5-0.9-0.8-1.4s-0.7-0.9-1.1-1.3
			c-0.4-0.4-0.8-0.8-1.3-1.1s-0.9-0.6-1.4-0.8c-0.5-0.2-0.9-0.3-1.4-0.3C49.8,121.5,49.4,121.7,49.1,122z"/>
		<path class="st1" d="M69,116.7l-0.8,0.8l-6.8-6.8l-0.2,2.6l-1-0.1l0.4-3.6l0.7-0.7L69,116.7z"/>
		<path class="st1" d="M72.2,97.6c0.5-0.5,1-0.8,1.6-0.9s1.1,0,1.7,0.1c0.6,0.2,1.2,0.5,1.7,0.9s1.1,0.9,1.6,1.4s1,1,1.4,1.6
			s0.7,1.1,0.9,1.7c0.2,0.6,0.2,1.2,0.1,1.7s-0.4,1.1-0.9,1.6s-1,0.8-1.6,0.9s-1.1,0-1.7-0.1s-1.2-0.5-1.7-0.9
			c-0.6-0.4-1.1-0.9-1.6-1.4s-1-1-1.4-1.6s-0.7-1.1-0.9-1.7s-0.2-1.2-0.1-1.7S71.7,98.1,72.2,97.6z M72.8,98.3
			c-0.3,0.3-0.5,0.7-0.5,1.2s0.1,0.9,0.3,1.4c0.2,0.5,0.5,0.9,0.8,1.4c0.4,0.5,0.7,0.9,1.1,1.3s0.8,0.8,1.3,1.1s0.9,0.6,1.4,0.8
			s0.9,0.3,1.3,0.3s0.8-0.2,1.2-0.5c0.3-0.3,0.5-0.7,0.5-1.2c0-0.4-0.1-0.9-0.3-1.3c-0.2-0.5-0.5-0.9-0.8-1.4s-0.7-0.9-1.1-1.3
			s-0.8-0.8-1.3-1.1c-0.5-0.4-0.9-0.6-1.4-0.8c-0.5-0.2-0.9-0.3-1.4-0.3C73.6,97.8,73.2,98,72.8,98.3z"/>
		<path class="st1" d="M92.8,93L92,93.8L85.2,87L85,89.6l-1-0.1l0.4-3.6l0.7-0.7L92.8,93z"/>
		<path class="st1" d="M95.9,73.9c0.5-0.5,1-0.8,1.6-0.9s1.1,0,1.7,0.1c0.6,0.2,1.2,0.5,1.7,0.9s1.1,0.9,1.6,1.4s1,1,1.4,1.6
			s0.7,1.1,0.9,1.7c0.2,0.6,0.2,1.2,0.1,1.7s-0.4,1.1-0.9,1.6s-1,0.8-1.6,0.9s-1.1,0-1.7-0.1s-1.2-0.5-1.7-0.9s-1-0.9-1.5-1.4
			s-1-1-1.4-1.6s-0.7-1.1-0.9-1.7S95,76,95,75.5C95.1,74.9,95.4,74.4,95.9,73.9z M96.6,74.6c-0.3,0.3-0.5,0.7-0.5,1.2
			c0,0.4,0.1,0.9,0.3,1.4c0.2,0.5,0.5,0.9,0.8,1.4c0.4,0.5,0.7,0.9,1.1,1.3s0.8,0.8,1.3,1.1s0.9,0.6,1.4,0.8
			c0.5,0.2,0.9,0.3,1.3,0.3s0.8-0.2,1.2-0.5c0.3-0.3,0.5-0.7,0.5-1.2c0-0.4-0.1-0.9-0.3-1.3c-0.2-0.5-0.5-0.9-0.8-1.4
			s-0.7-0.9-1.1-1.3s-0.8-0.8-1.3-1.1s-0.9-0.6-1.4-0.8c-0.5-0.2-0.9-0.3-1.4-0.3C97.3,74,96.9,74.2,96.6,74.6z"/>
		<path class="st1" d="M116.5,69.2l-0.8,0.8l-6.8-6.8l-0.2,2.6l-1-0.1l0.4-3.6l0.7-0.7L116.5,69.2z"/>
		<path class="st1" d="M119.7,50.1c0.5-0.5,1-0.8,1.6-0.9c0.6-0.1,1.1,0,1.7,0.1c0.6,0.2,1.2,0.5,1.7,0.9s1.1,0.9,1.6,1.4
			s1,1,1.4,1.6s0.7,1.1,0.9,1.7c0.2,0.6,0.2,1.2,0.1,1.7s-0.4,1.1-0.9,1.6c-0.5,0.5-1,0.8-1.6,0.9c-0.6,0.1-1.1,0-1.7-0.1
			c-0.6-0.2-1.2-0.5-1.7-0.9c-0.6-0.4-1.1-0.9-1.6-1.4s-1-1-1.4-1.6s-0.7-1.1-0.9-1.7c-0.2-0.6-0.2-1.2-0.1-1.7
			S119.2,50.6,119.7,50.1z M120.3,50.8c-0.3,0.3-0.5,0.7-0.5,1.2c0,0.4,0.1,0.9,0.3,1.4s0.5,0.9,0.8,1.4c0.4,0.5,0.7,0.9,1.1,1.3
			c0.4,0.4,0.8,0.8,1.3,1.1s0.9,0.6,1.4,0.8s0.9,0.3,1.3,0.3s0.8-0.2,1.2-0.5c0.3-0.3,0.5-0.7,0.5-1.2c0-0.4-0.1-0.9-0.3-1.3
			c-0.2-0.5-0.5-0.9-0.8-1.4s-0.7-0.9-1.1-1.3c-0.4-0.4-0.8-0.8-1.3-1.1c-0.5-0.4-0.9-0.6-1.4-0.8s-0.9-0.3-1.4-0.3
			C121.1,50.3,120.7,50.5,120.3,50.8z"/>
		<path class="st1" d="M140.3,45.5l-0.8,0.8l-6.8-6.8l-0.2,2.6l-1-0.1l0.4-3.6l0.7-0.7L140.3,45.5z"/>
	</g>
</g>
</svg>
