<?xml version="1.0" encoding="utf-8"?>
<!-- Generator: Adobe Illustrator 22.1.0, SVG Export Plug-In . SVG Version: 6.00 Build 0)  -->
<svg version="1.1" id="圖層_1" xmlns="http://www.w3.org/2000/svg" xmlns:xlink="http://www.w3.org/1999/xlink" x="0px" y="0px"
	 width="85px" height="65px" viewBox="0 0 85 65" style="enable-background:new 0 0 85 65;" xml:space="preserve">
<style type="text/css">
	.st0{fill:#A8AD00;}
</style>
<g>
	<path class="st0" d="M62.6,24.1c-0.2-0.3-0.6-0.5-1.1-0.5c-0.2,0-0.4,0-0.6,0l-0.8,0l-18.3,0c-8,0-16,0-24.1,0
		c-1.9,0-2.9-0.8-3.4-2.5c-0.3-1.1-0.8-2.3-1.2-3.4c-0.2-0.5-0.4-0.9-0.6-1.4c-0.3-0.9-0.8-1-1.4-1c0,0-1,0-1.5,0l-3.1,0
		c-0.8,0-1.7,0-2.5,0c-0.5,0-1.4,0.2-1.4,1.1c0,1,1,1.1,1.5,1.1c0.8,0,1.5,0,2.3,0c0.7,0,1.3,0,1.9-0.1c0.1,0,0.2,0,0.3,0
		c1.7,0,2.4,1.2,2.7,2.1c3.6,9.5,7.5,19.6,11.4,29.8c0.5,1.3,0.7,2.6-1,3.9c-1.9,1.5-2.5,4.1-1.5,6.4c0.9,2.1,2.9,3.4,5.2,3.4
		c0.2,0,0.4,0,0.7,0c2.3-0.2,4.4-2.1,4.8-4.5c0.1-0.6,0.1-1.3,0-2c0-0.4,0-0.8,0-1.2v-1.2h15.9l-0.1,1.3c0,0.3,0,0.5-0.1,0.8
		c0,0.4-0.1,0.8-0.1,1.1c0,2.4,1.4,4.5,3.6,5.4c0.6,0.2,1.3,0.4,2,0.4c1.7,0,3.2-0.7,4.3-2c1.5-1.9,1.8-3.8,0.8-5.9
		c-1-2.2-2.8-3.3-5.3-3.3c-3.3,0-6.6,0-9.9,0l-12.7,0c-3.2,0-4.1-0.9-4.3-4.3l-0.1-1.2l18.3,0c3.8,0,7.6,0,11.5,0c1.4,0,1.8-0.3,2-1
		l1.5-4.7c1.6-5.1,3.2-10.3,4.8-15.5C62.7,24.8,62.8,24.4,62.6,24.1z M51.9,54.2c0.1,0,0.2,0,0.3,0c1,0.1,2.8,0.6,3.1,3.2l0,0.2
		l0,0.2c-0.3,1.8-1.4,3-3.2,3.1c-0.1,0-0.1,0-0.2,0c-0.8,0-1.6-0.4-2.3-1c-0.6-0.7-1-1.5-1-2.4C48.6,55.6,50.1,54.2,51.9,54.2z
		 M44.9,25.9l-0.7,8.6H32.9l-0.7-8.6H44.9z M16.1,25.9h14.3l1,8.6H19.6c-0.2-0.2-0.4-0.4-0.5-0.7c-0.6-1.6-1.2-3.1-1.8-4.8
		L16.1,25.9z M25.1,54.2c0.1,0,0.2,0,0.3,0c1.8,0.2,3,1.4,3.1,3.3c0,0.8-0.3,1.7-0.9,2.3c-0.6,0.6-1.5,1-2.3,1c-0.1,0-0.2,0-0.3,0
		c-1.7-0.2-2.9-1.4-3-3.1l0-0.1l0-0.1C21.9,55.6,23.3,54.2,25.1,54.2z M24.3,43.9c-0.6,0-1.5-0.5-1.8-1.2c-0.6-1.4-1.1-2.8-1.7-4.3
		l-0.9-2.4h11.7l0.9,7.9l-4.1,0C27.1,43.9,25.7,43.9,24.3,43.9z M33.7,43.8L33,35.9h11l-0.7,7.8H33.7z M56.1,38.3
		c-0.4,1.4-0.8,2.7-1.3,4c-0.3,0.8-1.2,1.5-2,1.5c-1.3,0-2.6,0-3.9,0l-4.4,0l0.9-7.9h11.4l-0.3,0.9L56.1,38.3z M59,29
		c-0.5,1.6-1,3.2-1.5,4.8c-0.1,0.3-0.3,0.5-0.5,0.8H45.6l1-8.6H60L59,29z"/>
	<path class="st0" d="M66.3,18.1L66.3,18.1c-0.6-0.6-0.6-1.5,0-2.1L78.1,4.2c0.6-0.6,1.5-0.6,2.1,0l0,0c0.6,0.6,0.6,1.5,0,2.1
		L68.4,18.1C67.8,18.7,66.9,18.7,66.3,18.1z"/>
	<g>
		<path class="st0" d="M64.7,4L64.7,4c0,0.8,0.7,1.5,1.5,1.4L77.8,5c0.9,0,1.6,0.7,1.5,1.5l-0.4,11.6c0,0.8,0.6,1.5,1.4,1.5l0,0
			c0.8,0,1.5-0.6,1.5-1.4l0.5-14.8c0-0.9-0.7-1.6-1.5-1.5L66.1,2.5C65.3,2.5,64.6,3.2,64.7,4z"/>
	</g>
</g>
</svg>
