<?xml version="1.0" encoding="utf-8"?>
<!-- Generator: Adobe Illustrator 22.1.0, SVG Export Plug-In . SVG Version: 6.00 Build 0)  -->
<svg version="1.1" id="圖層_1" xmlns="http://www.w3.org/2000/svg" xmlns:xlink="http://www.w3.org/1999/xlink" x="0px" y="0px"
	 width="75px" height="60px" viewBox="0 0 75 60" style="enable-background:new 0 0 75 60;" xml:space="preserve">
<style type="text/css">
	.st0{fill:#666666;}
</style>
<g>
	<path class="st0" d="M74.5,11.4c-0.2-0.3-0.7-0.6-1.4-0.6c-0.3,0-0.5,0-0.8,0h-1H48.7c-9.9,0-19.8,0-29.7,0c-2.3,0-3.6-0.9-4.2-3
		c-0.4-1.4-1-2.8-1.5-4.2C13,3,12.7,2.4,12.5,1.8c-0.4-1.1-0.9-1.3-1.7-1.3c0,0-1.2,0-1.8,0H5.2c-1,0-2.1,0-3.1,0
		c-0.6,0-1.7,0.2-1.7,1.4s1.2,1.4,1.8,1.4c0.9,0,1.9,0.1,2.8,0.1s1.6,0,2.3-0.1c0.1,0,0.2,0,0.4,0c2.2,0,3,1.4,3.4,2.5
		c4.5,11.8,9.2,24.1,14.1,36.8c0.6,1.6,0.9,3.2-1.3,4.8c-2.4,1.8-3.1,5-1.9,7.9c1.1,2.6,3.5,4.2,6.4,4.2c0.3,0,0.5,0,0.8,0
		c2.9-0.3,5.4-2.6,5.9-5.5c0.1-0.7,0.1-1.6,0.1-2.4c0-0.5,0-0.9,0-1.4v-1.4h19.6l-0.1,1.6c0,0.3-0.1,0.7-0.1,0.9
		c-0.1,0.5-0.1,0.9-0.1,1.4c0,2.9,1.8,5.6,4.5,6.6c0.8,0.3,1.6,0.4,2.4,0.4c2.1,0,4-0.9,5.3-2.5c1.9-2.3,2.2-4.7,1-7.3
		c-1.3-2.7-3.4-4.1-6.6-4.1c-4.1,0-8.2,0-12.2,0H33.3c-4,0-5.1-1.1-5.4-5.4l-0.1-1.5h22.5c4.7,0,9.4,0,14.2,0c1.8,0,2.2-0.4,2.5-1.3
		l1.8-5.8c2-6.3,4-12.7,5.9-19.1C74.7,12.2,74.7,11.7,74.5,11.4z M61.2,48.5c0.1,0,0.2,0,0.3,0c1.3,0.1,3.4,0.7,3.8,3.9v0.2v0.2
		c-0.3,2.3-1.8,3.7-3.9,3.8c-0.1,0-0.2,0-0.2,0c-1,0-2-0.5-2.8-1.2c-0.8-0.8-1.2-1.9-1.2-2.9C57.2,50.3,59,48.5,61.2,48.5z
		 M52.6,13.7l-0.9,10.6H37.8l-0.9-10.6C36.9,13.7,52.6,13.7,52.6,13.7z M17.1,13.6h17.6L36,24.3H21.4c-0.3-0.2-0.5-0.5-0.6-0.8
		c-0.8-1.9-1.5-3.9-2.3-5.9L17.1,13.6z M28.2,48.5c0.1,0,0.2,0,0.4,0c2.3,0.2,3.7,1.7,3.8,4c0,1-0.4,2-1.1,2.8
		c-0.8,0.8-1.8,1.3-2.9,1.3c-0.1,0-0.3,0-0.4,0c-2.2-0.3-3.6-1.7-3.7-3.9v-0.1v-0.1C24.3,50.3,26,48.5,28.2,48.5z M27.3,35.8
		c-0.8,0-1.9-0.6-2.3-1.5c-0.7-1.8-1.4-3.5-2.1-5.4L21.8,26h14.4l1.2,9.8h-5C30.6,35.8,28.9,35.8,27.3,35.8z M38.8,35.7L37.9,26
		h13.6l-0.8,9.7H38.8z M66.5,29c-0.5,1.7-1,3.3-1.6,4.9c-0.3,1-1.5,1.9-2.5,1.9c-1.6,0-3.2,0.1-4.8,0.1h-5.4l1.2-9.8h14.1l-0.5,1
		L66.5,29z M70.1,17.4c-0.6,1.9-1.2,4-1.9,5.9c-0.1,0.3-0.3,0.7-0.6,0.9H53.5l1.3-10.6h16.5L70.1,17.4z"/>
</g>
</svg>
