<?xml version="1.0" encoding="utf-8"?>
<!-- Generator: Adobe Illustrator 22.1.0, SVG Export Plug-In . SVG Version: 6.00 Build 0)  -->
<svg version="1.1" id="圖層_1" xmlns="http://www.w3.org/2000/svg" xmlns:xlink="http://www.w3.org/1999/xlink" x="0px" y="0px"
	 width="45px" height="45px" viewBox="0 0 45 45" style="enable-background:new 0 0 45 45;" xml:space="preserve">
<style type="text/css">
	.st0{fill:#FFFFFF;}
</style>
<g>
	<path class="st0" d="M31.7,30.9L31.7,30.9c-0.7,0.7-1.7,0.9-2.3,0.3L13,14.7c-0.5-0.5-0.4-1.5,0.3-2.3l0,0c0.7-0.7,1.7-0.9,2.3-0.3
		L32,28.6C32.6,29.1,32.4,30.1,31.7,30.9z"/>
	<path class="st0" d="M31.7,13.1L31.7,13.1c0.7,0.7,0.9,1.7,0.3,2.3L15.6,31.9c-0.5,0.5-1.5,0.4-2.3-0.3l0,0
		c-0.7-0.7-0.9-1.7-0.3-2.3l16.5-16.5C30,12.3,31,12.4,31.7,13.1z"/>
</g>
</svg>
