<?xml version="1.0" encoding="utf-8"?>
<!-- Generator: Adobe Illustrator 22.1.0, SVG Export Plug-In . SVG Version: 6.00 Build 0)  -->
<svg version="1.1" id="圖層_1" xmlns="http://www.w3.org/2000/svg" xmlns:xlink="http://www.w3.org/1999/xlink" x="0px" y="0px"
	 width="405px" height="75px" viewBox="0 0 405 75" style="enable-background:new 0 0 405 75;" xml:space="preserve">
<style type="text/css">
	.st0{fill:#7CCAD1;}
</style>
<g>
	<g>
		<path class="st0" d="M1.3,1.4h3.7v20.8H1.3V1.4z"/>
		<path class="st0" d="M10,6.5h3.6v2.4c1-1.4,2.4-2.7,4.8-2.7c2.3,0,3.8,1.1,4.7,2.8c1.3-1.7,2.9-2.8,5.3-2.8c3.4,0,5.5,2.2,5.5,6
			v10h-3.6v-8.9c0-2.5-1.2-3.8-3.2-3.8c-2,0-3.4,1.4-3.4,3.9v8.9h-3.6v-9c0-2.4-1.2-3.8-3.2-3.8c-2,0-3.4,1.5-3.4,3.9v8.8H10V6.5z"
			/>
		<path class="st0" d="M38.1,6.5h3.6v2.4c1-1.4,2.4-2.7,4.8-2.7c2.3,0,3.8,1.1,4.7,2.8c1.3-1.7,2.9-2.8,5.3-2.8c3.4,0,5.5,2.2,5.5,6
			v10h-3.6v-8.9c0-2.5-1.2-3.8-3.2-3.8c-2,0-3.4,1.4-3.4,3.9v8.9h-3.6v-9c0-2.4-1.2-3.8-3.2-3.8c-2,0-3.4,1.5-3.4,3.9v8.8h-3.6V6.5z
			"/>
		<path class="st0" d="M65.3,14.4L65.3,14.4c0-4.6,3.2-8.2,7.7-8.2c5,0,7.5,3.9,7.5,8.4c0,0.3,0,0.7-0.1,1H68.9c0.4,2.6,2.2,4,4.5,4
			c1.8,0,3-0.7,4.3-1.9l2.1,1.9c-1.5,1.8-3.5,2.9-6.4,2.9C68.8,22.6,65.3,19.3,65.3,14.4z M77,13.3c-0.2-2.3-1.6-4.1-4-4.1
			c-2.2,0-3.7,1.7-4.1,4.1H77z"/>
		<path class="st0" d="M84.1,6.5h3.6V9c1-1.5,2.5-2.8,4.9-2.8c3.5,0,5.6,2.4,5.6,6v10h-3.6v-8.9c0-2.4-1.2-3.8-3.4-3.8
			c-2.1,0-3.5,1.5-3.5,3.9v8.9h-3.6V6.5z"/>
		<path class="st0" d="M101.1,20.2l1.6-2.4c1.7,1.3,3.5,1.9,5.1,1.9c1.5,0,2.4-0.7,2.4-1.7v-0.1c0-1.2-1.7-1.6-3.5-2.2
			c-2.3-0.7-4.9-1.6-4.9-4.6v-0.1c0-3,2.5-4.8,5.6-4.8c2,0,4.1,0.7,5.8,1.8l-1.4,2.6c-1.5-0.9-3.1-1.5-4.4-1.5
			c-1.4,0-2.2,0.7-2.2,1.6v0.1c0,1.1,1.7,1.6,3.5,2.2c2.3,0.7,4.9,1.8,4.9,4.6v0.1c0,3.3-2.6,4.9-5.8,4.9
			C105.5,22.5,103,21.7,101.1,20.2z"/>
		<path class="st0" d="M116.2,14.4L116.2,14.4c0-4.6,3.2-8.2,7.7-8.2c5,0,7.5,3.9,7.5,8.4c0,0.3,0,0.7-0.1,1h-11.5
			c0.4,2.6,2.2,4,4.5,4c1.8,0,3-0.7,4.3-1.9l2.1,1.9c-1.5,1.8-3.5,2.9-6.4,2.9C119.7,22.6,116.2,19.3,116.2,14.4z M127.8,13.3
			c-0.2-2.3-1.6-4.1-4-4.1c-2.2,0-3.7,1.7-4.1,4.1H127.8z"/>
		<path class="st0" d="M143.2,11.9L143.2,11.9c0-5.9,4.5-10.8,10.9-10.8c6.4,0,10.9,4.8,10.9,10.7v0.1c0,5.9-4.5,10.8-10.9,10.8
			C147.7,22.6,143.2,17.8,143.2,11.9z M161.2,11.9L161.2,11.9c0-4.1-2.9-7.5-7.1-7.5c-4.1,0-7,3.3-7,7.3v0.1c0,4,2.9,7.4,7.1,7.4
			C158.3,19.2,161.2,15.9,161.2,11.9z"/>
		<path class="st0" d="M178.5,22.2v-1.9c-1.1,1.3-2.7,2.3-5.1,2.3c-3,0-5.6-1.7-5.6-4.8v-0.1c0-3.5,2.7-5.1,6.4-5.1
			c1.9,0,3.1,0.3,4.3,0.7v-0.3c0-2.2-1.4-3.4-3.9-3.4c-1.8,0-3.1,0.4-4.5,1l-1-2.9c1.7-0.8,3.4-1.3,6-1.3c4.6,0,6.9,2.4,6.9,6.6v9.3
			H178.5z M178.6,15.7c-0.9-0.4-2.2-0.6-3.6-0.6c-2.3,0-3.6,0.9-3.6,2.4v0.1c0,1.5,1.3,2.3,3,2.3c2.4,0,4.2-1.3,4.2-3.3V15.7z"/>
		<path class="st0" d="M186.2,0.5h3.6v13l6.5-7h4.4l-6.2,6.4l6.5,9.3h-4.2l-4.7-6.8l-2.2,2.3v4.5h-3.6V0.5z"/>
		<path class="st0" d="M217.8,4.8h-6.6V1.4h16.9v3.4h-6.6v17.4h-3.7V4.8z"/>
		<path class="st0" d="M227.1,14.4L227.1,14.4c0-4.6,3.2-8.2,7.7-8.2c5,0,7.5,3.9,7.5,8.4c0,0.3,0,0.7-0.1,1h-11.5
			c0.4,2.6,2.2,4,4.5,4c1.8,0,3-0.7,4.3-1.9l2.1,1.9c-1.5,1.8-3.5,2.9-6.4,2.9C230.6,22.6,227.1,19.3,227.1,14.4z M238.8,13.3
			c-0.2-2.3-1.6-4.1-4-4.1c-2.2,0-3.7,1.7-4.1,4.1H238.8z"/>
		<path class="st0" d="M245,14.5L245,14.5c0-4.5,3.5-8.3,8.1-8.3c3,0,4.8,1.1,6.3,2.7l-2.2,2.4c-1.1-1.2-2.3-2-4.1-2
			c-2.6,0-4.5,2.3-4.5,5v0.1c0,2.8,1.9,5.1,4.7,5.1c1.7,0,2.9-0.8,4.1-2l2.2,2.1c-1.5,1.7-3.4,2.9-6.4,2.9
			C248.4,22.6,245,18.9,245,14.5z"/>
		<path class="st0" d="M262.7,0.5h3.6V9c1-1.5,2.5-2.8,4.9-2.8c3.5,0,5.6,2.4,5.6,6v10h-3.6v-8.9c0-2.4-1.2-3.8-3.4-3.8
			c-2.1,0-3.5,1.5-3.5,3.9v8.9h-3.6V0.5z"/>
		<path class="st0" d="M281,6.5h3.6V9c1-1.5,2.5-2.8,4.9-2.8c3.5,0,5.6,2.4,5.6,6v10h-3.6v-8.9c0-2.4-1.2-3.8-3.4-3.8
			c-2.1,0-3.5,1.5-3.5,3.9v8.9H281V6.5z"/>
		<path class="st0" d="M298.4,14.5L298.4,14.5c0-4.6,3.6-8.3,8.4-8.3c4.8,0,8.4,3.7,8.4,8.1v0.1c0,4.5-3.6,8.2-8.4,8.2
			C302,22.6,298.4,18.9,298.4,14.5z M311.6,14.5L311.6,14.5c0-2.8-2-5.1-4.8-5.1c-2.9,0-4.7,2.3-4.7,5v0.1c0,2.7,2,5.1,4.8,5.1
			C309.7,19.5,311.6,17.2,311.6,14.5z"/>
		<path class="st0" d="M318.9,0.5h3.6v21.7h-3.6V0.5z"/>
		<path class="st0" d="M326.2,14.5L326.2,14.5c0-4.6,3.6-8.3,8.4-8.3c4.8,0,8.4,3.7,8.4,8.1v0.1c0,4.5-3.6,8.2-8.4,8.2
			C329.8,22.6,326.2,18.9,326.2,14.5z M339.4,14.5L339.4,14.5c0-2.8-2-5.1-4.8-5.1c-2.9,0-4.7,2.3-4.7,5v0.1c0,2.7,2,5.1,4.8,5.1
			C337.5,19.5,339.4,17.2,339.4,14.5z"/>
		<path class="st0" d="M346.5,25.2l1.3-2.7c1.7,1,3.5,1.7,5.6,1.7c3.2,0,5-1.7,5-4.8v-1.2c-1.3,1.7-2.9,2.9-5.5,2.9
			c-3.7,0-7.1-2.7-7.1-7.3v-0.1c0-4.6,3.5-7.4,7.1-7.4c2.6,0,4.3,1.2,5.5,2.7V6.5h3.6V19c0,2.6-0.7,4.6-2,5.9
			c-1.4,1.4-3.6,2.1-6.5,2.1C350.9,27.1,348.5,26.4,346.5,25.2z M358.4,13.6L358.4,13.6c0-2.6-2.1-4.4-4.6-4.4
			c-2.5,0-4.5,1.7-4.5,4.3v0.1c0,2.6,2,4.3,4.5,4.3C356.3,18,358.4,16.2,358.4,13.6z"/>
		<path class="st0" d="M366.4,0.7h3.9v3.4h-3.9V0.7z M366.5,6.5h3.6v15.7h-3.6V6.5z"/>
		<path class="st0" d="M373.8,14.4L373.8,14.4c0-4.6,3.2-8.2,7.7-8.2c5,0,7.5,3.9,7.5,8.4c0,0.3,0,0.7-0.1,1h-11.5
			c0.4,2.6,2.2,4,4.5,4c1.8,0,3-0.7,4.3-1.9l2.1,1.9c-1.5,1.8-3.5,2.9-6.4,2.9C377.3,22.6,373.8,19.3,373.8,14.4z M385.4,13.3
			c-0.2-2.3-1.6-4.1-4-4.1c-2.2,0-3.7,1.7-4.1,4.1H385.4z"/>
		<path class="st0" d="M391.2,20.2l1.6-2.4c1.7,1.3,3.5,1.9,5.1,1.9c1.5,0,2.4-0.7,2.4-1.7v-0.1c0-1.2-1.7-1.6-3.5-2.2
			c-2.3-0.7-4.9-1.6-4.9-4.6v-0.1c0-3,2.5-4.8,5.6-4.8c2,0,4.1,0.7,5.8,1.8l-1.4,2.6c-1.5-0.9-3.1-1.5-4.4-1.5
			c-1.4,0-2.2,0.7-2.2,1.6v0.1c0,1.1,1.7,1.6,3.5,2.2c2.3,0.7,4.9,1.8,4.9,4.6v0.1c0,3.3-2.6,4.9-5.8,4.9
			C395.7,22.5,393.2,21.7,391.2,20.2z"/>
	</g>
	<g>
		<path class="st0" d="M4.2,74.4V58.8l-2.9,0v-1.9h2.9v-6.5l2,0v6.4l2.7,0l0,1.9H6.2v15.7H4.2z M17.3,63.5v2l-2,0v-2h-4v2.6h-2V55.4
			h6v-1.1H7.7v-2h7.5v-2.3h2v2.2l2.7,0c-0.2-0.3-0.7-0.6-1.6-1l1.5-1.2c1.2,0.5,2,1.2,2.4,2.2h2.5v1.9h-7.5v1.1h6.2v8.4
			c0,1.4-0.5,2-1.5,2v0.9h3.4v2h-3.4v3.4c0,0.6-0.2,1.1-0.5,1.5C21,74,20.5,74.2,20,74.2l-3.1,0l-0.7-2c1.1,0,1.9,0,2.4,0
			c0.6,0,0.9,0,1.1-0.2s0.2-0.3,0.2-0.6v-2.7H7.6v-1.9h12.2V66l-1.1,0l-0.6-1.9l2.7,0c0.3,0.1,0.5-0.1,0.5-0.6H17.3z M16.1,71.7
			l-1.4,1.5c-0.9-1.2-2.2-2-3.9-2.6l1.4-1.5C13.6,69.5,14.9,70.4,16.1,71.7z M11.3,58.5h4v-1.1h-4V58.5z M15.3,60.5h-4v1.1h4V60.5z
			 M21.4,58.5v-1.1h-4.2v1.1H21.4z M21.4,60.5h-4.2v1.1h4.2V60.5z"/>
		<path class="st0" d="M45.1,73.8l-0.5-2c1.2,0.3,2.1,0.5,2.9,0.5c0.4,0,0.6-0.1,0.8-0.3c0.1-0.2,0.2-0.6,0.2-1.3
			c0-0.3,0-0.8-0.1-1.5c-2.1,1.7-4.9,3.1-8.3,4.1l-1.1-1.9c3.6-0.7,6.6-2.1,9-4.3c-0.1-0.4-0.2-0.7-0.3-1c-2,1.5-4.5,2.6-7.3,3.3
			l-1.1-1.8c3-0.6,5.5-1.5,7.4-3c-0.2-0.3-0.5-0.5-0.8-0.7c-1.7,0.8-3.4,1.3-5.1,1.7l-0.5-0.8L39.8,65c-0.4-1.3-0.9-2.5-1.7-3.4
			v12.7h-2V63.2c-0.8,1.8-1.8,3.3-3,4.5l-1.6-1.2c2.4-2.5,3.9-5.5,4.5-9.1h-3.6v-2h3.7v-5.1h2v5.1h2.6v0.4c2.2-1.6,3.8-3.6,4.8-6.1
			l1.8,0.8c-0.3,0.7-0.5,1.2-0.7,1.6h5.7v1.7L51,55.6h3.4v5.7h-5c-0.6,0.5-1.1,1-1.7,1.4c0.7,0.4,1.2,1.1,1.7,1.9
			c1.5-0.6,2.9-1.6,4-2.9l1.4,1.3c-0.5,0.6-1.3,1.2-2.2,1.9c0.5,2.7,1.7,4.8,3.7,6.5l-1.4,1.5c-1.9-1.6-3.3-3.9-4-7l-1,0.4
			c0.4,1.4,0.6,2.9,0.6,4.5c0,2.2-0.9,3.3-2.8,3.3C47.1,74.1,46.2,74,45.1,73.8z M46.8,61.3h-5.6v-3.4c-0.1,0.1-0.3,0.2-0.8,0.5
			l-0.7-1h-1.6v2.3l0.6-0.2c1.3,1.4,2.2,2.7,2.7,3.9C43.7,62.9,45.5,62.2,46.8,61.3z M46.8,59.4v-1.9h-3.7v1.9H46.8z M43.9,55.6h4.8
			l1.1-1.6h-4.5C44.8,54.7,44.3,55.2,43.9,55.6z M52.4,57.6h-3.7v1.9h3.7V57.6z"/>
		<path class="st0" d="M67.8,74.3V63.7c-0.9,1.7-2.1,3.3-3.6,4.9l-1.8-1.2c2.4-2.2,4.2-5,5.3-8.3h-4l0-1.9h4v-3
			c-1.8,0.3-2.9,0.5-3.5,0.5l-1.1-2c3,0,6.1-0.8,9-2.3l1.2,1.6c-1.3,0.7-2.5,1.3-3.6,1.7v3.7h4v2h-4v1.9l0.7-0.5
			c1.7,1,3.1,2.4,4,4.2l-1.6,1.2c-0.8-1.6-1.8-2.8-3-3.6v12.1L67.8,74.3z M83.4,74.2h-2v-7.4l-8.3,2l-0.5-2l8.9-2.2V50.4l2,0v13.7
			l3.2-0.7l0.4,2l-3.6,0.9V74.2z M79.7,62.8l-1.5,1.6c-1.2-2-2.8-3.5-5-4.6l1.5-1.4C76.8,59.6,78.5,61,79.7,62.8z M80.3,56.4
			l-1.4,1.5c-1.1-1.6-2.9-3-5.2-4.3l1.3-1.4C77.2,53.3,79,54.7,80.3,56.4z"/>
		<path class="st0" d="M95.5,74.5l-1-2.2c0.7,0.2,1.3,0.2,2,0.2c0.9,0,1.3-0.2,1.3-0.7v-6.2l-3.2,1.2l-1.4-1.7l4.6-1.6v-5.9h-3.6
			l0-1.9h3.7v-5.2h2v5.2h2.8v2l-2.8,0v5.1l3-1.1v2l-3,1.1v7.6c0,0.6-0.2,1.1-0.5,1.5c-0.4,0.4-0.9,0.6-1.5,0.6H95.5z M102.6,74.3
			l-1.5-1.8c2.8-0.8,5.1-1.9,7-3.5c-1.3-1.4-2.5-3.5-3.5-6.2l-1.3,0l0-1.9h5.1v-4.5h-5.6v-2h5.6v-4.2h2v4.2h6.2v1.9h-6.2v4.4h4.7
			c-0.3,2.9-1.7,5.6-4.2,8.2c1.5,1.3,3.8,2.4,6.9,3.3l-1.3,1.8c-2.6-0.8-4.9-2-7-3.7C107.2,72.3,104.9,73.6,102.6,74.3z M112.6,62.8
			h-5.9c1,2.4,1.9,4,2.8,4.9C111.1,66.2,112.1,64.6,112.6,62.8z"/>
		<path class="st0" d="M133.6,59.6l-0.1,12.1c0,0.6-0.2,1.1-0.6,1.5c-0.4,0.4-0.9,0.5-1.6,0.5l-2.6,0l-0.8-2.1l2.8,0.1
			c0.5,0,0.7-0.2,0.7-0.7v-6.6l-2.7,1.8l-0.5-0.6c-0.1,3.4-0.9,6.3-2.5,8.8l-1.7-1.1c1.5-2.1,2.3-5.4,2.3-9.8v-12h7.3v8
			c2-0.8,2.9-2,2.9-3.5v-4.5h8.2v5.6c0,0.5,0.2,0.7,0.5,0.7h2.4v1.9l-3.2,0c-0.5,0-1-0.2-1.3-0.6c-0.3-0.4-0.5-1-0.5-1.7v-4h-4
			c0.1,1.8,0,3.1-0.3,4.1c-0.3,1-0.7,1.7-1.2,2.1c-0.5,0.5-1.3,1-2.5,1.7L133.6,59.6z M128.4,56.3l-0.1,7.8c0.6-0.3,1.7-1,3.2-2
			v-8.7l-3.2,0v2l1.3-0.5c1,1.4,1.6,3.2,1.9,5.3l-1.9,0.7C129.5,59.4,129.1,57.8,128.4,56.3z M134.4,74.1l-0.8-1.8
			c2.3-0.8,4.2-1.9,5.7-3.3c-1.2-1.5-2.1-3.6-2.7-6.1h-1.2v-2h9.8c-0.4,3.2-1.4,5.9-3.2,8.1c1.7,1.7,3.7,2.8,6,3.4l-1.2,1.8
			c-2.1-0.5-4.2-1.8-6.1-3.7C138.5,72.3,136.3,73.5,134.4,74.1z M142.9,62.9h-4.3c0.6,1.8,1.4,3.4,2.3,4.8
			C141.9,66.1,142.6,64.5,142.9,62.9z"/>
		<path class="st0" d="M179,60.4l-1.7,1.4c-0.7-0.4-1.4-1-2-1.7c-0.1,3-0.2,5.6-0.5,7.8c-0.2,2.2-0.6,3.7-1,4.6s-1.2,1.3-2.4,1.3
			c-0.9,0-2-0.2-3.2-0.5l-0.6-2.3c1.5,0.5,2.8,0.8,3.8,0.8c0.3,0,0.6-0.2,0.7-0.7c0.1-0.4,0.3-1.5,0.6-3.1c0.3-1.6,0.4-3.7,0.5-6.2
			h-3.6c-0.3,6.6-2.6,10.8-7.1,12.6l-1.5-1.6c4.3-1.7,6.5-5.4,6.5-11.1H164V60c-0.6,0.7-1.3,1.4-2,2.1l-1.4-1.2v13.6h-2V60.6
			c-0.9,1-1.8,1.8-2.5,2.4l-1.8-1.2c3.2-2.6,5.6-6.5,7.1-11.6l1.9,0.9c-0.3,1.2-0.9,2.5-1.6,4.1l-1.1,2.3v3.1
			c2.8-2.5,4.6-5.4,5.4-8.7l1.6,0.9c-0.6,2.6-1.8,4.9-3.4,6.9H175c-1.4-1.6-2.5-3.7-3.3-6.2h-4l0-1.9h5.6
			C174.4,56,176.3,58.9,179,60.4z"/>
		<path class="st0" d="M187.1,66.4l-1.9-1.2c3.7-3.3,6.2-6.5,7.3-9.7h-5.6v-2h6.4c0.2-0.5,0.6-1.8,1-3.8l2.1,0.5
			c-0.2,0.8-0.5,1.9-0.9,3.3h13.7v2h-14.5c-0.4,1.2-0.7,2-1,2.5h12.2v13.8c0,0.4-0.2,0.7-0.4,1c-0.2,0.3-0.5,0.5-0.8,0.6
			c-0.3,0.1-0.8,0.2-1.6,0.2h-2.2c-0.4-0.9-0.7-1.6-0.9-2.1c0.7,0.1,1.8,0.1,3.4,0.1c0.3,0,0.5-0.2,0.5-0.5v-2.7h-10.2v5.7h-2.1
			V61.4C191.1,62.2,189.6,63.9,187.1,66.4z M193.7,64.2v2.4h10.2v-2.4H193.7z M203.8,60h-10.1v2.2h10.1V60z"/>
		<path class="st0" d="M222.9,53.2l-2.3,5.7c1.7,1.6,2.6,3.3,2.6,5c0,1.2-0.3,2.2-1,3c-0.7,0.7-1.5,1.1-2.6,1.1
			c-0.4,0-0.8,0-1.4-0.1l-0.5-2.2c0.9,0.2,1.5,0.3,1.9,0.3c1,0,1.6-0.6,1.6-1.8c0-1.6-0.9-3.2-2.8-4.9c1.2-2.8,2-4.8,2.4-6h-3.4v21
			l-2,0.1v-23h7.6V53.2z M237.7,72.4l-1.2,1.7c-1.9-0.7-3.6-2.1-5.1-4c-1.5-2-2.4-4.4-2.6-7.2l-2.8,0V71c0.7-0.3,2.1-0.9,4.2-1.7v2
			l-5.8,2.5c-1.1-0.8-1.7-1.3-1.7-1.4c0.9-0.4,1.3-1.1,1.3-1.9V51.3h11.4v11.6h-4.5c0.2,1.6,0.5,2.9,1.1,3.9l3.9-3.4l1.5,1.4
			c-1,1-2.5,2.2-4.6,3.7C233.8,70.2,235.4,71.5,237.7,72.4z M226,53.3V56h7.3v-2.8H226z M233.3,60.9l0.1-2.9H226v3L233.3,60.9z"/>
		<path class="st0" d="M250.2,54l1.7,1.1c-0.9,3.2-3.1,6-6.4,8.4l-1.6-1.6C247.1,59.8,249.2,57.2,250.2,54z M264.6,72.7l-2,0.9
			c-0.3-0.9-0.7-1.9-1.2-3l-7.8,1.2c-2.7,0.4-4.4,0.8-5.3,1l-1.4-2c3.4-3,5.6-7,6.6-12l2.1,0.7c-0.5,3.7-2.3,7.3-5.5,10.8
			c6.2-0.9,9.7-1.4,10.5-1.5c-0.7-1.2-1.7-2.3-2.9-3.4l2-0.9C261.9,66.6,263.5,69.4,264.6,72.7z M266.5,62l-1.5,1.6
			c-3.1-1.8-5.4-5.1-6.9-9.9h-7v-2h8.7C261.1,56.6,263.3,60,266.5,62z"/>
		<path class="st0" d="M290,56l0,2h-17.4l0-2H290z M288.2,74.2l-0.7-2.3c1,0.1,1.8,0.2,2.5,0.2c0.7,0,1.1-0.1,1.2-0.2
			c0.2-0.1,0.2-0.3,0.2-0.5V53.3H274v-2h19.6v20.7c0,0.5-0.2,1-0.5,1.4c-0.3,0.4-0.6,0.6-1,0.7C291.8,74.1,290.5,74.1,288.2,74.2z
			 M287.2,70.6H285v-1.9h-7.2v1.9h-2.1v-10h11.5V70.6z M285,66.7v-4h-7.2v4H285z"/>
	</g>
</g>
</svg>
