<?xml version="1.0" encoding="utf-8"?>
<!-- Generator: Adobe Illustrator 22.1.0, SVG Export Plug-In . SVG Version: 6.00 Build 0)  -->
<svg version="1.1" id="圖層_1" xmlns="http://www.w3.org/2000/svg" xmlns:xlink="http://www.w3.org/1999/xlink" x="0px" y="0px"
	 width="225px" height="20px" viewBox="0 0 225 20" style="enable-background:new 0 0 225 20;" xml:space="preserve">
<style type="text/css">
	.st0{fill:#A1A1A1;}
</style>
<g>
	<g>
		<path class="st0" d="M13.2,7.4c0,0.8-0.1,1.4-0.4,2c-0.3,0.5-0.7,1-1.2,1.3c-0.5,0.3-1.1,0.6-1.7,0.7c-0.6,0.2-1.3,0.2-2,0.2H6.2
			v5.1H3V3.3h4.9c0.7,0,1.4,0.1,2.1,0.2s1.2,0.4,1.7,0.7s0.8,0.7,1.1,1.3C13.1,6,13.2,6.6,13.2,7.4z M9.9,7.4c0-0.3-0.1-0.6-0.2-0.8
			C9.6,6.5,9.5,6.3,9.2,6.2C9,6.1,8.8,6,8.5,6C8.2,5.9,8,5.9,7.7,5.9H6.2v3.2h1.4c0.3,0,0.6,0,0.9-0.1c0.3,0,0.5-0.1,0.8-0.3
			c0.2-0.1,0.4-0.3,0.5-0.5S9.9,7.8,9.9,7.4z"/>
		<path class="st0" d="M26.2,16.7l-2.9-5.3h-1.1v5.3H19V3.3h5.1c0.6,0,1.3,0.1,1.9,0.2c0.6,0.1,1.2,0.4,1.7,0.7
			c0.5,0.3,0.9,0.7,1.2,1.3c0.3,0.5,0.4,1.2,0.4,1.9c0,0.9-0.2,1.7-0.7,2.3c-0.5,0.6-1.2,1.1-2.1,1.3l3.5,5.8H26.2z M26,7.4
			c0-0.3-0.1-0.6-0.2-0.8s-0.3-0.3-0.5-0.5C25.1,6.1,24.9,6,24.6,6c-0.3,0-0.5-0.1-0.8-0.1h-1.7V9h1.5c0.3,0,0.5,0,0.8-0.1
			c0.3,0,0.5-0.1,0.8-0.2c0.2-0.1,0.4-0.3,0.6-0.5C25.9,8,26,7.7,26,7.4z"/>
		<path class="st0" d="M49.4,9.9c0,1.1-0.2,2-0.6,2.9c-0.4,0.9-0.9,1.6-1.5,2.3c-0.7,0.6-1.4,1.1-2.3,1.5c-0.9,0.3-1.9,0.5-2.9,0.5
			c-1.1,0-2-0.2-2.9-0.5c-0.9-0.3-1.7-0.8-2.3-1.5c-0.7-0.6-1.2-1.4-1.5-2.3c-0.4-0.9-0.6-1.9-0.6-2.9c0-1.1,0.2-2,0.6-2.9
			c0.4-0.9,0.9-1.6,1.5-2.2c0.7-0.6,1.4-1.1,2.3-1.4C40,3.1,41,2.9,42,2.9c1.1,0,2,0.2,2.9,0.5c0.9,0.3,1.7,0.8,2.3,1.4
			c0.7,0.6,1.2,1.3,1.5,2.2C49.2,7.9,49.4,8.9,49.4,9.9z M45.9,9.9c0-0.6-0.1-1.1-0.3-1.6S45.2,7.4,44.8,7c-0.3-0.4-0.7-0.6-1.2-0.9
			c-0.5-0.2-1-0.3-1.6-0.3c-0.6,0-1.1,0.1-1.6,0.3C40,6.4,39.6,6.6,39.3,7c-0.3,0.4-0.6,0.8-0.8,1.3c-0.2,0.5-0.3,1.1-0.3,1.6
			c0,0.6,0.1,1.2,0.3,1.7s0.5,1,0.8,1.3c0.3,0.4,0.7,0.7,1.2,0.9c0.5,0.2,1,0.3,1.6,0.3c0.6,0,1.1-0.1,1.6-0.3
			c0.5-0.2,0.9-0.5,1.2-0.9c0.3-0.4,0.6-0.8,0.8-1.3S45.9,10.6,45.9,9.9z"/>
		<path class="st0" d="M67.9,10c0,1.2-0.2,2.2-0.7,3c-0.4,0.9-1,1.6-1.7,2.1s-1.5,1-2.4,1.2s-1.8,0.4-2.7,0.4h-5V3.3h4.9
			c1,0,1.9,0.1,2.8,0.3c0.9,0.2,1.7,0.6,2.5,1.1s1.3,1.2,1.7,2.1S67.9,8.7,67.9,10z M64.5,10c0-0.8-0.1-1.4-0.4-1.9
			c-0.2-0.5-0.6-0.9-1-1.2c-0.4-0.3-0.9-0.5-1.4-0.6C61.2,6.1,60.7,6,60.1,6h-1.6v7.9H60c0.6,0,1.1-0.1,1.7-0.2s1-0.4,1.4-0.7
			c0.4-0.3,0.7-0.7,1-1.2C64.4,11.3,64.5,10.7,64.5,10z"/>
		<path class="st0" d="M84.8,13.9c-0.3,0.7-0.7,1.2-1.2,1.7s-1.1,0.8-1.8,1.1c-0.7,0.3-1.5,0.4-2.4,0.4c-0.9,0-1.7-0.1-2.4-0.4
			s-1.3-0.6-1.8-1.1s-0.9-1-1.1-1.7c-0.3-0.7-0.4-1.4-0.4-2.2V3.3h3.2v8.1c0,0.4,0,0.7,0.1,1c0.1,0.3,0.2,0.6,0.4,0.9
			s0.5,0.5,0.8,0.6s0.7,0.2,1.2,0.2s0.8-0.1,1.2-0.2c0.3-0.2,0.6-0.4,0.8-0.6s0.3-0.6,0.4-0.9c0.1-0.3,0.1-0.7,0.1-1V3.3h3.2v8.4
			C85.2,12.5,85.1,13.2,84.8,13.9z"/>
		<path class="st0" d="M101.3,16.5c-0.9,0.4-1.9,0.6-3,0.6c-1,0-2-0.2-2.9-0.5c-0.9-0.3-1.6-0.8-2.3-1.5c-0.6-0.6-1.2-1.4-1.5-2.3
			S91,11,91,10c0-1.1,0.2-2.1,0.6-2.9c0.4-0.9,0.9-1.6,1.5-2.2c0.7-0.6,1.4-1.1,2.3-1.4c0.9-0.3,1.8-0.5,2.9-0.5
			c1,0,1.9,0.2,2.8,0.5c0.9,0.3,1.7,0.8,2.2,1.5l-2.2,2.2c-0.3-0.4-0.7-0.7-1.2-0.9c-0.5-0.2-1-0.3-1.5-0.3c-0.6,0-1.1,0.1-1.6,0.3
			C96.4,6.4,96,6.7,95.6,7c-0.3,0.4-0.6,0.8-0.8,1.3c-0.2,0.5-0.3,1-0.3,1.6c0,0.6,0.1,1.2,0.3,1.7c0.2,0.5,0.5,0.9,0.8,1.3
			c0.3,0.4,0.7,0.6,1.2,0.8c0.5,0.2,1,0.3,1.5,0.3c0.6,0,1.2-0.1,1.7-0.4c0.5-0.3,0.9-0.6,1.2-1l2.3,2.1
			C102.9,15.5,102.2,16.1,101.3,16.5z"/>
		<path class="st0" d="M114.3,6v10.7h-3.2V6h-3.8V3.3h10.8V6H114.3z"/>
		<path class="st0" d="M150.2,7.4c0,0.8-0.1,1.4-0.4,2c-0.3,0.5-0.7,1-1.2,1.3c-0.5,0.3-1.1,0.6-1.7,0.7c-0.6,0.2-1.3,0.2-2,0.2
			h-1.6v5.1H140V3.3h4.9c0.7,0,1.4,0.1,2.1,0.2s1.2,0.4,1.7,0.7s0.8,0.7,1.1,1.3C150.1,6,150.2,6.6,150.2,7.4z M147,7.4
			c0-0.3-0.1-0.6-0.2-0.8c-0.1-0.2-0.3-0.4-0.5-0.5c-0.2-0.1-0.5-0.2-0.7-0.2c-0.3,0-0.6-0.1-0.8-0.1h-1.4v3.2h1.4
			c0.3,0,0.6,0,0.9-0.1c0.3,0,0.5-0.1,0.8-0.3c0.2-0.1,0.4-0.3,0.5-0.5C146.9,8,147,7.8,147,7.4z"/>
		<path class="st0" d="M164.5,16.7v-5.6h-5.2v5.6H156V3.3h3.2v5.1h5.2V3.3h3.2v13.5H164.5z"/>
		<path class="st0" d="M188.3,9.9c0,1.1-0.2,2-0.6,2.9c-0.4,0.9-0.9,1.6-1.5,2.3s-1.4,1.1-2.3,1.5c-0.9,0.3-1.9,0.5-2.9,0.5
			c-1.1,0-2-0.2-2.9-0.5c-0.9-0.3-1.7-0.8-2.3-1.5c-0.7-0.6-1.2-1.4-1.5-2.3c-0.4-0.9-0.6-1.9-0.6-2.9c0-1.1,0.2-2,0.6-2.9
			c0.4-0.9,0.9-1.6,1.5-2.2c0.7-0.6,1.4-1.1,2.3-1.4c0.9-0.3,1.9-0.5,2.9-0.5c1.1,0,2,0.2,2.9,0.5c0.9,0.3,1.7,0.8,2.3,1.4
			s1.2,1.3,1.5,2.2C188.2,7.9,188.3,8.9,188.3,9.9z M184.9,9.9c0-0.6-0.1-1.1-0.3-1.6c-0.2-0.5-0.5-0.9-0.8-1.3
			c-0.3-0.4-0.7-0.6-1.2-0.9c-0.5-0.2-1-0.3-1.6-0.3c-0.6,0-1.1,0.1-1.6,0.3s-0.9,0.5-1.2,0.9c-0.3,0.4-0.6,0.8-0.8,1.3
			c-0.2,0.5-0.3,1.1-0.3,1.6c0,0.6,0.1,1.2,0.3,1.7c0.2,0.5,0.5,1,0.8,1.3c0.3,0.4,0.7,0.7,1.2,0.9c0.5,0.2,1,0.3,1.6,0.3
			c0.6,0,1.1-0.1,1.6-0.3c0.5-0.2,0.9-0.5,1.2-0.9c0.3-0.4,0.6-0.8,0.8-1.3C184.8,11.1,184.9,10.6,184.9,9.9z"/>
		<path class="st0" d="M199.5,6v10.7h-3.2V6h-3.8V3.3h10.8V6H199.5z"/>
		<path class="st0" d="M222,9.9c0,1.1-0.2,2-0.6,2.9c-0.4,0.9-0.9,1.6-1.5,2.3s-1.4,1.1-2.3,1.5c-0.9,0.3-1.9,0.5-2.9,0.5
			s-2-0.2-2.9-0.5c-0.9-0.3-1.7-0.8-2.3-1.5s-1.2-1.4-1.5-2.3c-0.4-0.9-0.6-1.9-0.6-2.9c0-1.1,0.2-2,0.6-2.9
			c0.4-0.9,0.9-1.6,1.5-2.2s1.4-1.1,2.3-1.4c0.9-0.3,1.9-0.5,2.9-0.5s2,0.2,2.9,0.5c0.9,0.3,1.7,0.8,2.3,1.4s1.2,1.3,1.5,2.2
			C221.8,7.9,222,8.9,222,9.9z M218.5,9.9c0-0.6-0.1-1.1-0.3-1.6s-0.5-0.9-0.8-1.3c-0.3-0.4-0.7-0.6-1.2-0.9c-0.5-0.2-1-0.3-1.6-0.3
			c-0.6,0-1.1,0.1-1.6,0.3s-0.9,0.5-1.2,0.9c-0.3,0.4-0.6,0.8-0.8,1.3s-0.3,1.1-0.3,1.6c0,0.6,0.1,1.2,0.3,1.7s0.5,1,0.8,1.3
			c0.3,0.4,0.7,0.7,1.2,0.9c0.5,0.2,1,0.3,1.6,0.3c0.6,0,1.1-0.1,1.6-0.3c0.5-0.2,0.9-0.5,1.2-0.9c0.3-0.4,0.6-0.8,0.8-1.3
			S218.5,10.6,218.5,9.9z"/>
	</g>
</g>
</svg>
