<?xml version="1.0" encoding="utf-8"?>
<!-- Generator: Adobe Illustrator 22.1.0, SVG Export Plug-In . SVG Version: 6.00 Build 0)  -->
<svg version="1.1" id="圖層_1" xmlns="http://www.w3.org/2000/svg" xmlns:xlink="http://www.w3.org/1999/xlink" x="0px" y="0px"
	 width="280px" height="20px" viewBox="0 0 280 20" style="enable-background:new 0 0 280 20;" xml:space="preserve">
<style type="text/css">
	.st0{fill:#003B87;}
</style>
<g>
	<g>
		<path class="st0" d="M17,13.6c0,0.9-0.2,1.7-0.6,2.3c-0.4,0.6-0.9,1.1-1.5,1.5c-0.6,0.4-1.3,0.7-2.1,0.8c-0.8,0.2-1.6,0.3-2.4,0.3
			H3.7v-17h6.8c0.7,0,1.3,0.1,2,0.2c0.7,0.1,1.3,0.4,1.9,0.7c0.6,0.3,1,0.8,1.4,1.3c0.4,0.6,0.5,1.3,0.5,2.1c0,0.9-0.3,1.7-0.8,2.3
			c-0.5,0.6-1.2,1.1-2,1.3v0c0.5,0.1,0.9,0.2,1.4,0.4c0.4,0.2,0.8,0.5,1.1,0.8c0.3,0.3,0.6,0.7,0.7,1.2C16.9,12.5,17,13,17,13.6z
			 M12.3,6.4c0-0.6-0.2-1-0.7-1.3s-1.1-0.4-2-0.4h-2v3.5h2.2c0.8,0,1.4-0.2,1.8-0.5C12.1,7.5,12.3,7,12.3,6.4z M12.9,13.2
			c0-0.7-0.3-1.2-0.8-1.5c-0.5-0.3-1.2-0.4-2.1-0.4H7.7v3.9H10c0.3,0,0.7,0,1-0.1c0.3-0.1,0.7-0.2,0.9-0.3c0.3-0.1,0.5-0.3,0.7-0.6
			C12.8,13.9,12.9,13.6,12.9,13.2z"/>
		<path class="st0" d="M31.2,18.5l-3.7-6.7h-1.4v6.7h-4v-17h6.5c0.8,0,1.6,0.1,2.4,0.3c0.8,0.2,1.5,0.5,2.1,0.9
			c0.6,0.4,1.1,0.9,1.5,1.6c0.4,0.7,0.6,1.5,0.6,2.4c0,1.2-0.3,2.1-0.9,2.9c-0.6,0.8-1.5,1.3-2.6,1.7l4.4,7.3H31.2z M31,6.7
			c0-0.4-0.1-0.7-0.3-1s-0.4-0.4-0.7-0.6c-0.3-0.1-0.6-0.2-0.9-0.3s-0.6-0.1-1-0.1h-2.2v4h2c0.3,0,0.7,0,1-0.1
			c0.4-0.1,0.7-0.2,1-0.3s0.5-0.4,0.7-0.6C30.9,7.5,31,7.1,31,6.7z"/>
		<path class="st0" d="M40.4,18.5v-17h4.1v17H40.4z"/>
		<path class="st0" d="M50.4,18.5v-17h11.4V5h-7.5v3.2h7.1v3.3h-7.1V15h7.9v3.5H50.4z"/>
		<path class="st0" d="M71.5,5v3.5H78v3.4h-6.6v6.6h-4.1v-17h11.2V5H71.5z"/>
		<path class="st0" d="M107.9,10c0,1.5-0.3,2.8-0.8,3.9c-0.6,1.1-1.3,2-2.2,2.7c-0.9,0.7-1.9,1.2-3.1,1.5c-1.1,0.3-2.3,0.5-3.5,0.5
			H92v-17h6.1c1.2,0,2.4,0.1,3.6,0.4c1.2,0.3,2.2,0.7,3.1,1.4c0.9,0.6,1.6,1.5,2.2,2.6C107.6,7,107.9,8.4,107.9,10z M103.6,10
			c0-1-0.2-1.8-0.5-2.4c-0.3-0.6-0.7-1.1-1.2-1.5c-0.5-0.4-1.1-0.6-1.8-0.8C99.5,5.1,98.8,5,98.1,5h-2v9.9H98c0.7,0,1.4-0.1,2.1-0.3
			c0.7-0.2,1.3-0.4,1.8-0.8c0.5-0.4,0.9-0.9,1.2-1.5C103.5,11.7,103.6,10.9,103.6,10z"/>
		<path class="st0" d="M113,18.5v-17h11.4V5H117v3.2h7.1v3.3H117V15h7.9v3.5H113z"/>
		<path class="st0" d="M138.9,5.9c-0.4-0.4-0.8-0.8-1.4-1.1s-1.1-0.4-1.6-0.4c-0.3,0-0.5,0-0.8,0.1c-0.3,0-0.5,0.1-0.8,0.3
			c-0.2,0.1-0.4,0.3-0.6,0.5c-0.2,0.2-0.2,0.5-0.2,0.8c0,0.3,0.1,0.5,0.2,0.7c0.1,0.2,0.3,0.4,0.5,0.5c0.2,0.1,0.5,0.3,0.8,0.4
			c0.3,0.1,0.7,0.2,1.1,0.4c0.6,0.2,1.2,0.4,1.8,0.6s1.2,0.5,1.7,0.9c0.5,0.4,0.9,0.9,1.3,1.4s0.5,1.3,0.5,2.1c0,1-0.2,1.8-0.5,2.5
			c-0.4,0.7-0.8,1.3-1.5,1.8c-0.6,0.5-1.3,0.8-2.1,1c-0.8,0.2-1.6,0.3-2.4,0.3c-1.2,0-2.4-0.2-3.5-0.6c-1.1-0.4-2.1-1-2.8-1.8
			l2.7-2.7c0.4,0.5,1,0.9,1.6,1.3c0.7,0.3,1.4,0.5,2,0.5c0.3,0,0.6,0,0.9-0.1c0.3-0.1,0.5-0.2,0.8-0.3c0.2-0.1,0.4-0.3,0.5-0.6
			c0.1-0.2,0.2-0.5,0.2-0.9c0-0.3-0.1-0.6-0.2-0.8c-0.2-0.2-0.4-0.4-0.7-0.6c-0.3-0.2-0.7-0.4-1.1-0.5c-0.4-0.2-0.9-0.3-1.5-0.5
			c-0.5-0.2-1.1-0.4-1.6-0.6c-0.5-0.2-1-0.5-1.4-0.9c-0.4-0.4-0.7-0.8-1-1.4c-0.2-0.5-0.4-1.2-0.4-2c0-0.9,0.2-1.8,0.6-2.4
			c0.4-0.7,0.9-1.2,1.5-1.7c0.6-0.4,1.3-0.7,2.1-0.9c0.8-0.2,1.6-0.3,2.4-0.3c1,0,1.9,0.2,2.9,0.5c1,0.4,1.9,0.9,2.6,1.6L138.9,5.9z
			"/>
		<path class="st0" d="M158.7,18.2c-1.1,0.5-2.4,0.8-3.8,0.8c-1.3,0-2.5-0.2-3.6-0.6c-1.1-0.4-2.1-1-2.9-1.8
			c-0.8-0.8-1.5-1.7-1.9-2.8c-0.5-1.1-0.7-2.3-0.7-3.6c0-1.4,0.2-2.6,0.7-3.7c0.5-1.1,1.1-2,2-2.8c0.8-0.8,1.8-1.4,2.9-1.8
			c1.1-0.4,2.3-0.6,3.6-0.6c1.2,0,2.4,0.2,3.5,0.6c1.2,0.4,2.1,1,2.8,1.9l-2.8,2.8c-0.4-0.5-0.9-0.9-1.5-1.2
			c-0.6-0.3-1.3-0.4-1.9-0.4c-0.7,0-1.4,0.1-2,0.4s-1.1,0.6-1.5,1.1c-0.4,0.5-0.8,1-1,1.6c-0.2,0.6-0.4,1.3-0.4,2.1
			c0,0.8,0.1,1.5,0.4,2.1c0.2,0.6,0.6,1.2,1,1.6c0.4,0.5,0.9,0.8,1.5,1.1s1.2,0.4,1.9,0.4c0.8,0,1.5-0.2,2.1-0.5
			c0.6-0.3,1.1-0.7,1.5-1.2l2.9,2.7C160.8,17,159.8,17.7,158.7,18.2z"/>
		<path class="st0" d="M174.8,18.5l-3.7-6.7h-1.4v6.7h-4v-17h6.5c0.8,0,1.6,0.1,2.4,0.3c0.8,0.2,1.5,0.5,2.1,0.9
			c0.6,0.4,1.1,0.9,1.5,1.6c0.4,0.7,0.6,1.5,0.6,2.4c0,1.2-0.3,2.1-0.9,2.9c-0.6,0.8-1.5,1.3-2.6,1.7l4.4,7.3H174.8z M174.6,6.7
			c0-0.4-0.1-0.7-0.3-1s-0.4-0.4-0.7-0.6c-0.3-0.1-0.6-0.2-0.9-0.3s-0.6-0.1-1-0.1h-2.2v4h2c0.3,0,0.7,0,1-0.1
			c0.4-0.1,0.7-0.2,1-0.3s0.5-0.4,0.7-0.6C174.5,7.5,174.6,7.1,174.6,6.7z"/>
		<path class="st0" d="M184,18.5v-17h4.1v17H184z"/>
		<path class="st0" d="M206.9,6.7c0,1-0.2,1.8-0.6,2.5c-0.4,0.7-0.9,1.2-1.5,1.6s-1.3,0.7-2.2,0.9c-0.8,0.2-1.7,0.3-2.5,0.3h-2v6.4
			H194v-17h6.2c0.9,0,1.8,0.1,2.6,0.3s1.5,0.5,2.1,0.9c0.6,0.4,1.1,0.9,1.4,1.6C206.7,4.9,206.9,5.8,206.9,6.7z M202.8,6.8
			c0-0.4-0.1-0.7-0.2-1c-0.2-0.3-0.4-0.5-0.6-0.6c-0.3-0.1-0.6-0.2-0.9-0.3s-0.7-0.1-1.1-0.1h-1.8v4h1.7c0.4,0,0.8,0,1.1-0.1
			c0.4-0.1,0.7-0.2,0.9-0.3c0.3-0.2,0.5-0.4,0.7-0.6C202.7,7.5,202.8,7.2,202.8,6.8z"/>
		<path class="st0" d="M218.9,5v13.5h-4.1V5H210V1.5h13.7V5H218.9z"/>
		<path class="st0" d="M228,18.5v-17h4.1v17H228z"/>
		<path class="st0" d="M255.7,9.9c0,1.3-0.2,2.6-0.7,3.7c-0.5,1.1-1.1,2.1-1.9,2.9c-0.8,0.8-1.8,1.4-2.9,1.8
			c-1.1,0.4-2.4,0.6-3.7,0.6s-2.6-0.2-3.7-0.6c-1.1-0.4-2.1-1-2.9-1.8c-0.8-0.8-1.5-1.7-1.9-2.9c-0.5-1.1-0.7-2.3-0.7-3.7
			c0-1.4,0.2-2.6,0.7-3.7c0.5-1.1,1.1-2,1.9-2.8c0.8-0.8,1.8-1.4,2.9-1.8c1.1-0.4,2.4-0.6,3.7-0.6s2.6,0.2,3.7,0.6
			c1.1,0.4,2.1,1,2.9,1.8c0.8,0.8,1.5,1.7,1.9,2.8C255.5,7.3,255.7,8.6,255.7,9.9z M251.3,9.9c0-0.7-0.1-1.4-0.4-2.1s-0.6-1.2-1-1.6
			s-0.9-0.8-1.5-1.1c-0.6-0.3-1.3-0.4-2-0.4c-0.7,0-1.4,0.1-2,0.4c-0.6,0.3-1.1,0.6-1.5,1.1s-0.8,1-1,1.6s-0.3,1.3-0.3,2.1
			c0,0.8,0.1,1.5,0.4,2.1s0.6,1.2,1,1.7c0.4,0.5,0.9,0.8,1.5,1.1c0.6,0.3,1.2,0.4,2,0.4c0.7,0,1.4-0.1,2-0.4
			c0.6-0.3,1.1-0.6,1.5-1.1c0.4-0.5,0.8-1,1-1.7S251.3,10.7,251.3,9.9z"/>
		<path class="st0" d="M271.6,18.5l-6.8-11.1h-0.1l0.1,11.1h-4v-17h4.7l6.8,11.1h0.1l-0.1-11.1h4v17H271.6z"/>
	</g>
</g>
</svg>
