<?xml version="1.0" encoding="UTF-8" standalone="no"?>
<svg
   xmlns:dc="http://purl.org/dc/elements/1.1/"
   xmlns:cc="http://creativecommons.org/ns#"
   xmlns:rdf="http://www.w3.org/1999/02/22-rdf-syntax-ns#"
   xmlns:svg="http://www.w3.org/2000/svg"
   xmlns="http://www.w3.org/2000/svg"
   xmlns:sodipodi="http://sodipodi.sourceforge.net/DTD/sodipodi-0.dtd"
   xmlns:inkscape="http://www.inkscape.org/namespaces/inkscape"
   sodipodi:docname="documentation.svg"
   inkscape:version="1.0beta1 (3dbde4b, 2019-11-12)"
   id="svg8"
   version="1.1"
   viewBox="0 0 92.844801 7.8748118"
   height="29.763069"
   width="350.90948">
  <defs
     id="defs2" />
  <sodipodi:namedview
     inkscape:window-maximized="1"
     inkscape:window-y="0"
     inkscape:window-x="1920"
     inkscape:window-height="1005"
     inkscape:window-width="1920"
     units="px"
     showgrid="false"
     inkscape:document-rotation="0"
     inkscape:current-layer="layer1"
     inkscape:document-units="mm"
     inkscape:cy="21.043073"
     inkscape:cx="145.34001"
     inkscape:zoom="1"
     inkscape:pageshadow="2"
     inkscape:pageopacity="0.0"
     borderopacity="1.0"
     bordercolor="#666666"
     pagecolor="#ffffff"
     id="base" />
  <metadata
     id="metadata5">
    <rdf:RDF>
      <cc:Work
         rdf:about="">
        <dc:format>image/svg+xml</dc:format>
        <dc:type
           rdf:resource="http://purl.org/dc/dcmitype/StillImage" />
        <dc:title></dc:title>
      </cc:Work>
    </rdf:RDF>
  </metadata>
  <g
     transform="translate(-22.531914,5.5676463)"
     id="layer1"
     inkscape:groupmode="layer"
     inkscape:label="圖層 1">
    <g
       style="font-weight:bold;font-size:10.5833px;line-height:1.25;font-family:'Avenir LT Std';-inkscape-font-specification:'Avenir LT Std Bold';letter-spacing:0px;word-spacing:0px;stroke-width:0.264583"
       id="text12"
       aria-label="DOCUMENTATION">
      <path
         id="path16"
         style="stroke-width:0.264583"
         d="m 22.531914,2.1166666 h 2.793991 c 1.799161,0 3.968737,-1.1853296 3.968737,-3.7464881 0,-2.5399919 -1.841494,-3.7464881 -3.809988,-3.7464881 h -2.95274 z M 23.86541,0.9101704 v -5.0799838 h 1.217079 c 1.629828,0 2.815158,0.7196643 2.815158,2.5399919 0,1.82032752 -1.365246,2.5399919 -3.037407,2.5399919 z" />
      <path
         id="path18"
         style="stroke-width:0.264583"
         d="m 30.170575,-1.5980716 c 0,2.3389092 1.650995,3.9052375 3.958154,3.9052375 2.33891,-0.042333 3.989904,-1.6086615 3.989904,-3.9475707 0,-2.402409 -1.650994,-3.9687374 -3.989904,-3.9264042 -2.307159,0 -3.958154,1.5663284 -3.958154,3.9687374 z m 1.396996,-0.084666 c 0,-1.4922453 1.02658,-2.6775748 2.571742,-2.6775748 1.555745,0 2.582325,1.1853295 2.582325,2.6775748 0,1.59807823 -1.02658,2.7834078 -2.582325,2.7834078 -1.545162,0 -2.571742,-1.18532957 -2.571742,-2.7834078 z" />
      <path
         id="path20"
         style="stroke-width:0.264583"
         d="m 45.579695,-4.3814794 c -0.740831,-0.8572473 -1.608662,-1.1853296 -2.624658,-1.1853296 -2.30716,0 -3.958154,1.5663284 -3.958154,3.9687374 0,2.3389092 1.650994,3.9052375 3.958154,3.9052375 1.100663,0 2.11666,-0.4021653 2.793991,-1.33349571 L 44.648365,0.19050602 C 44.15095,0.825504 43.568868,1.1006698 42.96562,1.1006698 c -1.545162,0 -2.571742,-1.18532957 -2.571742,-2.7834078 0,-1.4922453 1.02658,-2.6775748 2.571742,-2.6775748 0.518582,0 1.02658,0.1587495 1.576912,0.740831 z" />
      <path
         id="path22"
         style="stroke-width:0.264583"
         d="m 52.655127,-5.3763096 h -1.333496 v 4.69898505 c 0,0.74083098 -0.402165,1.71449455 -1.682744,1.71449455 -1.28058,0 -1.682745,-0.97366357 -1.682745,-1.71449455 V -5.3763096 h -1.333496 v 4.74131825 c 0,1.80974425 1.301746,2.94215725 3.016241,2.94215725 1.714494,0 3.01624,-1.132413 3.01624,-2.94215725 z" />
      <path
         id="path24"
         style="stroke-width:0.264583"
         d="m 54.334233,2.1166666 h 1.269996 v -6.2229802 h 0.02117 l 2.27541,6.2229802 h 0.93133 l 2.275409,-6.2229802 h 0.02117 v 6.2229802 h 1.269996 V -5.3763096 H 60.38788 l -2.02141,5.24931663 -2.000244,-5.24931663 h -2.031993 z" />
      <path
         id="path26"
         style="stroke-width:0.264583"
         d="m 64.100304,2.1166666 h 5.154067 V 0.9101704 H 65.4338 v -2.0319935 h 3.439572 V -2.3283193 H 65.4338 v -1.8414941 h 3.630071 v -1.2064962 h -4.963567 z" />
      <path
         id="path28"
         style="stroke-width:0.264583"
         d="m 70.570171,2.1166666 h 1.333496 v -5.7467317 h 0.02117 l 3.704155,5.7467317 h 1.693328 v -7.4929762 h -1.333496 v 5.56681562 h -0.02117 L 72.337583,-5.3763096 h -1.767412 z" />
      <path
         id="path30"
         style="stroke-width:0.264583"
         d="m 80.538317,2.1166666 h 1.333496 v -6.28648 h 2.296576 v -1.2064962 h -5.926648 v 1.2064962 h 2.296576 z" />
      <path
         id="path32"
         style="stroke-width:0.264583"
         d="m 83.273272,2.1166666 h 1.492245 l 0.677331,-1.71449459 h 3.249073 l 0.698498,1.71449459 h 1.523995 l -3.227906,-7.4929762 h -1.15358 z m 2.624658,-2.85749095 1.174746,-3.04799025 1.15358,3.04799025 z" />
      <path
         id="path34"
         style="stroke-width:0.264583"
         d="m 92.320505,2.1166666 h 1.333496 v -6.28648 h 2.296576 v -1.2064962 h -5.926648 v 1.2064962 h 2.296576 z" />
      <path
         id="path36"
         style="stroke-width:0.264583"
         d="m 96.83131,2.1166666 h 1.333496 V -5.3763096 H 96.83131 Z" />
      <path
         id="path38"
         style="stroke-width:0.264583"
         d="m 99.396106,-1.5980716 c 0,2.3389092 1.650994,3.9052375 3.958154,3.9052375 2.33891,-0.042333 3.9899,-1.6086615 3.9899,-3.9475707 0,-2.402409 -1.65099,-3.9687374 -3.9899,-3.9264042 -2.30716,0 -3.958154,1.5663284 -3.958154,3.9687374 z m 1.396994,-0.084666 c 0,-1.4922453 1.02658,-2.6775748 2.57174,-2.6775748 1.55575,0 2.58233,1.1853295 2.58233,2.6775748 0,1.59807823 -1.02658,2.7834078 -2.58233,2.7834078 -1.54516,0 -2.57174,-1.18532957 -2.57174,-2.7834078 z" />
      <path
         id="path40"
         style="stroke-width:0.264583"
         d="m 108.62457,2.1166666 h 1.3335 v -5.7467317 h 0.0212 l 3.70415,5.7467317 h 1.69333 v -7.4929762 h -1.3335 v 5.56681562 h -0.0212 l -3.63008,-5.56681562 h -1.76741 z" />
    </g>
  </g>
</svg>
