<svg id="圖層_1" data-name="圖層 1" xmlns="http://www.w3.org/2000/svg" viewBox="0 0 100 100"><path d="M66.69,33.63H17.5a2.5,2.5,0,0,0-2.5,2.5V55a2.5,2.5,0,0,0,2.5,2.5H66.69a2.5,2.5,0,0,0,2.5-2.5V36.13A2.5,2.5,0,0,0,66.69,33.63ZM31.12,52.35a7.8,7.8,0,0,1-2.8-.5,4.35,4.35,0,0,1-3-3.68h3.6a2,2,0,0,0,2.21,1.47c1.08,0,2.12-.27,2.12-1.2,0-.55-.51-.81-1.19-1-.3-.08-.64-.13-1-.19l-2-.34a3.73,3.73,0,0,1-3.38-3.87c0-2.14,1.56-3.56,3.75-4a7.93,7.93,0,0,1,1.64-.17c3.6,0,5.56,1.7,5.61,4.14h-3.5c-.11-1-.83-1.42-2-1.42a2.94,2.94,0,0,0-.71.07h0c-.78.16-1,.59-1,1,0,.6.28.95,1.41,1.15l1,.17,1,.17a6.33,6.33,0,0,1,2.15.74,3.79,3.79,0,0,1,1.81,3.58C36.75,50.68,34.34,52.35,31.12,52.35Zm17.8-10.21H45.16v10H41.62v-10H37.9V39h11Zm10.27,10H50.41V39h3.53V49.26h5.25Z"/><path d="M37.5,85.59H30a5,5,0,0,1-5-5V60.54H20V80.59a10,10,0,0,0,10,10H41.25Z"/><path d="M85,16.59v64a10,10,0,0,1-10,10H63.75l3.75-5H75a5,5,0,0,0,5-5v-60H65v-15H30a5,5,0,0,0-5,5v20H20v-20a10,10,0,0,1,10-10H69Z"/><path d="M66,82.59l-12,16a1.78,1.78,0,0,1-3,0l-12-16c-.83-1.1-.38-2,1-2h5V68.09a2.5,2.5,0,0,1,2.5-2.5h10a2.5,2.5,0,0,1,2.5,2.5v12.5h5C66.38,80.59,66.83,81.49,66,82.59Z"/></svg>