<?xml version="1.0" encoding="UTF-8" standalone="no"?>
<svg
   xmlns:dc="http://purl.org/dc/elements/1.1/"
   xmlns:cc="http://creativecommons.org/ns#"
   xmlns:rdf="http://www.w3.org/1999/02/22-rdf-syntax-ns#"
   xmlns:svg="http://www.w3.org/2000/svg"
   xmlns="http://www.w3.org/2000/svg"
   xmlns:sodipodi="http://sodipodi.sourceforge.net/DTD/sodipodi-0.dtd"
   xmlns:inkscape="http://www.inkscape.org/namespaces/inkscape"
   sodipodi:docname="downloads.svg"
   inkscape:version="1.0beta1 (3dbde4b, 2019-11-12)"
   id="svg74"
   version="1.1"
   viewBox="0 0 70.379272 7.8748121"
   height="7.8748121mm"
   width="70.379272mm">
  <defs
     id="defs68" />
  <sodipodi:namedview
     inkscape:window-maximized="1"
     inkscape:window-y="0"
     inkscape:window-x="1920"
     inkscape:window-height="1005"
     inkscape:window-width="1920"
     showgrid="false"
     inkscape:document-rotation="0"
     inkscape:current-layer="layer1"
     inkscape:document-units="mm"
     inkscape:cy="349.04307"
     inkscape:cx="308.26859"
     inkscape:zoom="0.35"
     inkscape:pageshadow="2"
     inkscape:pageopacity="0.0"
     borderopacity="1.0"
     bordercolor="#666666"
     pagecolor="#ffffff"
     id="base" />
  <metadata
     id="metadata71">
    <rdf:RDF>
      <cc:Work
         rdf:about="">
        <dc:format>image/svg+xml</dc:format>
        <dc:type
           rdf:resource="http://purl.org/dc/dcmitype/StillImage" />
        <dc:title></dc:title>
      </cc:Work>
    </rdf:RDF>
  </metadata>
  <g
     transform="translate(-24.270603,-55.815687)"
     id="layer1"
     inkscape:groupmode="layer"
     inkscape:label="圖層 1">
    <g
       style="font-weight:bold;font-size:10.5833px;line-height:1.25;font-family:'Avenir LT Std';-inkscape-font-specification:'Avenir LT Std Bold';letter-spacing:0px;word-spacing:0px;stroke-width:0.264583"
       id="text78"
       aria-label="DOWNLOADS">
      <path
         id="path80"
         style="stroke-width:0.264583"
         d="m 24.270603,63.5 h 2.793991 c 1.799161,0 3.968738,-1.18533 3.968738,-3.746488 0,-2.539992 -1.841494,-3.746488 -3.809988,-3.746488 h -2.952741 z m 1.333496,-1.206496 V 57.21352 h 1.21708 c 1.629828,0 2.815157,0.719664 2.815157,2.539992 0,1.820327 -1.365245,2.539992 -3.037407,2.539992 z" />
      <path
         id="path82"
         style="stroke-width:0.264583"
         d="m 31.909265,59.785262 c 0,2.338909 1.650994,3.905237 3.958154,3.905237 2.338909,-0.04233 3.989904,-1.608661 3.989904,-3.94757 0,-2.402409 -1.650995,-3.968738 -3.989904,-3.926405 -2.30716,0 -3.958154,1.566329 -3.958154,3.968738 z m 1.396995,-0.08467 c 0,-1.492245 1.02658,-2.677574 2.571742,-2.677574 1.555745,0 2.582325,1.185329 2.582325,2.677574 0,1.598079 -1.02658,2.783408 -2.582325,2.783408 -1.545162,0 -2.571742,-1.185329 -2.571742,-2.783408 z" />
      <path
         id="path84"
         style="stroke-width:0.264583"
         d="m 42.513566,63.5 h 1.227663 l 1.735661,-5.704399 h 0.02117 L 47.233718,63.5 h 1.269996 l 2.18016,-7.492976 h -1.354663 l -1.471078,5.397483 h -0.02117 l -1.650995,-5.397483 h -1.312329 l -1.682744,5.397483 h -0.02117 l -1.407579,-5.397483 h -1.460495 z" />
      <path
         id="path86"
         style="stroke-width:0.264583"
         d="m 51.514332,63.5 h 1.333496 v -5.746732 h 0.02117 L 56.573149,63.5 h 1.693328 v -7.492976 h -1.333496 v 5.566815 h -0.02117 l -3.630072,-5.566815 h -1.767411 z" />
      <path
         id="path88"
         style="stroke-width:0.264583"
         d="m 59.947899,63.5 h 4.519069 v -1.206496 h -3.185573 v -6.28648 h -1.333496 z" />
      <path
         id="path90"
         style="stroke-width:0.264583"
         d="m 65.044089,59.785262 c 0,2.338909 1.650995,3.905237 3.958155,3.905237 2.338909,-0.04233 3.989903,-1.608661 3.989903,-3.94757 0,-2.402409 -1.650994,-3.968738 -3.989903,-3.926405 -2.30716,0 -3.958155,1.566329 -3.958155,3.968738 z m 1.396996,-0.08467 c 0,-1.492245 1.02658,-2.677574 2.571742,-2.677574 1.555745,0 2.582325,1.185329 2.582325,2.677574 0,1.598079 -1.02658,2.783408 -2.582325,2.783408 -1.545162,0 -2.571742,-1.185329 -2.571742,-2.783408 z" />
      <path
         id="path92"
         style="stroke-width:0.264583"
         d="m 73.43648,63.5 h 1.492245 l 0.677331,-1.714495 h 3.249073 L 79.553627,63.5 h 1.523995 l -3.227906,-7.492976 h -1.15358 z m 2.624658,-2.857491 1.174746,-3.04799 1.15358,3.04799 z" />
      <path
         id="path94"
         style="stroke-width:0.264583"
         d="m 81.920647,63.5 h 2.793991 c 1.799161,0 3.968737,-1.18533 3.968737,-3.746488 0,-2.539992 -1.841494,-3.746488 -3.809988,-3.746488 h -2.95274 z m 1.333496,-1.206496 V 57.21352 h 1.217079 c 1.629828,0 2.815158,0.719664 2.815158,2.539992 0,1.820327 -1.365246,2.539992 -3.037407,2.539992 z" />
      <path
         id="path96"
         style="stroke-width:0.264583"
         d="m 94.607544,56.589105 c -0.582081,-0.550331 -1.365246,-0.772581 -2.14841,-0.772581 -1.386412,0 -2.762241,0.719665 -2.762241,2.264827 0,2.677574 3.555989,1.735661 3.555989,3.376072 0,0.687915 -0.698498,1.02658 -1.312329,1.02658 -0.592665,0 -1.15358,-0.285749 -1.481662,-0.783164 l -1.005414,0.973664 c 0.613831,0.730247 1.523995,1.015996 2.455326,1.015996 1.471078,0 2.741074,-0.783164 2.741074,-2.391825 0,-2.666992 -3.555988,-1.809745 -3.555988,-3.312573 0,-0.687915 0.613831,-0.96308 1.227662,-0.96308 0.518582,0 1.02658,0.190499 1.312329,0.592664 z" />
    </g>
  </g>
</svg>
