<svg id="圖層_1" data-name="圖層 1" xmlns="http://www.w3.org/2000/svg" viewBox="0 0 100 100"><defs><style>.cls-1{fill:#c1272d;}</style></defs><path class="cls-1" d="M37.5,85.59H30a5,5,0,0,1-5-5V60.54H20V80.59a10,10,0,0,0,10,10H41.25Z"/><path class="cls-1" d="M85,16.59v64a10,10,0,0,1-10,10H63.75l3.75-5H75a5,5,0,0,0,5-5v-60H65v-15H30a5,5,0,0,0-5,5v20H20v-20a10,10,0,0,1,10-10H69Z"/><path class="cls-1" d="M41.71,41.83H40.43V49.4h1.28c1.33,0,3-1,3-3.89C44.72,43.1,43.5,41.83,41.71,41.83Z"/><path class="cls-1" d="M66.69,33.63H17.5a2.5,2.5,0,0,0-2.5,2.5V55a2.5,2.5,0,0,0,2.5,2.5H66.69a2.5,2.5,0,0,0,2.5-2.5V36.13A2.5,2.5,0,0,0,66.69,33.63Zm-36.25,14H28.32v4.52H24.79V39.05H30c2.9,0,5.14,1.59,5.14,4.45C35.13,46.09,33.33,47.65,30.44,47.65ZM41.6,52.17H36.89V39.05c.39,0,3.58,0,4.72,0,4.74.17,6.8,2.78,6.8,6.51S46.25,52.17,41.6,52.17ZM60,41.93H53.92v2.36H59v2.82H53.92v5.06H50.39V39.05H60Z"/><path class="cls-1" d="M30.33,41.66h-2V45h2a1.68,1.68,0,0,0,0-3.36Z"/><path class="cls-1" d="M66,82.59l-12,16a1.78,1.78,0,0,1-3,0l-12-16c-.83-1.1-.38-2,1-2h5V68.09a2.5,2.5,0,0,1,2.5-2.5h10a2.5,2.5,0,0,1,2.5,2.5v12.5h5C66.38,80.59,66.83,81.49,66,82.59Z"/></svg>