<?xml version="1.0" encoding="utf-8"?>
<!-- Generator: Adobe Illustrator 22.1.0, SVG Export Plug-In . SVG Version: 6.00 Build 0)  -->
<svg version="1.1" id="圖層_1" xmlns="http://www.w3.org/2000/svg" xmlns:xlink="http://www.w3.org/1999/xlink" x="0px" y="0px"
	 width="55px" height="55px" viewBox="0 0 55 55" style="enable-background:new 0 0 55 55;" xml:space="preserve">
<style type="text/css">
	.st0{fill:#FFFFFF;}
</style>
<g>
	<path class="st0" d="M34.9,38.3c0-3.2,0-6.4,0-9.6c0-2,0-4.1,0-6.1c0-0.8,0.5-1.2,1.2-1.2c0.8,0,1.2,0.5,1.3,1.2c0,0.1,0,0.3,0,0.4
		c0,5.5,0,10.9,0,16.4c0,1.7-1.1,2.8-2.8,2.8c-10.3,0-20.6,0-30.8,0c-1.7,0-2.8-1-2.8-2.8c0-7.7,0-15.4,0-23c0-1.7,1-2.8,2.8-2.8
		c10.2,0,20.5,0,30.7,0c0.7,0,1.2,0.1,1.5,0.8c0.3,0.7-0.1,1.2-0.6,1.7c-4.7,4-9.4,8-14.1,12.1c-1.5,1.3-2.6,1.3-4.2,0.1
		C12.8,24.8,8.5,21.4,4.2,18c-0.2-0.1-0.4-0.2-0.6-0.4c0,7.4,0,14.6,0,21.9c10.4,0,20.7,0,31.3,0C34.9,39.1,34.9,38.7,34.9,38.3z
		 M19.2,26.5c4-3.4,8-6.8,12.1-10.4c-8.4,0-16.7,0-25.2,0C10.6,19.7,14.8,23.1,19.2,26.5z"/>
	<path class="st0" d="M52.2,21.4h-7.7c-0.7,0-1.3-0.6-1.3-1.3c0-0.7,0.6-1.3,1.3-1.3h7.7c0.7,0,1.3,0.6,1.3,1.3
		C53.6,20.8,53,21.4,52.2,21.4z"/>
	<path class="st0" d="M52.2,29.2h-7.7c-0.7,0-1.3-0.6-1.3-1.3s0.6-1.3,1.3-1.3h7.7c0.7,0,1.3,0.6,1.3,1.3S53,29.2,52.2,29.2z"/>
	<path class="st0" d="M52.2,36.9h-7.7c-0.7,0-1.3-0.6-1.3-1.3s0.6-1.3,1.3-1.3h7.7c0.7,0,1.3,0.6,1.3,1.3S53,36.9,52.2,36.9z"/>
</g>
</svg>
