<?xml version="1.0" encoding="utf-8"?>
<!-- Generator: Adobe Illustrator 22.1.0, SVG Export Plug-In . SVG Version: 6.00 Build 0)  -->
<svg version="1.1" id="圖層_1" xmlns="http://www.w3.org/2000/svg" xmlns:xlink="http://www.w3.org/1999/xlink" x="0px" y="0px"
	 width="400px" height="400px" viewBox="0 0 400 400" style="enable-background:new 0 0 400 400;" xml:space="preserve">
<style type="text/css">
	.st0{fill:#333333;stroke:#000000;stroke-miterlimit:10;}
	.st1{fill:#A8AD00;}
	.st2{fill:#5B6670;}
</style>
<rect x="-125" y="-61" class="st0" width="759" height="574"/>
<g>
	<g>
		<path class="st1" d="M69.2,31.9c0-11.6-9.4-20.9-20.9-20.9c-11.6,0-20.9,9.4-20.9,20.9c0,11.6,9.4,20.9,20.9,20.9
			C59.8,52.8,69.2,43.5,69.2,31.9 M8.1,234.4h90.3v-12.7h-18c-4,0-7.2-1.1-9.8-3.4c-1.8-1.6-2.7-4.2-2.7-8V73.8L4.8,75.7v12.7h13
			c7.1,0,12.5,1.6,16.1,4.8c3.6,3.2,5.4,8,5.4,14.3v99.9c0,4.6-1.2,8.2-3.5,10.6c-2.3,2.4-6,3.6-10.9,3.6H8.1V234.4z M214.7,175.3
			c-2.6-2.6-3.7-6.3-3.3-9.9c3.6-0.5,7.3,0.6,9.9,3.3c2.6,2.6,3.7,6.3,3.3,9.9C221,179,217.3,177.9,214.7,175.3 M157.3,135.8
			c2.6,0,4.7,2.1,4.7,4.7c0,2.6-2.1,4.7-4.7,4.7c-2.6,0-4.7-2.1-4.7-4.7C152.6,137.9,154.7,135.8,157.3,135.8 M230.4,165.3h-21
			c-12,0-20.4,7.4-20.4,18.1v5.7h-0.1c0,0.1,0,0.1,0,0.1h0.1c0,4.4,3.6,8,8,8v0c5.7,0.1,10.6,3.4,13.2,8.1c4,0.7,7.4,3,9.4,6.3H147
			c4.2-5.8,11-9.6,18.7-9.6v0v0c8.3,0,15-6.7,15-15V175c0-9.3-7.6-16.9-16.9-16.9h-22.7c-13.3,0-24-10.8-24-24h8.2
			c0,8.7,7.1,15.8,15.8,15.8h0.6c-2.9-2.2-4.7-5.6-4.7-9.3c0-3.7,1.8-7.1,4.7-9.3c2.9,2.2,4.7,5.6,4.7,9.3c0,3.7-1.8,7.1-4.7,9.3
			h22.1c3.6,0,7,0.8,10.1,2.2V142c0-4.5-3.6-8.1-8.1-8.1c-8.8,0-15.9-7.1-15.9-15.9v-15.6h8.2V118c0,0.8,0.2,1.6,0.5,2.4
			c-0.4-3.5,0.7-7.1,3.2-9.7c2.6-2.6,6.3-3.7,9.9-3.3c0.5,3.6-0.6,7.3-3.3,9.9c-2.6,2.6-6.2,3.7-9.8,3.2c1.1,3,3.8,5.1,7.2,5.1
			c3.4,0,6.5,1,9.2,2.8h3c7.5,0,13.6-6.1,13.6-13.6v-25h8.2v25c0,11-8.2,20.1-18.7,21.6c0.6,1.7,1,3.6,1,5.5v16
			c2.2,2.3,3.9,5.1,5.1,8.2c1.9-2.1,4.3-3.9,6.9-5.3v-7.9c0-9.1,7.4-16.5,16.5-16.5h2.4c0.3,0,0.5-0.1,0.8-0.2
			c-2.8-2.2-4.6-5.5-4.6-9.2c0-3.7,1.8-7.1,4.7-9.3c2.9,2.2,4.7,5.6,4.7,9.3c0,3.6-1.8,6.9-4.5,9.1c6.4-0.6,11.5-5.9,11.5-12.4v-6.2
			h8.2v6.2c0,11.5-9.4,20.9-20.9,20.9h-2.4c-4.5,0-8.2,3.7-8.2,8.2v5c2.2-0.5,4.5-0.7,6.9-0.7h21c7.7,0,14-6.3,14-14v-9.8h8.2v9.8
			C252.6,155.3,242.6,165.3,230.4,165.3 M234.3,143.8c0.5,3.6-0.6,7.3-3.3,9.9c-2.6,2.6-6.3,3.7-9.9,3.3c-0.5-3.6,0.6-7.3,3.3-9.9
			C227.1,144.4,230.7,143.4,234.3,143.8 M246.9,117.1c0.4,3.6-0.6,7.3-3.3,9.9c-2.6,2.6-6.3,3.7-9.9,3.3c-0.5-3.6,0.6-7.3,3.3-9.9
			C239.7,117.8,243.3,116.7,246.9,117.1 M213.2,100.7c0.5,3.6-0.6,7.3-3.3,9.9c-2.6,2.6-6.3,3.7-9.9,3.3c-0.5-3.6,0.6-7.3,3.3-9.9
			C206,101.3,209.6,100.3,213.2,100.7 M191.7,106.8c-3.6,0.5-7.3-0.6-9.9-3.3c-2.6-2.6-3.7-6.3-3.3-9.9c3.6-0.5,7.3,0.6,9.9,3.3
			C191.1,99.6,192.1,103.2,191.7,106.8 M178.6,113.3c2.6,0,4.7,2.1,4.7,4.7c0,2.6-2.1,4.7-4.7,4.7c-2.6,0-4.7-2.1-4.7-4.7
			C173.9,115.4,176,113.3,178.6,113.3 M149.9,114c-3.6,0.5-7.3-0.6-9.9-3.3c-2.6-2.6-3.7-6.3-3.3-9.9c3.6-0.4,7.3,0.6,9.9,3.3
			C149.3,106.7,150.4,110.4,149.9,114 M135.6,116.6c2.6,0,4.7,2.1,4.7,4.7c0,2.6-2.1,4.7-4.7,4.7c-2.6,0-4.7-2.1-4.7-4.7
			C130.9,118.8,133,116.6,135.6,116.6 M115.4,167.6c-0.5-3.6,0.6-7.3,3.3-9.9c2.6-2.6,6.3-3.7,9.9-3.3c0.4,3.6-0.6,7.3-3.3,9.9
			C122.7,167,119,168.1,115.4,167.6 M144,164.5c0-2.6,2.1-4.7,4.7-4.7c2.6,0,4.7,2.1,4.7,4.7c0,2.6-2.1,4.7-4.7,4.7
			C146.1,169.2,144,167.1,144,164.5 M271,152.5c0-47.6-38.6-86.1-86.1-86.1c-47.6,0-86.1,38.6-86.1,86.1c0,47.6,38.6,86.1,86.1,86.1
			C232.4,238.6,271,200,271,152.5 M333.1,193.1V91.3h51.3V75.7h-51.3V11h-11.3c-0.8,22.6-6.1,40.1-15.8,52.7
			c-6.6,8.4-16.1,13.6-28.7,15.7v11.9h27.6v106.5c0,11.6,3.7,21,11.1,28.2c7.4,7.2,17.6,10.8,30.7,10.8c14.2,0,25.8-5.1,34.7-15.3
			c8.9-10.2,13.7-25.9,14.4-47h-11.4c-0.9,16.4-4.1,28.1-9.5,35.2c-5.4,7.1-12,10.7-19.6,10.7c-6.4,0-11.7-2.3-15.9-7
			C335.2,208.6,333.1,201.9,333.1,193.1"/>
	</g>
	<g>
		<path class="st2" d="M10.3,269.7h7.1v40.2h-7.1V269.7z"/>
		<path class="st2" d="M27.1,279.6h7v4.6c2-2.7,4.6-5.2,9.3-5.2c4.4,0,7.4,2.1,9,5.3c2.5-3.2,5.7-5.3,10.3-5.3
			c6.6,0,10.6,4.2,10.6,11.6v19.4h-7v-17.2c0-4.8-2.2-7.4-6.2-7.4c-3.8,0-6.5,2.6-6.5,7.5v17.1h-7v-17.3c0-4.7-2.3-7.4-6.1-7.4
			c-3.9,0-6.5,2.9-6.5,7.6v17.1h-7V279.6z"/>
		<path class="st2" d="M81.4,279.6h7v4.6c2-2.7,4.6-5.2,9.3-5.2c4.4,0,7.4,2.1,9,5.3c2.5-3.2,5.7-5.3,10.3-5.3
			c6.6,0,10.6,4.2,10.6,11.6v19.4h-7v-17.2c0-4.8-2.2-7.4-6.2-7.4c-3.8,0-6.5,2.6-6.5,7.5v17.1h-7v-17.3c0-4.7-2.3-7.4-6.1-7.4
			c-3.9,0-6.5,2.9-6.5,7.6v17.1h-7V279.6z"/>
		<path class="st2" d="M134,294.9v-0.1c0-8.7,6.1-15.8,14.8-15.8c9.7,0,14.5,7.6,14.5,16.3c0,0.6-0.1,1.3-0.1,2H141
			c0.7,4.9,4.3,7.7,8.7,7.7c3.4,0,5.8-1.3,8.2-3.6l4.1,3.6c-2.9,3.4-6.8,5.7-12.4,5.7C140.8,310.6,134,304.2,134,294.9z
			 M156.5,292.6c-0.5-4.5-3.1-8-7.7-8c-4.3,0-7.2,3.3-7.9,8H156.5z"/>
		<path class="st2" d="M170.2,279.6h7v4.7c2-2.9,4.8-5.3,9.5-5.3c6.8,0,10.8,4.6,10.8,11.7v19.3h-7v-17.2c0-4.7-2.4-7.4-6.5-7.4
			c-4,0-6.8,2.8-6.8,7.5v17.1h-7V279.6z"/>
		<path class="st2" d="M203.1,306l3.1-4.7c3.3,2.5,6.8,3.7,9.9,3.7c3,0,4.7-1.3,4.7-3.3v-0.1c0-2.4-3.2-3.2-6.8-4.3
			c-4.5-1.3-9.5-3.1-9.5-8.9v-0.1c0-5.7,4.8-9.2,10.8-9.2c3.8,0,7.9,1.3,11.1,3.4l-2.8,4.9c-2.9-1.8-6-2.9-8.6-2.9
			c-2.7,0-4.3,1.3-4.3,3v0.1c0,2.2,3.3,3.1,6.8,4.3c4.4,1.4,9.4,3.4,9.4,8.8v0.1c0,6.4-4.9,9.5-11.3,9.5
			C211.6,310.5,206.9,308.9,203.1,306z"/>
		<path class="st2" d="M232.3,294.9v-0.1c0-8.7,6.1-15.8,14.8-15.8c9.7,0,14.5,7.6,14.5,16.3c0,0.6-0.1,1.3-0.1,2h-22.3
			c0.7,4.9,4.3,7.7,8.7,7.7c3.4,0,5.8-1.3,8.2-3.6l4.1,3.6c-2.9,3.4-6.8,5.7-12.4,5.7C239.1,310.6,232.3,304.2,232.3,294.9z
			 M254.8,292.6c-0.5-4.5-3.1-8-7.7-8c-4.3,0-7.2,3.3-7.9,8H254.8z"/>
		<path class="st2" d="M284.5,289.9v-0.1c0-11.3,8.7-20.8,21.1-20.8c12.4,0,21,9.4,21,20.7v0.1c0,11.3-8.7,20.8-21.1,20.8
			C293.1,310.6,284.5,301.2,284.5,289.9z M319.2,289.9v-0.1c0-7.8-5.7-14.3-13.7-14.3c-8,0-13.6,6.4-13.6,14.2v0.1
			c0,7.8,5.7,14.3,13.7,14.3C313.6,304.1,319.2,297.7,319.2,289.9z"/>
		<path class="st2" d="M352.7,309.9v-3.7c-2.1,2.5-5.2,4.4-9.8,4.4c-5.7,0-10.8-3.3-10.8-9.4v-0.1c0-6.7,5.2-9.9,12.3-9.9
			c3.7,0,6,0.5,8.4,1.3v-0.6c0-4.2-2.6-6.5-7.5-6.5c-3.4,0-5.9,0.7-8.7,1.9l-1.9-5.6c3.3-1.5,6.6-2.5,11.5-2.5
			c9,0,13.3,4.7,13.3,12.8v18H352.7z M352.8,297.2c-1.8-0.7-4.3-1.2-7-1.2c-4.4,0-7,1.8-7,4.7v0.1c0,2.9,2.6,4.5,5.9,4.5
			c4.6,0,8-2.6,8-6.4V297.2z"/>
		<path class="st2" d="M367.6,268h7V293l12.6-13.4h8.4l-12.1,12.4l12.5,18h-8l-9.1-13.1l-4.3,4.4v8.7h-7V268z"/>
	</g>
	<g>
		<path class="st2" d="M19.8,343.6H7v-6.5h32.6v6.5H26.9v33.7h-7.1V343.6z"/>
		<path class="st2" d="M37.8,362.2v-0.1c0-8.7,6.1-15.8,14.8-15.8c9.7,0,14.5,7.6,14.5,16.3c0,0.6-0.1,1.3-0.1,2H44.8
			c0.7,4.9,4.3,7.7,8.7,7.7c3.4,0,5.8-1.3,8.2-3.6l4.1,3.6c-2.9,3.4-6.8,5.7-12.4,5.7C44.6,378,37.8,371.6,37.8,362.2z M60.3,360
			c-0.5-4.5-3.1-8-7.7-8c-4.3,0-7.2,3.3-7.9,8H60.3z"/>
		<path class="st2" d="M72.3,362.3v-0.1c0-8.6,6.7-15.9,15.7-15.9c5.7,0,9.3,2.1,12.1,5.2l-4.3,4.7c-2.1-2.2-4.4-3.8-7.9-3.8
			c-5.1,0-8.7,4.4-8.7,9.7v0.1c0,5.4,3.7,9.8,9.1,9.8c3.3,0,5.7-1.6,7.9-3.8l4.2,4.1c-3,3.3-6.5,5.7-12.4,5.7
			C79,378,72.3,370.9,72.3,362.3z"/>
		<path class="st2" d="M106.6,335.4h7v16.3c2-2.9,4.8-5.3,9.5-5.3c6.8,0,10.8,4.6,10.8,11.7v19.3h-7v-17.2c0-4.7-2.4-7.4-6.5-7.4
			c-4,0-6.8,2.8-6.8,7.5v17.1h-7V335.4z"/>
		<path class="st2" d="M141.9,347h7v4.7c2-2.9,4.8-5.3,9.5-5.3c6.8,0,10.8,4.6,10.8,11.7v19.3h-7v-17.2c0-4.7-2.4-7.4-6.5-7.4
			c-4,0-6.8,2.8-6.8,7.5v17.1h-7V347z"/>
		<path class="st2" d="M175.6,362.3v-0.1c0-8.7,6.9-15.9,16.2-15.9c9.3,0,16.1,7.1,16.1,15.7v0.1c0,8.6-6.9,15.8-16.3,15.8
			C182.4,378,175.6,370.9,175.6,362.3z M201,362.3v-0.1c0-5.3-3.9-9.8-9.3-9.8c-5.6,0-9.1,4.4-9.1,9.7v0.1c0,5.3,3.8,9.8,9.3,9.8
			C197.4,372,201,367.5,201,362.3z"/>
		<path class="st2" d="M215.2,335.4h7v41.9h-7V335.4z"/>
		<path class="st2" d="M229.3,362.3v-0.1c0-8.7,6.9-15.9,16.2-15.9c9.3,0,16.1,7.1,16.1,15.7v0.1c0,8.6-6.9,15.8-16.3,15.8
			C236.1,378,229.3,370.9,229.3,362.3z M254.7,362.3v-0.1c0-5.3-3.9-9.8-9.3-9.8c-5.6,0-9.1,4.4-9.1,9.7v0.1c0,5.3,3.8,9.8,9.3,9.8
			C251.1,372,254.7,367.5,254.7,362.3z"/>
		<path class="st2" d="M268.4,383l2.6-5.2c3.2,2,6.7,3.2,10.8,3.2c6.2,0,9.6-3.2,9.6-9.3v-2.4c-2.5,3.3-5.7,5.6-10.7,5.6
			c-7.1,0-13.8-5.3-13.8-14.2v-0.1c0-9,6.7-14.3,13.8-14.3c5.1,0,8.3,2.4,10.6,5.2V347h7v24.1c0,5.1-1.3,8.9-3.8,11.4
			c-2.8,2.8-7,4.1-12.5,4.1C277,386.6,272.3,385.3,268.4,383z M291.5,360.7v-0.1c0-5-4.1-8.4-8.9-8.4c-4.8,0-8.6,3.3-8.6,8.3v0.1
			c0,5,3.9,8.4,8.6,8.4C287.4,369,291.5,365.6,291.5,360.7z"/>
		<path class="st2" d="M306.8,335.7h7.5v6.6h-7.5V335.7z M307.1,347h7v30.3h-7V347z"/>
		<path class="st2" d="M321.2,362.2v-0.1c0-8.7,6.1-15.8,14.8-15.8c9.7,0,14.5,7.6,14.5,16.3c0,0.6-0.1,1.3-0.1,2h-22.3
			c0.7,4.9,4.3,7.7,8.7,7.7c3.4,0,5.8-1.3,8.2-3.6l4.1,3.6c-2.9,3.4-6.8,5.7-12.4,5.7C328,378,321.2,371.6,321.2,362.2z M343.7,360
			c-0.5-4.5-3.1-8-7.7-8c-4.3,0-7.2,3.3-7.9,8H343.7z"/>
		<path class="st2" d="M354.9,373.3l3.1-4.7c3.3,2.5,6.8,3.7,9.9,3.7c3,0,4.7-1.3,4.7-3.3V369c0-2.4-3.2-3.2-6.8-4.3
			c-4.5-1.3-9.5-3.1-9.5-8.9v-0.1c0-5.7,4.8-9.2,10.8-9.2c3.8,0,7.9,1.3,11.1,3.4l-2.8,4.9c-2.9-1.8-6-2.9-8.6-2.9
			c-2.7,0-4.3,1.3-4.3,3v0.1c0,2.2,3.3,3.1,6.8,4.3c4.4,1.4,9.4,3.4,9.4,8.9v0.1c0,6.4-4.9,9.5-11.3,9.5
			C363.5,377.9,358.7,376.3,354.9,373.3z"/>
	</g>
</g>
</svg>
