<?xml version="1.0" encoding="utf-8"?>
<!-- Generator: Adobe Illustrator 22.1.0, SVG Export Plug-In . SVG Version: 6.00 Build 0)  -->
<svg version="1.1" id="圖層_1" xmlns="http://www.w3.org/2000/svg" xmlns:xlink="http://www.w3.org/1999/xlink" x="0px" y="0px"
	 width="190px" height="20px" viewBox="0 0 190 20" style="enable-background:new 0 0 190 20;" xml:space="preserve">
<style type="text/css">
	.st0{fill:#003B87;}
</style>
<g>
	<path class="st0" d="M6.5,5v3.5H13v3.4H6.5v6.6H2.4v-17h11.2V5H6.5z"/>
	<path class="st0" d="M18.6,18.5v-17h11.4v3.5h-7.5v3.2h7.1v3.3h-7.1V15h7.9v3.5H18.6z"/>
	<path class="st0" d="M47.1,18.5l-1.3-3.3h-6.6L38,18.5h-4.5l7.1-17h4l7.1,17H47.1z M42.6,6l-2.2,5.8h4.3L42.6,6z"/>
	<path class="st0" d="M61.3,5v13.5h-4.1V5h-4.8V1.5h13.7V5H61.3z"/>
	<path class="st0" d="M84.3,14.9c-0.3,0.8-0.8,1.6-1.5,2.2c-0.6,0.6-1.4,1.1-2.3,1.4c-0.9,0.3-1.9,0.5-3,0.5c-1.1,0-2.1-0.2-3-0.5
		s-1.7-0.8-2.3-1.4c-0.6-0.6-1.1-1.3-1.4-2.2c-0.3-0.8-0.5-1.8-0.5-2.8V1.5h4.1v10.2c0,0.5,0.1,0.9,0.2,1.3s0.3,0.8,0.6,1.1
		c0.2,0.3,0.6,0.6,1,0.8c0.4,0.2,0.9,0.3,1.5,0.3c0.6,0,1.1-0.1,1.5-0.3c0.4-0.2,0.7-0.5,1-0.8c0.3-0.3,0.4-0.7,0.6-1.1
		c0.1-0.4,0.2-0.9,0.2-1.3V1.5h4.1v10.6C84.8,13.1,84.6,14,84.3,14.9z"/>
	<path class="st0" d="M99.6,18.5l-3.7-6.7h-1.4v6.7h-4v-17H97c0.8,0,1.6,0.1,2.4,0.3c0.8,0.2,1.5,0.5,2.1,0.9
		c0.6,0.4,1.1,0.9,1.5,1.6c0.4,0.7,0.6,1.5,0.6,2.4c0,1.2-0.3,2.1-0.9,2.9c-0.6,0.8-1.5,1.3-2.6,1.7l4.4,7.3H99.6z M99.4,6.7
		c0-0.4-0.1-0.7-0.3-1s-0.4-0.4-0.7-0.6C98.3,5,98,4.9,97.6,4.9s-0.6-0.1-1-0.1h-2.2v4h2c0.3,0,0.7,0,1-0.1c0.4-0.1,0.7-0.2,1-0.3
		S99,8,99.2,7.8C99.3,7.5,99.4,7.1,99.4,6.7z"/>
	<path class="st0" d="M108.8,18.5v-17h11.4v3.5h-7.5v3.2h7.1v3.3h-7.1V15h7.9v3.5H108.8z"/>
	<path class="st0" d="M134.2,18.5v-17h4.1v13.4h6.6v3.6H134.2z"/>
	<path class="st0" d="M149.2,18.5v-17h4.1v17H149.2z"/>
	<path class="st0" d="M168.2,5.9c-0.4-0.4-0.8-0.8-1.4-1.1s-1.1-0.4-1.6-0.4c-0.3,0-0.5,0-0.8,0.1c-0.3,0-0.5,0.1-0.8,0.3
		c-0.2,0.1-0.4,0.3-0.6,0.5c-0.2,0.2-0.2,0.5-0.2,0.8c0,0.3,0.1,0.5,0.2,0.7c0.1,0.2,0.3,0.4,0.5,0.5c0.2,0.1,0.5,0.3,0.8,0.4
		c0.3,0.1,0.7,0.2,1.1,0.4c0.6,0.2,1.2,0.4,1.8,0.6s1.2,0.5,1.7,0.9c0.5,0.4,0.9,0.9,1.3,1.4s0.5,1.3,0.5,2.1c0,1-0.2,1.8-0.5,2.5
		c-0.4,0.7-0.8,1.3-1.5,1.8c-0.6,0.5-1.3,0.8-2.1,1c-0.8,0.2-1.6,0.3-2.4,0.3c-1.2,0-2.4-0.2-3.5-0.6c-1.1-0.4-2.1-1-2.8-1.8
		l2.7-2.7c0.4,0.5,1,0.9,1.6,1.3c0.7,0.3,1.4,0.5,2,0.5c0.3,0,0.6,0,0.9-0.1c0.3-0.1,0.5-0.2,0.8-0.3c0.2-0.1,0.4-0.3,0.5-0.6
		c0.1-0.2,0.2-0.5,0.2-0.9c0-0.3-0.1-0.6-0.2-0.8c-0.2-0.2-0.4-0.4-0.7-0.6c-0.3-0.2-0.7-0.4-1.1-0.5c-0.4-0.2-0.9-0.3-1.5-0.5
		c-0.5-0.2-1.1-0.4-1.6-0.6c-0.5-0.2-1-0.5-1.4-0.9c-0.4-0.4-0.7-0.8-1-1.4c-0.2-0.5-0.4-1.2-0.4-2c0-0.9,0.2-1.8,0.6-2.4
		c0.4-0.7,0.9-1.2,1.5-1.7c0.6-0.4,1.3-0.7,2.1-0.9c0.8-0.2,1.6-0.3,2.4-0.3c1,0,1.9,0.2,2.9,0.5c1,0.4,1.9,0.9,2.6,1.6L168.2,5.9z"
		/>
	<path class="st0" d="M182.8,5v13.5h-4.1V5h-4.8V1.5h13.7V5H182.8z"/>
</g>
</svg>
