<?xml version="1.0" encoding="utf-8"?>
<!-- Generator: Adobe Illustrator 22.1.0, SVG Export Plug-In . SVG Version: 6.00 Build 0)  -->
<svg version="1.1" id="圖層_1" xmlns="http://www.w3.org/2000/svg" xmlns:xlink="http://www.w3.org/1999/xlink" x="0px" y="0px"
	 width="50px" height="65px" viewBox="0 0 50 65" style="enable-background:new 0 0 50 65;" xml:space="preserve">
<style type="text/css">
	.st0{fill:#A8AD00;}
</style>
<g>
	<g>
		<path class="st0" d="M49.4,15.6c0-0.1,0-0.2-0.1-0.3c0,0,0-0.1,0-0.1c-0.1-0.1-0.1-0.3-0.3-0.4L35.2,0.8c-0.1-0.1-0.2-0.2-0.4-0.3
			c0,0-0.1,0-0.1,0c-0.1,0-0.2-0.1-0.4-0.1c0,0,0,0-0.1,0H1.8C1.1,0.4,0.5,1,0.5,1.7v61.5c0,0.7,0.6,1.3,1.3,1.3h46.3
			c0.7,0,1.3-0.6,1.3-1.3L49.4,15.6C49.5,15.6,49.4,15.6,49.4,15.6z M35.5,14.4V4.9l9.5,9.5H35.5z M34.2,17h12.6v45H3.1V3h29.8v12.6
			C32.9,16.4,33.5,17,34.2,17z"/>
		<path class="st0" d="M9.9,23.1c0,0.7,0.6,1.3,1.3,1.3h28.9c0.7,0,1.3-0.6,1.3-1.3s-0.6-1.3-1.3-1.3H11.2
			C10.5,21.8,9.9,22.4,9.9,23.1z"/>
		<path class="st0" d="M11.2,14.6h15.4c0.7,0,1.3-0.6,1.3-1.3S27.4,12,26.6,12H11.2c-0.7,0-1.3,0.6-1.3,1.3S10.5,14.6,11.2,14.6z"/>
		<path class="st0" d="M40.1,31.7H11.2c-0.7,0-1.3,0.6-1.3,1.3c0,0.7,0.6,1.3,1.3,1.3h28.9c0.7,0,1.3-0.6,1.3-1.3
			C41.4,32.3,40.8,31.7,40.1,31.7z"/>
		<path class="st0" d="M40.1,41.6H11.2c-0.7,0-1.3,0.6-1.3,1.3c0,0.7,0.6,1.3,1.3,1.3h28.9c0.7,0,1.3-0.6,1.3-1.3
			C41.4,42.2,40.8,41.6,40.1,41.6z"/>
		<path class="st0" d="M40.1,51.5H11.2c-0.7,0-1.3,0.6-1.3,1.3c0,0.7,0.6,1.3,1.3,1.3h28.9c0.7,0,1.3-0.6,1.3-1.3
			C41.4,52,40.8,51.5,40.1,51.5z"/>
	</g>
</g>
</svg>
