<?xml version="1.0" encoding="utf-8"?>
<!-- Generator: Adobe Illustrator 22.1.0, SVG Export Plug-In . SVG Version: 6.00 Build 0)  -->
<svg version="1.1" id="圖層_1" xmlns="http://www.w3.org/2000/svg" xmlns:xlink="http://www.w3.org/1999/xlink" x="0px" y="0px"
	 width="400px" height="90px" viewBox="0 0 400 90" style="enable-background:new 0 0 400 90;" xml:space="preserve">
<style type="text/css">
	.st0{fill:#A8AD00;}
	.st1{fill:#5B6670;}
</style>
<g>
	<path class="st0" d="M25.2,8.7c0-4.4-3.5-7.9-7.9-7.9c-4.4,0-7.9,3.5-7.9,7.9c0,4.4,3.5,7.9,7.9,7.9C21.7,16.5,25.2,13,25.2,8.7
		 M2.3,84.9h34v-4.8h-6.8c-1.5,0-2.7-0.4-3.7-1.3c-0.7-0.6-1-1.6-1-3V24.4L1,25.1v4.8h4.9c2.7,0,4.7,0.6,6.1,1.8c1.4,1.2,2,3,2,5.4
		v37.6c0,1.7-0.4,3.1-1.3,4c-0.9,0.9-2.2,1.4-4.1,1.4H2.3V84.9z M80,62.6c-1-1-1.4-2.4-1.2-3.7c1.4-0.2,2.7,0.2,3.7,1.2
		c1,1,1.4,2.4,1.2,3.7C82.4,64,81,63.6,80,62.6 M58.4,47.8c1,0,1.8,0.8,1.8,1.8c0,1-0.8,1.8-1.8,1.8c-1,0-1.8-0.8-1.8-1.8
		C56.7,48.5,57.5,47.8,58.4,47.8 M86,58.9h-7.9c-4.5,0-7.7,2.8-7.7,6.8v2.2h0c0,0,0,0,0,0.1h0c0,1.7,1.4,3,3,3v0c2.1,0.1,4,1.3,5,3
		c1.5,0.2,2.8,1.1,3.5,2.4H54.6c1.6-2.2,4.2-3.6,7.1-3.6v0v0c3.1,0,5.6-2.5,5.6-5.6v-4.6c0-3.5-2.9-6.4-6.4-6.4h-8.5c-5,0-9-4.1-9-9
		h3.1c0,3.3,2.7,6,6,6h0.2c-1.1-0.8-1.8-2.1-1.8-3.5c0-1.4,0.7-2.7,1.8-3.5c1.1,0.8,1.8,2.1,1.8,3.5c0,1.4-0.7,2.7-1.8,3.5h8.3
		c1.4,0,2.7,0.3,3.8,0.8v-3.8c0-1.7-1.4-3-3-3c-3.3,0-6-2.7-6-6v-5.9h3.1V41c0,0.3,0.1,0.6,0.2,0.9c-0.1-1.3,0.2-2.7,1.2-3.6
		c1-1,2.4-1.4,3.7-1.2c0.2,1.4-0.2,2.7-1.2,3.7c-1,1-2.4,1.4-3.7,1.2c0.4,1.1,1.4,1.9,2.7,1.9c1.3,0,2.5,0.4,3.4,1.1h1.1
		c2.8,0,5.1-2.3,5.1-5.1v-9.4h3.1v9.4c0,4.1-3.1,7.6-7,8.1c0.2,0.6,0.4,1.3,0.4,2.1v6c0.8,0.9,1.5,1.9,1.9,3.1
		c0.7-0.8,1.6-1.5,2.6-2v-3c0-3.4,2.8-6.2,6.2-6.2h0.9c0.1,0,0.2-0.1,0.3-0.1c-1.1-0.8-1.7-2.1-1.7-3.5c0-1.4,0.7-2.7,1.8-3.5
		c1.1,0.8,1.8,2.1,1.8,3.5c0,1.4-0.7,2.6-1.7,3.4c2.4-0.2,4.3-2.2,4.3-4.7v-2.3h3.1v2.3c0,4.3-3.5,7.9-7.9,7.9h-0.9
		c-1.7,0-3.1,1.4-3.1,3.1V56c0.8-0.2,1.7-0.3,2.6-0.3H86c2.9,0,5.3-2.4,5.3-5.3v-3.7h3.1v3.7C94.3,55.1,90.6,58.9,86,58.9
		 M87.4,50.8c0.2,1.4-0.2,2.7-1.2,3.7c-1,1-2.4,1.4-3.7,1.2c-0.2-1.4,0.2-2.7,1.2-3.7C84.7,51,86.1,50.6,87.4,50.8 M92.2,40.7
		c0.2,1.4-0.2,2.7-1.2,3.7c-1,1-2.4,1.4-3.7,1.2c-0.2-1.4,0.2-2.7,1.2-3.7C89.4,41,90.8,40.6,92.2,40.7 M79.5,34.6
		c0.2,1.4-0.2,2.7-1.2,3.7c-1,1-2.4,1.4-3.7,1.2c-0.2-1.4,0.2-2.7,1.2-3.7C76.8,34.8,78.1,34.4,79.5,34.6 M71.4,36.9
		c-1.4,0.2-2.7-0.2-3.7-1.2c-1-1-1.4-2.4-1.2-3.7c1.4-0.2,2.7,0.2,3.7,1.2C71.2,34.1,71.6,35.5,71.4,36.9 M66.5,39.3
		c1,0,1.8,0.8,1.8,1.8c0,1-0.8,1.8-1.8,1.8c-1,0-1.8-0.8-1.8-1.8C64.7,40.1,65.5,39.3,66.5,39.3 M55.7,39.5
		c-1.4,0.2-2.7-0.2-3.7-1.2c-1-1-1.4-2.4-1.2-3.7c1.4-0.2,2.7,0.2,3.7,1.2C55.4,36.8,55.8,38.2,55.7,39.5 M50.3,40.6
		c1,0,1.8,0.8,1.8,1.8c0,1-0.8,1.8-1.8,1.8c-1,0-1.8-0.8-1.8-1.8C48.5,41.3,49.3,40.6,50.3,40.6 M42.7,59.8
		c-0.2-1.4,0.2-2.7,1.2-3.7c1-1,2.4-1.4,3.7-1.2c0.2,1.4-0.2,2.7-1.2,3.7C45.4,59.5,44,59.9,42.7,59.8 M53.4,58.6
		c0-1,0.8-1.8,1.8-1.8s1.8,0.8,1.8,1.8c0,1-0.8,1.8-1.8,1.8S53.4,59.5,53.4,58.6 M101.2,54c0-17.9-14.5-32.4-32.4-32.4
		S36.4,36.1,36.4,54c0,17.9,14.5,32.4,32.4,32.4S101.2,72,101.2,54 M124.7,69.3V31H144v-5.9h-19.3V0.8h-4.3
		c-0.3,8.5-2.3,15.1-6,19.8c-2.5,3.1-6.1,5.1-10.8,5.9V31H114v40.1c0,4.4,1.4,7.9,4.2,10.6c2.8,2.7,6.6,4,11.6,4
		c5.4,0,9.7-1.9,13.1-5.8c3.4-3.8,5.2-9.7,5.4-17.7H144c-0.3,6.2-1.5,10.6-3.6,13.3c-2,2.7-4.5,4-7.4,4c-2.4,0-4.4-0.9-6-2.6
		C125.4,75.2,124.7,72.6,124.7,69.3"/>
	<g>
		<path class="st1" d="M180.8,23.4h4V46h-4V23.4z"/>
		<path class="st1" d="M190.3,29h3.9v2.6c1.1-1.5,2.6-2.9,5.2-2.9c2.5,0,4.2,1.2,5.1,3c1.4-1.8,3.2-3,5.8-3c3.7,0,6,2.4,6,6.5V46
			h-3.9v-9.7c0-2.7-1.3-4.2-3.5-4.2c-2.1,0-3.7,1.5-3.7,4.2V46h-3.9v-9.7c0-2.7-1.3-4.1-3.5-4.1c-2.2,0-3.7,1.6-3.7,4.3V46h-3.9V29z
			"/>
		<path class="st1" d="M220.8,29h3.9v2.6c1.1-1.5,2.6-2.9,5.2-2.9c2.5,0,4.2,1.2,5.1,3c1.4-1.8,3.2-3,5.8-3c3.7,0,6,2.4,6,6.5V46
			h-3.9v-9.7c0-2.7-1.3-4.2-3.5-4.2c-2.1,0-3.7,1.5-3.7,4.2V46h-3.9v-9.7c0-2.7-1.3-4.1-3.5-4.1c-2.2,0-3.7,1.6-3.7,4.3V46h-3.9V29z
			"/>
		<path class="st1" d="M250.5,37.6L250.5,37.6c0-5,3.5-9,8.3-9c5.4,0,8.2,4.3,8.2,9.2c0,0.4,0,0.7-0.1,1.1h-12.6
			c0.4,2.8,2.4,4.3,4.9,4.3c1.9,0,3.3-0.7,4.6-2l2.3,2c-1.6,1.9-3.9,3.2-7,3.2C254.3,46.4,250.5,42.8,250.5,37.6z M263.1,36.3
			c-0.3-2.5-1.7-4.5-4.3-4.5c-2.4,0-4.1,1.8-4.4,4.5H263.1z"/>
		<path class="st1" d="M270.8,29h3.9v2.7c1.1-1.6,2.7-3,5.3-3c3.9,0,6.1,2.6,6.1,6.6V46h-3.9v-9.7c0-2.7-1.3-4.2-3.7-4.2
			c-2.3,0-3.9,1.6-3.9,4.2V46h-3.9V29z"/>
		<path class="st1" d="M289.4,43.8l1.7-2.7c1.8,1.4,3.9,2.1,5.6,2.1c1.7,0,2.7-0.7,2.7-1.8v-0.1c0-1.3-1.8-1.8-3.8-2.4
			c-2.5-0.7-5.3-1.7-5.3-5v-0.1c0-3.2,2.7-5.2,6.1-5.2c2.1,0,4.5,0.7,6.3,1.9l-1.6,2.8c-1.6-1-3.4-1.6-4.8-1.6
			c-1.5,0-2.4,0.7-2.4,1.7v0.1c0,1.2,1.8,1.7,3.9,2.4c2.5,0.8,5.3,1.9,5.3,5V41c0,3.6-2.8,5.4-6.3,5.4
			C294.2,46.4,291.5,45.5,289.4,43.8z"/>
		<path class="st1" d="M305.8,37.6L305.8,37.6c0-5,3.5-9,8.3-9c5.4,0,8.2,4.3,8.2,9.2c0,0.4,0,0.7-0.1,1.1h-12.6
			c0.4,2.8,2.4,4.3,4.9,4.3c1.9,0,3.3-0.7,4.6-2l2.3,2c-1.6,1.9-3.9,3.2-7,3.2C309.7,46.4,305.8,42.8,305.8,37.6z M318.5,36.3
			c-0.3-2.5-1.7-4.5-4.3-4.5c-2.4,0-4.1,1.8-4.4,4.5H318.5z"/>
		<path class="st1" d="M335.2,34.8L335.2,34.8c0-6.4,4.9-11.8,11.9-11.8c7,0,11.8,5.3,11.8,11.6v0.1c0,6.4-4.9,11.7-11.9,11.7
			C340.1,46.4,335.2,41.2,335.2,34.8z M354.7,34.8L354.7,34.8c0-4.5-3.2-8.1-7.7-8.1c-4.5,0-7.6,3.6-7.6,8v0.1
			c0,4.4,3.2,8.1,7.7,8.1C351.6,42.8,354.7,39.2,354.7,34.8z"/>
		<path class="st1" d="M373.6,46v-2.1c-1.2,1.4-2.9,2.5-5.5,2.5c-3.2,0-6.1-1.8-6.1-5.3v-0.1c0-3.8,2.9-5.6,6.9-5.6
			c2.1,0,3.4,0.3,4.7,0.7v-0.3c0-2.4-1.5-3.7-4.2-3.7c-1.9,0-3.3,0.4-4.9,1.1l-1.1-3.1c1.9-0.8,3.7-1.4,6.5-1.4c5,0,7.5,2.7,7.5,7.2
			V46H373.6z M373.7,38.9c-1-0.4-2.4-0.7-3.9-0.7c-2.5,0-3.9,1-3.9,2.7v0.1c0,1.6,1.5,2.5,3.3,2.5c2.6,0,4.5-1.5,4.5-3.6V38.9z"/>
		<path class="st1" d="M382,22.4h3.9v14.1L393,29h4.8l-6.8,7l7,10.1h-4.5l-5.1-7.4l-2.4,2.5V46H382V22.4z"/>
	</g>
	<g>
		<path class="st1" d="M186.1,65H179v-3.7h18.4V65h-7.2v19h-4V65z"/>
		<path class="st1" d="M196.3,75.5L196.3,75.5c0-5,3.5-9,8.3-9c5.4,0,8.2,4.3,8.2,9.2c0,0.4,0,0.7-0.1,1.1h-12.6
			c0.4,2.8,2.4,4.3,4.9,4.3c1.9,0,3.3-0.7,4.6-2l2.3,2c-1.6,1.9-3.9,3.2-7,3.2C200.1,84.4,196.3,80.8,196.3,75.5z M209,74.2
			c-0.3-2.5-1.7-4.5-4.3-4.5c-2.4,0-4.1,1.8-4.4,4.5H209z"/>
		<path class="st1" d="M215.7,75.5L215.7,75.5c0-4.9,3.8-9,8.9-9c3.2,0,5.2,1.2,6.8,2.9l-2.4,2.6c-1.2-1.3-2.5-2.1-4.4-2.1
			c-2.8,0-4.9,2.5-4.9,5.4v0.1c0,3,2.1,5.5,5.1,5.5c1.8,0,3.2-0.9,4.4-2.1l2.4,2.3c-1.7,1.9-3.7,3.2-7,3.2
			C219.5,84.4,215.7,80.4,215.7,75.5z"/>
		<path class="st1" d="M235,60.4h3.9v9.2c1.1-1.6,2.7-3,5.3-3c3.9,0,6.1,2.6,6.1,6.6V84h-3.9v-9.7c0-2.7-1.3-4.2-3.7-4.2
			c-2.3,0-3.9,1.6-3.9,4.2V84H235V60.4z"/>
		<path class="st1" d="M254.9,66.9h3.9v2.7c1.1-1.6,2.7-3,5.3-3c3.9,0,6.1,2.6,6.1,6.6V84h-3.9v-9.7c0-2.7-1.3-4.2-3.7-4.2
			c-2.3,0-3.9,1.6-3.9,4.2V84h-3.9V66.9z"/>
		<path class="st1" d="M273.9,75.5L273.9,75.5c0-5,3.9-9,9.1-9c5.2,0,9.1,4,9.1,8.9v0.1c0,4.9-3.9,8.9-9.2,8.9
			C277.7,84.4,273.9,80.4,273.9,75.5z M288.2,75.5L288.2,75.5c0-3.1-2.2-5.6-5.2-5.6c-3.1,0-5.1,2.5-5.1,5.4v0.1
			c0,3,2.2,5.5,5.2,5.5C286.2,81,288.2,78.5,288.2,75.5z"/>
		<path class="st1" d="M296.2,60.4h3.9V84h-3.9V60.4z"/>
		<path class="st1" d="M304.1,75.5L304.1,75.5c0-5,3.9-9,9.1-9c5.2,0,9.1,4,9.1,8.9v0.1c0,4.9-3.9,8.9-9.2,8.9
			C308,84.4,304.1,80.4,304.1,75.5z M318.4,75.5L318.4,75.5c0-3.1-2.2-5.6-5.2-5.6c-3.1,0-5.1,2.5-5.1,5.4v0.1c0,3,2.2,5.5,5.2,5.5
			C316.4,81,318.4,78.5,318.4,75.5z"/>
		<path class="st1" d="M326.2,87.2l1.5-2.9c1.8,1.1,3.8,1.8,6.1,1.8c3.5,0,5.4-1.8,5.4-5.2v-1.3c-1.4,1.8-3.2,3.1-6,3.1
			c-4,0-7.8-3-7.8-8v-0.1c0-5,3.8-8,7.8-8c2.9,0,4.7,1.3,6,2.9v-2.6h3.9v13.6c0,2.9-0.7,5-2.2,6.4c-1.6,1.6-3.9,2.3-7,2.3
			C331,89.2,328.4,88.5,326.2,87.2z M339.1,74.6L339.1,74.6c0-2.9-2.3-4.8-5-4.8c-2.7,0-4.9,1.9-4.9,4.7v0.1c0,2.8,2.2,4.7,4.9,4.7
			C336.8,79.3,339.1,77.4,339.1,74.6z"/>
		<path class="st1" d="M347.8,60.6h4.2v3.7h-4.2V60.6z M347.9,66.9h3.9V84h-3.9V66.9z"/>
		<path class="st1" d="M355.9,75.5L355.9,75.5c0-5,3.5-9,8.3-9c5.4,0,8.2,4.3,8.2,9.2c0,0.4,0,0.7-0.1,1.1h-12.6
			c0.4,2.8,2.4,4.3,4.9,4.3c1.9,0,3.3-0.7,4.6-2l2.3,2c-1.6,1.9-3.9,3.2-7,3.2C359.7,84.4,355.9,80.8,355.9,75.5z M368.6,74.2
			c-0.3-2.5-1.7-4.5-4.3-4.5c-2.4,0-4.1,1.8-4.4,4.5H368.6z"/>
		<path class="st1" d="M374.9,81.8l1.7-2.7c1.8,1.4,3.9,2.1,5.6,2.1c1.7,0,2.7-0.7,2.7-1.8v-0.1c0-1.3-1.8-1.8-3.8-2.4
			c-2.5-0.7-5.3-1.7-5.3-5v-0.1c0-3.2,2.7-5.2,6.1-5.2c2.1,0,4.5,0.7,6.3,1.9l-1.6,2.8c-1.7-1-3.4-1.6-4.8-1.6
			c-1.5,0-2.4,0.7-2.4,1.7v0.1c0,1.2,1.8,1.7,3.9,2.4c2.5,0.8,5.3,1.9,5.3,5v0.1c0,3.6-2.8,5.4-6.3,5.4
			C379.7,84.3,377,83.4,374.9,81.8z"/>
	</g>
</g>
</svg>
