<?xml version="1.0" encoding="utf-8"?>
<!-- Generator: Adobe Illustrator 22.1.0, SVG Export Plug-In . SVG Version: 6.00 Build 0)  -->
<svg version="1.1" id="圖層_1" xmlns="http://www.w3.org/2000/svg" xmlns:xlink="http://www.w3.org/1999/xlink" x="0px" y="0px"
	 width="470px" height="145px" viewBox="0 0 470 145" style="enable-background:new 0 0 470 145;" xml:space="preserve">
<style type="text/css">
	.st0{fill:#5B6670;}
</style>
<g>
	<g>
		<path class="st0" d="M4,2.9h8.5v48.6H4V2.9z"/>
		<path class="st0" d="M24.2,14.8h8.4v5.6c2.4-3.3,5.6-6.3,11.2-6.3c5.3,0,9,2.6,10.9,6.5c3-3.9,6.9-6.5,12.4-6.5
			c8,0,12.8,5.1,12.8,14v23.4h-8.4V30.7c0-5.8-2.7-9-7.4-9c-4.6,0-7.8,3.2-7.8,9.1v20.7h-8.4V30.6c0-5.7-2.8-8.9-7.4-8.9
			c-4.7,0-7.8,3.5-7.8,9.2v20.6h-8.4V14.8z"/>
		<path class="st0" d="M89.9,14.8h8.4v5.6c2.4-3.3,5.6-6.3,11.2-6.3c5.3,0,9,2.6,10.9,6.5c3-3.9,6.9-6.5,12.4-6.5
			c8,0,12.8,5.1,12.8,14v23.4h-8.4V30.7c0-5.8-2.7-9-7.4-9c-4.6,0-7.8,3.2-7.8,9.1v20.7h-8.4V30.6c0-5.7-2.8-8.9-7.4-8.9
			c-4.7,0-7.8,3.5-7.8,9.2v20.6h-8.4V14.8z"/>
		<path class="st0" d="M153.5,33.3v-0.1c0-10.5,7.4-19.1,17.9-19.1c11.7,0,17.6,9.2,17.6,19.7c0,0.8-0.1,1.5-0.1,2.4h-26.9
			c0.9,6,5.1,9.3,10.6,9.3c4.1,0,7-1.5,9.9-4.4l4.9,4.4c-3.5,4.2-8.3,6.9-15,6.9C161.7,52.3,153.5,44.6,153.5,33.3z M180.6,30.6
			c-0.6-5.4-3.8-9.7-9.3-9.7c-5.1,0-8.7,4-9.5,9.7H180.6z"/>
		<path class="st0" d="M197.2,14.8h8.4v5.7c2.4-3.5,5.8-6.5,11.5-6.5c8.3,0,13.1,5.6,13.1,14.1v23.3h-8.4V30.7c0-5.7-2.8-9-7.8-9
			c-4.9,0-8.3,3.4-8.3,9.1v20.7h-8.4V14.8z"/>
		<path class="st0" d="M236.9,46.7l3.7-5.7c4,3,8.3,4.5,12,4.5c3.6,0,5.7-1.5,5.7-4v-0.1c0-2.8-3.9-3.8-8.2-5.1
			c-5.4-1.5-11.5-3.7-11.5-10.8v-0.1c0-6.9,5.8-11.2,13-11.2c4.6,0,9.6,1.6,13.5,4.2l-3.3,6c-3.5-2.2-7.3-3.5-10.3-3.5
			c-3.3,0-5.1,1.5-5.1,3.7v0.1c0,2.6,4,3.7,8.3,5.1c5.3,1.7,11.4,4.1,11.4,10.7v0.1c0,7.7-6,11.5-13.6,11.5
			C247.2,52.2,241.5,50.3,236.9,46.7z"/>
		<path class="st0" d="M272.2,33.3v-0.1c0-10.5,7.4-19.1,17.9-19.1c11.7,0,17.6,9.2,17.6,19.7c0,0.8-0.1,1.5-0.1,2.4h-26.9
			c0.9,6,5.1,9.3,10.6,9.3c4.1,0,7-1.5,9.9-4.4l4.9,4.4c-3.5,4.2-8.3,6.9-15,6.9C280.4,52.3,272.2,44.6,272.2,33.3z M299.4,30.6
			c-0.6-5.4-3.8-9.7-9.3-9.7c-5.1,0-8.7,4-9.5,9.7H299.4z"/>
		<path class="st0" d="M335.3,27.3v-0.1c0-13.7,10.6-25.1,25.5-25.1c14.9,0,25.3,11.3,25.3,25v0.1c0,13.7-10.6,25.1-25.5,25.1
			C345.7,52.3,335.3,41,335.3,27.3z M377.2,27.3v-0.1c0-9.4-6.9-17.3-16.5-17.3c-9.7,0-16.4,7.7-16.4,17.1v0.1
			c0,9.4,6.9,17.3,16.5,17.3C370.4,44.5,377.2,36.8,377.2,27.3z"/>
		<path class="st0" d="M417.6,51.5V47c-2.5,3-6.3,5.3-11.9,5.3c-6.9,0-13-4-13-11.3v-0.1c0-8.1,6.3-12,14.9-12
			c4.4,0,7.3,0.6,10.1,1.5v-0.7c0-5.1-3.2-7.8-9-7.8c-4.1,0-7.2,0.9-10.5,2.3l-2.3-6.7c4-1.8,8-3.1,14-3.1
			c10.8,0,16.1,5.7,16.1,15.5v21.7H417.6z M417.8,36.2c-2.2-0.8-5.1-1.5-8.4-1.5c-5.3,0-8.4,2.2-8.4,5.7v0.1c0,3.5,3.1,5.4,7.1,5.4
			c5.6,0,9.7-3.1,9.7-7.7V36.2z"/>
		<path class="st0" d="M435.7,0.8h8.4v30.3l15.2-16.2h10.2l-14.6,14.9L470,51.5h-9.7l-11-15.8l-5.1,5.3v10.5h-8.4V0.8z"/>
	</g>
	<g>
		<path class="st0" d="M15.4,92.2H0v-7.9h39.4v7.9H24v40.7h-8.6V92.2z"/>
		<path class="st0" d="M37.2,114.7v-0.1c0-10.5,7.4-19.1,17.9-19.1c11.7,0,17.6,9.2,17.6,19.7c0,0.8-0.1,1.5-0.1,2.4H45.6
			c0.9,6,5.1,9.3,10.6,9.3c4.1,0,7-1.5,9.9-4.4l4.9,4.4c-3.5,4.2-8.3,6.9-15,6.9C45.4,133.8,37.2,126.1,37.2,114.7z M64.4,112
			c-0.6-5.4-3.8-9.7-9.3-9.7c-5.1,0-8.8,4-9.5,9.7H64.4z"/>
		<path class="st0" d="M78.9,114.8v-0.1c0-10.4,8.1-19.2,19-19.2c6.9,0,11.2,2.6,14.6,6.3l-5.2,5.6c-2.6-2.7-5.3-4.6-9.5-4.6
			c-6.1,0-10.6,5.3-10.6,11.7v0.1c0,6.5,4.5,11.8,11,11.8c4,0,6.9-1.9,9.5-4.6l5.1,5c-3.6,4-7.8,6.9-15,6.9
			C86.9,133.8,78.9,125.2,78.9,114.8z"/>
		<path class="st0" d="M120.3,82.2h8.4V102c2.4-3.5,5.8-6.5,11.5-6.5c8.3,0,13.1,5.6,13.1,14.1v23.3h-8.4v-20.8c0-5.7-2.8-9-7.8-9
			c-4.9,0-8.3,3.4-8.3,9.1v20.7h-8.4V82.2z"/>
		<path class="st0" d="M163,96.3h8.4v5.7c2.4-3.5,5.8-6.5,11.5-6.5c8.3,0,13.1,5.6,13.1,14.1v23.3h-8.4v-20.8c0-5.7-2.8-9-7.8-9
			c-4.9,0-8.3,3.4-8.3,9.1v20.7H163V96.3z"/>
		<path class="st0" d="M203.7,114.8v-0.1c0-10.5,8.3-19.2,19.6-19.2c11.2,0,19.5,8.5,19.5,19v0.1c0,10.4-8.3,19.1-19.6,19.1
			C211.9,133.8,203.7,125.2,203.7,114.8z M234.4,114.8v-0.1c0-6.5-4.7-11.8-11.2-11.8c-6.7,0-11,5.3-11,11.7v0.1
			c0,6.4,4.6,11.8,11.2,11.8C230.1,126.5,234.4,121.1,234.4,114.8z"/>
		<path class="st0" d="M251.5,82.2h8.4v50.7h-8.4V82.2z"/>
		<path class="st0" d="M268.6,114.8v-0.1c0-10.5,8.3-19.2,19.6-19.2c11.2,0,19.5,8.5,19.5,19v0.1c0,10.4-8.3,19.1-19.6,19.1
			C276.8,133.8,268.6,125.2,268.6,114.8z M299.2,114.8v-0.1c0-6.5-4.7-11.8-11.2-11.8c-6.7,0-11,5.3-11,11.7v0.1
			c0,6.4,4.6,11.8,11.2,11.8C294.9,126.5,299.2,121.1,299.2,114.8z"/>
		<path class="st0" d="M315.8,139.8l3.1-6.3c3.9,2.4,8.1,3.9,13.1,3.9c7.5,0,11.6-3.9,11.6-11.2v-2.8c-3.1,4-6.9,6.7-12.9,6.7
			c-8.6,0-16.7-6.4-16.7-17.2v-0.1c0-10.8,8.1-17.2,16.7-17.2c6.2,0,10,2.8,12.8,6.2v-5.5h8.4v29.2c0,6.2-1.6,10.8-4.6,13.8
			c-3.3,3.3-8.5,4.9-15.1,4.9C326.2,144.2,320.6,142.6,315.8,139.8z M343.7,112.9v-0.1c0-6-4.9-10.1-10.8-10.1s-10.4,4-10.4,10.1
			v0.1c0,6,4.7,10.1,10.4,10.1C338.8,122.9,343.7,118.8,343.7,112.9z"/>
		<path class="st0" d="M362.2,82.7h9v8h-9V82.7z M362.6,96.3h8.4v36.7h-8.4V96.3z"/>
		<path class="st0" d="M379.7,114.7v-0.1c0-10.5,7.4-19.1,17.9-19.1c11.7,0,17.6,9.2,17.6,19.7c0,0.8-0.1,1.5-0.1,2.4h-26.9
			c0.9,6,5.1,9.3,10.6,9.3c4.1,0,7-1.5,9.9-4.4l4.9,4.4c-3.5,4.2-8.3,6.9-15,6.9C387.9,133.8,379.7,126.1,379.7,114.7z M406.8,112
			c-0.6-5.4-3.8-9.7-9.3-9.7c-5.1,0-8.8,4-9.5,9.7H406.8z"/>
		<path class="st0" d="M420.4,128.1l3.7-5.7c4,3,8.3,4.5,12,4.5c3.6,0,5.7-1.5,5.7-4v-0.1c0-2.8-3.9-3.8-8.2-5.1
			c-5.4-1.5-11.5-3.7-11.5-10.8v-0.1c0-6.9,5.8-11.2,13-11.2c4.6,0,9.6,1.6,13.5,4.2l-3.3,6c-3.5-2.2-7.3-3.5-10.3-3.5
			c-3.3,0-5.1,1.5-5.1,3.7v0.1c0,2.6,4,3.7,8.3,5.1c5.3,1.7,11.4,4.1,11.4,10.7v0.1c0,7.7-6,11.5-13.6,11.5
			C430.7,133.6,424.9,131.7,420.4,128.1z"/>
	</g>
</g>
</svg>
