<?xml version="1.0" encoding="utf-8"?>
<!-- Generator: Adobe Illustrator 22.1.0, SVG Export Plug-In . SVG Version: 6.00 Build 0)  -->
<svg version="1.1" id="圖層_1" xmlns="http://www.w3.org/2000/svg" xmlns:xlink="http://www.w3.org/1999/xlink" x="0px" y="0px"
	 width="30px" height="30px" viewBox="0 0 30 30" style="enable-background:new 0 0 30 30;" xml:space="preserve">
<style type="text/css">
	.st0{fill:#5B6670;}
</style>
<path class="st0" d="M21.1,5C16.7,0.6,9.5,0.6,5,5C0.6,9.5,0.6,16.7,5,21.1c3.9,3.9,9.8,4.4,14.2,1.5l5,5c0.9,0.9,2.4,0.9,3.4,0
	c0.9-0.9,0.9-2.4,0-3.4l-5-5C25.5,14.8,25,8.9,21.1,5z M18.8,18.8c-3.1,3.1-8.2,3.1-11.4,0s-3.1-8.2,0-11.4s8.2-3.1,11.4,0
	S21.9,15.6,18.8,18.8z"/>
</svg>
