<?xml version="1.0" encoding="UTF-8" standalone="no"?>
<svg
   xmlns:dc="http://purl.org/dc/elements/1.1/"
   xmlns:cc="http://creativecommons.org/ns#"
   xmlns:rdf="http://www.w3.org/1999/02/22-rdf-syntax-ns#"
   xmlns:svg="http://www.w3.org/2000/svg"
   xmlns="http://www.w3.org/2000/svg"
   xmlns:sodipodi="http://sodipodi.sourceforge.net/DTD/sodipodi-0.dtd"
   xmlns:inkscape="http://www.inkscape.org/namespaces/inkscape"
   sodipodi:docname="issues.svg"
   inkscape:version="1.0beta1 (3dbde4b, 2019-11-12)"
   id="svg120"
   version="1.1"
   viewBox="0 0 33.927578 7.8739748"
   height="7.8739748mm"
   width="33.927578mm">
  <defs
     id="defs114" />
  <sodipodi:namedview
     inkscape:window-maximized="1"
     inkscape:window-y="0"
     inkscape:window-x="1920"
     inkscape:window-height="1005"
     inkscape:window-width="1920"
     showgrid="false"
     inkscape:document-rotation="0"
     inkscape:current-layer="layer1"
     inkscape:document-units="mm"
     inkscape:cy="383.32561"
     inkscape:cx="334.10287"
     inkscape:zoom="0.35"
     inkscape:pageshadow="2"
     inkscape:pageopacity="0.0"
     borderopacity="1.0"
     bordercolor="#666666"
     pagecolor="#ffffff"
     id="base" />
  <metadata
     id="metadata117">
    <rdf:RDF>
      <cc:Work
         rdf:about="">
        <dc:format>image/svg+xml</dc:format>
        <dc:type
           rdf:resource="http://purl.org/dc/dcmitype/StillImage" />
        <dc:title></dc:title>
      </cc:Work>
    </rdf:RDF>
  </metadata>
  <g
     transform="translate(-17.435284,-46.745098)"
     id="layer1"
     inkscape:groupmode="layer"
     inkscape:label="圖層 1">
    <g
       style="font-weight:bold;font-size:10.5833px;line-height:1.25;font-family:'Avenir LT Std';-inkscape-font-specification:'Avenir LT Std Bold';letter-spacing:0px;word-spacing:0px;stroke-width:0.264583"
       id="text124"
       aria-label="ISSUES">
      <path
         id="path126"
         style="stroke-width:0.264583"
         d="m 17.435284,54.428574 h 1.333495 v -7.492977 h -1.333495 z" />
      <path
         id="path128"
         style="stroke-width:0.264583"
         d="m 25.048314,47.517679 c -0.582082,-0.550332 -1.365246,-0.772581 -2.14841,-0.772581 -1.386412,0 -2.762241,0.719664 -2.762241,2.264826 0,2.677575 3.555989,1.735661 3.555989,3.376073 0,0.687914 -0.698498,1.02658 -1.31233,1.02658 -0.592664,0 -1.153579,-0.285749 -1.481662,-0.783164 l -1.005413,0.973663 c 0.613831,0.730248 1.523995,1.015997 2.455326,1.015997 1.471078,0 2.741074,-0.783164 2.741074,-2.391826 0,-2.666991 -3.555989,-1.809744 -3.555989,-3.312573 0,-0.687914 0.613832,-0.96308 1.227663,-0.96308 0.518582,0 1.02658,0.1905 1.312329,0.592665 z" />
      <path
         id="path130"
         style="stroke-width:0.264583"
         d="m 31.125443,47.517679 c -0.582082,-0.550332 -1.365246,-0.772581 -2.14841,-0.772581 -1.386412,0 -2.762241,0.719664 -2.762241,2.264826 0,2.677575 3.555988,1.735661 3.555988,3.376073 0,0.687914 -0.698498,1.02658 -1.312329,1.02658 -0.592665,0 -1.15358,-0.285749 -1.481662,-0.783164 l -1.005413,0.973663 c 0.613831,0.730248 1.523995,1.015997 2.455325,1.015997 1.471079,0 2.741075,-0.783164 2.741075,-2.391826 0,-2.666991 -3.555989,-1.809744 -3.555989,-3.312573 0,-0.687914 0.613831,-0.96308 1.227663,-0.96308 0.518582,0 1.02658,0.1905 1.312329,0.592665 z" />
      <path
         id="path132"
         style="stroke-width:0.264583"
         d="m 38.557234,46.935597 h -1.333495 v 4.698986 c 0,0.74083 -0.402166,1.714494 -1.682745,1.714494 -1.280579,0 -1.682745,-0.973664 -1.682745,-1.714494 v -4.698986 h -1.333495 v 4.741319 c 0,1.809744 1.301745,2.942157 3.01624,2.942157 1.714494,0 3.01624,-1.132413 3.01624,-2.942157 z" />
      <path
         id="path134"
         style="stroke-width:0.264583"
         d="m 40.20459,54.428574 h 5.154067 v -1.206497 h -3.820571 v -2.031993 h 3.439572 v -1.206496 h -3.439572 v -1.841494 h 3.630071 V 46.935597 H 40.20459 Z" />
      <path
         id="path136"
         style="stroke-width:0.264583"
         d="m 51.320528,47.517679 c -0.582081,-0.550332 -1.365246,-0.772581 -2.14841,-0.772581 -1.386412,0 -2.762241,0.719664 -2.762241,2.264826 0,2.677575 3.555989,1.735661 3.555989,3.376073 0,0.687914 -0.698498,1.02658 -1.312329,1.02658 -0.592665,0 -1.15358,-0.285749 -1.481662,-0.783164 l -1.005414,0.973663 c 0.613832,0.730248 1.523995,1.015997 2.455326,1.015997 1.471078,0 2.741074,-0.783164 2.741074,-2.391826 0,-2.666991 -3.555988,-1.809744 -3.555988,-3.312573 0,-0.687914 0.613831,-0.96308 1.227662,-0.96308 0.518582,0 1.02658,0.1905 1.31233,0.592665 z" />
    </g>
  </g>
</svg>
