<?xml version="1.0" encoding="utf-8"?>
<!-- Generator: Adobe Illustrator 22.1.0, SVG Export Plug-In . SVG Version: 6.00 Build 0)  -->
<svg version="1.1" id="圖層_1" xmlns="http://www.w3.org/2000/svg" xmlns:xlink="http://www.w3.org/1999/xlink" x="0px" y="0px"
	 width="150px" height="90px" viewBox="0 0 150 90" style="enable-background:new 0 0 150 90;" xml:space="preserve">
<style type="text/css">
	.st0{fill:#A8AD00;}
</style>
<g>
	<path class="st0" d="M25.2,8.7c0-4.4-3.5-7.9-7.9-7.9c-4.4,0-7.9,3.5-7.9,7.9c0,4.4,3.5,7.9,7.9,7.9C21.7,16.5,25.2,13,25.2,8.7
		 M2.3,84.9h34v-4.8h-6.8c-1.5,0-2.7-0.4-3.7-1.3c-0.7-0.6-1-1.6-1-3V24.4L1,25.1v4.8h4.9c2.7,0,4.7,0.6,6.1,1.8c1.4,1.2,2,3,2,5.4
		v37.6c0,1.7-0.4,3.1-1.3,4c-0.9,0.9-2.2,1.4-4.1,1.4H2.3V84.9z M80,62.6c-1-1-1.4-2.4-1.2-3.7c1.4-0.2,2.7,0.2,3.7,1.2
		c1,1,1.4,2.4,1.2,3.7C82.4,64,81,63.6,80,62.6 M58.4,47.8c1,0,1.8,0.8,1.8,1.8c0,1-0.8,1.8-1.8,1.8c-1,0-1.8-0.8-1.8-1.8
		C56.7,48.5,57.5,47.8,58.4,47.8 M86,58.9h-7.9c-4.5,0-7.7,2.8-7.7,6.8v2.2h0c0,0,0,0,0,0.1h0c0,1.7,1.4,3,3,3v0c2.1,0.1,4,1.3,5,3
		c1.5,0.2,2.8,1.1,3.5,2.4H54.6c1.6-2.2,4.2-3.6,7.1-3.6v0v0c3.1,0,5.6-2.5,5.6-5.6v-4.6c0-3.5-2.9-6.4-6.4-6.4h-8.5c-5,0-9-4.1-9-9
		h3.1c0,3.3,2.7,6,6,6h0.2c-1.1-0.8-1.8-2.1-1.8-3.5c0-1.4,0.7-2.7,1.8-3.5c1.1,0.8,1.8,2.1,1.8,3.5c0,1.4-0.7,2.7-1.8,3.5h8.3
		c1.4,0,2.7,0.3,3.8,0.8v-3.8c0-1.7-1.4-3-3-3c-3.3,0-6-2.7-6-6v-5.9h3.1V41c0,0.3,0.1,0.6,0.2,0.9c-0.1-1.3,0.2-2.7,1.2-3.6
		c1-1,2.4-1.4,3.7-1.2c0.2,1.4-0.2,2.7-1.2,3.7c-1,1-2.4,1.4-3.7,1.2c0.4,1.1,1.4,1.9,2.7,1.9c1.3,0,2.5,0.4,3.4,1.1h1.1
		c2.8,0,5.1-2.3,5.1-5.1v-9.4h3.1v9.4c0,4.1-3.1,7.6-7,8.1c0.2,0.6,0.4,1.3,0.4,2.1v6c0.8,0.9,1.5,1.9,1.9,3.1
		c0.7-0.8,1.6-1.5,2.6-2v-3c0-3.4,2.8-6.2,6.2-6.2h0.9c0.1,0,0.2-0.1,0.3-0.1c-1.1-0.8-1.7-2.1-1.7-3.5c0-1.4,0.7-2.7,1.8-3.5
		c1.1,0.8,1.8,2.1,1.8,3.5c0,1.4-0.7,2.6-1.7,3.4c2.4-0.2,4.3-2.2,4.3-4.7v-2.3h3.1v2.3c0,4.3-3.5,7.9-7.9,7.9h-0.9
		c-1.7,0-3.1,1.4-3.1,3.1V56c0.8-0.2,1.7-0.3,2.6-0.3H86c2.9,0,5.3-2.4,5.3-5.3v-3.7h3.1v3.7C94.3,55.1,90.6,58.9,86,58.9
		 M87.4,50.8c0.2,1.4-0.2,2.7-1.2,3.7c-1,1-2.4,1.4-3.7,1.2c-0.2-1.4,0.2-2.7,1.2-3.7C84.7,51,86.1,50.6,87.4,50.8 M92.2,40.7
		c0.2,1.4-0.2,2.7-1.2,3.7c-1,1-2.4,1.4-3.7,1.2c-0.2-1.4,0.2-2.7,1.2-3.7C89.4,41,90.8,40.6,92.2,40.7 M79.5,34.6
		c0.2,1.4-0.2,2.7-1.2,3.7c-1,1-2.4,1.4-3.7,1.2c-0.2-1.4,0.2-2.7,1.2-3.7C76.8,34.8,78.1,34.4,79.5,34.6 M71.4,36.9
		c-1.4,0.2-2.7-0.2-3.7-1.2c-1-1-1.4-2.4-1.2-3.7c1.4-0.2,2.7,0.2,3.7,1.2C71.2,34.1,71.6,35.5,71.4,36.9 M66.5,39.3
		c1,0,1.8,0.8,1.8,1.8c0,1-0.8,1.8-1.8,1.8c-1,0-1.8-0.8-1.8-1.8C64.7,40.1,65.5,39.3,66.5,39.3 M55.7,39.5
		c-1.4,0.2-2.7-0.2-3.7-1.2c-1-1-1.4-2.4-1.2-3.7c1.4-0.2,2.7,0.2,3.7,1.2C55.4,36.8,55.8,38.2,55.7,39.5 M50.3,40.6
		c1,0,1.8,0.8,1.8,1.8c0,1-0.8,1.8-1.8,1.8c-1,0-1.8-0.8-1.8-1.8C48.5,41.3,49.3,40.6,50.3,40.6 M42.7,59.8
		c-0.2-1.4,0.2-2.7,1.2-3.7c1-1,2.4-1.4,3.7-1.2c0.2,1.4-0.2,2.7-1.2,3.7C45.4,59.5,44,59.9,42.7,59.8 M53.4,58.6
		c0-1,0.8-1.8,1.8-1.8s1.8,0.8,1.8,1.8c0,1-0.8,1.8-1.8,1.8S53.4,59.5,53.4,58.6 M101.2,54c0-17.9-14.5-32.4-32.4-32.4
		S36.4,36.1,36.4,54c0,17.9,14.5,32.4,32.4,32.4S101.2,72,101.2,54 M124.7,69.3V31H144v-5.9h-19.3V0.8h-4.3
		c-0.3,8.5-2.3,15.1-6,19.8c-2.5,3.1-6.1,5.1-10.8,5.9V31H114v40.1c0,4.4,1.4,7.9,4.2,10.6c2.8,2.7,6.6,4,11.6,4
		c5.4,0,9.7-1.9,13.1-5.8c3.4-3.8,5.2-9.7,5.4-17.7H144c-0.3,6.2-1.5,10.6-3.6,13.3c-2,2.7-4.5,4-7.4,4c-2.4,0-4.4-0.9-6-2.6
		C125.4,75.2,124.7,72.6,124.7,69.3"/>
</g>
</svg>
