<svg xmlns="http://www.w3.org/2000/svg" xmlns:xlink="http://www.w3.org/1999/xlink" viewBox="0 0 710 350"><defs><style>.cls-1{fill:none;}.cls-2{clip-path:url(#clip-path);}.cls-3{fill:#72cbd0;}.cls-4{fill:#879096;}</style><clipPath id="clip-path"><rect class="cls-1" x="0.11" width="709.77" height="350"/></clipPath></defs><g id="字"><g id="圖稿_5" data-name="圖稿 5"><g class="cls-2"><rect class="cls-3" x="0.12" y="75" width="50" height="50"/><polygon class="cls-4" points="175.12 0 58.44 116.67 0.12 175 0.12 350 175.12 175 175.12 0"/><rect class="cls-3" x="0.12" y="175" width="50" height="75"/><polygon class="cls-3" points="50.11 125 0.11 175 125.12 175 125.12 125 50.11 125"/><rect class="cls-3" x="229.17" y="125.08" width="8.76" height="49.85"/><g class="cls-2"><path class="cls-3" d="M250,137.33h8.62V143c2.42-3.35,5.7-6.48,11.47-6.48,5.41,0,9.26,2.63,11.25,6.62,3-4,7-6.62,12.68-6.62,8.19,0,13.17,5.2,13.17,14.39v24h-8.62V153.57c0-6-2.77-9.19-7.61-9.19s-8.06,3.28-8.06,9.34v21.22h-8.61V153.5c0-5.84-2.85-9.12-7.62-9.12s-8.05,3.56-8.05,9.34v21.22H250Z"/><path class="cls-3" d="M317.24,137.33h8.62V143c2.42-3.35,5.7-6.48,11.47-6.48,5.41,0,9.26,2.63,11.25,6.62,3-4,7-6.62,12.68-6.62,8.19,0,13.17,5.2,13.17,14.39v24h-8.61V153.57c0-6-2.78-9.19-7.63-9.19-4.69,0-8,3.28-8,9.34v21.22h-8.62V153.5c0-5.84-2.85-9.12-7.62-9.12s-8.05,3.56-8.05,9.34v21.22h-8.62Z"/><path class="cls-3" d="M382.46,156.27v-.14c0-10.75,7.62-19.58,18.38-19.58,12,0,18,9.4,18,20.22,0,.79-.08,1.57-.15,2.43H391.08c.93,6.12,5.27,9.54,10.82,9.54,4.21,0,7.2-1.57,10.19-4.49l5.06,4.49a19.05,19.05,0,0,1-15.39,7c-10.89,0-19.3-7.91-19.3-19.52m27.85-2.77c-.57-5.56-3.85-9.9-9.54-9.9-5.27,0-9,4.06-9.76,9.9Z"/><path class="cls-3" d="M427.25,137.33h8.62v5.77c2.42-3.49,5.91-6.55,11.75-6.55,8.47,0,13.38,5.69,13.38,14.39v24h-8.61V153.57c0-5.84-2.92-9.19-8.05-9.19-5,0-8.47,3.49-8.47,9.34v21.22h-8.62Z"/><path class="cls-3" d="M468,170l3.85-5.84c4.13,3.07,8.47,4.63,12.32,4.63s5.84-1.56,5.84-4.06v-.14c0-2.92-4-3.92-8.41-5.27-5.55-1.57-11.75-3.85-11.75-11v-.14c0-7.13,5.92-11.47,13.39-11.47A26.1,26.1,0,0,1,497,141l-3.42,6.13c-3.63-2.21-7.48-3.56-10.61-3.56-3.35,0-5.27,1.56-5.27,3.7v.14c0,2.78,4.06,3.92,8.47,5.34,5.49,1.71,11.68,4.21,11.68,11v.14c0,7.91-6.12,11.82-13.95,11.82A26.43,26.43,0,0,1,468,170"/><path class="cls-3" d="M504.29,156.27v-.14c0-10.75,7.61-19.58,18.37-19.58,12,0,18,9.4,18,20.22,0,.79-.08,1.57-.14,2.43H512.9c.93,6.12,5.28,9.54,10.83,9.54,4.2,0,7.19-1.57,10.18-4.49l5.06,4.49a19.05,19.05,0,0,1-15.39,7c-10.89,0-19.29-7.91-19.29-19.52m27.84-2.77c-.56-5.56-3.85-9.9-9.54-9.9-5.27,0-9,4.06-9.76,9.9Z"/><path class="cls-3" d="M571.75,150.15V150c0-14,10.83-25.78,26.14-25.78s26,11.61,26,25.63V150c0,14-10.82,25.78-26.13,25.78s-26-11.61-26-25.64m43,0V150c0-9.69-7.05-17.73-17-17.73s-16.81,7.9-16.81,17.58V150c0,9.68,7,17.66,16.95,17.66s16.81-7.83,16.81-17.52"/><path class="cls-3" d="M630.71,164.11V164c0-8.12,6.33-12.11,15.52-12.11a31.39,31.39,0,0,1,10.12,1.57v-.93c0-5.34-3.28-8.19-9.33-8.19a26.09,26.09,0,0,0-10.76,2.35L634,139.9a32,32,0,0,1,14.17-3.06c5.63,0,9.83,1.49,12.47,4.2s4.06,6.69,4.06,11.6v22.3h-8.41v-4.7A15.28,15.28,0,0,1,644,175.72c-7,0-13.31-4.06-13.31-11.61m25.78-2.71v-2.56a23.79,23.79,0,0,0-8.55-1.5c-5.56,0-8.84,2.35-8.84,6.27v.14c0,3.64,3.22,5.7,7.34,5.7,5.7,0,10-3.27,10-8"/><polygon class="cls-3" points="674.7 122.95 683.32 122.95 683.32 153.99 698.92 137.33 709.39 137.33 694.43 152.65 709.88 174.94 699.78 174.94 688.66 158.63 683.32 164.18 683.32 174.94 674.7 174.94 674.7 122.95"/><polygon class="cls-3" points="240.93 208.19 225.11 208.19 225.11 200.06 265.57 200.06 265.57 208.19 249.75 208.19 249.75 249.92 240.93 249.92 240.93 208.19"/><path class="cls-3" d="M265.21,231.26v-.14c0-10.76,7.62-19.59,18.38-19.59,12,0,18,9.4,18,20.23,0,.78-.07,1.57-.14,2.42H273.82c.93,6.12,5.28,9.54,10.83,9.54,4.2,0,7.19-1.56,10.18-4.48l5.06,4.48a19,19,0,0,1-15.38,7.06c-10.9,0-19.3-7.91-19.3-19.52m27.85-2.78c-.57-5.55-3.85-9.9-9.55-9.9-5.26,0-9,4.06-9.75,9.9Z"/><path class="cls-3" d="M309.86,231.33v-.14a19.41,19.41,0,0,1,19.59-19.66,19,19,0,0,1,15,6.48l-5.41,5.77c-2.64-2.78-5.42-4.7-9.69-4.7-6.27,0-10.9,5.42-10.9,12v.15c0,6.7,4.63,12,11.25,12,4.06,0,7-1.86,9.76-4.63l5.2,5.12c-3.71,4.13-8.05,7.05-15.39,7.05a19.19,19.19,0,0,1-19.44-19.44"/><path class="cls-3" d="M354.23,197.93h8.62v20.16c2.42-3.49,5.91-6.56,11.74-6.56,8.48,0,13.4,5.7,13.4,14.39v24h-8.62V228.55c0-5.84-2.92-9.18-8.05-9.18s-8.47,3.48-8.47,9.32v21.23h-8.62Z"/><path class="cls-3" d="M400,212.32h8.62v5.77c2.42-3.5,5.91-6.56,11.75-6.56,8.47,0,13.38,5.7,13.38,14.39v24h-8.61V228.55c0-5.84-2.92-9.18-8-9.18s-8.47,3.49-8.47,9.33v21.22H400Z"/><path class="cls-3" d="M443.6,231.33v-.14a19.67,19.67,0,0,1,20.09-19.66c11.53,0,20,8.76,20,19.51v.15c0,10.68-8.55,19.58-20.15,19.58S443.6,242,443.6,231.33m31.48,0v-.14c0-6.62-4.77-12.11-11.53-12.11-6.91,0-11.33,5.42-11.33,12v.15c0,6.55,4.77,12,11.47,12,7,0,11.39-5.42,11.39-11.9"/><rect class="cls-3" x="494.59" y="197.93" width="8.61" height="51.99"/><path class="cls-3" d="M514,231.33v-.14a19.66,19.66,0,0,1,20.08-19.66c11.53,0,20,8.76,20,19.51v.15c0,10.68-8.54,19.58-20.15,19.58S514,242,514,231.33m31.47,0v-.14c0-6.62-4.77-12.11-11.53-12.11s-11.33,5.42-11.33,12v.15c0,6.55,4.78,12,11.47,12,7,0,11.39-5.42,11.39-11.9"/><path class="cls-3" d="M564.38,257l3.21-6.48a24.67,24.67,0,0,0,13.39,4c7.69,0,11.89-4,11.89-11.54V240c-3.13,4.06-7,6.91-13.24,6.91-8.83,0-17.1-6.56-17.1-17.6v-.14c0-11.1,8.33-17.66,17.1-17.66,6.33,0,10.25,2.92,13.17,6.41v-5.62h8.62v29.9c0,6.35-1.64,11.05-4.77,14.18-3.42,3.42-8.69,5.06-15.45,5.06A32.43,32.43,0,0,1,564.38,257M593,229.27v-.15c0-6.12-5.06-10.33-11.05-10.33s-10.68,4.14-10.68,10.33v.15c0,6.12,4.77,10.32,10.68,10.32S593,235.39,593,229.27"/><path class="cls-3" d="M614,198.36h9.26v8.19H614Zm.36,14h8.62v37.6h-8.62Z"/><path class="cls-3" d="M633.75,231.26v-.14c0-10.76,7.62-19.59,18.38-19.59,12,0,18,9.4,18,20.23,0,.78-.08,1.57-.14,2.42H642.37c.93,6.12,5.27,9.54,10.82,9.54,4.21,0,7.2-1.56,10.18-4.48l5.06,4.48a19,19,0,0,1-15.38,7.06c-10.89,0-19.3-7.91-19.3-19.52m27.85-2.78c-.57-5.55-3.85-9.9-9.55-9.9-5.26,0-9,4.06-9.75,9.9Z"/><path class="cls-3" d="M677.41,245l3.84-5.83c4.13,3.06,8.48,4.62,12.32,4.62s5.84-1.56,5.84-4.06v-.14c0-2.92-4-3.91-8.4-5.27-5.56-1.56-11.75-3.85-11.75-11v-.14c0-7.12,5.91-11.47,13.38-11.47A26,26,0,0,1,706.46,216l-3.41,6.12c-3.64-2.21-7.48-3.56-10.62-3.56-3.34,0-5.27,1.57-5.27,3.71v.14c0,2.77,4.06,3.92,8.48,5.34,5.49,1.71,11.68,4.2,11.68,11v.14c0,7.91-6.13,11.82-14,11.82a26.37,26.37,0,0,1-16-5.63"/></g></g></g></g></svg>