<?xml version="1.0" encoding="utf-8"?>
<!-- Generator: Adobe Illustrator 22.1.0, SVG Export Plug-In . SVG Version: 6.00 Build 0)  -->
<svg version="1.1" id="圖層_1" xmlns="http://www.w3.org/2000/svg" xmlns:xlink="http://www.w3.org/1999/xlink" x="0px" y="0px"
	 width="550px" height="180px" viewBox="0 0 550 180" style="enable-background:new 0 0 550 180;" xml:space="preserve">
<style type="text/css">
	.st0{fill:#231815;stroke:#000000;stroke-miterlimit:10;}
</style>
<g>
	<g>
		<path class="st0" d="M195.8,3.7h19.1l6.2,25.6h0.1l6.2-25.6h19.1v43.6h-12.7v-28h-0.1l-7.6,27.9h-10l-7.6-27.9h-0.1v27.9h-12.7
			V3.7H195.8z"/>
		<path class="st0" d="M267,3.7h13.1L296,47.2h-13.9l-1.8-6.2h-13.8l-2,6.2H251L267,3.7z M277.6,31.7l-3.9-13.4h-0.1l-4.2,13.4
			H277.6z"/>
		<path class="st0" d="M327.9,19.9c-0.2-1.6-1.5-6.4-7-6.4c-6.3,0-8.3,6.1-8.3,12s2,12,8.3,12c4.5,0,6.3-3.2,7.1-7.3h13.2
			c0,8.8-7.1,18.1-19.9,18.1c-14.1,0-22.1-9.9-22.1-22.8c0-13.7,8.7-22.8,22.1-22.8C333.3,2.8,339.8,9,341,20h-13.1V19.9z"/>
		<path class="st0" d="M348.3,3.7h13.4v15.1h12.6V3.7h13.4v43.6h-13.4V30h-12.6v17.3h-13.4V3.7z"/>
		<path class="st0" d="M396.1,3.7h13.4v43.6h-13.4V3.7z"/>
		<path class="st0" d="M418,3.7h13.7L444.4,27h0.1V3.7h12.7v43.6h-13.1l-13.4-23.8h-0.1v23.8H418V3.7z"/>
		<path class="st0" d="M465.8,3.7h36.1v11.2h-22.6v5.4h20.6v10.4h-20.6v5.4h23.3v11.2h-36.7L465.8,3.7L465.8,3.7z"/>
		<path class="st0" d="M520.9,32.6c0,1.1,0.2,2.1,0.5,2.9c1,2.6,3.9,3.2,6.4,3.2c2.2,0,5.6-0.7,5.6-4c0-2.3-1.9-2.9-9.4-5
			c-6.9-2-14.8-3.8-14.8-12.6c0-10.1,8.6-14.4,17.6-14.4c9.5,0,17.8,3.6,18.2,14.2h-12.7c0.2-1.6-0.5-2.7-1.6-3.5s-2.6-1.1-4-1.1
			c-1.8,0-4.8,0.5-4.8,2.9c0.2,3.1,6.5,3.8,12.6,5.5c6.2,1.7,12.3,4.6,12.3,12.6c0,11.3-10.4,15-20.1,15c-4.9,0-19-1.8-19.2-15.7
			C507.5,32.6,520.9,32.6,520.9,32.6z"/>
	</g>
	<g>
		<path d="M3.1,169.3c0.5-0.5,1-0.8,1.6-0.9c0.6-0.1,1.1,0,1.7,0.2s1.2,0.5,1.7,0.9s1.1,0.9,1.6,1.4s1,1,1.4,1.6s0.7,1.1,0.9,1.7
			c0.2,0.6,0.2,1.2,0.1,1.7c-0.1,0.6-0.4,1.1-0.9,1.6s-1,0.8-1.6,0.9c-0.6,0.1-1.1,0-1.7-0.1s-1.2-0.5-1.7-0.9
			c-0.6-0.4-1.1-0.9-1.6-1.4s-1-1-1.4-1.6s-0.7-1.1-0.9-1.7c-0.2-0.6-0.2-1.2-0.1-1.7S2.6,169.7,3.1,169.3z M3.8,169.9
			c-0.3,0.3-0.5,0.7-0.5,1.2c0,0.4,0.1,0.9,0.3,1.4s0.5,0.9,0.8,1.4c0.4,0.5,0.7,0.9,1.1,1.3c0.4,0.4,0.8,0.8,1.3,1.1
			c0.5,0.4,0.9,0.6,1.4,0.8s0.9,0.3,1.3,0.3c0.4,0,0.8-0.2,1.2-0.5c0.3-0.3,0.5-0.7,0.5-1.2s-0.1-0.9-0.3-1.3
			c-0.2-0.5-0.5-0.9-0.8-1.4s-0.7-0.9-1.1-1.3c-0.4-0.4-0.8-0.8-1.3-1.1c-0.5-0.4-0.9-0.6-1.4-0.8s-0.9-0.3-1.4-0.3
			C4.5,169.4,4.1,169.6,3.8,169.9z"/>
		<path d="M23.7,164.6l-0.8,0.8l-6.8-6.8l-0.2,2.6l-1-0.1l0.4-3.6l0.7-0.7L23.7,164.6z"/>
		<path d="M26.8,145.5c0.5-0.5,1-0.8,1.6-0.9c0.6-0.1,1.1,0,1.7,0.2s1.2,0.5,1.7,0.9c0.6,0.4,1.1,0.9,1.6,1.4s1,1,1.4,1.6
			s0.7,1.1,0.9,1.7c0.2,0.6,0.2,1.2,0.1,1.7c-0.1,0.6-0.4,1.1-0.9,1.6s-1,0.8-1.6,0.9s-1.1,0-1.7-0.1c-0.6-0.2-1.2-0.5-1.7-0.9
			c-0.6-0.4-1.1-0.9-1.6-1.4s-1-1-1.4-1.6s-0.7-1.1-0.9-1.7c-0.2-0.6-0.2-1.2-0.2-1.7S26.4,146,26.8,145.5z M27.5,146.2
			c-0.3,0.3-0.5,0.7-0.5,1.2s0.1,0.9,0.3,1.4c0.2,0.5,0.5,0.9,0.8,1.4c0.4,0.5,0.7,0.9,1.1,1.3s0.8,0.8,1.3,1.1
			c0.5,0.4,0.9,0.6,1.4,0.8s0.9,0.3,1.3,0.3c0.4,0,0.8-0.2,1.2-0.5c0.3-0.3,0.5-0.7,0.5-1.2c0-0.4-0.1-0.9-0.3-1.3
			c-0.2-0.5-0.5-0.9-0.8-1.4s-0.7-0.9-1.1-1.3c-0.4-0.4-0.8-0.8-1.3-1.1c-0.5-0.4-0.9-0.6-1.4-0.8s-0.9-0.3-1.4-0.3
			S27.9,145.8,27.5,146.2z"/>
		<path d="M47.5,140.9l-0.8,0.8l-6.8-6.8l-0.2,2.6l-1-0.1l0.4-3.6l0.7-0.7L47.5,140.9z"/>
		<path d="M50.6,121.8c0.5-0.5,1-0.8,1.6-0.9s1.1,0,1.7,0.1c0.6,0.2,1.2,0.5,1.7,0.9c0.6,0.4,1.1,0.9,1.6,1.4s1,1,1.4,1.6
			s0.7,1.1,0.9,1.7s0.2,1.2,0.1,1.7c-0.1,0.6-0.4,1.1-0.9,1.6s-1,0.8-1.6,0.9c-0.6,0.1-1.1,0-1.7-0.1s-1.2-0.5-1.7-0.9
			c-0.6-0.4-1.1-0.9-1.6-1.4s-1-1-1.4-1.6s-0.7-1.1-0.9-1.7s-0.2-1.2-0.2-1.7C49.8,122.8,50.1,122.3,50.6,121.8z M51.3,122.4
			c-0.3,0.3-0.5,0.7-0.5,1.2c0,0.4,0.1,0.9,0.3,1.4s0.5,0.9,0.8,1.4s0.7,0.9,1.1,1.3c0.4,0.4,0.8,0.8,1.3,1.1s0.9,0.6,1.4,0.8
			s0.9,0.3,1.3,0.3c0.4,0,0.8-0.2,1.2-0.5c0.3-0.3,0.5-0.7,0.5-1.2c0-0.4-0.1-0.9-0.3-1.3c-0.2-0.5-0.5-0.9-0.8-1.4
			s-0.7-0.9-1.1-1.3c-0.4-0.4-0.8-0.8-1.3-1.1s-0.9-0.6-1.4-0.8c-0.5-0.2-0.9-0.3-1.4-0.3C52,121.9,51.6,122.1,51.3,122.4z"/>
		<path d="M71.2,117.1l-0.8,0.8l-6.8-6.8l-0.2,2.6l-1-0.1l0.4-3.6l0.7-0.7L71.2,117.1z"/>
		<path d="M74.3,98c0.5-0.5,1-0.8,1.6-0.9s1.1,0,1.7,0.1c0.6,0.2,1.2,0.5,1.7,0.9c0.6,0.4,1.1,0.9,1.6,1.4s1,1,1.4,1.6
			s0.7,1.1,0.9,1.7c0.2,0.6,0.2,1.2,0.1,1.7c-0.1,0.6-0.4,1.1-0.9,1.6s-1,0.8-1.6,0.9s-1.1,0-1.7-0.1c-0.6-0.2-1.2-0.5-1.7-0.9
			s-1.1-0.9-1.6-1.4s-1-1-1.4-1.6s-0.7-1.1-0.9-1.7c-0.2-0.6-0.2-1.2-0.1-1.7S73.8,98.5,74.3,98z M75,98.7c-0.3,0.3-0.5,0.7-0.5,1.2
			c0,0.4,0.1,0.9,0.3,1.4c0.2,0.5,0.5,0.9,0.8,1.4c0.4,0.5,0.7,0.9,1.1,1.3s0.8,0.8,1.3,1.1c0.5,0.4,0.9,0.6,1.4,0.8
			c0.5,0.2,0.9,0.3,1.3,0.3s0.8-0.2,1.2-0.5c0.3-0.3,0.5-0.7,0.5-1.2c0-0.4-0.1-0.9-0.3-1.3c-0.2-0.5-0.5-0.9-0.8-1.4
			s-0.7-0.9-1.1-1.3s-0.8-0.8-1.3-1.1c-0.5-0.4-0.9-0.6-1.4-0.8c-0.5-0.2-0.9-0.3-1.4-0.3S75.3,98.4,75,98.7z"/>
		<path d="M94.9,93.4l-0.8,0.8l-6.8-6.8L87.1,90l-1-0.1l0.4-3.6l0.7-0.7L94.9,93.4z"/>
		<path d="M98.1,74.3c0.5-0.5,1-0.8,1.6-0.9s1.1,0,1.7,0.1c0.6,0.2,1.2,0.5,1.7,0.9c0.6,0.4,1.1,0.9,1.6,1.4s1,1,1.4,1.6
			s0.7,1.1,0.9,1.7c0.2,0.6,0.2,1.2,0.1,1.7c-0.1,0.6-0.4,1.1-0.9,1.6s-1,0.8-1.6,0.9s-1.1,0-1.7-0.1s-1.2-0.5-1.7-0.9
			c-0.6-0.4-1.1-0.9-1.6-1.4s-1-1-1.4-1.6s-0.7-1.1-0.9-1.7c-0.2-0.6-0.2-1.2-0.1-1.7C97.3,75.3,97.6,74.8,98.1,74.3z M98.8,74.9
			c-0.3,0.3-0.5,0.7-0.5,1.2s0.1,0.9,0.3,1.4c0.2,0.5,0.5,0.9,0.8,1.4c0.4,0.5,0.7,0.9,1.1,1.3s0.8,0.8,1.3,1.1s0.9,0.6,1.4,0.8
			c0.5,0.2,0.9,0.3,1.3,0.3s0.8-0.2,1.2-0.5c0.3-0.3,0.5-0.7,0.5-1.2s-0.1-0.9-0.3-1.3c-0.2-0.5-0.5-0.9-0.8-1.4s-0.7-0.9-1.1-1.3
			s-0.8-0.8-1.3-1.1s-0.9-0.6-1.4-0.8c-0.5-0.2-0.9-0.3-1.4-0.3C99.5,74.4,99.1,74.6,98.8,74.9z"/>
		<path d="M118.7,69.6l-0.8,0.8l-6.8-6.8l-0.2,2.6l-1-0.1l0.4-3.6l0.7-0.7L118.7,69.6z"/>
		<path d="M121.8,50.5c0.5-0.5,1-0.8,1.6-0.9c0.6-0.1,1.1,0,1.7,0.2s1.2,0.5,1.7,0.9s1.1,0.9,1.6,1.4s1,1,1.4,1.6s0.7,1.1,0.9,1.7
			c0.2,0.6,0.2,1.2,0.1,1.7c-0.1,0.6-0.4,1.1-0.9,1.6s-1,0.8-1.6,0.9c-0.6,0.1-1.1,0-1.7-0.1c-0.6-0.2-1.2-0.5-1.7-0.9
			c-0.6-0.4-1.1-0.9-1.6-1.4s-1-1-1.4-1.6s-0.7-1.1-0.9-1.7c-0.2-0.6-0.2-1.2-0.1-1.7C121,51.5,121.3,51,121.8,50.5z M122.5,51.2
			c-0.3,0.3-0.5,0.7-0.5,1.2c0,0.4,0.1,0.9,0.3,1.4c0.2,0.5,0.5,0.9,0.8,1.4c0.4,0.5,0.7,0.9,1.1,1.3s0.8,0.8,1.3,1.1
			c0.5,0.4,0.9,0.6,1.4,0.8s0.9,0.3,1.3,0.3c0.4,0,0.8-0.2,1.2-0.5c0.3-0.3,0.5-0.7,0.5-1.2c0-0.4-0.1-0.9-0.3-1.3
			c-0.2-0.5-0.5-0.9-0.8-1.4s-0.7-0.9-1.1-1.3c-0.4-0.4-0.8-0.8-1.3-1.1c-0.5-0.4-0.9-0.6-1.4-0.8s-0.9-0.3-1.4-0.3
			C123.2,50.7,122.8,50.9,122.5,51.2z"/>
		<path d="M142.4,45.9l-0.8,0.8l-6.8-6.8l-0.2,2.6l-1-0.1l0.4-3.6l0.7-0.7L142.4,45.9z"/>
		<path d="M145.6,26.8c0.5-0.5,1-0.8,1.6-0.9s1.1,0,1.7,0.1c0.6,0.2,1.2,0.5,1.7,0.9c0.6,0.4,1.1,0.9,1.6,1.4s1,1,1.4,1.6
			s0.7,1.1,0.9,1.7s0.2,1.2,0.1,1.7c-0.1,0.6-0.4,1.1-0.9,1.6s-1,0.8-1.6,0.9c-0.6,0.1-1.1,0-1.7-0.1c-0.6-0.2-1.2-0.5-1.7-0.9
			c-0.6-0.4-1.1-0.9-1.6-1.4s-1-1-1.4-1.6s-0.7-1.1-0.9-1.7s-0.2-1.2-0.2-1.7C144.8,27.8,145.1,27.3,145.6,26.8z M146.2,27.5
			c-0.3,0.3-0.5,0.7-0.5,1.2c0,0.4,0.1,0.9,0.3,1.4s0.5,0.9,0.8,1.4s0.7,0.9,1.1,1.3c0.4,0.4,0.8,0.8,1.3,1.1s0.9,0.6,1.4,0.8
			s0.9,0.3,1.3,0.3c0.4,0,0.8-0.2,1.2-0.5c0.3-0.3,0.5-0.7,0.5-1.2c0-0.4-0.1-0.9-0.3-1.3c-0.2-0.5-0.5-0.9-0.8-1.4
			s-0.7-0.9-1.1-1.3c-0.4-0.4-0.8-0.8-1.3-1.1s-0.9-0.6-1.4-0.8c-0.5-0.2-0.9-0.3-1.4-0.3C147,26.9,146.6,27.1,146.2,27.5z"/>
	</g>
</g>
</svg>
