<?xml version="1.0" encoding="utf-8"?>
<!-- Generator: Adobe Illustrator 22.1.0, SVG Export Plug-In . SVG Version: 6.00 Build 0)  -->
<svg version="1.1" id="圖層_1" xmlns="http://www.w3.org/2000/svg" xmlns:xlink="http://www.w3.org/1999/xlink" x="0px" y="0px"
	 width="15px" height="15px" viewBox="0 0 15 15" style="enable-background:new 0 0 15 15;" xml:space="preserve">
<style type="text/css">
	.st0{fill:#FFFFFF;}
</style>
<path class="st0" d="M12.1,8c0,0.7-0.1,1.3-0.4,1.8c-0.2,0.6-0.6,1-1,1.4S9.9,12,9.3,12.2c-0.6,0.2-1.2,0.3-1.8,0.3
	c-0.6,0-1.3-0.1-1.8-0.3c-0.6-0.2-1.1-0.5-1.5-0.9c-0.4-0.4-0.7-0.9-1-1.4C3,9.3,2.9,8.6,2.9,8c0-0.7,0.1-1.3,0.4-1.8
	c0.2-0.5,0.6-1,1-1.4c0.4-0.4,0.9-0.7,1.5-0.9s1.2-0.3,1.8-0.3c0.6,0,1.3,0.1,1.8,0.3c0.6,0.2,1.1,0.5,1.5,0.9s0.7,0.9,1,1.4
	C12,6.7,12.1,7.3,12.1,8z M10.3,8c0-0.4-0.1-0.8-0.2-1.2c-0.1-0.4-0.3-0.7-0.6-1S9.1,5.3,8.7,5.2S7.9,4.9,7.5,4.9S6.6,5,6.3,5.2
	C5.9,5.3,5.6,5.6,5.4,5.9s-0.4,0.6-0.6,1C4.7,7.2,4.6,7.6,4.6,8c0,0.4,0.1,0.8,0.2,1.2c0.1,0.4,0.3,0.7,0.6,1s0.5,0.5,0.9,0.7
	C6.6,11,7,11.1,7.5,11.1s0.9-0.1,1.2-0.3s0.7-0.4,0.9-0.7s0.4-0.6,0.6-1C10.3,8.8,10.3,8.4,10.3,8z"/>
</svg>
