<?xml version="1.0" encoding="utf-8"?>
<!-- Generator: Adobe Illustrator 22.1.0, SVG Export Plug-In . SVG Version: 6.00 Build 0)  -->
<svg version="1.1" id="圖層_1" xmlns="http://www.w3.org/2000/svg" xmlns:xlink="http://www.w3.org/1999/xlink" x="0px" y="0px"
	 width="55px" height="55px" viewBox="0 0 55 55" style="enable-background:new 0 0 55 55;" xml:space="preserve">
<style type="text/css">
	.st0{fill:#FFFFFF;}
</style>
<g>
	<g>
		<path class="st0" d="M40.9,47.7c-3.7,2.8-8.7,3.3-12.8,1.1c0,0,0,0-0.1,0c-9.5-5.2-16.9-12.6-22.2-22c-3.3-5.8-2.4-10.3,3.7-15.9
			c1.6-1.5,2.9-1.4,4.5,0.2c2.7,2.6,4.7,5.6,6.2,9.1c0.8,1.8,0.3,3-1.4,4c-0.4,0.2-0.9,0.5-1.3,0.7c-1.9,0.8-1.9,0.9-0.9,2.6
			c2.6,4.4,6.3,8.1,10.8,10.7c1.5,0.8,1.5,0.8,2.2-0.7c1.7-3.9,2.9-4.4,6.6-2.2c2.5,1.5,4.8,3.3,7,5.2c1.4,1.2,1.6,3.4,0.3,4.8
			C42.8,46,41.9,46.9,40.9,47.7z M31.7,47.7c1.4,0.5,2.9,0.5,4.2,0c2.6-0.9,4.5-2.4,6.1-4.5c0.2-0.2-0.1-1.1-0.4-1.3
			c-1.9-1.5-3.8-3.1-5.9-4.4c-3.3-2-2.7-1.6-4.1,1.3c0,0.1-0.1,0.2-0.1,0.2c-1,2.1-2.3,2.7-4.2,1.4c-2.8-1.8-5.6-3.8-8-6.1
			c-2-2-3.6-4.5-5.1-6.9c-1.3-2.1-0.8-3.3,1.5-4.4c0.6-0.3,1.4-0.5,1.9-0.9c0.3-0.2,0.6-0.9,0.5-1.2c-1.3-3-3.2-5.7-5.5-8
			c-0.3-0.3-1-0.4-1.4-0.2C7,15.1,5.3,20.5,7.5,24.7c1.8,3.3,3.9,6.4,6.2,9.3c4.2,5.2,9.2,9.5,15.1,12.6
			C29.8,47,30.8,47.4,31.7,47.7z"/>
	</g>
	<g>
		<path class="st0" d="M34.4,22.9c-0.3,0-0.7-0.1-1-0.4c-0.5-0.5-0.5-1.4,0-1.9l6.3-6.3c0.5-0.5,1.4-0.5,1.9,0
			c0.5,0.5,0.5,1.4,0,1.9l-6.3,6.3C35.1,22.7,34.7,22.9,34.4,22.9z"/>
		<path class="st0" d="M27.7,16.4c-0.7,0-1.3-0.6-1.3-1.3V6.2c0-0.7,0.6-1.3,1.3-1.3c0.7,0,1.3,0.6,1.3,1.3v8.9
			C29.1,15.8,28.5,16.4,27.7,16.4z"/>
		<path class="st0" d="M49.7,29.5h-8.9c-0.7,0-1.3-0.6-1.3-1.3s0.6-1.3,1.3-1.3h8.9c0.7,0,1.3,0.6,1.3,1.3S50.4,29.5,49.7,29.5z"/>
	</g>
</g>
</svg>
