<?xml version="1.0" encoding="utf-8"?>
<!-- Generator: Adobe Illustrator 22.1.0, SVG Export Plug-In . SVG Version: 6.00 Build 0)  -->
<svg version="1.1" id="圖層_1" xmlns="http://www.w3.org/2000/svg" xmlns:xlink="http://www.w3.org/1999/xlink" x="0px" y="0px"
	 width="55px" height="55px" viewBox="0 0 55 55" style="enable-background:new 0 0 55 55;" xml:space="preserve">
<style type="text/css">
	.st0{fill:#FFFFFF;}
</style>
<g>
	<path class="st0" d="M45.5,42.6c-0.4-1.4-1.4-2.2-2.4-2.7c-0.5-0.3-1-0.5-1.5-0.7c-2.2-0.9-4.6-1.3-6.4-1.6
		c-0.7-0.1-1.3,0.3-1.4,0.9c-0.1,0.7,0.3,1.3,1,1.4c0.2,0,0.4,0.1,0.6,0.1l0,0c0.2,0,0.5,0.1,0.7,0.1c1.6,0.3,3.4,0.7,5.1,1.5
		c0.5,0.2,1.1,0.6,1.6,1c0.2,0.2,0.2,0.3,0.2,0.4c0,0.1-0.1,0.2-0.2,0.3c-0.4,0.3-0.8,0.6-1.2,0.8c-1.3,0.7-2.7,1.1-4.1,1.4
		c-2.5,0.6-5.2,0.9-8.2,1c-4.5,0.2-8.5-0.1-12.2-0.9c-1.5-0.3-3.1-0.7-4.6-1.5c-0.4-0.2-0.8-0.5-1.2-0.8c-0.1-0.1-0.2-0.2-0.2-0.3
		c0-0.1,0.1-0.2,0.2-0.3c0.2-0.2,0.5-0.4,0.7-0.6c1-0.6,2.1-1,3.5-1.4c0.8-0.2,1.7-0.4,2.5-0.5c0.4-0.1,0.9-0.2,1.3-0.3
		c0.6-0.1,1.1-0.7,0.9-1.4c-0.1-0.7-0.7-1.1-1.3-1c-2.6,0.4-4.7,0.9-6.5,1.6c-0.8,0.3-1.8,0.8-2.7,1.6c-1,1-1.3,2.2-0.8,3.3
		c0.4,0.8,1.1,1.4,1.6,1.7c1.4,0.9,2.9,1.4,4.2,1.8c2.5,0.7,5.3,1.1,8.7,1.3c0.3,0,0.7,0,1,0.1l0.6,0l3.8,0l0.6,0
		c0.4,0,0.7,0,1.1-0.1c3.4-0.2,6.1-0.6,8.6-1.3c1.4-0.4,2.4-0.8,3.3-1.2c1.2-0.6,2.3-1.4,2.7-2.9L45.5,42.6L45.5,42.6z"/>
	<path class="st0" d="M27.3,12.2C27.3,12.2,27.3,12.2,27.3,12.2c-1.8,0-3.4,0.7-4.6,1.9c-1.2,1.2-1.9,2.8-1.9,4.6
		c0,3.6,2.8,6.5,6.4,6.6c0,0,0,0,0,0c1.7,0,3.3-0.7,4.5-1.9c1.2-1.2,1.9-2.8,1.9-4.5C33.7,15.2,30.8,12.2,27.3,12.2z M27.2,14.5
		C27.2,14.5,27.2,14.5,27.2,14.5c2.3,0,4.1,1.9,4.1,4.2c0,2.3-1.8,4.2-4.1,4.2c-1.1,0-2.1-0.4-2.9-1.2c-0.8-0.8-1.2-1.9-1.2-3
		c0-1.1,0.4-2.2,1.2-3C25.1,14.9,26.2,14.5,27.2,14.5z"/>
	<path class="st0" d="M16.3,28.7c1.5,3.1,3.5,6.2,6.1,9.5c0.6,0.7,1.2,1.4,1.7,2c0.8,0.8,1.8,1.3,3,1.3c0,0,0,0,0,0
		c1.1,0,2.2-0.5,3-1.4c1.1-1.3,2.2-2.5,3-3.6c0.2-0.2,0.3-0.5,0.2-0.8c0-0.3-0.2-0.6-0.4-0.8c-0.5-0.4-1.2-0.3-1.6,0.2
		c-0.6,0.8-1.4,1.7-2.2,2.7c-0.5,0.6-1.2,0.9-2,0.9c0,0,0,0,0,0c-0.7,0-1.5-0.3-1.9-0.9c-0.2-0.2-0.4-0.4-0.5-0.6
		c-2.3-2.8-4.2-5.4-5.6-8.1c-1.5-2.9-2.4-5.5-2.8-8.2c-0.7-4.9,1.6-9.6,6-11.9c4-2.1,9.2-1.4,12.5,1.8c2.4,2.3,3.6,5.1,3.6,8.3
		c0,1.9-0.4,4-1.3,6.3c-0.9,2.3-1.8,4-3,5.9c-0.3,0.5-0.2,1.2,0.3,1.5c0.2,0.2,0.6,0.3,0.9,0.2c0.3-0.1,0.6-0.2,0.8-0.5
		c0.8-1.1,2.7-4,4.1-9.3c0.7-2.7,0.7-5.4,0-8c-2-6.9-9.2-11.1-16.2-9.3c-6.5,1.7-10.7,7.9-10,14.8C14.2,23.4,15,26,16.3,28.7z"/>
</g>
</svg>
