<?xml version="1.0" encoding="utf-8"?>
<!-- Generator: Adobe Illustrator 22.1.0, SVG Export Plug-In . SVG Version: 6.00 Build 0)  -->
<svg version="1.1" id="圖層_1" xmlns="http://www.w3.org/2000/svg" xmlns:xlink="http://www.w3.org/1999/xlink" x="0px" y="0px"
	 width="140px" height="105px" viewBox="0 0 140 105" style="enable-background:new 0 0 140 105;" xml:space="preserve">
<style type="text/css">
	.st0{fill:#231815;}
	.st1{fill:#FFBC00;}
</style>
<g>
	<path class="st0" d="M104,38.2c-0.3-0.5-1-0.8-1.9-0.9c-0.4,0-0.7,0-1.1,0l-1.4,0l-31,0c-13.5,0-27.1,0-40.7,0.1
		c-3.1,0-4.9-1.3-5.8-4.2c-0.6-1.9-1.4-3.8-2.1-5.7c-0.3-0.8-0.6-1.6-0.9-2.4c-0.6-1.5-1.3-1.8-2.3-1.8c0,0-1.7,0-2.5,0l-5.3,0
		c-1.4,0-2.8,0-4.2,0c-0.9,0-2.3,0.3-2.3,1.9c0,1.6,1.7,1.9,2.5,1.9c1.3,0,2.6,0.1,3.9,0.1c1.2,0,2.2,0,3.1-0.1c0.2,0,0.3,0,0.5,0
		c2.9,0,4,2,4.6,3.5c6.1,16.1,12.6,33.1,19.3,50.3c0.8,2.1,1.2,4.4-1.7,6.6c-3.3,2.5-4.3,6.9-2.5,10.9c1.6,3.6,4.8,5.7,8.7,5.7
		c0.4,0,0.7,0,1.1-0.1c4-0.4,7.4-3.6,8-7.6c0.2-1,0.1-2.1,0.1-3.4c0-0.6-0.1-1.3-0.1-1.9v-2h26.9l-0.2,2.1c0,0.5-0.1,0.9-0.1,1.3
		c-0.1,0.7-0.1,1.3-0.1,1.9c-0.1,4,2.4,7.7,6.1,9.1c1.1,0.4,2.2,0.6,3.3,0.6c2.8,0,5.4-1.2,7.2-3.4c2.6-3.2,3-6.4,1.3-10
		c-1.8-3.7-4.7-5.6-9-5.6c-5.6,0-11.2,0-16.7,0l-21.4,0c-5.4,0-6.9-1.5-7.3-7.3l-0.1-2.1l30.8,0c6.5,0,12.9,0,19.4,0
		c2.4,0,3-0.6,3.4-1.7l2.5-8c2.7-8.6,5.5-17.4,8.1-26.1C104.2,39.4,104.3,38.7,104,38.2z M85.8,89.1c0.1,0,0.3,0,0.4,0
		c1.7,0.1,4.7,1,5.2,5.3l0,0.3l0,0.3c-0.5,3.1-2.4,5-5.4,5.2c-0.1,0-0.2,0-0.3,0c-1.4,0-2.8-0.6-3.8-1.7c-1.1-1.1-1.7-2.6-1.7-4
		C80.3,91.6,82.8,89.1,85.8,89.1z M74,41.4l-1.3,14.5h-19l-1.3-14.5H74z M25.4,41.3h24.2l1.7,14.6h-20c-0.4-0.3-0.6-0.7-0.8-1.1
		c-1.1-2.7-2.1-5.3-3.1-8.1L25.4,41.3z M40.6,89.1c0.2,0,0.3,0,0.5,0c3.1,0.3,5.1,2.4,5.2,5.5c0.1,1.4-0.5,2.8-1.5,3.9
		c-1.1,1.1-2.5,1.7-3.9,1.7c-0.2,0-0.4,0-0.6,0c-3-0.3-4.9-2.3-5.1-5.3l0-0.1l0-0.1C35.2,91.6,37.6,89.1,40.6,89.1z M39.3,71.7
		c-1.1,0-2.6-0.8-3.1-2c-1-2.4-1.9-4.8-2.9-7.3l-1.5-4h19.8l1.6,13.4l-6.9,0C43.9,71.7,41.6,71.7,39.3,71.7z M55.1,71.6L54,58.3
		h18.6l-1.1,13.3H55.1z M93,62.3c-0.7,2.3-1.4,4.5-2.1,6.8c-0.5,1.3-2.1,2.5-3.4,2.6c-2.2,0.1-4.4,0.1-6.6,0.1l-7.4,0L75,58.3h19.3
		l-0.5,1.5L93,62.3z M97.9,46.5c-0.8,2.7-1.7,5.4-2.6,8.1c-0.2,0.5-0.5,0.9-0.8,1.3H75.3L77,41.4h22.5L97.9,46.5z"/>
	<path class="st1" d="M110.2,28.2L110.2,28.2c-1-1-1-2.6,0-3.6l20-20c1-1,2.6-1,3.6,0v0c1,1,1,2.6,0,3.6l-20,20
		C112.8,29.2,111.2,29.2,110.2,28.2z"/>
	<g>
		<path class="st1" d="M107.4,4.4L107.4,4.4c0,1.4,1.2,2.5,2.6,2.4l19.6-0.7c1.5-0.1,2.7,1.1,2.6,2.6l-0.7,19.6
			c-0.1,1.4,1,2.6,2.4,2.6l0,0c1.4,0,2.6-1,2.6-2.4l0.9-25c0.1-1.5-1.1-2.7-2.6-2.6l-25,0.9C108.5,1.8,107.4,3,107.4,4.4z"/>
	</g>
</g>
</svg>
