<?xml version="1.0" encoding="utf-8"?>
<!-- Generator: Adobe Illustrator 22.1.0, SVG Export Plug-In . SVG Version: 6.00 Build 0)  -->
<svg version="1.1" id="圖層_1" xmlns="http://www.w3.org/2000/svg" xmlns:xlink="http://www.w3.org/1999/xlink" x="0px" y="0px"
	 width="111px" height="105px" viewBox="0 0 111 105" style="enable-background:new 0 0 111 105;" xml:space="preserve">
<style type="text/css">
	.st0{fill:#666666;}
</style>
<g>
	<g>
		<path class="st0" d="M68.1,37c0-0.2,0-0.3-0.1-0.5c0-0.1,0-0.1-0.1-0.2c-0.1-0.2-0.2-0.4-0.3-0.5L48.9,17.2
			c-0.2-0.2-0.3-0.3-0.5-0.3c0,0-0.1,0-0.1,0c-0.2-0.1-0.3-0.1-0.5-0.1c0,0-0.1,0-0.1,0H4.2c-1,0-1.7,0.8-1.7,1.7v82.5
			c0,1,0.8,1.7,1.7,1.7h62.1c1,0,1.7-0.8,1.7-1.7V37.1C68.1,37,68.1,37,68.1,37z M49.5,35.3V22.6l12.7,12.7H49.5z M47.7,38.8h16.9
			v60.4H6V20.1h40v16.9C46,38,46.8,38.8,47.7,38.8z"/>
		<path class="st0" d="M15.1,47.1c0,1,0.8,1.7,1.7,1.7h38.7c1,0,1.7-0.8,1.7-1.7c0-1-0.8-1.7-1.7-1.7H16.8
			C15.9,45.3,15.1,46.1,15.1,47.1z"/>
		<path class="st0" d="M16.8,35.6h20.7c1,0,1.7-0.8,1.7-1.7c0-1-0.8-1.7-1.7-1.7H16.8c-1,0-1.7,0.8-1.7,1.7
			C15.1,34.8,15.9,35.6,16.8,35.6z"/>
		<path class="st0" d="M55.5,58.6H16.8c-1,0-1.7,0.8-1.7,1.7c0,1,0.8,1.7,1.7,1.7h38.7c1,0,1.7-0.8,1.7-1.7
			C57.3,59.4,56.5,58.6,55.5,58.6z"/>
		<path class="st0" d="M55.5,71.8H16.8c-1,0-1.7,0.8-1.7,1.7c0,1,0.8,1.7,1.7,1.7h38.7c1,0,1.7-0.8,1.7-1.7
			C57.3,72.6,56.5,71.8,55.5,71.8z"/>
		<path class="st0" d="M55.5,85.1H16.8c-1,0-1.7,0.8-1.7,1.7s0.8,1.7,1.7,1.7h38.7c1,0,1.7-0.8,1.7-1.7S56.5,85.1,55.5,85.1z"/>
	</g>
</g>
</svg>
