<?xml version="1.0" encoding="utf-8"?>
<!-- Generator: Adobe Illustrator 22.1.0, SVG Export Plug-In . SVG Version: 6.00 Build 0)  -->
<svg version="1.1" id="圖層_1" xmlns="http://www.w3.org/2000/svg" xmlns:xlink="http://www.w3.org/1999/xlink" x="0px" y="0px"
	 width="15px" height="15px" viewBox="0 0 15 15" style="enable-background:new 0 0 15 15;" xml:space="preserve">
<style type="text/css">
	.st0{fill:#FFFFFF;}
</style>
<path class="st0" d="M5.7,4.8c0-0.4,0-0.7-0.1-1h1.6c0,0.2,0,0.5,0.1,0.7c0,0.3,0,0.5,0,0.7h0.1c0.2-0.5,0.6-0.9,1.1-1.2
	c0.5-0.3,1-0.5,1.6-0.5c0.3,0,0.5,0,0.7,0.1l-0.1,1.6c-0.2-0.1-0.5-0.1-0.8-0.1C9.4,5.2,9,5.2,8.7,5.4S8.2,5.7,8,6
	C7.8,6.2,7.6,6.5,7.5,6.9c-0.1,0.3-0.1,0.7-0.1,1v4.5H5.7V5.7C5.7,5.4,5.7,5.2,5.7,4.8z"/>
</svg>
