<?xml version="1.0" encoding="utf-8"?>
<!-- Generator: Adobe Illustrator 22.1.0, SVG Export Plug-In . SVG Version: 6.00 Build 0)  -->
<svg version="1.1" id="圖層_1" xmlns="http://www.w3.org/2000/svg" xmlns:xlink="http://www.w3.org/1999/xlink" x="0px" y="0px"
	 width="15px" height="15px" viewBox="0 0 15 15" style="enable-background:new 0 0 15 15;" xml:space="preserve">
<style type="text/css">
	.st0{fill:#FFFFFF;}
</style>
<path class="st0" d="M9.6,5.3C9.4,4.9,9.1,4.7,8.8,4.5C8.4,4.3,8,4.2,7.6,4.2c-0.2,0-0.4,0-0.6,0.1c-0.2,0-0.4,0.1-0.5,0.2
	C6.3,4.6,6.2,4.7,6.1,4.8C6,4.9,6,5.1,6,5.3c0,0.4,0.2,0.6,0.5,0.8c0.3,0.2,0.8,0.3,1.5,0.5c0.4,0.1,0.8,0.2,1.1,0.3
	C9.4,7.1,9.7,7.2,10,7.4c0.3,0.2,0.5,0.4,0.6,0.7c0.1,0.3,0.2,0.6,0.2,1c0,0.5-0.1,0.9-0.3,1.3c-0.2,0.3-0.4,0.6-0.8,0.9
	c-0.3,0.2-0.7,0.4-1.1,0.5c-0.4,0.1-0.8,0.1-1.3,0.1c-0.6,0-1.3-0.1-1.9-0.4S4.4,10.9,4,10.3l1.2-1c0.2,0.3,0.5,0.6,0.9,0.8
	c0.4,0.2,0.8,0.3,1.3,0.3c0.2,0,0.4,0,0.6-0.1c0.2,0,0.4-0.1,0.5-0.2C8.8,10.1,8.9,10,9,9.9c0.1-0.2,0.1-0.4,0.1-0.6
	c0-0.4-0.2-0.7-0.6-0.9C8.2,8.2,7.6,8,6.9,7.8C6.6,7.8,6.3,7.7,6,7.6C5.7,7.5,5.5,7.3,5.2,7.2C5,7,4.8,6.7,4.6,6.5
	c-0.2-0.3-0.2-0.6-0.2-1c0-0.5,0.1-0.8,0.3-1.2s0.4-0.6,0.7-0.8s0.6-0.4,1-0.5c0.4-0.1,0.8-0.2,1.2-0.2c0.6,0,1.2,0.1,1.8,0.4
	c0.6,0.2,1,0.6,1.3,1L9.6,5.3z"/>
</svg>
