<?xml version="1.0" encoding="utf-8"?>
<!-- Generator: Adobe Illustrator 22.1.0, SVG Export Plug-In . SVG Version: 6.00 Build 0)  -->
<svg version="1.1" id="圖層_1" xmlns="http://www.w3.org/2000/svg" xmlns:xlink="http://www.w3.org/1999/xlink" x="0px" y="0px"
	 width="355px" height="45px" viewBox="0 0 355 45" style="enable-background:new 0 0 355 45;" xml:space="preserve">
<style type="text/css">
	.st0{fill:#E6E2B1;}
	.st1{fill:#A8AD00;}
</style>
<g>
	<g>
		<path class="st0" d="M112.3,12.5c-0.9-1.1-2-2-3.4-2.6c-1.4-0.6-2.7-1-4-1c-0.7,0-1.3,0.1-2,0.2c-0.7,0.1-1.3,0.3-1.9,0.7
			c-0.6,0.3-1,0.8-1.4,1.3c-0.4,0.5-0.6,1.2-0.6,2c0,0.7,0.1,1.3,0.4,1.8c0.3,0.5,0.7,0.9,1.3,1.2c0.6,0.4,1.2,0.7,2,1
			c0.8,0.3,1.7,0.6,2.7,0.9c1.4,0.5,2.9,1,4.4,1.6c1.5,0.6,2.9,1.3,4.2,2.3c1.3,0.9,2.3,2.1,3.1,3.5c0.8,1.4,1.2,3.1,1.2,5.2
			c0,2.4-0.4,4.5-1.3,6.2c-0.9,1.8-2.1,3.2-3.6,4.3c-1.5,1.1-3.2,2-5.1,2.5c-1.9,0.6-3.9,0.8-6,0.8c-3,0-5.9-0.5-8.7-1.6
			c-2.8-1-5.1-2.5-7-4.5l6.6-6.7c1,1.3,2.4,2.3,4,3.2c1.7,0.8,3.3,1.3,5,1.3c0.7,0,1.5-0.1,2.2-0.2c0.7-0.2,1.3-0.4,1.9-0.8
			c0.5-0.4,1-0.8,1.3-1.4c0.3-0.6,0.5-1.3,0.5-2.1c0-0.8-0.2-1.5-0.6-2c-0.4-0.6-1-1.1-1.7-1.5c-0.7-0.5-1.6-0.9-2.7-1.2
			c-1.1-0.4-2.3-0.8-3.7-1.2c-1.3-0.4-2.6-0.9-3.9-1.5c-1.3-0.6-2.4-1.3-3.4-2.3c-1-0.9-1.8-2-2.4-3.4c-0.6-1.3-0.9-2.9-0.9-4.8
			c0-2.3,0.5-4.3,1.4-6c0.9-1.7,2.2-3,3.7-4.1s3.3-1.8,5.2-2.3c1.9-0.5,3.9-0.7,5.8-0.7c2.4,0,4.8,0.4,7.2,1.3
			c2.5,0.9,4.6,2.1,6.5,3.8L112.3,12.5z"/>
		<path class="st0" d="M131,43.4V1.6h28.1v8.5h-18.3V18h17.3v8.1h-17.3v8.7h19.4v8.6H131z"/>
		<path class="st0" d="M199.3,43.4l-16.8-27.3h-0.2l0.2,27.3h-9.8V1.6h11.5L201,28.9h0.2L201,1.6h9.8v41.8H199.3z"/>
		<path class="st0" d="M264.3,22.4c0,3.7-0.7,6.8-2,9.5c-1.4,2.7-3.1,4.8-5.4,6.5c-2.2,1.7-4.7,3-7.5,3.8c-2.8,0.8-5.6,1.2-8.5,1.2
			h-15.6V1.6h15.1c3,0,5.9,0.3,8.7,1c2.9,0.7,5.4,1.8,7.7,3.4c2.2,1.6,4.1,3.7,5.4,6.4C263.6,15.1,264.3,18.4,264.3,22.4z
			 M253.8,22.4c0-2.4-0.4-4.3-1.2-5.9c-0.8-1.6-1.8-2.8-3.1-3.7c-1.3-0.9-2.7-1.6-4.4-2c-1.6-0.4-3.3-0.6-5-0.6h-5v24.4h4.8
			c1.8,0,3.5-0.2,5.2-0.6c1.7-0.4,3.1-1.1,4.4-2c1.3-0.9,2.3-2.2,3.1-3.8C253.4,26.7,253.8,24.7,253.8,22.4z"/>
	</g>
	<g>
		<path class="st1" d="M327.9-44.1l-323.3,0c-1.3,0-2.6-1-2.7-2.3c-0.1-1.5,1-2.7,2.5-2.7l323.3,0c1.3,0,2.6,1,2.7,2.3
			C330.5-45.4,329.4-44.1,327.9-44.1z"/>
		<g>
			<path class="st1" d="M326.4-28L326.4-28c-0.9-1-0.9-2.6,0.1-3.5l19.6-14.3c0.4-0.4,0.4-1.1,0-1.5l-19.6-14.3
				c-1-0.9-1.1-2.5-0.1-3.5l0,0c0.9-1,2.5-1.1,3.5-0.1l22.3,16.9c1.1,1,1.1,2.7,0,3.7l-22.3,16.9C328.9-26.9,327.3-27,326.4-28z"/>
		</g>
	</g>
</g>
</svg>
