<?xml version="1.0" encoding="utf-8"?>
<!-- Generator: Adobe Illustrator 22.1.0, SVG Export Plug-In . SVG Version: 6.00 Build 0)  -->
<svg version="1.1" id="圖層_1" xmlns="http://www.w3.org/2000/svg" xmlns:xlink="http://www.w3.org/1999/xlink" x="0px" y="0px"
	 width="355px" height="45px" viewBox="0 0 355 45" style="enable-background:new 0 0 355 45;" xml:space="preserve">
<style type="text/css">
	.st0{fill:#7CCAD1;}
</style>
<g>
	<g>
		<path class="st0" d="M327.9,25.9l-323.3,0c-1.3,0-2.6-1-2.7-2.3c-0.1-1.5,1-2.7,2.5-2.7l323.3,0c1.3,0,2.6,1,2.7,2.3
			C330.5,24.6,329.4,25.9,327.9,25.9z"/>
		<g>
			<path class="st0" d="M326.4,42L326.4,42c-0.9-1-0.9-2.6,0.1-3.5l19.6-14.3c0.4-0.4,0.4-1.1,0-1.5L326.5,8.3
				c-1-0.9-1.1-2.5-0.1-3.5l0,0c0.9-1,2.5-1.1,3.5-0.1l22.3,16.9c1.1,1,1.1,2.7,0,3.7l-22.3,16.9C328.9,43.1,327.3,43,326.4,42z"/>
		</g>
	</g>
</g>
</svg>
