<?xml version="1.0" encoding="utf-8"?>
<!-- Generator: Adobe Illustrator 22.1.0, SVG Export Plug-In . SVG Version: 6.00 Build 0)  -->
<svg version="1.1" id="圖層_1" xmlns="http://www.w3.org/2000/svg" xmlns:xlink="http://www.w3.org/1999/xlink" x="0px" y="0px"
	 width="40px" height="41px" viewBox="0 0 40 41" style="enable-background:new 0 0 40 41;" xml:space="preserve">
<style type="text/css">
	.st0{fill:#FFFFFF;}
</style>
<g>
	<path class="st0" d="M20,40C9.2,40,0.5,31.3,0.5,20.5S9.2,1,20,1s19.5,8.8,19.5,19.5S30.8,40,20,40z M20,1.7
		C9.6,1.7,1.2,10.1,1.2,20.5S9.6,39.3,20,39.3c10.4,0,18.8-8.4,18.8-18.8S30.4,1.7,20,1.7z"/>
	<g>
		<g>
			<path class="st0" d="M12.6,20.2h14.2v0.7H12.6c-0.2,0-0.3-0.1-0.3-0.3l0,0C12.3,20.3,12.4,20.2,12.6,20.2z"/>
			<g>
				<path class="st0" d="M22.5,17.4c-0.1,0.2-0.1,0.4,0.1,0.4l4.2,2.7l-4.2,2.7c-0.2,0.1-0.2,0.3-0.1,0.4c0.1,0.2,0.3,0.2,0.5,0.1
					l4.6-3c0.1-0.1,0.2-0.2,0.2-0.3s-0.1-0.2-0.2-0.3l-4.6-3c-0.1,0-0.1-0.1-0.2-0.1C22.7,17.2,22.5,17.3,22.5,17.4z"/>
			</g>
		</g>
	</g>
</g>
</svg>
