<?xml version="1.0" encoding="utf-8"?>
<!-- Generator: Adobe Illustrator 22.1.0, SVG Export Plug-In . SVG Version: 6.00 Build 0)  -->
<svg version="1.1" id="圖層_1" xmlns="http://www.w3.org/2000/svg" xmlns:xlink="http://www.w3.org/1999/xlink" x="0px" y="0px"
	 width="400px" height="355px" viewBox="0 0 400 355" style="enable-background:new 0 0 400 355;" xml:space="preserve">
<style type="text/css">
	.st0{fill:#A8AD00;}
</style>
<g>
	<g>
		<path class="st0" d="M222.2,51.1c1.3-10.4-1.8-20.9-9.3-28.5c-7.6-7.6-18.1-10.7-28.5-9.4c-1.3,10.4,1.8,20.9,9.4,28.5
			C201.3,49.3,211.8,52.3,222.2,51.1z"/>
		<path class="st0" d="M102.1,71.6c1.3-10.4-1.8-20.9-9.3-28.5c-7.6-7.6-18.1-10.7-28.5-9.4C63,44.1,66,54.7,73.6,62.2
			C81.2,69.8,91.7,72.9,102.1,71.6z"/>
		<path class="st0" d="M60.9,106.3c7.5,0,13.5-6.1,13.5-13.5c0-7.5-6.1-13.5-13.5-13.5c-7.5,0-13.5,6.1-13.5,13.5
			C47.4,100.3,53.5,106.3,60.9,106.3z"/>
		<path class="st0" d="M184.6,96.6c7.5,0,13.5-6.1,13.5-13.5c0-7.5-6.1-13.5-13.5-13.5c-7.5,0-13.5,6.1-13.5,13.5
			C171.1,90.5,177.1,96.6,184.6,96.6z"/>
		<path class="st0" d="M343.3,118.6c10.4,1.3,20.9-1.8,28.5-9.4c7.6-7.6,10.6-18.1,9.4-28.5c-10.4-1.3-20.9,1.8-28.5,9.3
			C345.1,97.7,342,108.2,343.3,118.6z"/>
		<path class="st0" d="M316.4,166.8c-7.6,7.6-10.7,18.1-9.4,28.5c10.4,1.3,20.9-1.8,28.5-9.4c7.6-7.6,10.7-18.1,9.4-28.5
			C334.5,156.2,324,159.3,316.4,166.8z"/>
		<path class="st0" d="M274.9,61.9c7.6-7.6,10.7-18.1,9.4-28.5c-10.4-1.3-20.9,1.8-28.5,9.4c-7.6,7.6-10.7,18.1-9.4,28.5
			C256.8,72.6,267.3,69.5,274.9,61.9z"/>
		<path class="st0" d="M136.8,147.8c0-7.5-6-13.5-13.5-13.5c-7.5,0-13.5,6.1-13.5,13.5c0,7.5,6.1,13.5,13.5,13.5
			C130.8,161.4,136.8,155.3,136.8,147.8z"/>
		<path class="st0" d="M373.8,127.1v28.3c0,22.2-18,40.3-40.3,40.3h-60.3c-7,0-13.6,0.8-20,2v-14.3c0-13.1,10.6-23.7,23.7-23.7h7
			c33.1,0,60.1-27,60.1-60.1V81.8h-23.7v17.7c0,18.9-14.7,34.1-33.2,35.8c7.9-6.4,13-15.8,13-26.2c0-10.7-5.3-20.3-13.5-26.8
			c-8.3,6.4-13.5,16-13.5,26.8c0,10.6,5.1,20,13.2,26.4c-0.8,0.1-1.5,0.5-2.4,0.5h-7c-26.1,0-47.4,21.3-47.4,47.4v22.7
			c-7.6,4.1-14.3,9.3-19.9,15.4c-3.3-8.8-8.3-16.7-14.6-23.5v-45.9c0-5.6-1-10.9-2.8-15.8c30.4-4.4,53.9-30.5,53.9-62.2V2.2h-23.7
			v71.9c0,21.6-17.6,39.2-39.2,39.2h-8.7c-7.5-5.1-16.6-8.1-26.4-8.1c-9.6,0-17.6-6.2-20.6-14.7c10.3,1.2,20.7-1.8,28.3-9.3
			c7.6-7.6,10.7-18.1,9.4-28.5c-10.4-1.3-20.9,1.8-28.5,9.4c-7.4,7.4-10.4,17.7-9.3,27.9c-0.7-2.2-1.4-4.4-1.4-6.8v-45h-23.7v45
			c0,25.2,20.6,45.8,45.8,45.8c12.8,0,23.2,10.4,23.2,23.2v29c-8.9-4-18.8-6.2-29.2-6.2H78.7H77c-25.1,0-45.5-20.4-45.5-45.5H7.9
			c0,24.8,13.1,46.5,32.7,58.8c-10.4-1.3-20.9,1.8-28.5,9.4c-7.6,7.6-10.7,18.1-9.4,28.5c10.4,1.3,20.9-1.8,28.5-9.4
			c7.6-7.6,10.7-18.1,9.4-28.5c10.6,6.6,23,10.4,36.4,10.4h65.2c26.8,0,48.6,21.8,48.6,48.6v35.1c0,23.8-19.3,43.1-43.1,43.1
			c-22.1,0-41.7,10.9-53.9,27.5h208.8c-5.8-9.5-15.5-16.4-26.9-18.3c-7.4-13.5-21.6-22.8-38-23.2v-0.1c-12.7,0-23.1-10.4-23.1-23.1
			h-0.3c0-0.1,0-0.3,0-0.4h0.3v-16.4c0-30.6,24.2-52,58.8-52h60.3c35.2,0,63.9-28.7,63.9-63.9v-28.3H373.8z"/>
		<path class="st0" d="M92.2,148.1c0-10.7-5.3-20.3-13.5-26.8c-8.3,6.4-13.5,16-13.5,26.7c0,10.7,5.3,20.3,13.5,26.8
			C86.9,168.5,92.2,158.9,92.2,148.1z"/>
		<path class="st0" d="M279,219.6c-1.3,10.4,1.8,20.9,9.4,28.5c7.6,7.6,18.1,10.7,28.5,9.4c1.3-10.4-1.8-20.9-9.4-28.5
			C299.9,221.3,289.4,218.3,279,219.6z"/>
		<path class="st0" d="M112.1,216.9c0-7.5-6-13.5-13.5-13.5c-7.5,0-13.5,6.1-13.5,13.5c0,7.5,6.1,13.5,13.5,13.5
			C106.1,230.4,112.1,224.4,112.1,216.9z"/>
	</g>
</g>
</svg>
