<?xml version="1.0" encoding="utf-8"?>
<!-- Generator: Adobe Illustrator 22.1.0, SVG Export Plug-In . SVG Version: 6.00 Build 0)  -->
<svg version="1.1" id="圖層_1" xmlns="http://www.w3.org/2000/svg" xmlns:xlink="http://www.w3.org/1999/xlink" x="0px" y="0px"
	 width="305px" height="20px" viewBox="0 0 305 20" style="enable-background:new 0 0 305 20;" xml:space="preserve">
<style type="text/css">
	.st0{fill:#AAAC24;}
</style>
<g>
	<path class="st0" d="M11,5.9c-0.4-0.4-0.8-0.8-1.4-1.1S8.5,4.5,7.9,4.5c-0.3,0-0.5,0-0.8,0.1c-0.3,0-0.5,0.1-0.8,0.3
		C6.1,4.9,6,5.1,5.8,5.3C5.6,5.5,5.6,5.8,5.6,6.2c0,0.3,0.1,0.5,0.2,0.7C5.9,7.1,6,7.2,6.3,7.4s0.5,0.3,0.8,0.4
		C7.4,7.9,7.8,8,8.2,8.2C8.8,8.3,9.4,8.6,10,8.8s1.2,0.5,1.7,0.9c0.5,0.4,0.9,0.9,1.3,1.4s0.5,1.3,0.5,2.1c0,1-0.2,1.8-0.5,2.5
		c-0.4,0.7-0.8,1.3-1.5,1.8c-0.6,0.5-1.3,0.8-2.1,1c-0.8,0.2-1.6,0.3-2.4,0.3c-1.2,0-2.4-0.2-3.5-0.6c-1.1-0.4-2.1-1-2.8-1.8
		l2.7-2.7c0.4,0.5,1,0.9,1.6,1.3c0.7,0.3,1.4,0.5,2,0.5c0.3,0,0.6,0,0.9-0.1c0.3-0.1,0.5-0.2,0.8-0.3C8.8,15,9,14.8,9.1,14.6
		c0.1-0.2,0.2-0.5,0.2-0.9c0-0.3-0.1-0.6-0.2-0.8c-0.2-0.2-0.4-0.4-0.7-0.6c-0.3-0.2-0.7-0.4-1.1-0.5c-0.4-0.2-0.9-0.3-1.5-0.5
		c-0.5-0.2-1.1-0.4-1.6-0.6c-0.5-0.2-1-0.5-1.4-0.9s-0.7-0.8-1-1.4c-0.2-0.5-0.4-1.2-0.4-2C1.4,5.5,1.6,4.6,2,4
		c0.4-0.7,0.9-1.2,1.5-1.7c0.6-0.4,1.3-0.7,2.1-0.9C6.4,1.2,7.2,1.1,8,1.1c1,0,1.9,0.2,2.9,0.5c1,0.4,1.9,0.9,2.6,1.6L11,5.9z"/>
	<path class="st0" d="M31.5,6.7c0,1-0.2,1.8-0.6,2.5c-0.4,0.7-0.9,1.2-1.5,1.6s-1.3,0.7-2.2,0.9c-0.8,0.2-1.7,0.3-2.5,0.3h-2v6.4
		h-4.1v-17h6.2c0.9,0,1.8,0.1,2.6,0.3c0.8,0.2,1.5,0.5,2.1,0.9c0.6,0.4,1.1,0.9,1.4,1.6C31.3,4.9,31.5,5.8,31.5,6.7z M27.4,6.8
		c0-0.4-0.1-0.7-0.2-1c-0.2-0.3-0.4-0.5-0.6-0.6c-0.3-0.1-0.6-0.2-0.9-0.3c-0.3,0-0.7-0.1-1.1-0.1h-1.8v4h1.7c0.4,0,0.8,0,1.1-0.1
		c0.4-0.1,0.7-0.2,0.9-0.3C26.7,8.2,27,8,27.1,7.8C27.3,7.5,27.4,7.2,27.4,6.8z"/>
	<path class="st0" d="M36.3,18.5v-17h11.4V5h-7.5v3.2h7.1v3.3h-7.1V15h7.9v3.5H36.3z"/>
	<path class="st0" d="M65.5,18.2c-1.1,0.5-2.4,0.8-3.8,0.8c-1.3,0-2.5-0.2-3.6-0.6c-1.1-0.4-2.1-1-2.9-1.8s-1.5-1.7-1.9-2.8
		c-0.5-1.1-0.7-2.3-0.7-3.6c0-1.4,0.2-2.6,0.7-3.7c0.5-1.1,1.1-2,2-2.8C56,2.7,57,2.1,58.1,1.7C59.2,1.3,60.4,1,61.7,1
		c1.2,0,2.4,0.2,3.5,0.6c1.2,0.4,2.1,1,2.8,1.9l-2.8,2.8c-0.4-0.5-0.9-0.9-1.5-1.2c-0.6-0.3-1.3-0.4-1.9-0.4c-0.7,0-1.4,0.1-2,0.4
		c-0.6,0.3-1.1,0.6-1.5,1.1c-0.4,0.5-0.8,1-1,1.6C57.1,8.5,57,9.2,57,10c0,0.8,0.1,1.5,0.4,2.1c0.2,0.6,0.6,1.2,1,1.6
		c0.4,0.5,0.9,0.8,1.5,1.1s1.2,0.4,1.9,0.4c0.8,0,1.5-0.2,2.1-0.5c0.6-0.3,1.1-0.7,1.5-1.2l2.9,2.7C67.5,17,66.6,17.7,65.5,18.2z"/>
	<path class="st0" d="M72.4,18.5v-17h4.1v17H72.4z"/>
	<path class="st0" d="M86.5,5v3.5h6.6v3.4h-6.6v6.6h-4.1v-17h11.2V5H86.5z"/>
	<path class="st0" d="M98.7,18.5v-17h4.1v17H98.7z"/>
	<path class="st0" d="M120.9,18.2c-1.1,0.5-2.4,0.8-3.8,0.8c-1.3,0-2.5-0.2-3.6-0.6c-1.1-0.4-2.1-1-2.9-1.8s-1.5-1.7-1.9-2.8
		c-0.5-1.1-0.7-2.3-0.7-3.6c0-1.4,0.2-2.6,0.7-3.7s1.1-2,2-2.8c0.8-0.8,1.8-1.4,2.9-1.8c1.1-0.4,2.3-0.6,3.6-0.6
		c1.2,0,2.4,0.2,3.5,0.6c1.2,0.4,2.1,1,2.8,1.9l-2.8,2.8c-0.4-0.5-0.9-0.9-1.5-1.2c-0.6-0.3-1.3-0.4-1.9-0.4c-0.7,0-1.4,0.1-2,0.4
		c-0.6,0.3-1.1,0.6-1.5,1.1c-0.4,0.5-0.8,1-1,1.6c-0.2,0.6-0.4,1.3-0.4,2.1c0,0.8,0.1,1.5,0.4,2.1c0.2,0.6,0.6,1.2,1,1.6
		c0.4,0.5,0.9,0.8,1.5,1.1c0.6,0.3,1.2,0.4,1.9,0.4c0.8,0,1.5-0.2,2.1-0.5c0.6-0.3,1.1-0.7,1.5-1.2l2.9,2.7
		C122.9,17,122,17.7,120.9,18.2z"/>
	<path class="st0" d="M139,18.5l-1.3-3.3h-6.6l-1.2,3.3h-4.5l7.1-17h4l7.1,17H139z M134.5,6l-2.2,5.8h4.3L134.5,6z"/>
	<path class="st0" d="M153.2,5v13.5h-4.1V5h-4.8V1.5H158V5H153.2z"/>
	<path class="st0" d="M162.3,18.5v-17h4.1v17H162.3z"/>
	<path class="st0" d="M190.1,9.9c0,1.3-0.2,2.6-0.7,3.7c-0.5,1.1-1.1,2.1-1.9,2.9c-0.8,0.8-1.8,1.4-2.9,1.8
		c-1.1,0.4-2.4,0.6-3.7,0.6c-1.3,0-2.6-0.2-3.7-0.6s-2.1-1-2.9-1.8c-0.8-0.8-1.5-1.7-1.9-2.9c-0.5-1.1-0.7-2.3-0.7-3.7
		c0-1.4,0.2-2.6,0.7-3.7c0.5-1.1,1.1-2,1.9-2.8c0.8-0.8,1.8-1.4,2.9-1.8c1.1-0.4,2.4-0.6,3.7-0.6c1.3,0,2.6,0.2,3.7,0.6
		c1.1,0.4,2.1,1,2.9,1.8c0.8,0.8,1.5,1.7,1.9,2.8C189.8,7.3,190.1,8.6,190.1,9.9z M185.7,9.9c0-0.7-0.1-1.4-0.4-2.1
		c-0.2-0.6-0.6-1.2-1-1.6c-0.4-0.5-0.9-0.8-1.5-1.1s-1.3-0.4-2-0.4s-1.4,0.1-2,0.4c-0.6,0.3-1.1,0.6-1.5,1.1s-0.8,1-1,1.6
		s-0.3,1.3-0.3,2.1c0,0.8,0.1,1.5,0.4,2.1c0.2,0.6,0.6,1.2,1,1.7c0.4,0.5,0.9,0.8,1.5,1.1c0.6,0.3,1.2,0.4,2,0.4s1.4-0.1,2-0.4
		c0.6-0.3,1.1-0.6,1.5-1.1c0.4-0.5,0.8-1,1-1.7C185.5,11.4,185.7,10.7,185.7,9.9z"/>
	<path class="st0" d="M206,18.5l-6.8-11.1h-0.1l0.1,11.1h-4v-17h4.7l6.8,11.1h0.1l-0.1-11.1h4v17H206z"/>
	<path class="st0" d="M231.6,5v13.5h-4.1V5h-4.8V1.5h13.7V5H231.6z"/>
	<path class="st0" d="M250.8,18.5l-1.3-3.3h-6.6l-1.2,3.3h-4.5l7.1-17h4l7.1,17H250.8z M246.2,6l-2.2,5.8h4.3L246.2,6z"/>
	<path class="st0" d="M272.4,13.6c0,0.9-0.2,1.7-0.6,2.3c-0.4,0.6-0.9,1.1-1.5,1.5c-0.6,0.4-1.3,0.7-2.1,0.8s-1.6,0.3-2.4,0.3h-6.8
		v-17h6.8c0.7,0,1.3,0.1,2,0.2c0.7,0.1,1.3,0.4,1.9,0.7s1,0.8,1.4,1.3s0.5,1.3,0.5,2.1c0,0.9-0.3,1.7-0.8,2.3
		c-0.5,0.6-1.2,1.1-2,1.3v0c0.5,0.1,0.9,0.2,1.4,0.4c0.4,0.2,0.8,0.5,1.1,0.8s0.6,0.7,0.7,1.2C272.3,12.5,272.4,13,272.4,13.6z
		 M267.7,6.4c0-0.6-0.2-1-0.7-1.3c-0.4-0.3-1.1-0.4-2-0.4h-2v3.5h2.2c0.8,0,1.4-0.2,1.8-0.5C267.5,7.5,267.7,7,267.7,6.4z
		 M268.3,13.2c0-0.7-0.3-1.2-0.8-1.5c-0.5-0.3-1.2-0.4-2.1-0.4h-2.3v3.9h2.3c0.3,0,0.7,0,1-0.1c0.3-0.1,0.7-0.2,0.9-0.3
		s0.5-0.3,0.7-0.6C268.2,13.9,268.3,13.6,268.3,13.2z"/>
	<path class="st0" d="M277.5,18.5v-17h4.1v13.4h6.6v3.6H277.5z"/>
	<path class="st0" d="M292.5,18.5v-17H304V5h-7.5v3.2h7.1v3.3h-7.1V15h7.9v3.5H292.5z"/>
</g>
</svg>
