<?xml version="1.0" encoding="utf-8"?>
<!-- Generator: Adobe Illustrator 22.1.0, SVG Export Plug-In . SVG Version: 6.00 Build 0)  -->
<svg version="1.1" id="圖層_1" xmlns="http://www.w3.org/2000/svg" xmlns:xlink="http://www.w3.org/1999/xlink" x="0px" y="0px"
	 width="45px" height="45px" viewBox="0 0 45 45" style="enable-background:new 0 0 45 45;" xml:space="preserve">
<style type="text/css">
	.st0{opacity:0.5;fill:#D9DADA;}
	.st1{fill:#231815;}
</style>
<g>
	<circle class="st0" cx="22.5" cy="22.5" r="21.4"/>
	<g>
		<path class="st1" d="M22.5,35.9L22.5,35.9c-0.7,0-1.3-0.6-1.3-1.3V12.5c0-0.7,0.6-1.3,1.3-1.3h0c0.7,0,1.3,0.6,1.3,1.3v22.1
			C23.8,35.4,23.2,35.9,22.5,35.9z"/>
		<g>
			<path class="st1" d="M12.9,20.7L12.9,20.7c0.5,0.5,1.3,0.5,1.8-0.1l6.8-7.4c0.5-0.5,1.4-0.5,1.9,0l6.8,7.4
				c0.5,0.5,1.3,0.6,1.8,0.1l0,0c0.5-0.5,0.6-1.3,0.1-1.8l-8.7-9.4c-0.5-0.5-1.4-0.5-1.9,0l-8.7,9.4C12.3,19.4,12.4,20.2,12.9,20.7z
				"/>
		</g>
	</g>
</g>
</svg>
