<?xml version="1.0" encoding="UTF-8" standalone="no"?>
<svg
   xmlns:dc="http://purl.org/dc/elements/1.1/"
   xmlns:cc="http://creativecommons.org/ns#"
   xmlns:rdf="http://www.w3.org/1999/02/22-rdf-syntax-ns#"
   xmlns:svg="http://www.w3.org/2000/svg"
   xmlns="http://www.w3.org/2000/svg"
   xmlns:sodipodi="http://sodipodi.sourceforge.net/DTD/sodipodi-0.dtd"
   xmlns:inkscape="http://www.inkscape.org/namespaces/inkscape"
   sodipodi:docname="videos.svg"
   inkscape:version="1.0beta1 (3dbde4b, 2019-11-12)"
   id="svg49"
   version="1.1"
   viewBox="0 0 38.897758 7.8748121"
   height="7.8748121mm"
   width="38.897758mm">
  <defs
     id="defs43" />
  <sodipodi:namedview
     inkscape:window-maximized="1"
     inkscape:window-y="0"
     inkscape:window-x="1920"
     inkscape:window-height="1005"
     inkscape:window-width="1920"
     showgrid="false"
     inkscape:document-rotation="0"
     inkscape:current-layer="layer1"
     inkscape:document-units="mm"
     inkscape:cy="397.61449"
     inkscape:cx="337.26286"
     inkscape:zoom="0.35"
     inkscape:pageshadow="2"
     inkscape:pageopacity="0.0"
     borderopacity="1.0"
     bordercolor="#666666"
     pagecolor="#ffffff"
     id="base" />
  <metadata
     id="metadata46">
    <rdf:RDF>
      <cc:Work
         rdf:about="">
        <dc:format>image/svg+xml</dc:format>
        <dc:type
           rdf:resource="http://purl.org/dc/dcmitype/StillImage" />
        <dc:title></dc:title>
      </cc:Work>
    </rdf:RDF>
  </metadata>
  <g
     transform="translate(-16.599203,-42.964499)"
     id="layer1"
     inkscape:groupmode="layer"
     inkscape:label="圖層 1">
    <g
       style="font-weight:bold;font-size:10.5833px;line-height:1.25;font-family:'Avenir LT Std';-inkscape-font-specification:'Avenir LT Std Bold';letter-spacing:0px;word-spacing:0px;stroke-width:0.264583"
       id="text53"
       aria-label="VIDEOS">
      <path
         id="path55"
         style="stroke-width:0.264583"
         d="m 19.54136,50.648811 h 1.15358 l 3.026824,-7.492976 h -1.439329 l -2.106077,5.662066 -2.042577,-5.662066 h -1.534578 z" />
      <path
         id="path57"
         style="stroke-width:0.264583"
         d="m 24.504597,50.648811 h 1.333496 v -7.492976 h -1.333496 z" />
      <path
         id="path59"
         style="stroke-width:0.264583"
         d="m 27.471559,50.648811 h 2.793991 c 1.799161,0 3.968737,-1.185329 3.968737,-3.746488 0,-2.539992 -1.841494,-3.746488 -3.809988,-3.746488 h -2.95274 z m 1.333495,-1.206496 v -5.079984 h 1.21708 c 1.629828,0 2.815158,0.719665 2.815158,2.539992 0,1.820328 -1.365246,2.539992 -3.037407,2.539992 z" />
      <path
         id="path61"
         style="stroke-width:0.264583"
         d="m 35.512386,50.648811 h 5.154067 v -1.206496 h -3.820571 v -2.031993 h 3.439573 v -1.206497 h -3.439573 v -1.841494 h 3.630072 v -1.206496 h -4.963568 z" />
      <path
         id="path63"
         style="stroke-width:0.264583"
         d="m 41.580089,46.934073 c 0,2.338909 1.650995,3.905238 3.958154,3.905238 2.338909,-0.04233 3.989904,-1.608662 3.989904,-3.947571 0,-2.402409 -1.650995,-3.968737 -3.989904,-3.926404 -2.307159,0 -3.958154,1.566328 -3.958154,3.968737 z m 1.396995,-0.08467 c 0,-1.492245 1.02658,-2.677575 2.571742,-2.677575 1.555745,0 2.582325,1.18533 2.582325,2.677575 0,1.598078 -1.02658,2.783408 -2.582325,2.783408 -1.545162,0 -2.571742,-1.18533 -2.571742,-2.783408 z" />
      <path
         id="path65"
         style="stroke-width:0.264583"
         d="m 55.454628,43.737917 c -0.582081,-0.550332 -1.365246,-0.772581 -2.14841,-0.772581 -1.386412,0 -2.762241,0.719664 -2.762241,2.264826 0,2.677575 3.555989,1.735661 3.555989,3.376073 0,0.687914 -0.698498,1.02658 -1.312329,1.02658 -0.592665,0 -1.15358,-0.28575 -1.481662,-0.783165 l -1.005414,0.973664 c 0.613832,0.730248 1.523995,1.015997 2.455326,1.015997 1.471078,0 2.741074,-0.783164 2.741074,-2.391826 0,-2.666991 -3.555988,-1.809744 -3.555988,-3.312573 0,-0.687914 0.613831,-0.96308 1.227662,-0.96308 0.518582,0 1.02658,0.190499 1.31233,0.592665 z" />
    </g>
  </g>
</svg>
