<?xml version="1.0" encoding="utf-8"?>
<!-- Generator: Adobe Illustrator 25.1.0, SVG Export Plug-In . SVG Version: 6.00 Build 0)  -->
<svg version="1.1" id="圖層_1" xmlns="http://www.w3.org/2000/svg" xmlns:xlink="http://www.w3.org/1999/xlink" x="0px" y="0px"
	 viewBox="0 0 800 800" style="enable-background:new 0 0 800 800;" xml:space="preserve">
<style type="text/css">
	.st0{fill:#1D478C;}
	.st1{fill:#71CACF;}
	.st2{fill:#CFD2D3;}
</style>
<g>
	<rect x="14.1" y="568.3" class="st0" width="14.2" height="80.7"/>
	<rect x="279.9" y="113.8" class="st1" width="68.6" height="68.6"/>
	<polygon class="st2" points="520.1,10.9 360,170.9 279.9,251 279.9,491.1 520.1,251 	"/>
	<polygon class="st0" points="451.5,182.4 451.5,251 348.6,251 348.6,353.9 279.9,353.9 279.9,251 348.5,182.4 	"/>
	<g>
		<path class="st0" d="M47.7,588.1h14v9.2c3.9-5.4,9.2-10.5,18.6-10.5c8.8,0,15,4.3,18.2,10.7c4.8-6.5,11.3-10.7,20.5-10.7
			c13.3,0,21.3,8.4,21.3,23.3V649h-14v-34.6c0-9.7-4.5-14.9-12.3-14.9c-7.6,0-13,5.3-13,15.1V649H87.1v-34.7
			c0-9.5-4.6-14.8-12.3-14.8c-7.7,0-13,5.8-13,15.1V649h-14V588.1z"/>
		<path class="st0" d="M156.7,588.1h14v9.2c3.9-5.4,9.2-10.5,18.6-10.5c8.8,0,15,4.3,18.2,10.7c4.8-6.5,11.3-10.7,20.5-10.7
			c13.3,0,21.3,8.4,21.3,23.3V649h-14v-34.6c0-9.7-4.5-14.9-12.3-14.9c-7.6,0-13,5.3-13,15.1V649h-14v-34.7
			c0-9.5-4.6-14.8-12.3-14.8c-7.7,0-13,5.8-13,15.1V649h-14V588.1z"/>
		<path class="st0" d="M262.3,618.8v-0.2c0-17.4,12.3-31.7,29.8-31.7c19.4,0,29.2,15.2,29.2,32.7c0,1.3-0.1,2.5-0.2,3.9h-44.8
			c1.5,9.9,8.5,15.5,17.5,15.5c6.8,0,11.6-2.5,16.5-7.3l8.2,7.3c-5.8,6.9-13.7,11.4-24.9,11.4C275.9,650.4,262.3,637.6,262.3,618.8
			 M307.4,614.3c-0.9-9-6.2-16-15.5-16c-8.5,0-14.5,6.6-15.8,16H307.4z"/>
		<path class="st0" d="M334.8,588.1h14v9.3c3.9-5.7,9.6-10.6,19-10.6c13.7,0,21.7,9.2,21.7,23.3V649h-14v-34.6
			c0-9.5-4.7-14.9-13-14.9c-8.1,0-13.7,5.6-13.7,15.1V649h-14V588.1z"/>
		<path class="st0" d="M400.8,641.1l6.2-9.5c6.7,5,13.7,7.5,20,7.5c6,0,9.5-2.5,9.5-6.6v-0.2c0-4.7-6.5-6.3-13.6-8.5
			c-9-2.5-19-6.2-19-17.9v-0.2c0-11.5,9.6-18.6,21.7-18.6c7.6,0,15.9,2.7,22.4,6.9l-5.5,9.9c-5.9-3.6-12.1-5.8-17.2-5.8
			c-5.4,0-8.5,2.5-8.5,6v0.2c0,4.5,6.6,6.3,13.7,8.6c8.9,2.8,18.9,6.8,18.9,17.8v0.2c0,12.8-9.9,19.1-22.6,19.1
			C418,650.2,408.4,647.1,400.8,641.1"/>
		<path class="st0" d="M459.6,618.8v-0.2c0-17.4,12.3-31.7,29.8-31.7c19.4,0,29.2,15.2,29.2,32.7c0,1.3-0.1,2.5-0.2,3.9h-44.8
			c1.5,9.9,8.5,15.5,17.5,15.5c6.8,0,11.6-2.5,16.5-7.3l8.2,7.3c-5.8,6.9-13.7,11.4-24.9,11.4C473.2,650.4,459.6,637.6,459.6,618.8
			 M504.7,614.3c-0.9-9-6.2-16-15.5-16c-8.5,0-14.5,6.6-15.8,16H504.7z"/>
		<path class="st0" d="M568.8,608.9v-0.2c0-22.7,17.5-41.8,42.3-41.8c24.8,0,42.1,18.8,42.1,41.5v0.2c0,22.7-17.5,41.7-42.3,41.7
			C586.1,650.4,568.8,631.6,568.8,608.9 M638.4,608.9v-0.2c0-15.7-11.4-28.7-27.4-28.7c-16,0-27.2,12.8-27.2,28.5v0.2
			c0,15.7,11.4,28.6,27.4,28.6C627.2,637.3,638.4,624.6,638.4,608.9"/>
		<path class="st0" d="M664.3,631.5v-0.2c0-13.1,10.3-19.6,25.1-19.6c6.8,0,11.6,1,16.4,2.5v-1.5c0-8.6-5.3-13.3-15.1-13.3
			c-6.8,0-11.9,1.5-17.4,3.8l-3.7-10.9c6.7-3,13.3-5,23-5c9.1,0,15.9,2.4,20.2,6.8c4.5,4.4,6.6,10.8,6.6,18.8V649h-13.6v-7.6
			c-4.1,5-10.5,8.9-19.8,8.9C674.4,650.3,664.3,643.7,664.3,631.5 M706,627.1V623c-3.6-1.4-8.3-2.4-13.8-2.4
			c-9,0-14.3,3.8-14.3,10.2v0.2c0,5.9,5.2,9.2,11.9,9.2C699,640.2,706,634.9,706,627.1"/>
		<polygon class="st0" points="735.5,564.8 749.5,564.8 749.5,615.1 774.7,588.1 791.7,588.1 767.5,612.9 792.5,649 776.1,649 
			758.1,622.6 749.5,631.6 749.5,649 735.5,649 		"/>
		<polygon class="st0" points="33.1,702.9 7.5,702.9 7.5,689.7 73,689.7 73,702.9 47.4,702.9 47.4,770.5 33.1,770.5 		"/>
		<path class="st0" d="M72.4,740.2V740c0-17.4,12.3-31.7,29.8-31.7c19.4,0,29.2,15.2,29.2,32.7c0,1.3-0.1,2.5-0.2,3.9H86.4
			c1.5,9.9,8.5,15.5,17.5,15.5c6.8,0,11.6-2.5,16.5-7.3l8.2,7.3c-5.8,6.9-13.7,11.4-24.9,11.4C86,771.8,72.4,759,72.4,740.2
			 M117.5,735.7c-0.9-9-6.2-16-15.5-16c-8.5,0-14.5,6.6-15.8,16H117.5z"/>
		<path class="st0" d="M144.7,740.4v-0.2c0-17.3,13.4-31.8,31.7-31.8c11.4,0,18.6,4.3,24.3,10.5l-8.8,9.3c-4.3-4.5-8.8-7.6-15.7-7.6
			c-10.2,0-17.6,8.8-17.6,19.4v0.2c0,10.8,7.5,19.5,18.2,19.5c6.6,0,11.4-3,15.8-7.5l8.4,8.3c-6,6.7-13,11.4-24.9,11.4
			C158.1,771.8,144.7,757.7,144.7,740.4"/>
		<path class="st0" d="M216.6,686.3h14v32.6c3.9-5.6,9.6-10.6,19-10.6c13.7,0,21.7,9.2,21.7,23.3v38.9h-14v-34.6
			c0-9.5-4.7-14.9-13-14.9c-8.1,0-13.7,5.7-13.7,15.1v34.4h-14V686.3z"/>
		<path class="st0" d="M290.6,709.6h13.9v9.3c3.9-5.7,9.6-10.6,19-10.6c13.7,0,21.7,9.2,21.7,23.3v38.9h-14v-34.6
			c0-9.5-4.7-14.9-13-14.9c-8.1,0-13.7,5.7-13.7,15.1v34.4h-13.9V709.6z"/>
		<path class="st0" d="M361.3,740.4v-0.2c0-17.4,13.8-31.8,32.5-31.8c18.7,0,32.4,14.2,32.4,31.6v0.2c0,17.3-13.8,31.7-32.6,31.7
			C375,771.8,361.3,757.7,361.3,740.4 M412.3,740.4v-0.2c0-10.7-7.7-19.6-18.7-19.6c-11.2,0-18.3,8.8-18.3,19.4v0.2
			c0,10.6,7.7,19.5,18.6,19.5C405.1,759.6,412.3,750.9,412.3,740.4"/>
		<rect x="443.9" y="686.3" class="st0" width="14" height="84.2"/>
		<path class="st0" d="M475.2,740.4v-0.2c0-17.4,13.8-31.8,32.5-31.8c18.7,0,32.4,14.2,32.4,31.6v0.2c0,17.3-13.8,31.7-32.6,31.7
			C489,771.8,475.2,757.7,475.2,740.4 M526.2,740.4v-0.2c0-10.7-7.7-19.6-18.7-19.6c-11.2,0-18.3,8.8-18.3,19.4v0.2
			c0,10.6,7.7,19.5,18.6,19.5C519.1,759.6,526.2,750.9,526.2,740.4"/>
		<path class="st0" d="M556.9,781.9l5.2-10.5c6.6,4,13.4,6.5,21.7,6.5c12.5,0,19.3-6.5,19.3-18.7v-4.7c-5.1,6.6-11.4,11.2-21.4,11.2
			c-14.3,0-27.7-10.6-27.7-28.5v-0.2c0-18,13.5-28.6,27.7-28.6c10.3,0,16.6,4.7,21.3,10.4v-9.1h14V758c0,10.3-2.7,17.9-7.7,23
			c-5.5,5.5-14.1,8.2-25,8.2C574.1,789.1,564.7,786.6,556.9,781.9 M603.1,737v-0.2c0-9.9-8.2-16.7-17.9-16.7
			c-9.7,0-17.3,6.7-17.3,16.7v0.2c0,9.9,7.7,16.7,17.3,16.7C595,753.7,603.1,746.9,603.1,737"/>
		<path class="st0" d="M637.2,687h15v13.3h-15V687z M637.7,709.6h14v60.9h-14V709.6z"/>
		<path class="st0" d="M669.2,740.2V740c0-17.4,12.3-31.7,29.8-31.7c19.4,0,29.2,15.2,29.2,32.7c0,1.3-0.1,2.5-0.2,3.9h-44.7
			c1.5,9.9,8.5,15.5,17.5,15.5c6.8,0,11.7-2.5,16.5-7.3l8.2,7.3c-5.8,6.9-13.7,11.4-24.9,11.4C682.8,771.8,669.2,759,669.2,740.2
			 M714.3,735.7c-0.9-9-6.2-16-15.5-16c-8.5,0-14.5,6.6-15.8,16H714.3z"/>
		<path class="st0" d="M739.9,762.5l6.2-9.5c6.7,5,13.7,7.5,20,7.5c6,0,9.5-2.5,9.5-6.6v-0.2c0-4.7-6.4-6.3-13.6-8.5
			c-9-2.5-19-6.2-19-17.9v-0.2c0-11.5,9.6-18.6,21.7-18.6c7.6,0,15.9,2.7,22.4,6.9l-5.5,9.9c-5.9-3.6-12.1-5.8-17.2-5.8
			c-5.4,0-8.5,2.5-8.5,6v0.2c0,4.5,6.6,6.3,13.7,8.6c8.9,2.8,18.9,6.8,18.9,17.8v0.2c0,12.8-9.9,19.1-22.6,19.1
			C757.1,771.6,747.5,768.5,739.9,762.5"/>
	</g>
</g>
</svg>
