<?xml version="1.0" encoding="UTF-8"?>
<svg id="_圖層_1" data-name="圖層_1" xmlns="http://www.w3.org/2000/svg" version="1.1" viewBox="0 0 100 100">
  <!-- Generator: Adobe Illustrator 29.5.1, SVG Export Plug-In . SVG Version: 2.1.0 Build 141)  -->
  <defs>
    <style>
      .st0 {
        fill: #003b87;
      }
    </style>
  </defs>
  <path class="st0" d="M37.5,85.6h-7.5c-2.8,0-5-2.2-5-5v-20h-5v20c0,5.5,4.5,10,10,10h11.2l-3.8-5Z"/>
  <path class="st0" d="M85,16.6v64c0,5.5-4.5,10-10,10h-11.2l3.8-5h7.5c2.8,0,5-2.2,5-5V20.6h-15V5.6H30c-2.8,0-5,2.2-5,5v20h-5V10.6c0-5.5,4.5-10,10-10h39l16,16Z"/>
  <path class="st0" d="M66,82.6l-12,16c-.5.8-1.6,1.1-2.5.5-.2-.1-.4-.3-.5-.5l-12-16c-.8-1.1-.4-2,1-2h5v-12.5c0-1.4,1.1-2.5,2.5-2.5h10c1.4,0,2.5,1.1,2.5,2.5v12.5h5c1.4,0,1.8.9,1,2Z"/>
  <g>
    <polygon class="st0" points="29.4 46.7 32.6 46.7 31 41.9 29.4 46.7"/>
    <path class="st0" d="M42,41.5h-1.2v8.1h1.1c2.1,0,3.7-1.1,3.7-4.1s-1.4-4-3.7-4Z"/>
    <path class="st0" d="M66.7,33.6H17.5c-1.4,0-2.5,1.1-2.5,2.5v18.9c0,1.4,1.1,2.5,2.5,2.5h49.2c1.4,0,2.5-1.1,2.5-2.5v-18.9c0-1.4-1.1-2.5-2.5-2.5ZM34.2,51.6l-1-2.8h-4.3l-1,2.8h-2.4l4.3-12h2.6l4.3,12h-2.4ZM41.9,51.6h-3.5v-12c.3,0,2.6,0,3.6,0,4.4.1,6.2,2.3,6.2,5.9s-2,6.1-6.3,6.1ZM58.8,51.6h-8.4v-12h8.3v2h-5.8v2.9h5.1v2h-5.1v3h5.9v2.1Z"/>
  </g>
</svg>