<svg xmlns="http://www.w3.org/2000/svg" xmlns:xlink="http://www.w3.org/1999/xlink" viewBox="0 0 307.2 91"><defs><style>.cls-1{fill:none;}.cls-2{fill:#cfd2d3;}.cls-3{fill:url(#未命名漸層_132);}.cls-4{fill:url(#未命名漸層_132-2);}.cls-5{fill:url(#未命名漸層_132-3);}.cls-6{fill:url(#未命名漸層_132-4);}.cls-7{fill:url(#未命名漸層_132-5);}.cls-8{fill:url(#未命名漸層_132-6);}.cls-9{fill:url(#未命名漸層_132-7);}.cls-10{fill:url(#未命名漸層_132-8);}.cls-11{fill:url(#未命名漸層_132-9);}.cls-12{fill:url(#未命名漸層_132-10);}.cls-13{fill:url(#未命名漸層_132-11);}.cls-14{fill:url(#未命名漸層_132-12);}.cls-15{fill:url(#未命名漸層_132-13);}.cls-16{fill:aqua;}.cls-17{clip-path:url(#clip-path);}.cls-18{clip-path:url(#clip-path-2);}</style><linearGradient id="未命名漸層_132" x1="45.5" y1="45.5" x2="147.88" y2="45.5" gradientUnits="userSpaceOnUse"><stop offset="0" stop-color="aqua" stop-opacity="0"/><stop offset="0.06" stop-color="aqua" stop-opacity="0.14"/><stop offset="0.16" stop-color="aqua" stop-opacity="0.34"/><stop offset="0.26" stop-color="aqua" stop-opacity="0.52"/><stop offset="0.37" stop-color="aqua" stop-opacity="0.67"/><stop offset="0.48" stop-color="aqua" stop-opacity="0.79"/><stop offset="0.59" stop-color="aqua" stop-opacity="0.88"/><stop offset="0.71" stop-color="aqua" stop-opacity="0.95"/><stop offset="0.84" stop-color="aqua" stop-opacity="0.99"/><stop offset="1" stop-color="aqua"/></linearGradient><linearGradient id="未命名漸層_132-2" x1="128.24" y1="1.14" x2="200.2" y2="1.14" xlink:href="#未命名漸層_132"/><linearGradient id="未命名漸層_132-3" x1="135.89" y1="6.45" x2="200.2" y2="6.45" xlink:href="#未命名漸層_132"/><linearGradient id="未命名漸層_132-4" x1="141.38" y1="11.75" x2="200.2" y2="11.75" xlink:href="#未命名漸層_132"/><linearGradient id="未命名漸層_132-5" x1="145.55" y1="17.06" x2="200.2" y2="17.06" xlink:href="#未命名漸層_132"/><linearGradient id="未命名漸層_132-6" x1="153.91" y1="37.54" x2="200.2" y2="37.54" xlink:href="#未命名漸層_132"/><linearGradient id="未命名漸層_132-7" x1="154.56" y1="42.85" x2="200.2" y2="42.85" xlink:href="#未命名漸層_132"/><linearGradient id="未命名漸層_132-8" x1="154.56" y1="48.15" x2="200.2" y2="48.15" xlink:href="#未命名漸層_132"/><linearGradient id="未命名漸層_132-9" x1="153.91" y1="53.46" x2="200.2" y2="53.46" xlink:href="#未命名漸層_132"/><linearGradient id="未命名漸層_132-10" x1="145.55" y1="73.94" x2="200.2" y2="73.94" xlink:href="#未命名漸層_132"/><linearGradient id="未命名漸層_132-11" x1="141.37" y1="79.25" x2="200.2" y2="79.25" xlink:href="#未命名漸層_132"/><linearGradient id="未命名漸層_132-12" x1="135.88" y1="84.55" x2="200.2" y2="84.55" xlink:href="#未命名漸層_132"/><linearGradient id="未命名漸層_132-13" x1="128.23" y1="89.86" x2="200.2" y2="89.86" xlink:href="#未命名漸層_132"/><clipPath id="clip-path"><rect class="cls-1" x="-1" y="235" width="432" height="350"/></clipPath><clipPath id="clip-path-2"><polygon class="cls-1" points="126.84 263.05 83.27 447.26 361.22 545.29 421.73 254 126.84 263.05"/></clipPath></defs><g id="line-03_拷貝_2" data-name="line-03 拷貝 2"><path class="cls-2" d="M231.73,1.74h1.62l1.81,9.14h-1.51l-.44-2.3h-3.33l-1.12,2.3h-1.52ZM233,7.22l-.7-4-1.9,4Z"/><path class="cls-2" d="M236.7,7.64c.3-2,1.63-3.42,3.47-3.42a2.1,2.1,0,0,1,2.26,2.36h-1.29A1.09,1.09,0,0,0,240,5.41c-.93,0-1.67.72-1.89,2.21s.25,2.27,1.26,2.27a1.59,1.59,0,0,0,1.46-1.17h1.26A2.93,2.93,0,0,1,239.18,11C237.45,11,236.39,9.78,236.7,7.64Z"/><path class="cls-2" d="M243.67,7.64c.29-2,1.6-3.42,3.47-3.42s2.77,1.28,2.47,3.42S248.06,11,246.16,11,243.37,9.76,243.67,7.64Zm4.46,0c.17-1.2-.08-2.22-1.16-2.22s-1.63.9-1.81,2.22.08,2.23,1.19,2.23S248,8.89,248.13,7.6Z"/><path class="cls-2" d="M251.79,4.35h1.45L253,5.76a2.41,2.41,0,0,1,2.17-1.54.82.82,0,0,1,.35.06l-.21,1.47a1,1,0,0,0-.34-.06c-1.23-.1-1.95.42-2.09,1.39l-.53,3.8h-1.53Z"/><path class="cls-2" d="M257.08,4.35h1.47l-.11.87a2.43,2.43,0,0,1,2-1,1.83,1.83,0,0,1,1.86,2.28l-.63,4.33h-1.52l.62-4.15a1,1,0,0,0-1-1.23,1.41,1.41,0,0,0-1.51,1.08l-.63,4.3h-1.51Z"/><path class="cls-2" d="M229.21,20.68h1.29c2.94,0,5.09.57,5.09,3.54,0,2.39-1,5.59-5.34,5.59H227.9Zm1.18,7.87c2.44,0,3.63-1.88,3.63-4.27,0-1.7-1-2.33-2.56-2.33h-.87l-1,6.6Z"/><path class="cls-2" d="M236.88,26.62c.29-2,1.59-3.46,3.48-3.46s2.67,1.31,2.38,3.28l-.07.46h-4.33c-.18,1.12.25,1.91,1.25,1.91a1.57,1.57,0,0,0,1.55-1h1.38a3.19,3.19,0,0,1-3.07,2.12C237.63,29.94,236.57,28.67,236.88,26.62Zm4.51-.67c.13-.95-.23-1.69-1.2-1.69A1.85,1.85,0,0,0,238.47,26Z"/><path class="cls-2" d="M244.15,23.28h1.38l.82,4.58h.07l2.15-4.58H250l-3.28,6.54h-1.17Z"/><path class="cls-2" d="M250.44,26.62c.29-2,1.6-3.46,3.49-3.46s2.66,1.31,2.38,3.28l-.08.46h-4.32c-.18,1.12.25,1.91,1.25,1.91a1.58,1.58,0,0,0,1.55-1h1.37A3.17,3.17,0,0,1,253,29.94C251.19,29.94,250.14,28.67,250.44,26.62ZM255,26c.14-.95-.22-1.69-1.19-1.69A1.85,1.85,0,0,0,252,26Z"/><path class="cls-2" d="M257.85,28.05,259,20.43h1.5l-1.1,7.45c-.08.57.08.88.58.93h.3l-.14,1a2.26,2.26,0,0,1-.69.13C257.76,29.91,257.71,29,257.85,28.05Z"/><path class="cls-2" d="M261.65,26.58c.29-2,1.6-3.42,3.46-3.42s2.78,1.28,2.48,3.42-1.55,3.36-3.45,3.36S261.35,28.7,261.65,26.58Zm4.46,0c.17-1.2-.09-2.23-1.17-2.23s-1.63.91-1.8,2.23.08,2.23,1.19,2.23S265.94,27.83,266.11,26.54Z"/><path class="cls-2" d="M269.77,23.28h1.51l-.12,1a2.74,2.74,0,0,1,2.16-1.15c1.44,0,2.33,1.05,2,3.32s-1.53,3.46-3.09,3.46a1.79,1.79,0,0,1-1.71-1.2l-.41,3.11H268.6Zm4.13,3.23c.19-1.37-.28-2.21-1.23-2.21s-1.66.92-1.82,2.21.19,2.28,1.22,2.28C272.94,28.79,273.69,28.08,273.9,26.51Z"/><path class="cls-2" d="M277.54,23.28H279l-.13.88a2.58,2.58,0,0,1,2.09-1,1.65,1.65,0,0,1,1.63,1,2.79,2.79,0,0,1,2.06-1c.91,0,2,.55,1.71,2.23l-.65,4.43h-1.51l.63-4.27c.13-.95-.36-1.24-.92-1.24a1.34,1.34,0,0,0-1.41,1.29l-.61,4.22h-1.51l.66-4.52a.88.88,0,0,0-1-1,1.32,1.32,0,0,0-1.35,1.08l-.65,4.43h-1.51Z"/><path class="cls-2" d="M287.86,26.62c.29-2,1.6-3.46,3.48-3.46s2.67,1.31,2.39,3.28l-.08.46h-4.33c-.17,1.12.26,1.91,1.25,1.91a1.57,1.57,0,0,0,1.55-1h1.38a3.19,3.19,0,0,1-3.07,2.12C288.61,29.94,287.55,28.67,287.86,26.62Zm4.51-.67c.14-.95-.22-1.69-1.2-1.69A1.84,1.84,0,0,0,289.46,26Z"/><path class="cls-2" d="M296,23.28h1.47l-.12.88a2.44,2.44,0,0,1,2-.95,1.82,1.82,0,0,1,1.86,2.28l-.63,4.33h-1.52l.62-4.15a1,1,0,0,0-1-1.24,1.42,1.42,0,0,0-1.51,1.08l-.63,4.31H295Z"/><path class="cls-2" d="M303.14,28.17l.56-3.8h-1l.17-1.09h1.06l.54-1.94h1.21l-.28,1.94h1.41l-.16,1.09h-1.41l-.53,3.71c-.09.59.1.68.55.68H306l-.14,1a2.9,2.9,0,0,1-1.05.14C303.29,29.87,303,29.22,303.14,28.17Z"/><path class="cls-2" d="M229.24,39.62h5.82l-.2,1.32h-4.3l-.37,2.56H234l-.19,1.3H230l-.39,2.62H234l-.21,1.33h-5.9Z"/><path class="cls-2" d="M236.59,42.22h1.47l-.11.87a2.44,2.44,0,0,1,2-.94,1.82,1.82,0,0,1,1.86,2.28l-.64,4.32h-1.51l.61-4.15a1,1,0,0,0-1-1.23,1.41,1.41,0,0,0-1.51,1.08l-.64,4.3h-1.51Z"/><path class="cls-2" d="M243.23,42.22h1.38l.82,4.58h.07l2.15-4.58H249l-3.28,6.53h-1.18Z"/><path class="cls-2" d="M250.47,42.22h1.46L251,48.75h-1.47Zm.34-2.59h1.5l-.21,1.45h-1.49Z"/><path class="cls-2" d="M254.06,42.22h1.45l-.19,1.42a2.39,2.39,0,0,1,2.16-1.54,1,1,0,0,1,.35,0l-.21,1.48a1,1,0,0,0-.34-.06c-1.23-.1-1.95.42-2.09,1.39l-.53,3.79h-1.52Z"/><path class="cls-2" d="M258.45,45.52c.29-2.05,1.6-3.42,3.46-3.42s2.78,1.28,2.48,3.42c-.28,2-1.55,3.36-3.45,3.36S258.15,47.64,258.45,45.52Zm4.46,0c.17-1.2-.09-2.23-1.17-2.23s-1.63.91-1.8,2.23.08,2.23,1.19,2.23S262.74,46.77,262.91,45.48Z"/><path class="cls-2" d="M266.6,42.22h1.47l-.11.87a2.44,2.44,0,0,1,2-.94,1.82,1.82,0,0,1,1.86,2.28l-.63,4.32h-1.52l.61-4.15a1,1,0,0,0-1-1.23,1.41,1.41,0,0,0-1.51,1.08l-.64,4.3h-1.51Z"/><path class="cls-2" d="M274.13,42.22h1.48l-.13.87a2.55,2.55,0,0,1,2.08-1,1.64,1.64,0,0,1,1.63,1,2.82,2.82,0,0,1,2.06-1c.92,0,2,.55,1.72,2.23l-.65,4.42h-1.51l.63-4.27c.13-.94-.36-1.23-.93-1.23a1.32,1.32,0,0,0-1.4,1.29l-.62,4.21H277l.66-4.51a.88.88,0,0,0-1-1,1.32,1.32,0,0,0-1.35,1.08l-.66,4.42h-1.5Z"/><path class="cls-2" d="M284.45,45.56c.3-2,1.6-3.46,3.49-3.46s2.67,1.3,2.38,3.28l-.07.46h-4.33c-.18,1.11.25,1.9,1.25,1.9a1.57,1.57,0,0,0,1.55-1h1.38A3.19,3.19,0,0,1,287,48.88C285.21,48.88,284.15,47.61,284.45,45.56Zm4.51-.67c.14-1-.22-1.69-1.19-1.69a1.85,1.85,0,0,0-1.72,1.69Z"/><path class="cls-2" d="M292.57,42.22h1.48l-.12.87a2.44,2.44,0,0,1,2-.94,1.82,1.82,0,0,1,1.86,2.28l-.63,4.32h-1.52l.61-4.15a1,1,0,0,0-1-1.23,1.42,1.42,0,0,0-1.51,1.08l-.64,4.3h-1.51Z"/><path class="cls-2" d="M299.74,47.11l.55-3.8h-1l.17-1.09h1.06l.53-1.94h1.22L302,42.22h1.41l-.17,1.09H301.8L301.27,47c-.08.58.11.68.56.68h.77l-.14,1a3,3,0,0,1-1,.14C299.89,48.81,299.59,48.16,299.74,47.11Z"/><path class="cls-3" d="M147.88,45.5A45.51,45.51,0,0,1,102.37,91H88.72l-1.11-2.28h14.76A43.27,43.27,0,0,0,145.6,45.5a44.22,44.22,0,0,0-.46-6.34c.05.88.08,1.76.08,2.65,0,23-19.22,41.79-42.85,41.79H85.12L84,81.33h18.36C124.75,81.33,143,63.6,143,41.81a38.36,38.36,0,0,0-4.07-17.24,37,37,0,0,1,2.55,13.54c0,21-17.52,38.1-39.06,38.1H81.51l-1.1-2.27h22c20.29,0,36.78-16.08,36.78-35.83a34.94,34.94,0,0,0-3.75-15.77,33.47,33.47,0,0,1,2.24,12.07c0,19-15.82,34.41-35.27,34.41H77.91L76.8,66.54h25.57c18.19,0,33-14.41,33-32.13a31.18,31.18,0,0,0-3.45-14.29,29.85,29.85,0,0,1,1.93,10.6c0,16.93-14.11,30.7-31.47,30.7H74.31L73.2,59.15h29.17c16.1,0,29.2-12.76,29.2-28.43a27.63,27.63,0,0,0-3.15-12.85A26.26,26.26,0,0,1,130.05,27c0,14.89-12.41,27-27.68,27H70.7l-1.11-2.27h32.78c14,0,25.41-11.1,25.41-24.74a24.09,24.09,0,0,0-2.85-11.38,22.74,22.74,0,0,1,1.33,7.68c0,12.86-10.71,23.32-23.89,23.32H67.1L66,44.36h36.38c11.92,0,21.62-9.44,21.62-21,0-11.38-9.33-20.68-20.94-21l.63,0-.27,0h-.27s0,0,0,0,0,0,0,0H45.5V0h58.18l.7,0,.74,0A45.51,45.51,0,0,1,147.88,45.5Z"/><path class="cls-4" d="M200.2,0V2.28H131.87C130.7,1.47,129.48.71,128.24,0Z"/><path class="cls-5" d="M200.2,5.31V7.59H138.44q-1.24-1.19-2.55-2.28Z"/><path class="cls-6" d="M200.2,10.62v2.27H143.3c-.62-.77-1.26-1.53-1.92-2.27Z"/><path class="cls-7" d="M200.2,15.93V18.2H147c-.48-.77-1-1.53-1.48-2.27Z"/><path class="cls-8" d="M200.2,36.4v2.27H154.26c-.1-.76-.21-1.52-.35-2.27Z"/><path class="cls-9" d="M200.2,41.71V44H154.68c0-.76-.06-1.52-.12-2.27Z"/><path class="cls-10" d="M200.2,47v2.27H154.56c.06-.75.1-1.51.12-2.27Z"/><path class="cls-11" d="M200.2,52.32V54.6H153.91c.13-.75.25-1.51.35-2.28Z"/><path class="cls-12" d="M200.2,72.8v2.27H145.55c.51-.74,1-1.5,1.47-2.27Z"/><path class="cls-13" d="M200.2,78.11v2.27H141.37c.67-.74,1.31-1.5,1.93-2.27Z"/><path class="cls-14" d="M200.2,83.41v2.28H135.88q1.32-1.09,2.55-2.28Z"/><path class="cls-15" d="M200.2,88.72V91h-72c1.25-.71,2.46-1.47,3.64-2.28Z"/><polygon class="cls-16" points="45.5 2.34 42.94 7.58 83.61 91 81.33 91 41.8 9.92 39.24 15.16 76.21 91 73.94 91 38.11 17.5 35.55 22.75 68.82 91 66.54 91 34.41 25.08 31.85 30.33 61.42 91 59.15 91 30.71 32.67 28.15 37.92 54.03 91 51.76 91 27.02 40.25 24.46 45.5 46.64 91 44.36 91 23.32 47.83 2.27 91 0 91 22.18 45.5 23.32 43.17 25.88 37.92 27.02 35.59 29.57 30.33 30.71 28 33.27 22.75 34.41 20.41 36.97 15.16 38.11 12.83 40.66 7.58 41.8 5.25 44.36 0 46.64 0 91 91 88.72 91 45.5 2.34"/><rect class="cls-1" width="307.2" height="91"/><g class="cls-17"><g class="cls-18"><image width="4352" height="3264" transform="translate(18.7 83.86) rotate(9.63) scale(0.14)" xlink:href="../../../../03-photo/%E5%AE%9A%E8%A3%9D%E7%85%A7PSD/R0006311.png"/></g></g></g></svg>