<?xml version="1.0" encoding="UTF-8" standalone="no"?>
<svg
   xmlns:dc="http://purl.org/dc/elements/1.1/"
   xmlns:cc="http://creativecommons.org/ns#"
   xmlns:rdf="http://www.w3.org/1999/02/22-rdf-syntax-ns#"
   xmlns:svg="http://www.w3.org/2000/svg"
   xmlns="http://www.w3.org/2000/svg"
   xmlns:sodipodi="http://sodipodi.sourceforge.net/DTD/sodipodi-0.dtd"
   xmlns:inkscape="http://www.inkscape.org/namespaces/inkscape"
   version="1.1"
   id="svg2"
   xml:space="preserve"
   width="226.14667"
   height="109.02667"
   viewBox="0 0 226.14667 109.02667"
   sodipodi:docname="available_at_amazon_rgb_en_vertical_clr.svg"
   inkscape:version="1.0.1 (3bc2e813f5, 2020-09-07)"><metadata
     id="metadata8"><rdf:RDF><cc:Work
         rdf:about=""><dc:format>image/svg+xml</dc:format><dc:type
           rdf:resource="http://purl.org/dc/dcmitype/StillImage" /><dc:title></dc:title></cc:Work></rdf:RDF></metadata><defs
     id="defs6" /><sodipodi:namedview
     pagecolor="#ffffff"
     bordercolor="#666666"
     borderopacity="1"
     objecttolerance="10"
     gridtolerance="10"
     guidetolerance="10"
     inkscape:pageopacity="0"
     inkscape:pageshadow="2"
     inkscape:window-width="1414"
     inkscape:window-height="696"
     id="namedview4"
     showgrid="false"
     inkscape:zoom="5.7705913"
     inkscape:cx="113.07333"
     inkscape:cy="12.923144"
     inkscape:window-x="4102"
     inkscape:window-y="138"
     inkscape:window-maximized="0"
     inkscape:current-layer="g10" /><g
     id="g10"
     inkscape:groupmode="layer"
     inkscape:label="ink_ext_XXXXXX"
     transform="matrix(1.3333333,0,0,-1.3333333,0,109.02667)"><g
       id="g12"
       transform="scale(0.1)"><path
         d="M 1051.74,111.402 C 953.18,38.6719 810.309,0 687.281,0 514.855,0 359.582,63.7344 242.082,169.828 c -9.223,8.336 -0.996,19.715 10.098,13.262 126.769,-73.77 283.539,-118.1916 445.453,-118.1916 109.23,0 229.293,22.6641 339.777,69.5276 16.65,7.066 30.62,-10.981 14.33,-23.024"
         style="fill:#f68d11;fill-opacity:1;fill-rule:evenodd;stroke:none"
         id="path14" /><path
         d="m 1092.74,158.223 c -12.61,16.132 -83.31,7.644 -115.088,3.836 -9.621,-1.153 -11.117,7.257 -2.445,13.347 56.423,39.621 148.853,28.184 159.593,14.914 10.82,-13.379 -2.84,-106.0544 -55.71,-150.277 -8.13,-6.7969 -15.86,-3.168 -12.26,5.8125 11.9,29.707 38.53,96.2145 25.91,112.3675"
         style="fill:#f68d11;fill-opacity:1;fill-rule:evenodd;stroke:none"
         id="path16" /><path
         d="m 980.418,455.309 v 38.5 c 0.039,5.863 4.441,9.761 9.766,9.746 l 172.556,0.015 c 5.51,0 9.94,-4.015 9.94,-9.715 V 460.84 c -0.05,-5.543 -4.71,-12.766 -12.99,-24.238 l -89.38,-127.618 c 33.17,0.778 68.28,-4.199 98.42,-21.14 6.8,-3.821 8.62,-9.477 9.16,-15.024 v -41.082 c 0,-5.652 -6.2,-12.211 -12.72,-8.793 -53.1,27.817 -123.58,30.856 -182.315,-0.351 -6.003,-3.192 -12.277,3.265 -12.277,8.933 v 39.047 c 0,6.258 0.121,16.938 6.422,26.461 l 103.56,148.567 -90.165,0.007 c -5.52,0 -9.938,3.934 -9.977,9.7"
         style="fill:#232b39;fill-opacity:1;fill-rule:evenodd;stroke:none"
         id="path18" /><path
         d="m 350.988,214.844 h -52.496 c -4.992,0.328 -8.984,4.078 -9.394,8.875 l 0.047,269.429 c 0,5.399 4.523,9.696 10.128,9.696 l 48.887,0.015 c 5.117,-0.257 9.219,-4.129 9.539,-9.05 v -35.176 h 0.989 c 12.742,34.019 36.753,49.898 69.089,49.898 32.825,0 53.411,-15.879 68.114,-49.898 12.746,34.019 41.656,49.898 72.527,49.898 22.055,0 46.062,-9.066 60.766,-29.484 16.652,-22.684 13.234,-55.555 13.234,-84.477 l -0.047,-170.027 c 0,-5.379 -4.527,-9.699 -10.133,-9.699 h -52.425 c -5.274,0.336 -9.415,4.508 -9.415,9.676 l -0.019,142.839 c 0,11.329 0.98,39.684 -1.477,50.454 -3.914,18.148 -15.675,23.257 -30.863,23.257 -12.742,0 -25.976,-8.507 -31.371,-22.117 -5.387,-13.609 -4.898,-36.281 -4.898,-51.594 V 224.543 c 0,-5.379 -4.528,-9.699 -10.122,-9.699 h -52.433 c -5.277,0.336 -9.426,4.508 -9.426,9.676 l -0.055,142.839 c 0,30.047 4.899,74.262 -32.336,74.262 -37.738,0 -36.261,-43.074 -36.261,-74.262 l -0.02,-142.816 c 0,-5.379 -4.539,-9.699 -10.129,-9.699"
         style="fill:#232b39;fill-opacity:1;fill-rule:evenodd;stroke:none"
         id="path20" /><path
         d="m 1321.71,453.523 c -38.71,0 -41.15,-52.707 -41.15,-85.597 0,-32.887 -0.49,-103.184 40.68,-103.184 40.68,0 42.62,56.692 42.62,91.266 0,22.68 -0.98,49.894 -7.84,71.441 -5.88,18.719 -17.65,26.074 -34.31,26.074 z m -0.47,55.008 c 77.91,0 120.05,-66.91 120.05,-151.949 0,-82.203 -46.55,-147.418 -120.05,-147.418 -76.45,0 -118.11,66.922 -118.11,150.254 0,83.91 42.14,149.113 118.11,149.113"
         style="fill:#232b39;fill-opacity:1;fill-rule:evenodd;stroke:none"
         id="path22" /><path
         d="m 1542.33,214.844 h -52.3 c -5.26,0.336 -9.42,4.508 -9.42,9.676 l -0.09,269.527 c 0.45,4.937 4.8,8.797 10.09,8.797 l 48.69,0.015 c 4.58,-0.242 8.37,-3.363 9.33,-7.543 v -41.214 h 0.99 c 14.7,36.859 35.28,54.429 71.53,54.429 23.53,0 46.56,-8.496 61.26,-31.754 13.73,-21.539 13.73,-57.824 13.73,-83.906 V 223.324 c -0.59,-4.769 -4.88,-8.48 -10.07,-8.48 h -52.62 c -4.86,0.312 -8.78,3.886 -9.35,8.48 v 146.289 c 0,29.485 3.44,72.582 -32.82,72.582 -12.75,0 -24.51,-8.507 -30.39,-21.543 -7.35,-16.449 -8.34,-32.879 -8.34,-51.039 v -145.07 c -0.09,-5.379 -4.62,-9.699 -10.22,-9.699"
         style="fill:#232b39;fill-opacity:1;fill-rule:evenodd;stroke:none"
         id="path24" /><path
         d="m 895.785,215.516 c -3.469,-3.118 -8.484,-3.325 -12.398,-1.219 -17.434,14.492 -20.551,21.187 -30.094,34.98 -28.813,-29.351 -49.219,-38.16 -86.547,-38.16 -44.191,0 -78.574,27.281 -78.574,81.821 0,42.613 23.086,71.593 55.984,85.796 28.477,12.504 68.258,14.778 98.719,18.196 v 6.816 c 0,12.504 0.977,27.266 -6.395,38.067 -6.39,9.66 -18.66,13.64 -29.464,13.64 -20.028,0 -37.821,-10.258 -42.196,-31.523 -0.91,-4.731 -4.363,-9.414 -9.113,-9.657 l -50.887,5.512 c -4.3,0.973 -9.07,4.414 -7.836,10.981 11.704,61.722 67.446,80.367 117.395,80.367 25.547,0 58.93,-6.809 79.066,-26.137 25.547,-23.863 23.082,-55.683 23.082,-90.359 v -81.766 c 0,-24.613 10.223,-35.402 19.813,-48.648 3.355,-4.789 4.101,-10.457 -0.172,-13.953 -10.715,-8.997 -29.77,-25.54 -40.25,-34.872 z m -52.91,127.996 c 0,-20.465 0.48,-37.496 -9.836,-55.692 -8.344,-14.765 -21.609,-23.859 -36.336,-23.859 -20.133,0 -31.914,15.344 -31.914,38.074 0,44.711 40.102,52.836 78.086,52.836 v -11.359"
         style="fill:#232b39;fill-opacity:1;fill-rule:evenodd;stroke:none"
         id="path26" /><path
         d="m 207.613,215.516 c -3.465,-3.118 -8.488,-3.325 -12.394,-1.219 -17.453,14.492 -20.574,21.187 -30.094,34.98 -28.824,-29.351 -49.23,-38.16 -86.5547,-38.16 -44.1992,0 -78.57420625,27.281 -78.57420625,81.821 0,42.613 23.07810625,71.593 55.98830625,85.796 28.4765,12.504 68.2616,14.778 98.6996,18.196 v 6.816 c 0,12.504 0.988,27.266 -6.375,38.067 -6.391,9.66 -18.668,13.64 -29.465,13.64 -20.0237,0 -37.8362,-10.258 -42.1956,-31.523 -0.9101,-4.731 -4.3593,-9.414 -9.1211,-9.657 l -50.8789,5.512 c -4.3007,0.973 -9.07809,4.414 -7.8359,10.981 11.6875,61.722 67.4258,80.367 117.3945,80.367 25.535,0 58.934,-6.809 79.07,-26.137 25.528,-23.863 23.078,-55.683 23.078,-90.359 v -81.766 c 0,-24.613 10.215,-35.402 19.805,-48.648 3.348,-4.789 4.113,-10.457 -0.164,-13.953 -10.723,-8.997 -29.785,-25.54 -40.258,-34.872 z m -52.929,127.996 c 0,-20.465 0.496,-37.496 -9.817,-55.692 -8.34,-14.765 -21.609,-23.859 -36.344,-23.859 -20.1285,0 -31.9175,15.344 -31.9175,38.074 0,44.711 40.1175,52.836 78.0785,52.836 v -11.359"
         style="fill:#232b39;fill-opacity:1;fill-rule:evenodd;stroke:none"
         id="path28" /><path
         d="m 329.832,668.496 c 4.844,0 9.902,0.953 15.18,2.859 5.285,1.907 10.343,4.696 15.179,8.364 v 22.437 c -7.918,1.907 -15.691,2.864 -23.32,2.864 -16.57,0 -24.855,-6.383 -24.855,-19.141 0,-5.578 1.535,-9.867 4.617,-12.871 3.082,-3.008 7.48,-4.512 13.199,-4.512 z m -5.277,-16.5 c -10.418,0 -18.739,2.973 -24.973,8.91 -6.234,5.946 -9.352,13.899 -9.352,23.875 0,10.703 3.817,19.246 11.442,25.629 7.629,6.375 17.894,9.57 30.801,9.57 8.215,0 17.453,-1.25 27.718,-3.742 v 14.52 c 0,7.918 -1.796,13.496 -5.39,16.722 -3.594,3.223 -9.715,4.84 -18.367,4.84 -10.118,0 -20.02,-1.472 -29.7,-4.402 -3.379,-1.027 -5.5,-1.543 -6.379,-1.543 -1.765,0 -2.644,1.324 -2.644,3.961 v 5.941 c 0,1.907 0.293,3.301 0.879,4.18 0.586,0.879 1.765,1.688 3.523,2.418 4.543,2.055 10.301,3.707 17.27,4.953 6.969,1.242 13.894,1.867 20.789,1.867 13.933,0 24.199,-2.894 30.801,-8.683 6.601,-5.797 9.898,-14.637 9.898,-26.516 v -75.238 c 0,-2.934 -1.465,-4.399 -4.398,-4.399 h -9.457 c -2.789,0 -4.403,1.391 -4.84,4.18 l -1.106,7.262 c -5.277,-4.547 -11.105,-8.071 -17.488,-10.563 -6.379,-2.492 -12.727,-3.742 -19.027,-3.742"
         style="fill:#232b39;fill-opacity:1;fill-rule:nonzero;stroke:none"
         id="path30" /><path
         d="m 445.328,654.859 c -2.055,0 -3.558,0.293 -4.512,0.879 -0.949,0.586 -1.941,2.274 -2.968,5.063 l -38.938,97.676 c -0.293,0.882 -0.625,1.761 -0.992,2.64 -0.367,0.879 -0.547,1.684 -0.547,2.422 0,1.906 1.098,2.856 3.301,2.856 h 12.976 c 2.2,0 3.743,-0.293 4.622,-0.879 0.878,-0.586 1.832,-2.274 2.859,-5.059 l 30.137,-85.801 30.144,85.801 c 1.024,2.785 1.981,4.473 2.86,5.059 0.878,0.586 2.418,0.879 4.621,0.879 h 12.097 c 2.203,0 3.301,-0.95 3.301,-2.856 0,-0.738 -0.184,-1.543 -0.551,-2.422 -0.367,-0.879 -0.699,-1.758 -0.988,-2.64 l -38.719,-97.676 c -1.031,-2.789 -2.023,-4.477 -2.972,-5.063 -0.954,-0.586 -2.457,-0.879 -4.508,-0.879 h -11.223"
         style="fill:#232b39;fill-opacity:1;fill-rule:nonzero;stroke:none"
         id="path32" /><path
         d="m 555.984,668.496 c 4.844,0 9.903,0.953 15.18,2.859 5.285,1.907 10.344,4.696 15.18,8.364 v 22.437 c -7.918,1.907 -15.692,2.864 -23.321,2.864 -16.57,0 -24.855,-6.383 -24.855,-19.141 0,-5.578 1.535,-9.867 4.617,-12.871 3.082,-3.008 7.481,-4.512 13.199,-4.512 z m -5.277,-16.5 c -10.414,0 -18.738,2.973 -24.973,8.91 -6.234,5.946 -9.351,13.899 -9.351,23.875 0,10.703 3.816,19.246 11.441,25.629 7.629,6.375 17.895,9.57 30.801,9.57 8.215,0 17.453,-1.25 27.719,-3.742 v 14.52 c 0,7.918 -1.797,13.496 -5.391,16.722 -3.594,3.223 -9.715,4.84 -18.367,4.84 -10.117,0 -20.02,-1.472 -29.699,-4.402 -3.379,-1.027 -5.5,-1.543 -6.379,-1.543 -1.766,0 -2.645,1.324 -2.645,3.961 v 5.941 c 0,1.907 0.293,3.301 0.879,4.18 0.586,0.879 1.766,1.688 3.524,2.418 4.543,2.055 10.3,3.707 17.269,4.953 6.969,1.242 13.895,1.867 20.789,1.867 13.934,0 24.199,-2.894 30.801,-8.683 6.602,-5.797 9.898,-14.637 9.898,-26.516 v -75.238 c 0,-2.934 -1.464,-4.399 -4.398,-4.399 h -9.457 c -2.789,0 -4.402,1.391 -4.84,4.18 l -1.105,7.262 c -5.278,-4.547 -11.106,-8.071 -17.489,-10.563 -6.379,-2.492 -12.726,-3.742 -19.027,-3.742"
         style="fill:#232b39;fill-opacity:1;fill-rule:nonzero;stroke:none"
         id="path34" /><path
         d="m 642.508,654.859 c -2.934,0 -4.399,1.465 -4.399,4.399 v 102.738 c 0,2.934 1.465,4.399 4.399,4.399 h 12.984 c 2.93,0 4.399,-1.465 4.399,-4.399 V 659.258 c 0,-2.934 -1.469,-4.399 -4.399,-4.399 z m 6.601,131.336 c -4.254,0 -7.589,1.211 -10.011,3.633 -2.414,2.418 -3.625,5.61 -3.625,9.57 0,3.961 1.211,7.149 3.625,9.571 2.422,2.418 5.757,3.629 10.011,3.629 4.254,0 7.594,-1.211 10.008,-3.629 2.426,-2.422 3.633,-5.61 3.633,-9.571 0,-3.96 -1.207,-7.152 -3.633,-9.57 -2.414,-2.422 -5.754,-3.633 -10.008,-3.633"
         style="fill:#232b39;fill-opacity:1;fill-rule:nonzero;stroke:none"
         id="path36" /><path
         d="m 714.891,653.762 c -7.774,0 -13.715,2.23 -17.817,6.707 -4.113,4.472 -6.164,10.886 -6.164,19.25 v 133.539 c 0,2.933 1.465,4.398 4.399,4.398 h 12.984 c 2.93,0 4.398,-1.465 4.398,-4.398 V 681.039 c 0,-3.379 0.696,-5.828 2.09,-7.371 1.395,-1.539 3.703,-2.313 6.93,-2.313 0.879,0 1.793,0.075 2.75,0.223 0.953,0.145 1.797,0.219 2.527,0.219 1.465,0 2.457,-0.367 2.977,-1.098 0.508,-0.738 0.765,-1.836 0.765,-3.301 v -7.043 c 0,-1.464 -0.328,-2.601 -0.988,-3.406 -0.664,-0.808 -1.801,-1.433 -3.41,-1.871 -3.668,-0.879 -7.48,-1.316 -11.441,-1.316"
         style="fill:#232b39;fill-opacity:1;fill-rule:nonzero;stroke:none"
         id="path38" /><path
         d="m 787.309,668.496 c 4.843,0 9.902,0.953 15.179,2.859 5.282,1.907 10.34,4.696 15.18,8.364 v 22.437 c -7.918,1.907 -15.691,2.864 -23.32,2.864 -16.571,0 -24.86,-6.383 -24.86,-19.141 0,-5.578 1.539,-9.867 4.621,-12.871 3.082,-3.008 7.481,-4.512 13.2,-4.512 z m -5.282,-16.5 c -10.414,0 -18.734,2.973 -24.968,8.91 -6.235,5.946 -9.352,13.899 -9.352,23.875 0,10.703 3.813,19.246 11.441,25.629 7.625,6.375 17.895,9.57 30.801,9.57 8.211,0 17.449,-1.25 27.719,-3.742 v 14.52 c 0,7.918 -1.797,13.496 -5.391,16.722 -3.593,3.223 -9.714,4.84 -18.367,4.84 -10.117,0 -20.019,-1.472 -29.699,-4.402 -3.379,-1.027 -5.504,-1.543 -6.383,-1.543 -1.762,0 -2.64,1.324 -2.64,3.961 v 5.941 c 0,1.907 0.292,3.301 0.878,4.18 0.586,0.879 1.762,1.688 3.52,2.418 4.547,2.055 10.305,3.707 17.273,4.953 6.965,1.242 13.895,1.867 20.789,1.867 13.93,0 24.2,-2.894 30.801,-8.683 6.602,-5.797 9.899,-14.637 9.899,-26.516 v -75.238 c 0,-2.934 -1.465,-4.399 -4.399,-4.399 h -9.461 c -2.785,0 -4.398,1.391 -4.836,4.18 l -1.105,7.262 c -5.277,-4.547 -11.109,-8.071 -17.488,-10.563 -6.379,-2.492 -12.727,-3.742 -19.032,-3.742"
         style="fill:#232b39;fill-opacity:1;fill-rule:nonzero;stroke:none"
         id="path40" /><path
         d="m 919.988,670.039 c 20.239,0 30.36,13.637 30.36,40.918 0,13.934 -2.461,24.273 -7.371,31.02 -4.914,6.742 -12.426,10.121 -22.551,10.121 -10.414,0 -20.238,-3.379 -29.477,-10.121 v -61.375 c 9.239,-7.043 18.922,-10.563 29.039,-10.563 z m 5.059,-17.601 c -13.496,0 -25.297,4.691 -35.422,14.082 l -1.535,-7.262 c -0.442,-2.934 -2.129,-4.399 -5.059,-4.399 h -9.465 c -2.933,0 -4.398,1.465 -4.398,4.399 v 154 c 0,2.933 1.465,4.398 4.398,4.398 h 12.985 c 2.929,0 4.398,-1.465 4.398,-4.398 V 755.84 c 10.996,9.238 22.883,13.855 35.641,13.855 14.223,0 25.445,-5.136 33.656,-15.398 8.215,-10.27 12.32,-24.348 12.32,-42.238 0,-18.039 -4.328,-32.489 -12.98,-43.34 -8.656,-10.86 -20.164,-16.281 -34.539,-16.281"
         style="fill:#232b39;fill-opacity:1;fill-rule:nonzero;stroke:none"
         id="path42" /><path
         d="m 1022.13,653.762 c -7.77,0 -13.71,2.23 -17.82,6.707 -4.11,4.472 -6.158,10.886 -6.158,19.25 v 133.539 c 0,2.933 1.465,4.398 4.398,4.398 h 12.98 c 2.93,0 4.4,-1.465 4.4,-4.398 V 681.039 c 0,-3.379 0.7,-5.828 2.09,-7.371 1.4,-1.539 3.71,-2.313 6.93,-2.313 0.88,0 1.79,0.075 2.75,0.223 0.95,0.145 1.8,0.219 2.53,0.219 1.47,0 2.46,-0.367 2.97,-1.098 0.51,-0.738 0.77,-1.836 0.77,-3.301 v -7.043 c 0,-1.464 -0.33,-2.601 -0.99,-3.406 -0.66,-0.808 -1.8,-1.433 -3.41,-1.871 -3.67,-0.879 -7.48,-1.316 -11.44,-1.316"
         style="fill:#232b39;fill-opacity:1;fill-rule:nonzero;stroke:none"
         id="path44" /><path
         d="m 1128.04,720.418 c 0.15,1.172 0.22,3.078 0.22,5.719 0,8.945 -2.09,15.695 -6.27,20.238 -4.18,4.547 -10.31,6.824 -18.37,6.824 -9.24,0 -16.43,-2.75 -21.56,-8.254 -5.13,-5.496 -8.07,-13.675 -8.8,-24.527 z m -21.12,-68.859 c -18.04,0 -31.68,4.984 -40.92,14.961 -9.24,9.968 -13.86,24.71 -13.86,44.218 0,18.621 4.62,33.11 13.86,43.45 9.24,10.339 22.14,15.507 38.72,15.507 13.93,0 24.64,-3.925 32.12,-11.765 7.48,-7.848 11.22,-18.961 11.22,-33.332 0,-4.696 -0.37,-9.461 -1.1,-14.301 -0.3,-1.758 -0.77,-2.934 -1.43,-3.52 -0.66,-0.586 -1.72,-0.879 -3.19,-0.879 h -69.08 c 0.29,-12.617 3.41,-21.929 9.35,-27.937 5.94,-6.02 15.14,-9.02 27.61,-9.02 4.4,0 8.62,0.286 12.65,0.879 4.03,0.578 9.13,1.828 15.29,3.739 1.02,0.293 1.91,0.546 2.64,0.765 0.73,0.227 1.39,0.332 1.98,0.332 1.91,0 2.86,-1.316 2.86,-3.957 v -6.164 c 0,-1.902 -0.3,-3.262 -0.88,-4.066 -0.59,-0.813 -1.84,-1.653 -3.74,-2.531 -4.4,-1.907 -9.65,-3.446 -15.73,-4.618 -6.09,-1.172 -12.21,-1.761 -18.37,-1.761"
         style="fill:#232b39;fill-opacity:1;fill-rule:nonzero;stroke:none"
         id="path46" /><path
         d="m 1264.43,668.496 c 4.84,0 9.9,0.953 15.18,2.859 5.29,1.907 10.34,4.696 15.18,8.364 v 22.437 c -7.92,1.907 -15.69,2.864 -23.32,2.864 -16.57,0 -24.86,-6.383 -24.86,-19.141 0,-5.578 1.54,-9.867 4.62,-12.871 3.08,-3.008 7.48,-4.512 13.2,-4.512 z m -5.28,-16.5 c -10.41,0 -18.73,2.973 -24.97,8.91 -6.23,5.946 -9.35,13.899 -9.35,23.875 0,10.703 3.82,19.246 11.44,25.629 7.63,6.375 17.9,9.57 30.8,9.57 8.22,0 17.45,-1.25 27.72,-3.742 v 14.52 c 0,7.918 -1.79,13.496 -5.39,16.722 -3.59,3.223 -9.71,4.84 -18.37,4.84 -10.11,0 -20.02,-1.472 -29.69,-4.402 -3.38,-1.027 -5.51,-1.543 -6.39,-1.543 -1.76,0 -2.64,1.324 -2.64,3.961 v 5.941 c 0,1.907 0.29,3.301 0.88,4.18 0.59,0.879 1.76,1.688 3.52,2.418 4.55,2.055 10.3,3.707 17.27,4.953 6.97,1.242 13.9,1.867 20.79,1.867 13.93,0 24.2,-2.894 30.8,-8.683 6.61,-5.797 9.9,-14.637 9.9,-26.516 v -75.238 c 0,-2.934 -1.46,-4.399 -4.4,-4.399 h -9.46 c -2.78,0 -4.4,1.391 -4.84,4.18 l -1.1,7.262 c -5.28,-4.547 -11.11,-8.071 -17.49,-10.563 -6.38,-2.492 -12.72,-3.742 -19.03,-3.742"
         style="fill:#232b39;fill-opacity:1;fill-rule:nonzero;stroke:none"
         id="path48" /><path
         d="m 1385.43,653.32 c -20.83,0 -31.24,10.41 -31.24,31.239 v 64.679 h -15.84 c -2.94,0 -4.4,1.465 -4.4,4.399 v 5.504 c 0,1.461 0.32,2.562 0.99,3.297 0.66,0.73 1.94,1.242 3.85,1.542 l 16.06,1.977 2.86,27.281 c 0.29,2.934 1.83,4.399 4.62,4.399 h 9.23 c 2.94,0 4.4,-1.465 4.4,-4.399 v -26.843 h 28.61 c 2.93,0 4.4,-1.465 4.4,-4.399 v -8.359 c 0,-2.934 -1.47,-4.399 -4.4,-4.399 h -28.61 V 685.66 c 0,-5.43 1.22,-9.242 3.64,-11.441 2.42,-2.203 6.56,-3.301 12.43,-3.301 2.78,0 6.23,0.367 10.34,1.098 2.2,0.441 3.66,0.664 4.4,0.664 1.17,0 1.98,-0.332 2.42,-0.992 0.44,-0.657 0.66,-1.727 0.66,-3.192 v -5.937 c 0,-1.911 -0.3,-3.34 -0.88,-4.293 -0.59,-0.953 -1.77,-1.723 -3.52,-2.309 -5.72,-1.758 -12.4,-2.637 -20.02,-2.637"
         style="fill:#232b39;fill-opacity:1;fill-rule:nonzero;stroke:none"
         id="path50" /></g></g></svg>
