<?xml version="1.0" encoding="utf-8"?>
<!-- Generator: Adobe Illustrator 27.5.0, SVG Export Plug-In . SVG Version: 6.00 Build 0)  -->
<svg version="1.1" id="圖層_1" xmlns="http://www.w3.org/2000/svg" xmlns:xlink="http://www.w3.org/1999/xlink" x="0px" y="0px"
	 width="405px" height="75px" viewBox="0 0 405 75" style="enable-background:new 0 0 405 75;" xml:space="preserve">
<style type="text/css">
	.st0{fill:#7CCAD1;}
</style>
<g>
	<path class="st0" d="M1.3,1.4H5v20.8H1.3V1.4z"/>
	<path class="st0" d="M10,6.5h3.6v2.4c1-1.4,2.4-2.7,4.8-2.7c2.3,0,3.8,1.1,4.7,2.8c1.3-1.7,2.9-2.8,5.3-2.8c3.4,0,5.5,2.2,5.5,6v10
		h-3.6v-8.9c0-2.5-1.2-3.8-3.2-3.8s-3.4,1.4-3.4,3.9v8.9h-3.6v-9c0-2.4-1.2-3.8-3.2-3.8s-3.4,1.5-3.4,3.9v8.8H10V6.5z"/>
	<path class="st0" d="M38.1,6.5h3.6v2.4c1-1.4,2.4-2.7,4.8-2.7c2.3,0,3.8,1.1,4.7,2.8c1.3-1.7,2.9-2.8,5.3-2.8c3.4,0,5.5,2.2,5.5,6
		v10h-3.6v-8.9c0-2.5-1.2-3.8-3.2-3.8s-3.4,1.4-3.4,3.9v8.9h-3.6v-9c0-2.4-1.2-3.8-3.2-3.8s-3.4,1.5-3.4,3.9v8.8H38V6.5H38.1z"/>
	<path class="st0" d="M65.3,14.4L65.3,14.4c0-4.6,3.2-8.2,7.7-8.2c5,0,7.5,3.9,7.5,8.4c0,0.3,0,0.7-0.1,1H68.9c0.4,2.6,2.2,4,4.5,4
		c1.8,0,3-0.7,4.3-1.9l2.1,1.9c-1.5,1.8-3.5,2.9-6.4,2.9C68.8,22.6,65.3,19.3,65.3,14.4z M77,13.3c-0.2-2.3-1.6-4.1-4-4.1
		c-2.2,0-3.7,1.7-4.1,4.1C68.9,13.3,77,13.3,77,13.3z"/>
	<path class="st0" d="M84.1,6.5h3.6V9c1-1.5,2.5-2.8,4.9-2.8c3.5,0,5.6,2.4,5.6,6v10h-3.6v-8.9c0-2.4-1.2-3.8-3.4-3.8
		c-2.1,0-3.5,1.5-3.5,3.9v8.9h-3.6V6.5z"/>
	<path class="st0" d="M101.1,20.2l1.6-2.4c1.7,1.3,3.5,1.9,5.1,1.9c1.5,0,2.4-0.7,2.4-1.7v-0.1c0-1.2-1.7-1.6-3.5-2.2
		c-2.3-0.7-4.9-1.6-4.9-4.6V11c0-3,2.5-4.8,5.6-4.8c2,0,4.1,0.7,5.8,1.8l-1.4,2.6c-1.5-0.9-3.1-1.5-4.4-1.5c-1.4,0-2.2,0.7-2.2,1.6
		v0.1c0,1.1,1.7,1.6,3.5,2.2c2.3,0.7,4.9,1.8,4.9,4.6v0.1c0,3.3-2.6,4.9-5.8,4.9C105.5,22.5,103,21.7,101.1,20.2z"/>
	<path class="st0" d="M116.2,14.4L116.2,14.4c0-4.6,3.2-8.2,7.7-8.2c5,0,7.5,3.9,7.5,8.4c0,0.3,0,0.7-0.1,1h-11.5
		c0.4,2.6,2.2,4,4.5,4c1.8,0,3-0.7,4.3-1.9l2.1,1.9c-1.5,1.8-3.5,2.9-6.4,2.9C119.7,22.6,116.2,19.3,116.2,14.4z M127.8,13.3
		c-0.2-2.3-1.6-4.1-4-4.1c-2.2,0-3.7,1.7-4.1,4.1C119.7,13.3,127.8,13.3,127.8,13.3z"/>
	<path class="st0" d="M143.2,11.9L143.2,11.9c0-5.9,4.5-10.8,10.9-10.8S165,5.9,165,11.8v0.1c0,5.9-4.5,10.8-10.9,10.8
		C147.7,22.6,143.2,17.8,143.2,11.9z M161.2,11.9L161.2,11.9c0-4.1-2.9-7.5-7.1-7.5c-4.1,0-7,3.3-7,7.3v0.1c0,4,2.9,7.4,7.1,7.4
		C158.3,19.2,161.2,15.9,161.2,11.9z"/>
	<path class="st0" d="M178.5,22.2v-1.9c-1.1,1.3-2.7,2.3-5.1,2.3c-3,0-5.6-1.7-5.6-4.8v-0.1c0-3.5,2.7-5.1,6.4-5.1
		c1.9,0,3.1,0.3,4.3,0.7V13c0-2.2-1.4-3.4-3.9-3.4c-1.8,0-3.1,0.4-4.5,1l-1-2.9c1.7-0.8,3.4-1.3,6-1.3c4.6,0,6.9,2.4,6.9,6.6v9.3
		L178.5,22.2L178.5,22.2z M178.6,15.7c-0.9-0.4-2.2-0.6-3.6-0.6c-2.3,0-3.6,0.9-3.6,2.4v0.1c0,1.5,1.3,2.3,3,2.3
		c2.4,0,4.2-1.3,4.2-3.3L178.6,15.7L178.6,15.7z"/>
	<path class="st0" d="M186.2,0.5h3.6v13l6.5-7h4.4l-6.2,6.4l6.5,9.3h-4.2l-4.7-6.8l-2.2,2.3v4.5h-3.6V0.5H186.2z"/>
	<path class="st0" d="M217.8,4.8h-6.6V1.4h16.9v3.4h-6.6v17.4h-3.7L217.8,4.8L217.8,4.8z"/>
	<path class="st0" d="M227.1,14.4L227.1,14.4c0-4.6,3.2-8.2,7.7-8.2c5,0,7.5,3.9,7.5,8.4c0,0.3,0,0.7-0.1,1h-11.5
		c0.4,2.6,2.2,4,4.5,4c1.8,0,3-0.7,4.3-1.9l2.1,1.9c-1.5,1.8-3.5,2.9-6.4,2.9C230.6,22.6,227.1,19.3,227.1,14.4z M238.8,13.3
		c-0.2-2.3-1.6-4.1-4-4.1c-2.2,0-3.7,1.7-4.1,4.1C230.7,13.3,238.8,13.3,238.8,13.3z"/>
	<path class="st0" d="M245,14.5L245,14.5c0-4.5,3.5-8.3,8.1-8.3c3,0,4.8,1.1,6.3,2.7l-2.2,2.4c-1.1-1.2-2.3-2-4.1-2
		c-2.6,0-4.5,2.3-4.5,5v0.1c0,2.8,1.9,5.1,4.7,5.1c1.7,0,2.9-0.8,4.1-2l2.2,2.1c-1.5,1.7-3.4,2.9-6.4,2.9
		C248.4,22.6,245,18.9,245,14.5z"/>
	<path class="st0" d="M262.7,0.5h3.6V9c1-1.5,2.5-2.8,4.9-2.8c3.5,0,5.6,2.4,5.6,6v10h-3.6v-8.9c0-2.4-1.2-3.8-3.4-3.8
		c-2.1,0-3.5,1.5-3.5,3.9v8.9h-3.6V0.5z"/>
	<path class="st0" d="M281,6.5h3.6V9c1-1.5,2.5-2.8,4.9-2.8c3.5,0,5.6,2.4,5.6,6v10h-3.6v-8.9c0-2.4-1.2-3.8-3.4-3.8
		c-2.1,0-3.5,1.5-3.5,3.9v8.9H281V6.5z"/>
	<path class="st0" d="M298.4,14.5L298.4,14.5c0-4.6,3.6-8.3,8.4-8.3s8.4,3.7,8.4,8.1v0.1c0,4.5-3.6,8.2-8.4,8.2
		S298.4,18.9,298.4,14.5z M311.6,14.5L311.6,14.5c0-2.8-2-5.1-4.8-5.1c-2.9,0-4.7,2.3-4.7,5v0.1c0,2.7,2,5.1,4.8,5.1
		C309.7,19.5,311.6,17.2,311.6,14.5z"/>
	<path class="st0" d="M318.9,0.5h3.6v21.7h-3.6V0.5z"/>
	<path class="st0" d="M326.2,14.5L326.2,14.5c0-4.6,3.6-8.3,8.4-8.3s8.4,3.7,8.4,8.1v0.1c0,4.5-3.6,8.2-8.4,8.2
		C329.8,22.6,326.2,18.9,326.2,14.5z M339.4,14.5L339.4,14.5c0-2.8-2-5.1-4.8-5.1c-2.9,0-4.7,2.3-4.7,5v0.1c0,2.7,2,5.1,4.8,5.1
		C337.5,19.5,339.4,17.2,339.4,14.5z"/>
	<path class="st0" d="M346.5,25.2l1.3-2.7c1.7,1,3.5,1.7,5.6,1.7c3.2,0,5-1.7,5-4.8v-1.2c-1.3,1.7-2.9,2.9-5.5,2.9
		c-3.7,0-7.1-2.7-7.1-7.3v-0.1c0-4.6,3.5-7.4,7.1-7.4c2.6,0,4.3,1.2,5.5,2.7V6.5h3.6V19c0,2.6-0.7,4.6-2,5.9
		c-1.4,1.4-3.6,2.1-6.5,2.1C350.9,27.1,348.5,26.4,346.5,25.2z M358.4,13.6L358.4,13.6c0-2.6-2.1-4.4-4.6-4.4s-4.5,1.7-4.5,4.3v0.1
		c0,2.6,2,4.3,4.5,4.3C356.3,18,358.4,16.2,358.4,13.6z"/>
	<path class="st0" d="M366.4,0.7h3.9v3.4h-3.9V0.7z M366.5,6.5h3.6v15.7h-3.6V6.5z"/>
	<path class="st0" d="M373.8,14.4L373.8,14.4c0-4.6,3.2-8.2,7.7-8.2c5,0,7.5,3.9,7.5,8.4c0,0.3,0,0.7-0.1,1h-11.5
		c0.4,2.6,2.2,4,4.5,4c1.8,0,3-0.7,4.3-1.9l2.1,1.9c-1.5,1.8-3.5,2.9-6.4,2.9C377.3,22.6,373.8,19.3,373.8,14.4z M385.4,13.3
		c-0.2-2.3-1.6-4.1-4-4.1c-2.2,0-3.7,1.7-4.1,4.1C377.3,13.3,385.4,13.3,385.4,13.3z"/>
	<path class="st0" d="M391.2,20.2l1.6-2.4c1.7,1.3,3.5,1.9,5.1,1.9c1.5,0,2.4-0.7,2.4-1.7v-0.1c0-1.2-1.7-1.6-3.5-2.2
		c-2.3-0.7-4.9-1.6-4.9-4.6V11c0-3,2.5-4.8,5.6-4.8c2,0,4.1,0.7,5.8,1.8l-1.4,2.6c-1.5-0.9-3.1-1.5-4.4-1.5c-1.4,0-2.2,0.7-2.2,1.6
		v0.1c0,1.1,1.7,1.6,3.5,2.2c2.3,0.7,4.9,1.8,4.9,4.6v0.1c0,3.3-2.6,4.9-5.8,4.9C395.7,22.5,393.2,21.7,391.2,20.2z"/>
</g>
<g>
	<path class="st0" d="M4.2,58.8l-2.9,0v-1.9h2.9v-6.4l2,0v6.4l2.7,0l0,1.9H6.2v15.6h-2L4.2,58.8z M17.2,65.5l-2,0v-2l-4,0v2.7h-2
		V55.5l6,0v-1l-7.5,0v-2l7.5,0v-2.3h2v2.2l2.7,0c-0.1-0.1-0.2-0.2-0.5-0.4c-0.3-0.2-0.6-0.4-1.1-0.5l1.5-1.2c0.5,0.2,1,0.5,1.4,0.9
		c0.4,0.4,0.7,0.8,0.9,1.2h2.5v1.9h-7.4v1l6.2,0v8.4c0,0.5-0.1,1-0.3,1.4s-0.6,0.6-1.2,0.6v0.9h3.3v2h-3.3l0,3.4
		c0,0.5-0.2,1-0.5,1.4c-0.3,0.4-0.8,0.6-1.4,0.6l-3.1,0l-0.7-2c0.6,0,1.1,0,1.6,0.1c0.4,0,0.9,0,1.4,0c0.4,0,0.6-0.3,0.6-0.8v-2.7
		H7.6v-1.9l12.2,0V66l-1.1,0l-0.6-1.8l2.7,0c0.1,0,0.3,0,0.4-0.1c0.1-0.1,0.2-0.3,0.2-0.5h-4.1V65.5z M14.7,73.1
		c-0.5-0.6-1.1-1.2-1.7-1.6c-0.6-0.4-1.4-0.7-2.2-1l1.4-1.5c0.8,0.2,1.5,0.5,2.1,1s1.2,1,1.8,1.6L14.7,73.1z M15.2,58.5v-1.1h-4v1.1
		H15.2z M11.3,60.5v1.1h4v-1.1L11.3,60.5z M21.4,57.4h-4.2v1.1h4.2V57.4z M17.2,60.5v1.1h4.2v-1.1L17.2,60.5z"/>
	<path class="st0" d="M54.2,72.5c-0.7-0.3-1.4-0.7-2.1-1.2c-0.7-0.5-1.3-1-1.8-1.5c-0.5-0.6-1-1.1-1.4-1.8s-0.7-1.3-0.8-2
		c-0.1,0.1-0.3,0.2-0.6,0.3c-0.2,0.1-0.5,0.2-0.6,0.3c0.2,0.7,0.4,1.5,0.5,2.4c0.1,0.8,0.2,1.7,0,2.6c-0.1,0.5-0.3,1-0.6,1.4
		c-0.3,0.4-0.8,0.8-1.2,1c-0.6,0.2-1.3,0.2-2,0.2c-0.7-0.1-1.4-0.1-2.1-0.2l-0.7-2.1c0.8,0.1,1.4,0.1,2,0.2c0.6,0.1,1.2,0.1,1.8,0.1
		c0.3,0,0.5-0.1,0.6-0.3c0.2-0.2,0.3-0.3,0.3-0.5c0.1-0.4,0.1-0.9,0-1.3c-0.1-0.4-0.1-0.9-0.2-1.4c-1,0.6-2,1.1-2.9,1.6
		c-0.9,0.4-1.8,0.8-2.7,1.2c-0.9,0.3-1.8,0.6-2.7,0.9c-0.9,0.2-1.9,0.5-2.9,0.7l-1.3-1.8c2.2-0.3,4.3-0.8,6.4-1.6
		c2.1-0.8,4-1.7,5.8-2.8c-0.1-0.3-0.2-0.5-0.3-0.6c-0.1-0.2-0.3-0.4-0.4-0.6c-1.4,1-3,1.7-4.7,2.3s-3.5,1-5.4,1.3l-1.4-1.8
		c2-0.3,3.9-0.6,5.6-1.2c1.8-0.5,3.4-1.2,4.8-2.1c-0.1-0.1-0.2-0.2-0.4-0.3c-0.2-0.1-0.4-0.2-0.6-0.3c-1.2,0.5-2.4,0.9-3.7,1.2
		c-1.3,0.3-2.6,0.6-4.1,0.8L33,63.5c1.7-0.2,3.3-0.4,4.7-0.7c1.4-0.3,2.7-0.7,3.9-1.2l-6.3-0.1V57c-0.1,0-0.4,0.1-0.6,0.3
		c-0.3,0.2-0.6,0.3-1,0.4L32.5,56c3.4-1.2,6.2-3.2,8.3-6l1.7,0.9l-0.7,1l7.4,0v1.7c-0.2,0.2-0.4,0.4-0.6,0.6
		c-0.2,0.2-0.4,0.4-0.6,0.6c-0.2,0.2-0.4,0.4-0.5,0.5c-0.2,0.1-0.3,0.2-0.3,0.3l5.7,0v6h-7.2l-1.5,0.9c0.4,0.3,0.8,0.7,1.2,1.1
		s0.7,0.9,0.9,1.4c0.4-0.1,0.8-0.3,1.2-0.5c0.4-0.2,0.9-0.4,1.4-0.7c0.5-0.3,0.9-0.5,1.3-0.8c0.4-0.3,0.8-0.6,1.2-1l1.3,1.4
		c-0.4,0.4-0.9,0.8-1.4,1.1c-0.5,0.3-0.9,0.6-1.3,0.8c0.1,0.6,0.4,1.1,0.7,1.7s0.7,1.1,1.2,1.6c0.5,0.5,1,1,1.7,1.4
		c0.6,0.4,1.3,0.7,2,1L54.2,72.5z M43.1,57.5h-5.7l0,2.1h5.7V57.5z M39.9,53.8c-0.4,0.4-0.8,0.7-1.2,1s-0.7,0.5-0.9,0.7l6.5,0.1
		c0.3-0.2,0.5-0.3,0.7-0.5s0.4-0.3,0.5-0.4c0.1-0.1,0.3-0.3,0.4-0.4c0.1-0.1,0.3-0.3,0.4-0.4L39.9,53.8z M45.2,57.5v2.1l5.6,0v-2.1
		H45.2z"/>
	<path class="st0" d="M66.5,63.7c-0.3,0.6-0.8,1.4-1.4,2.2c-0.6,0.9-1.3,1.8-2.2,2.6l-1.8-1.2c1.4-1.2,2.5-2.6,3.3-4
		c0.8-1.4,1.5-2.9,2-4.3h-4l0-1.9h4v-3c-0.5,0.1-1,0.2-1.6,0.3c-0.6,0.1-1.2,0.2-1.9,0.2l-1-2c0.9,0,1.8-0.1,2.6-0.2
		s1.6-0.3,2.3-0.5s1.4-0.4,2.1-0.7c0.7-0.3,1.3-0.6,2-0.9l1.2,1.6c-1.3,0.7-2.5,1.3-3.6,1.7l0,3.6l4,0V59l-4,0v1.8l0.7-0.5
		c0.8,0.5,1.6,1.1,2.3,1.8c0.7,0.7,1.2,1.5,1.7,2.4l-1.6,1.2c-0.4-0.8-0.9-1.5-1.4-2.2s-1.1-1.1-1.6-1.5v12l-2.1,0V63.7z M80,74.2
		l0-7.4l-8.3,2l-0.5-2l8.8-2.1l0-14.2l2,0l0,13.7l3.1-0.7l0.4,1.9l-3.6,0.9l0,7.9H80z M76.8,64.4c-1.2-2-2.8-3.5-5-4.5l1.5-1.4
		c1,0.5,1.9,1.2,2.8,1.9c0.8,0.7,1.6,1.5,2.2,2.5L76.8,64.4z M77.4,57.9c-0.7-1-1.5-1.8-2.4-2.5c-0.9-0.6-1.8-1.2-2.9-1.8l1.3-1.4
		c1,0.5,2,1,2.9,1.7c0.9,0.7,1.7,1.5,2.5,2.5L77.4,57.9z"/>
	<path class="st0" d="M93.7,72.2c0.5,0.1,1,0.2,1.4,0.2c0.4,0,0.8,0,1.2,0c0.2,0,0.4-0.1,0.5-0.2c0.1-0.1,0.2-0.3,0.2-0.5l0-6.1
		l-3.2,1.2L92.4,65l4.6-1.6l0-5.9h-3.6l0-1.9H97v-5.2h2l0,5.2h2.8v2l-2.8,0l0,5.1l3-1v2L99,64.8l0,7.5c0,0.2,0,0.5-0.1,0.8
		c-0.1,0.3-0.2,0.5-0.4,0.7c-0.2,0.2-0.4,0.4-0.6,0.5c-0.3,0.1-0.6,0.2-1,0.2h-2.2L93.7,72.2z M100.2,72.5c2.8-0.8,5.1-1.9,6.9-3.5
		c-0.8-0.9-1.5-1.8-2-2.9s-1-2.2-1.4-3.3l-1.3,0l0-1.9l5.1,0v-4.4h-5.6v-2h5.6v-4.2h2l0,4.2l6.2,0v2h-6.2l0,4.4h4.7
		c-0.2,1.7-0.7,3.2-1.5,4.6c-0.8,1.3-1.7,2.5-2.7,3.6c0.9,0.8,1.9,1.4,3.1,1.9c1.2,0.5,2.4,1,3.8,1.4l-1.3,1.8
		c-1.3-0.4-2.6-0.9-3.7-1.5s-2.3-1.4-3.3-2.2c-0.4,0.3-0.9,0.7-1.3,1c-0.4,0.3-0.9,0.7-1.5,1c-0.5,0.3-1.1,0.7-1.8,1
		s-1.4,0.6-2.3,0.9L100.2,72.5z M105.9,62.8c0.4,1,0.8,1.9,1.2,2.7s0.9,1.5,1.6,2.2c0.3-0.3,0.6-0.6,0.9-1c0.3-0.4,0.6-0.8,0.9-1.2
		c0.3-0.4,0.5-0.9,0.8-1.3c0.2-0.4,0.4-0.9,0.5-1.3L105.9,62.8z"/>
	<path class="st0" d="M133.4,71.6c0,0.6-0.2,1.1-0.6,1.5c-0.4,0.4-0.9,0.5-1.6,0.5l-2.6,0l-0.8-2.1l2.8,0.1c0.3,0,0.4,0,0.5-0.2
		c0.1-0.1,0.2-0.3,0.2-0.5v-6.6l-2.7,1.8l-0.5-0.6c0,1.4-0.2,2.9-0.6,4.4c-0.4,1.5-1,3-1.9,4.4l-1.7-1.1c0.5-0.7,0.9-1.5,1.2-2.3
		c0.3-0.8,0.5-1.6,0.7-2.4c0.2-0.8,0.3-1.7,0.3-2.5c0-0.8,0.1-1.7,0.1-2.5v-12h7.2v7.9c0.4-0.2,0.8-0.4,1.1-0.6
		c0.3-0.2,0.7-0.5,0.9-0.8c0.3-0.3,0.5-0.6,0.6-1c0.2-0.3,0.2-0.7,0.2-1.1v-4.5h8.1v5.6c0,0.2,0,0.3,0.1,0.5c0,0.2,0.2,0.2,0.4,0.2
		h2.4v1.9l-3.1,0c-0.5,0-0.9-0.2-1.3-0.6s-0.5-0.9-0.5-1.7v-4h-4c0.1,1.4,0,2.5-0.2,3.4c-0.2,0.9-0.4,1.6-0.8,2.1
		c-0.4,0.5-0.8,1-1.3,1.3c-0.5,0.3-1.1,0.7-1.7,1.1l-1-1.6L133.4,71.6z M128.2,64c0.5-0.3,1-0.6,1.6-0.9s1.1-0.7,1.6-1.1v-8.6
		l-3.2,0v2l1.3-0.5c0.5,0.8,1,1.6,1.3,2.5s0.5,1.8,0.6,2.8l-1.9,0.7c-0.1-0.9-0.2-1.7-0.4-2.5s-0.5-1.5-0.8-2.2L128.2,64z
		 M133.5,72.3c2.3-0.8,4.2-1.9,5.7-3.3c-0.7-0.9-1.2-1.8-1.7-2.9s-0.8-2.1-1.1-3.2h-1.2v-2h9.8c-0.2,1.6-0.6,3.1-1.1,4.4
		c-0.5,1.3-1.2,2.5-2.1,3.6c0.8,0.8,1.7,1.5,2.6,2c1,0.6,2.1,1,3.3,1.3l-1.2,1.8c-0.7-0.2-1.3-0.4-1.9-0.7c-0.6-0.3-1.1-0.5-1.6-0.8
		c-0.5-0.3-1-0.6-1.4-1c-0.4-0.4-0.8-0.7-1.3-1.1c-0.5,0.4-1,0.7-1.5,1s-0.9,0.6-1.4,0.9c-0.5,0.3-1,0.6-1.5,0.8
		c-0.6,0.3-1.2,0.5-1.9,0.8L133.5,72.3z M138.5,62.9c0.1,0.3,0.2,0.7,0.4,1.1c0.2,0.4,0.3,0.8,0.5,1.3c0.2,0.4,0.4,0.9,0.6,1.3
		c0.2,0.4,0.5,0.8,0.7,1.2c0.5-0.8,0.9-1.6,1.2-2.3c0.3-0.7,0.6-1.5,0.8-2.4H138.5z"/>
	<path class="st0" d="M176.7,61.7c-0.4-0.2-0.8-0.5-1.2-0.9c-0.4-0.3-0.7-0.6-0.9-0.9c0,0.9-0.1,1.8-0.1,2.8c0,1-0.1,2-0.2,3
		c-0.1,1-0.2,2-0.3,3c-0.1,1-0.3,1.9-0.6,2.8c-0.1,0.4-0.4,0.9-0.8,1.3c-0.4,0.4-0.9,0.6-1.5,0.7c-0.6,0-1.2,0-1.8-0.1
		c-0.6-0.1-1.2-0.2-1.8-0.4l-0.6-2.3c0.7,0.3,1.4,0.4,2,0.6c0.6,0.1,1.2,0.2,1.8,0.3c0.3,0,0.5-0.2,0.7-0.5c0.1-0.3,0.2-0.8,0.3-1.5
		c0.1-0.7,0.2-1.3,0.3-1.9c0.1-0.6,0.2-1.2,0.2-1.8s0.1-1.3,0.2-2c0-0.7,0.1-1.5,0.1-2.3l-3.6,0c0,0.6-0.1,1.2-0.1,1.9
		c-0.1,0.7-0.2,1.5-0.4,2.3s-0.4,1.6-0.8,2.4c-0.3,0.8-0.7,1.6-1.2,2.3c-0.5,0.7-1.1,1.4-1.9,2c-0.7,0.6-1.6,1.1-2.6,1.6l-1.5-1.5
		c1.4-0.5,2.5-1.2,3.4-2.1c0.8-0.9,1.5-1.8,2-2.8c0.5-1,0.8-2,0.9-3.1s0.3-2.1,0.3-3l-3.4,0V60c-0.6,0.7-1.3,1.4-2,2.1l-1.4-1.2
		v13.5h-2l0-13.8c0,0-0.1,0.1-0.3,0.2c-0.2,0.2-0.3,0.4-0.6,0.6c-0.2,0.2-0.5,0.5-0.8,0.8c-0.3,0.3-0.6,0.5-0.9,0.8l-1.8-1.2
		c1.1-0.9,2-1.8,2.8-2.8s1.4-2,2-3c0.6-1,1-2,1.4-3s0.7-1.9,1-2.8l1.8,0.9c-0.4,1.2-0.8,2.3-1.2,3.3c-0.4,1-0.9,2-1.4,3.1v3.1
		c1.3-1.2,2.5-2.5,3.4-3.9c0.9-1.4,1.6-3,2-4.7l1.6,0.9c-0.3,1.2-0.7,2.5-1.3,3.6c-0.6,1.2-1.3,2.3-2.1,3.3h10.8
		c-0.8-0.9-1.4-1.9-2-3c-0.5-1.1-1-2.1-1.3-3.2h-4l0-1.9l5.5,0c0.3,0.9,0.5,1.7,0.8,2.5s0.7,1.6,1.1,2.4c0.4,0.8,1,1.5,1.6,2.1
		c0.6,0.7,1.3,1.2,2.2,1.7L176.7,61.7z"/>
	<path class="st0" d="M183.2,65.2c1.7-1.5,3.2-3.1,4.5-4.7c1.3-1.6,2.2-3.3,2.8-5l-5.6,0v-2h6.4c0.2-0.5,0.4-1.1,0.5-1.7
		c0.2-0.6,0.3-1.3,0.5-2l2.1,0.5c-0.1,0.6-0.3,1.2-0.5,1.8c-0.2,0.6-0.3,1.1-0.4,1.5h13.6v1.9l-14.4,0c-0.2,0.5-0.4,1-0.5,1.4
		s-0.3,0.8-0.5,1.1h12.1v13.7c0,0.4-0.2,0.8-0.5,1c-0.3,0.3-0.6,0.5-0.9,0.6c-0.6,0.1-1.1,0.2-1.7,0.1c-0.6,0-1.2,0-1.8,0
		c-0.2-0.3-0.3-0.7-0.5-0.9c-0.1-0.3-0.3-0.7-0.5-1.1c0.7,0.1,1.2,0.2,1.8,0.2c0.5,0,1.1,0,1.6,0c0.1,0,0.3,0,0.4-0.1
		c0.1-0.1,0.2-0.2,0.2-0.3v-2.7l-10.1,0v5.7h-2.1V61.4c-0.2,0.3-0.5,0.7-0.9,1.1c-0.3,0.4-0.7,0.8-1.1,1.3c-0.4,0.4-0.8,0.9-1.3,1.3
		c-0.4,0.4-0.9,0.9-1.3,1.3L183.2,65.2z M191.6,66.6h10.1v-2.4l-10.1,0V66.6z M191.7,60v2.2l10.1,0V60H191.7z"/>
	<path class="st0" d="M220.3,58.9c0.5,0.4,0.9,0.9,1.2,1.3c0.4,0.5,0.6,0.9,0.9,1.4s0.4,1,0.4,1.6c0.1,0.6,0,1.2-0.1,1.8
		c-0.1,0.3-0.2,0.5-0.3,0.8c-0.1,0.3-0.3,0.5-0.5,0.8c-0.2,0.2-0.4,0.4-0.7,0.6c-0.3,0.2-0.5,0.3-0.8,0.4c-0.4,0.2-0.8,0.2-1.2,0.2
		c-0.5,0-0.9-0.1-1.4-0.1l-0.5-2.2c0.6,0.1,1.1,0.2,1.6,0.3c0.5,0.1,0.9,0,1.2-0.3c0.3-0.3,0.5-0.6,0.6-1c0.1-0.4,0-0.8,0-1.3
		c-0.2-0.8-0.5-1.5-1-2.2s-1.1-1.3-1.8-1.9c0.5-1.1,0.9-2.1,1.3-3.1c0.4-1,0.8-1.9,1-2.9l-3.3,0v20.9l-2,0.1l0-22.9h7.5v2
		L220.3,58.9z M236.1,74.1c-0.7-0.3-1.4-0.7-2.1-1.2c-0.7-0.5-1.3-1-1.9-1.7c-0.6-0.6-1.1-1.3-1.5-2c-0.4-0.7-0.8-1.4-1.1-2.1
		c-0.3-0.8-0.5-1.5-0.7-2.2c-0.1-0.7-0.2-1.4-0.3-2.1l-2.8,0l0,8.1c0.5-0.2,1.1-0.5,1.8-0.8c0.7-0.3,1.5-0.6,2.3-0.9v2
		c-1,0.4-2,0.8-2.9,1.3c-0.9,0.4-1.9,0.9-2.9,1.3c-0.3-0.2-0.5-0.4-0.8-0.6s-0.6-0.4-0.9-0.7c0.5-0.2,0.8-0.5,1-0.8s0.3-0.7,0.3-1
		V51.4H235l0,11.5l-4.5,0c0.1,0.4,0.1,0.8,0.2,1.2c0.1,0.3,0.1,0.6,0.2,0.9s0.2,0.6,0.3,0.8s0.2,0.6,0.4,0.9l3.9-3.4l1.5,1.4
		c-0.8,0.8-1.6,1.5-2.4,2s-1.5,1.1-2.2,1.7c0.5,0.9,1.2,1.7,2.1,2.3c0.9,0.7,1.8,1.2,2.9,1.6L236.1,74.1z M225.7,56.1h7.3v-2.8h-7.3
		V56.1z M232.9,58l-7.3,0V61l7.2-0.1L232.9,58z"/>
	<path class="st0" d="M251.8,55.1c-0.2,0.7-0.4,1.4-0.8,2.1c-0.4,0.7-0.9,1.5-1.4,2.2c-0.6,0.7-1.2,1.5-1.9,2.2
		c-0.7,0.7-1.5,1.3-2.3,1.9l-1.6-1.6c0.9-0.6,1.6-1.2,2.3-1.7s1.2-1.2,1.7-1.8c0.5-0.6,0.9-1.3,1.3-2c0.4-0.7,0.7-1.5,1-2.4
		L251.8,55.1z M262.3,73.6c-0.2-0.6-0.4-1.1-0.6-1.6c-0.2-0.5-0.4-0.9-0.6-1.4c-0.5,0.1-1.1,0.2-1.8,0.3c-0.7,0.1-1.5,0.2-2.3,0.3
		c-0.8,0.1-1.7,0.3-2.6,0.4c-0.9,0.1-1.7,0.3-2.6,0.4c-0.8,0.1-1.6,0.3-2.2,0.4s-1.2,0.3-1.6,0.4l-1.3-2c1.1-0.9,2-2,2.8-3.1
		c0.8-1.1,1.4-2.2,1.9-3.3c0.5-1.1,0.9-2.1,1.2-3.1c0.3-1,0.5-1.8,0.6-2.5l2.1,0.7c-0.3,1.8-0.8,3.6-1.7,5.4
		c-0.9,1.8-2.1,3.6-3.7,5.4c1.1-0.2,2.1-0.3,3-0.4c0.9-0.1,1.8-0.2,2.6-0.4c0.8-0.1,1.6-0.2,2.4-0.3c0.8-0.1,1.6-0.2,2.3-0.4
		c-0.4-0.6-0.8-1.2-1.2-1.7c-0.4-0.5-1-1.1-1.6-1.7l2-0.9c1.2,1.1,2.2,2.4,3,3.8c0.8,1.4,1.5,2.8,2,4.4L262.3,73.6z M264.8,63.5
		c-0.9-0.5-1.8-1.2-2.5-2s-1.4-1.7-2-2.6c-0.6-0.9-1-1.8-1.4-2.8c-0.4-0.9-0.7-1.7-0.9-2.5H251v-2l8.7,0c0.2,1,0.5,2,0.9,3
		c0.4,1,0.8,1.9,1.3,2.8c0.5,0.9,1.1,1.7,1.9,2.5c0.7,0.8,1.6,1.4,2.5,2L264.8,63.5z"/>
	<path class="st0" d="M290.1,58h-17.3l0-2h17.2L290.1,58z M287.6,71.9c0.7,0.1,1.2,0.1,1.7,0.1s1,0,1.5,0c0.3,0,0.5,0,0.6-0.2
		c0.1-0.1,0.2-0.3,0.2-0.5v-18h-17.3v-2h19.5l0,20.6c0,0.5-0.1,0.9-0.4,1.3c-0.2,0.4-0.5,0.6-0.9,0.8c-0.2,0.1-0.5,0.1-0.9,0.2
		c-0.4,0-0.8,0-1.2,0s-0.8,0-1.2,0s-0.7,0-0.9,0L287.6,71.9z M285.1,70.5v-1.9l-7.1,0v1.9h-2.1v-10l11.4,0l0,9.9H285.1z M285.1,62.6
		H278v4h7.1V62.6z"/>
</g>
</svg>
