<svg xmlns="http://www.w3.org/2000/svg" viewBox="0 0 36 36">
  <defs>
    <style>
      .cls-1 {
        fill: none;
      }

      .cls-2 {
        fill: #fff;
      }
    </style>
  </defs>
  <g id="圖文">
    <g>
      <rect class="cls-1" width="36" height="36"/>
      <g>
        <g>
          <path class="cls-2" d="M25.82,26.65c-1.24-1.58-2.73-3.56-2.73-3.56a2,2,0,0,0-3.07.22l5.45,7S27.06,28.22,25.82,26.65Z"/>
          <path class="cls-2" d="M11.7,5.84c-1.6-2.13-3.35-.93-3.35-.93S11.58,11,12.8,13.05C14.94,11.44,13.29,8,11.7,5.84Z"/>
          <path class="cls-2" d="M19.64,23.62c-.68.93-1.29,1.05-1.88.37a23.3,23.3,0,0,1-5.59-7.67c-1.27-2.27.07-3.14.07-3.14l-4.44-8c-1.17.7-2.43,2.14-1.65,5.54a34.41,34.41,0,0,0,4.14,10.15c3.4,5.37,7.63,8.82,9.62,9.87,3.1,1.61,5.07,0,5.07,0S20.71,25.31,19.64,23.62Z"/>
        </g>
        <g>
          <path class="cls-2" d="M29.61,21.66,27.29,21A11.63,11.63,0,0,0,19.08,6.82L19.7,4.5A14,14,0,0,1,29.61,21.66Z"/>
          <path class="cls-2" d="M24.19,20.21l-2.32-.62a6,6,0,0,0-4.24-7.35l.62-2.32A8.41,8.41,0,0,1,24.19,20.21Z"/>
        </g>
      </g>
    </g>
  </g>
</svg>
