<?xml version="1.0" encoding="UTF-8"?>
<svg id="_層_1" data-name="圖層 1" xmlns="http://www.w3.org/2000/svg" viewBox="0 0 1000 1000">
  <defs>
    <style>
      .cls-1 {
        fill: #41c006;
      }

      .cls-2 {
        fill: #000000;
      }

      .cls-3 {
        fill: #003b87;
      }
    </style>
  </defs>
  <path class="cls-2" d="M271.25,60.5l18.91-5.4,5.4,18.91-18.91,5.4-5.4-18.91Zm0,0"/>
  <path class="cls-2" d="M300.96,55.1l-2.7,21.61,21.61,2.7,2.7-21.61-21.61-2.7Zm0,0"/>
  <path class="cls-2" d="M485.99,55.1l25.66-1.35,1.35,25.66-25.66,1.35-1.35-25.66Zm0,0"/>
  <path class="cls-2" d="M540.01,56.98l23.77-3.24,3.24,23.77-23.77,3.24-3.24-23.77Zm0,0"/>
  <path class="cls-2" d="M572.96,53.74l-5.94,21.07,21.07,5.94,5.94-21.07-21.07-5.94Zm0,0"/>
  <path class="cls-2" d="M648.06,56.98l23.77-3.24,3.24,23.77-23.77,3.24-3.24-23.77Zm0,0"/>
  <path class="cls-2" d="M677.23,54.82l-1.08,23.77,23.77,1.08,1.08-23.77-23.77-1.08Zm0,0"/>
  <path class="cls-2" d="M706.13,55.1l-2.7,21.61,21.61,2.7,2.7-21.61-21.61-2.7Zm0,0"/>
  <path class="cls-2" d="M377.95,82.11l25.66-1.35,1.35,25.66-25.66,1.35-1.35-25.66Zm0,0"/>
  <path class="cls-2" d="M431.97,84.81l22.96-4.05,4.05,22.96-22.96,4.05-4.05-22.96Zm0,0"/>
  <path class="cls-2" d="M485.99,83.45l24.31-2.7,2.7,24.31-24.31,2.7-2.7-24.31Zm0,0"/>
  <path class="cls-2" d="M543.52,80.75l-3.51,23.5,23.5,3.51,3.51-23.5-23.5-3.51Zm0,0"/>
  <path class="cls-2" d="M567.02,85.35l22.42-4.59,4.59,22.42-22.42,4.59-4.59-22.42Zm0,0"/>
  <path class="cls-2" d="M622.4,87.51l18.91-5.4,5.4,18.91-18.91,5.4-5.4-18.91Zm0,0"/>
  <path class="cls-2" d="M650.21,81.83l-1.08,23.77,23.77,1.08,1.08-23.77-23.77-1.08Zm0,0"/>
  <path class="cls-2" d="M677.23,81.83l-1.08,23.77,23.77,1.08,1.08-23.77-23.77-1.08Zm0,0"/>
  <path class="cls-2" d="M296.91,111.82l22.96-4.05,4.05,22.96-22.96,4.05-4.05-22.96Zm0,0"/>
  <path class="cls-2" d="M350.93,111.01l23.77-3.24,3.24,23.77-23.77,3.24-3.24-23.77Zm0,0"/>
  <path class="cls-2" d="M380.1,108.85l-1.08,23.77,23.77,1.08,1.08-23.77-23.77-1.08Zm0,0"/>
  <path class="cls-2" d="M458.98,111.82l22.96-4.05,4.05,22.96-22.96,4.05-4.05-22.96Zm0,0"/>
  <path class="cls-2" d="M513,111.82l22.96-4.05,4.05,22.96-22.96,4.05-4.05-22.96Zm0,0"/>
  <path class="cls-2" d="M594.03,111.82l22.96-4.05,4.05,22.96-22.96,4.05-4.05-22.96Zm0,0"/>
  <path class="cls-2" d="M678.58,107.77l-3.51,23.5,23.5,3.51,3.51-23.5-23.5-3.51Zm0,0"/>
  <path class="cls-2" d="M706.13,109.12l-2.7,21.61,21.61,2.7,2.7-21.61-21.61-2.7Zm0,0"/>
  <path class="cls-2" d="M269.9,138.83l22.96-4.05,4.05,22.96-22.96,4.05-4.05-22.96Zm0,0"/>
  <path class="cls-2" d="M354.45,134.78l-3.51,23.5,23.5,3.51,3.51-23.5-23.5-3.51Zm0,0"/>
  <path class="cls-2" d="M380.1,135.86l-1.08,23.77,23.77,1.08,1.08-23.77-23.77-1.08Zm0,0"/>
  <path class="cls-2" d="M431.97,138.83l22.96-4.05,4.05,22.96-22.96,4.05-4.05-22.96Zm0,0"/>
  <path class="cls-2" d="M485.99,138.83l22.96-4.05,4.05,22.96-22.96,4.05-4.05-22.96Zm0,0"/>
  <path class="cls-2" d="M540.01,138.02l23.77-3.24,3.24,23.77-23.77,3.24-3.24-23.77Zm0,0"/>
  <path class="cls-2" d="M572.96,134.78l-5.94,21.07,21.07,5.94,5.94-21.07-21.07-5.94Zm0,0"/>
  <path class="cls-2" d="M298.26,168.54l18.91-5.4,5.4,18.91-18.91,5.4-5.4-18.91Zm0,0"/>
  <path class="cls-2" d="M327.98,163.14l-2.7,21.61,21.61,2.7,2.7-21.61-21.61-2.7Zm0,0"/>
  <path class="cls-2" d="M380.1,162.87l-1.08,23.77,23.77,1.08,1.08-23.77-23.77-1.08Zm0,0"/>
  <path class="cls-2" d="M513,165.03l23.77-3.24,3.24,23.77-23.77,3.24-3.24-23.77Zm0,0"/>
  <path class="cls-2" d="M542.17,162.87l-1.08,23.77,23.77,1.08,1.08-23.77-23.77-1.08Zm0,0"/>
  <path class="cls-2" d="M567.02,166.38l22.42-4.59,4.59,22.42-22.42,4.59-4.59-22.42Zm0,0"/>
  <path class="cls-2" d="M648.06,165.03l23.77-3.24,3.24,23.77-23.77,3.24-3.24-23.77Zm0,0"/>
  <path class="cls-2" d="M681.01,161.79l-5.94,21.07,21.07,5.94,5.94-21.07-21.07-5.94Zm0,0"/>
  <path class="cls-2" d="M380.1,189.88l-1.08,23.77,23.77,1.08,1.08-23.77-23.77-1.08Zm0,0"/>
  <path class="cls-2" d="M513,191.5l24.31-2.7,2.7,24.31-24.31,2.7-2.7-24.31Zm0,0"/>
  <path class="cls-2" d="M622.4,195.55l18.91-5.4,5.4,18.91-18.91,5.4-5.4-18.91Zm0,0"/>
  <path class="cls-2" d="M650.21,189.88l-1.08,23.77,23.77,1.08,1.08-23.77-23.77-1.08Zm0,0"/>
  <path class="cls-2" d="M677.23,189.88l-1.08,23.77,23.77,1.08,1.08-23.77-23.77-1.08Zm0,0"/>
  <path class="cls-2" d="M708.02,188.8l-5.94,21.07,21.07,5.94,5.94-21.07-21.07-5.94Zm0,0"/>
  <path class="cls-2" d="M269.9,219.86l22.96-4.05,4.05,22.96-22.96,4.05-4.05-22.96Zm0,0"/>
  <path class="cls-2" d="M323.92,219.86l22.96-4.05,4.05,22.96-22.96,4.05-4.05-22.96Zm0,0"/>
  <path class="cls-2" d="M380.1,216.89l-1.08,23.77,23.77,1.08,1.08-23.77-23.77-1.08Zm0,0"/>
  <path class="cls-2" d="M431.97,217.16l25.66-1.35,1.35,25.66-25.66,1.35-1.35-25.66Zm0,0"/>
  <path class="cls-2" d="M485.99,217.16l25.66-1.35,1.35,25.66-25.66,1.35-1.35-25.66Zm0,0"/>
  <path class="cls-2" d="M540.01,219.86l22.96-4.05,4.05,22.96-22.96,4.05-4.05-22.96Zm0,0"/>
  <path class="cls-2" d="M594.03,217.16l25.66-1.35,1.35,25.66-25.66,1.35-1.35-25.66Zm0,0"/>
  <path class="cls-2" d="M650.21,216.89l-1.08,23.77,23.77,1.08,1.08-23.77-23.77-1.08Zm0,0"/>
  <path class="cls-2" d="M704.24,216.89l-1.08,23.77,23.77,1.08,1.08-23.77-23.77-1.08Zm0,0"/>
  <path class="cls-2" d="M296.91,244.17l25.66-1.35,1.35,25.66-25.66,1.35-1.35-25.66Zm0,0"/>
  <path class="cls-2" d="M352.29,249.57l18.91-5.4,5.4,18.91-18.91,5.4-5.4-18.91Zm0,0"/>
  <path class="cls-2" d="M380.1,243.9l-1.08,23.77,23.77,1.08,1.08-23.77-23.77-1.08Zm0,0"/>
  <path class="cls-2" d="M407.12,243.9l-1.08,23.77,23.77,1.08,1.08-23.77-23.77-1.08Zm0,0"/>
  <path class="cls-2" d="M434.13,243.9l-1.08,23.77,23.77,1.08,1.08-23.77-23.77-1.08Zm0,0"/>
  <path class="cls-2" d="M488.15,243.9l-1.08,23.77,23.77,1.08,1.08-23.77-23.77-1.08Zm0,0"/>
  <path class="cls-2" d="M597.55,242.82l-3.51,23.5,23.5,3.51,3.51-23.5-23.5-3.51Zm0,0"/>
  <path class="cls-2" d="M623.2,243.9l-1.08,23.77,23.77,1.08,1.08-23.77-23.77-1.08Zm0,0"/>
  <path class="cls-2" d="M650.21,243.9l-1.08,23.77,23.77,1.08,1.08-23.77-23.77-1.08Zm0,0"/>
  <path class="cls-2" d="M704.24,243.9l-1.08,23.77,23.77,1.08,1.08-23.77-23.77-1.08Zm0,0"/>
  <path class="cls-2" d="M107.83,271.18l25.66-1.35,1.35,25.66-25.66,1.35-1.35-25.66Zm0,0"/>
  <path class="cls-2" d="M163.21,276.58l18.91-5.4,5.4,18.91-18.91,5.4-5.4-18.91Zm0,0"/>
  <path class="cls-2" d="M191.03,270.91l-1.08,23.77,23.77,1.08,1.08-23.77-23.77-1.08Zm0,0"/>
  <path class="cls-2" d="M219.93,271.18l-2.7,21.61,21.61,2.7,2.7-21.61-21.61-2.7Zm0,0"/>
  <path class="cls-2" d="M269.9,273.07l23.77-3.24,3.24,23.77-23.77,3.24-3.24-23.77Zm0,0"/>
  <path class="cls-2" d="M299.07,270.91l-1.08,23.77,23.77,1.08,1.08-23.77-23.77-1.08Zm0,0"/>
  <path class="cls-2" d="M329.86,269.83l-5.94,21.07,21.07,5.94,5.94-21.07-21.07-5.94Zm0,0"/>
  <path class="cls-2" d="M434.13,270.91l-1.08,23.77,23.77,1.08,1.08-23.77-23.77-1.08Zm0,0"/>
  <path class="cls-2" d="M461.14,270.91l-1.08,23.77,23.77,1.08,1.08-23.77-23.77-1.08Zm0,0"/>
  <path class="cls-2" d="M485.99,274.42l22.42-4.59,4.59,22.42-22.42,4.59-4.59-22.42Zm0,0"/>
  <path class="cls-2" d="M623.2,270.91l-1.08,23.77,23.77,1.08,1.08-23.77-23.77-1.08Zm0,0"/>
  <path class="cls-2" d="M650.21,270.91l-1.08,23.77,23.77,1.08,1.08-23.77-23.77-1.08Zm0,0"/>
  <path class="cls-2" d="M705.59,269.83l-3.51,23.5,23.5,3.51,3.51-23.5-23.5-3.51Zm0,0"/>
  <path class="cls-2" d="M733.14,271.18l-2.7,21.61,21.61,2.7,2.7-21.61-21.61-2.7Zm0,0"/>
  <path class="cls-2" d="M837.13,273.88l22.96-4.05,4.05,22.96-22.96,4.05-4.05-22.96Zm0,0"/>
  <path class="cls-2" d="M918.17,271.18l25.66-1.35,1.35,25.66-25.66,1.35-1.35-25.66Zm0,0"/>
  <path class="cls-2" d="M109.99,297.92l-1.08,23.77,23.77,1.08,1.08-23.77-23.77-1.08Zm0,0"/>
  <path class="cls-2" d="M138.9,298.19l-2.7,21.61,21.61,2.7,2.7-21.61-21.61-2.7Zm0,0"/>
  <path class="cls-2" d="M188.87,299.54l24.31-2.7,2.7,24.31-24.31,2.7-2.7-24.31Zm0,0"/>
  <path class="cls-2" d="M272.06,297.92l-1.08,23.77,23.77,1.08,1.08-23.77-23.77-1.08Zm0,0"/>
  <path class="cls-2" d="M299.07,297.92l-1.08,23.77,23.77,1.08,1.08-23.77-23.77-1.08Zm0,0"/>
  <path class="cls-2" d="M323.92,301.43l22.42-4.59,4.59,22.42-22.42,4.59-4.59-22.42Zm0,0"/>
  <path class="cls-2" d="M379.3,303.59l18.91-5.4,5.4,18.91-18.91,5.4-5.4-18.91Zm0,0"/>
  <path class="cls-2" d="M407.12,297.92l-1.08,23.77,23.77,1.08,1.08-23.77-23.77-1.08Zm0,0"/>
  <path class="cls-2" d="M434.13,297.92l-1.08,23.77,23.77,1.08,1.08-23.77-23.77-1.08Zm0,0"/>
  <path class="cls-2" d="M461.14,297.92l-1.08,23.77,23.77,1.08,1.08-23.77-23.77-1.08Zm0,0"/>
  <path class="cls-2" d="M623.2,297.92l-1.08,23.77,23.77,1.08,1.08-23.77-23.77-1.08Zm0,0"/>
  <path class="cls-2" d="M648.06,301.43l22.42-4.59,4.59,22.42-22.42,4.59-4.59-22.42Zm0,0"/>
  <path class="cls-2" d="M756.1,298.19l25.66-1.35,1.35,25.66-25.66,1.35-1.35-25.66Zm0,0"/>
  <path class="cls-2" d="M865.5,303.59l18.91-5.4,5.4,18.91-18.91,5.4-5.4-18.91Zm0,0"/>
  <path class="cls-2" d="M893.31,297.92l-1.08,23.77,23.77,1.08,1.08-23.77-23.77-1.08Zm0,0"/>
  <path class="cls-2" d="M920.33,297.92l-1.08,23.77,23.77,1.08,1.08-23.77-23.77-1.08Zm0,0"/>
  <path class="cls-2" d="M53.81,327.91l22.96-4.05,4.05,22.96-22.96,4.05-4.05-22.96Zm0,0"/>
  <path class="cls-2" d="M109.99,324.93l-1.08,23.77,23.77,1.08,1.08-23.77-23.77-1.08Zm0,0"/>
  <path class="cls-2" d="M217.23,330.61l18.91-5.4,5.4,18.91-18.91,5.4-5.4-18.91Zm0,0"/>
  <path class="cls-2" d="M245.05,324.93l-1.08,23.77,23.77,1.08,1.08-23.77-23.77-1.08Zm0,0"/>
  <path class="cls-2" d="M272.06,324.93l-1.08,23.77,23.77,1.08,1.08-23.77-23.77-1.08Zm0,0"/>
  <path class="cls-2" d="M299.07,324.93l-1.08,23.77,23.77,1.08,1.08-23.77-23.77-1.08Zm0,0"/>
  <path class="cls-2" d="M462.49,323.85l-3.51,23.5,23.5,3.51,3.51-23.5-23.5-3.51Zm0,0"/>
  <path class="cls-2" d="M491.93,323.85l-5.94,21.07,21.07,5.94,5.94-21.07-21.07-5.94Zm0,0"/>
  <path class="cls-2" d="M594.03,327.09l23.77-3.24,3.24,23.77-23.77,3.24-3.24-23.77Zm0,0"/>
  <path class="cls-2" d="M623.2,324.93l-1.08,23.77,23.77,1.08,1.08-23.77-23.77-1.08Zm0,0"/>
  <path class="cls-2" d="M730.44,330.61l18.91-5.4,5.4,18.91-18.91,5.4-5.4-18.91Zm0,0"/>
  <path class="cls-2" d="M756.1,328.45l22.42-4.59,4.59,22.42-22.42,4.59-4.59-22.42Zm0,0"/>
  <path class="cls-2" d="M811.47,330.61l18.91-5.4,5.4,18.91-18.91,5.4-5.4-18.91Zm0,0"/>
  <path class="cls-2" d="M841.18,325.21l-2.7,21.61,21.61,2.7,2.7-21.61-21.61-2.7Zm0,0"/>
  <path class="cls-2" d="M893.31,324.93l-1.08,23.77,23.77,1.08,1.08-23.77-23.77-1.08Zm0,0"/>
  <path class="cls-2" d="M918.17,328.45l22.42-4.59,4.59,22.42-22.42,4.59-4.59-22.42Zm0,0"/>
  <path class="cls-2" d="M107.83,353.56l24.31-2.7,2.7,24.31-24.31,2.7-2.7-24.31Zm0,0"/>
  <path class="cls-2" d="M161.86,354.92l22.96-4.05,4.05,22.96-22.96,4.05-4.05-22.96Zm0,0"/>
  <path class="cls-2" d="M273.41,350.86l-3.51,23.5,23.5,3.51,3.51-23.5-23.5-3.51Zm0,0"/>
  <path class="cls-2" d="M296.91,355.46l22.42-4.59,4.59,22.42-22.42,4.59-4.59-22.42Zm0,0"/>
  <path class="cls-2" d="M404.96,352.22l25.66-1.35,1.35,25.66-25.66,1.35-1.35-25.66Zm0,0"/>
  <path class="cls-2" d="M489.5,350.86l-3.51,23.5,23.5,3.51,3.51-23.5-23.5-3.51Zm0,0"/>
  <path class="cls-2" d="M518.94,350.86l-5.94,21.07,21.07,5.94,5.94-21.07-21.07-5.94Zm0,0"/>
  <path class="cls-2" d="M568.37,357.62l18.91-5.4,5.4,18.91-18.91,5.4-5.4-18.91Zm0,0"/>
  <path class="cls-2" d="M596.19,351.94l-1.08,23.77,23.77,1.08,1.08-23.77-23.77-1.08Zm0,0"/>
  <path class="cls-2" d="M623.2,351.94l-1.08,23.77,23.77,1.08,1.08-23.77-23.77-1.08Zm0,0"/>
  <path class="cls-2" d="M702.08,352.22l25.66-1.35,1.35,25.66-25.66,1.35-1.35-25.66Zm0,0"/>
  <path class="cls-2" d="M893.31,351.94l-1.08,23.77,23.77,1.08,1.08-23.77-23.77-1.08Zm0,0"/>
  <path class="cls-2" d="M55.17,384.63l18.91-5.4,5.4,18.91-18.91,5.4-5.4-18.91Zm0,0"/>
  <path class="cls-2" d="M84.88,379.23l-2.7,21.61,21.61,2.7,2.7-21.61-21.61-2.7Zm0,0"/>
  <path class="cls-2" d="M215.88,381.93l22.96-4.05,4.05,22.96-22.96,4.05-4.05-22.96Zm0,0"/>
  <path class="cls-2" d="M323.92,381.93l22.96-4.05,4.05,22.96-22.96,4.05-4.05-22.96Zm0,0"/>
  <path class="cls-2" d="M407.12,378.96l-1.08,23.77,23.77,1.08,1.08-23.77-23.77-1.08Zm0,0"/>
  <path class="cls-2" d="M515.16,378.96l-1.08,23.77,23.77,1.08,1.08-23.77-23.77-1.08Zm0,0"/>
  <path class="cls-2" d="M544.06,379.23l-2.7,21.61,21.61,2.7,2.7-21.61-21.61-2.7Zm0,0"/>
  <path class="cls-2" d="M621.04,380.58l24.31-2.7,2.7,24.31-24.31,2.7-2.7-24.31Zm0,0"/>
  <path class="cls-2" d="M676.42,384.63l18.91-5.4,5.4,18.91-18.91,5.4-5.4-18.91Zm0,0"/>
  <path class="cls-2" d="M704.24,378.96l-1.08,23.77,23.77,1.08,1.08-23.77-23.77-1.08Zm0,0"/>
  <path class="cls-2" d="M756.1,379.23l25.66-1.35,1.35,25.66-25.66,1.35-1.35-25.66Zm0,0"/>
  <path class="cls-2" d="M837.13,379.23l25.66-1.35,1.35,25.66-25.66,1.35-1.35-25.66Zm0,0"/>
  <path class="cls-2" d="M893.31,378.96l-1.08,23.77,23.77,1.08,1.08-23.77-23.77-1.08Zm0,0"/>
  <path class="cls-2" d="M107.83,406.24l25.66-1.35,1.35,25.66-25.66,1.35-1.35-25.66Zm0,0"/>
  <path class="cls-2" d="M161.86,408.13l23.77-3.24,3.24,23.77-23.77,3.24-3.24-23.77Zm0,0"/>
  <path class="cls-2" d="M837.13,407.59l24.31-2.7,2.7,24.31-24.31,2.7-2.7-24.31Zm0,0"/>
  <path class="cls-2" d="M893.31,405.97l-1.08,23.77,23.77,1.08,1.08-23.77-23.77-1.08Zm0,0"/>
  <path class="cls-2" d="M924.11,404.89l-5.94,21.07,21.07,5.94,5.94-21.07-21.07-5.94Zm0,0"/>
  <path class="cls-2" d="M53.81,433.25l25.66-1.35,1.35,25.66-25.66,1.35-1.35-25.66Zm0,0"/>
  <path class="cls-2" d="M111.35,431.9l-3.51,23.5,23.5,3.51,3.51-23.5-23.5-3.51Zm0,0"/>
  <path class="cls-2" d="M137.01,432.98l-1.08,23.77,23.77,1.08,1.08-23.77-23.77-1.08Zm0,0"/>
  <path class="cls-2" d="M164.02,432.98l-1.08,23.77,23.77,1.08,1.08-23.77-23.77-1.08Zm0,0"/>
  <path class="cls-2" d="M810.12,433.25l25.66-1.35,1.35,25.66-25.66,1.35-1.35-25.66Zm0,0"/>
  <path class="cls-2" d="M865.5,438.65l18.91-5.4,5.4,18.91-18.91,5.4-5.4-18.91Zm0,0"/>
  <path class="cls-2" d="M893.31,432.98l-1.08,23.77,23.77,1.08,1.08-23.77-23.77-1.08Zm0,0"/>
  <path class="cls-2" d="M920.33,432.98l-1.08,23.77,23.77,1.08,1.08-23.77-23.77-1.08Zm0,0"/>
  <path class="cls-2" d="M53.81,461.61l24.31-2.7,2.7,24.31-24.31,2.7-2.7-24.31Zm0,0"/>
  <path class="cls-2" d="M137.01,459.99l-1.08,23.77,23.77,1.08,1.08-23.77-23.77-1.08Zm0,0"/>
  <path class="cls-2" d="M164.02,459.99l-1.08,23.77,23.77,1.08,1.08-23.77-23.77-1.08Zm0,0"/>
  <path class="cls-2" d="M812.28,459.99l-1.08,23.77,23.77,1.08,1.08-23.77-23.77-1.08Zm0,0"/>
  <path class="cls-2" d="M843.07,458.91l-5.94,21.07,21.07,5.94,5.94-21.07-21.07-5.94Zm0,0"/>
  <path class="cls-2" d="M894.67,458.91l-3.51,23.5,23.5,3.51,3.51-23.5-23.5-3.51Zm0,0"/>
  <path class="cls-2" d="M920.33,459.99l-1.08,23.77,23.77,1.08,1.08-23.77-23.77-1.08Zm0,0"/>
  <path class="cls-2" d="M109.19,492.67l18.91-5.4,5.4,18.91-18.91,5.4-5.4-18.91Zm0,0"/>
  <path class="cls-2" d="M137.01,487l-1.08,23.77,23.77,1.08,1.08-23.77-23.77-1.08Zm0,0"/>
  <path class="cls-2" d="M164.02,487l-1.08,23.77,23.77,1.08,1.08-23.77-23.77-1.08Zm0,0"/>
  <path class="cls-2" d="M839.29,487l-1.08,23.77,23.77,1.08,1.08-23.77-23.77-1.08Zm0,0"/>
  <path class="cls-2" d="M920.33,487l-1.08,23.77,23.77,1.08,1.08-23.77-23.77-1.08Zm0,0"/>
  <path class="cls-2" d="M137.01,514.01l-1.08,23.77,23.77,1.08,1.08-23.77-23.77-1.08Zm0,0"/>
  <path class="cls-2" d="M164.02,514.01l-1.08,23.77,23.77,1.08,1.08-23.77-23.77-1.08Zm0,0"/>
  <path class="cls-2" d="M840.64,512.93l-3.51,23.5,23.5,3.51,3.51-23.5-23.5-3.51Zm0,0"/>
  <path class="cls-2" d="M870.08,512.93l-5.94,21.07,21.07,5.94,5.94-21.07-21.07-5.94Zm0,0"/>
  <path class="cls-2" d="M920.33,514.01l-1.08,23.77,23.77,1.08,1.08-23.77-23.77-1.08Zm0,0"/>
  <path class="cls-2" d="M107.83,543.18l23.77-3.24,3.24,23.77-23.77,3.24-3.24-23.77Zm0,0"/>
  <path class="cls-2" d="M134.85,544.53l22.42-4.59,4.59,22.42-22.42,4.59-4.59-22.42Zm0,0"/>
  <path class="cls-2" d="M816.06,539.94l-5.94,21.07,21.07,5.94,5.94-21.07-21.07-5.94Zm0,0"/>
  <path class="cls-2" d="M864.14,542.64l24.31-2.7,2.7,24.31-24.31,2.7-2.7-24.31Zm0,0"/>
  <path class="cls-2" d="M918.17,542.64l24.31-2.7,2.7,24.31-24.31,2.7-2.7-24.31Zm0,0"/>
  <path class="cls-2" d="M55.17,573.7l18.91-5.4,5.4,18.91-18.91,5.4-5.4-18.91Zm0,0"/>
  <path class="cls-2" d="M82.98,568.03l-1.08,23.77,23.77,1.08,1.08-23.77-23.77-1.08Zm0,0"/>
  <path class="cls-2" d="M107.83,571.54l22.42-4.59,4.59,22.42-22.42,4.59-4.59-22.42Zm0,0"/>
  <path class="cls-2" d="M161.86,571l22.96-4.05,4.05,22.96-22.96,4.05-4.05-22.96Zm0,0"/>
  <path class="cls-2" d="M810.12,571.54l22.42-4.59,4.59,22.42-22.42,4.59-4.59-22.42Zm0,0"/>
  <path class="cls-2" d="M891.15,571l22.96-4.05,4.05,22.96-22.96,4.05-4.05-22.96Zm0,0"/>
  <path class="cls-2" d="M80.82,596.66l24.31-2.7,2.7,24.31-24.31,2.7-2.7-24.31Zm0,0"/>
  <path class="cls-2" d="M190.22,600.72l18.91-5.4,5.4,18.91-18.91,5.4-5.4-18.91Zm0,0"/>
  <path class="cls-2" d="M219.93,595.32l-2.7,21.61,21.61,2.7,2.7-21.61-21.61-2.7Zm0,0"/>
  <path class="cls-2" d="M296.91,596.66l24.31-2.7,2.7,24.31-24.31,2.7-2.7-24.31Zm0,0"/>
  <path class="cls-2" d="M379.3,600.72l18.91-5.4,5.4,18.91-18.91,5.4-5.4-18.91Zm0,0"/>
  <path class="cls-2" d="M407.12,595.04l-1.08,23.77,23.77,1.08,1.08-23.77-23.77-1.08Zm0,0"/>
  <path class="cls-2" d="M434.13,595.04l-1.08,23.77,23.77,1.08,1.08-23.77-23.77-1.08Zm0,0"/>
  <path class="cls-2" d="M461.14,595.04l-1.08,23.77,23.77,1.08,1.08-23.77-23.77-1.08Zm0,0"/>
  <path class="cls-2" d="M488.15,595.04l-1.08,23.77,23.77,1.08,1.08-23.77-23.77-1.08Zm0,0"/>
  <path class="cls-2" d="M513,598.56l22.42-4.59,4.59,22.42-22.42,4.59-4.59-22.42Zm0,0"/>
  <path class="cls-2" d="M569.18,595.04l-1.08,23.77,23.77,1.08,1.08-23.77-23.77-1.08Zm0,0"/>
  <path class="cls-2" d="M702.08,597.2l23.77-3.24,3.24,23.77-23.77,3.24-3.24-23.77Zm0,0"/>
  <path class="cls-2" d="M731.25,595.04l-1.08,23.77,23.77,1.08,1.08-23.77-23.77-1.08Zm0,0"/>
  <path class="cls-2" d="M762.04,593.96l-5.94,21.07,21.07,5.94,5.94-21.07-21.07-5.94Zm0,0"/>
  <path class="cls-2" d="M837.13,595.32l25.66-1.35,1.35,25.66-25.66,1.35-1.35-25.66Zm0,0"/>
  <path class="cls-2" d="M918.17,595.32l25.66-1.35,1.35,25.66-25.66,1.35-1.35-25.66Zm0,0"/>
  <path class="cls-2" d="M107.83,624.21l23.77-3.24,3.24,23.77-23.77,3.24-3.24-23.77Zm0,0"/>
  <path class="cls-2" d="M137.01,622.05l-1.08,23.77,23.77,1.08,1.08-23.77-23.77-1.08Zm0,0"/>
  <path class="cls-2" d="M167.8,620.97l-5.94,21.07,21.07,5.94,5.94-21.07-21.07-5.94Zm0,0"/>
  <path class="cls-2" d="M404.96,623.67l24.31-2.7,2.7,24.31-24.31,2.7-2.7-24.31Zm0,0"/>
  <path class="cls-2" d="M458.98,623.67l24.31-2.7,2.7,24.31-24.31,2.7-2.7-24.31Zm0,0"/>
  <path class="cls-2" d="M540.01,624.21l23.77-3.24,3.24,23.77-23.77,3.24-3.24-23.77Zm0,0"/>
  <path class="cls-2" d="M569.18,622.05l-1.08,23.77,23.77,1.08,1.08-23.77-23.77-1.08Zm0,0"/>
  <path class="cls-2" d="M596.19,622.05l-1.08,23.77,23.77,1.08,1.08-23.77-23.77-1.08Zm0,0"/>
  <path class="cls-2" d="M623.2,622.05l-1.08,23.77,23.77,1.08,1.08-23.77-23.77-1.08Zm0,0"/>
  <path class="cls-2" d="M652.11,622.33l-2.7,21.61,21.61,2.7,2.7-21.61-21.61-2.7Zm0,0"/>
  <path class="cls-2" d="M704.24,622.05l-1.08,23.77,23.77,1.08,1.08-23.77-23.77-1.08Zm0,0"/>
  <path class="cls-2" d="M758.26,622.05l-1.08,23.77,23.77,1.08,1.08-23.77-23.77-1.08Zm0,0"/>
  <path class="cls-2" d="M839.29,622.05l-1.08,23.77,23.77,1.08,1.08-23.77-23.77-1.08Zm0,0"/>
  <path class="cls-2" d="M866.3,622.05l-1.08,23.77,23.77,1.08,1.08-23.77-23.77-1.08Zm0,0"/>
  <path class="cls-2" d="M893.31,622.05l-1.08,23.77,23.77,1.08,1.08-23.77-23.77-1.08Zm0,0"/>
  <path class="cls-2" d="M920.33,622.05l-1.08,23.77,23.77,1.08,1.08-23.77-23.77-1.08Zm0,0"/>
  <path class="cls-2" d="M53.81,652.04l22.96-4.05,4.05,22.96-22.96,4.05-4.05-22.96Zm0,0"/>
  <path class="cls-2" d="M111.35,647.99l-3.51,23.5,23.5,3.51,3.51-23.5-23.5-3.51Zm0,0"/>
  <path class="cls-2" d="M137.01,649.07l-1.08,23.77,23.77,1.08,1.08-23.77-23.77-1.08Zm0,0"/>
  <path class="cls-2" d="M161.86,652.58l22.42-4.59,4.59,22.42-22.42,4.59-4.59-22.42Zm0,0"/>
  <path class="cls-2" d="M217.23,654.74l18.91-5.4,5.4,18.91-18.91,5.4-5.4-18.91Zm0,0"/>
  <path class="cls-2" d="M245.05,649.07l-1.08,23.77,23.77,1.08,1.08-23.77-23.77-1.08Zm0,0"/>
  <path class="cls-2" d="M272.06,649.07l-1.08,23.77,23.77,1.08,1.08-23.77-23.77-1.08Zm0,0"/>
  <path class="cls-2" d="M300.96,649.34l-2.7,21.61,21.61,2.7,2.7-21.61-21.61-2.7Zm0,0"/>
  <path class="cls-2" d="M350.93,652.04l22.96-4.05,4.05,22.96-22.96,4.05-4.05-22.96Zm0,0"/>
  <path class="cls-2" d="M431.97,649.34l25.66-1.35,1.35,25.66-25.66,1.35-1.35-25.66Zm0,0"/>
  <path class="cls-2" d="M485.99,649.34l25.66-1.35,1.35,25.66-25.66,1.35-1.35-25.66Zm0,0"/>
  <path class="cls-2" d="M542.17,649.07l-1.08,23.77,23.77,1.08,1.08-23.77-23.77-1.08Zm0,0"/>
  <path class="cls-2" d="M569.18,649.07l-1.08,23.77,23.77,1.08,1.08-23.77-23.77-1.08Zm0,0"/>
  <path class="cls-2" d="M594.03,652.58l22.42-4.59,4.59,22.42-22.42,4.59-4.59-22.42Zm0,0"/>
  <path class="cls-2" d="M702.08,650.69l24.31-2.7,2.7,24.31-24.31,2.7-2.7-24.31Zm0,0"/>
  <path class="cls-2" d="M756.1,650.69l24.31-2.7,2.7,24.31-24.31,2.7-2.7-24.31Zm0,0"/>
  <path class="cls-2" d="M840.64,647.99l-3.51,23.5,23.5,3.51,3.51-23.5-23.5-3.51Zm0,0"/>
  <path class="cls-2" d="M864.14,652.58l22.42-4.59,4.59,22.42-22.42,4.59-4.59-22.42Zm0,0"/>
  <path class="cls-2" d="M920.33,649.07l-1.08,23.77,23.77,1.08,1.08-23.77-23.77-1.08Zm0,0"/>
  <path class="cls-2" d="M80.82,679.05l22.96-4.05,4.05,22.96-22.96,4.05-4.05-22.96Zm0,0"/>
  <path class="cls-2" d="M245.05,676.08l-1.08,23.77,23.77,1.08,1.08-23.77-23.77-1.08Zm0,0"/>
  <path class="cls-2" d="M377.95,679.05l22.96-4.05,4.05,22.96-22.96,4.05-4.05-22.96Zm0,0"/>
  <path class="cls-2" d="M434.13,676.08l-1.08,23.77,23.77,1.08,1.08-23.77-23.77-1.08Zm0,0"/>
  <path class="cls-2" d="M488.15,676.08l-1.08,23.77,23.77,1.08,1.08-23.77-23.77-1.08Zm0,0"/>
  <path class="cls-2" d="M515.16,676.08l-1.08,23.77,23.77,1.08,1.08-23.77-23.77-1.08Zm0,0"/>
  <path class="cls-2" d="M542.17,676.08l-1.08,23.77,23.77,1.08,1.08-23.77-23.77-1.08Zm0,0"/>
  <path class="cls-2" d="M621.04,676.35l25.66-1.35,1.35,25.66-25.66,1.35-1.35-25.66Zm0,0"/>
  <path class="cls-2" d="M675.07,679.05l22.96-4.05,4.05,22.96-22.96,4.05-4.05-22.96Zm0,0"/>
  <path class="cls-2" d="M729.09,676.35l25.66-1.35,1.35,25.66-25.66,1.35-1.35-25.66Zm0,0"/>
  <path class="cls-2" d="M810.12,676.35l25.66-1.35,1.35,25.66-25.66,1.35-1.35-25.66Zm0,0"/>
  <path class="cls-2" d="M892.51,681.75l18.91-5.4,5.4,18.91-18.91,5.4-5.4-18.91Zm0,0"/>
  <path class="cls-2" d="M920.33,676.08l-1.08,23.77,23.77,1.08,1.08-23.77-23.77-1.08Zm0,0"/>
  <path class="cls-2" d="M53.81,706.06l22.96-4.05,4.05,22.96-22.96,4.05-4.05-22.96Zm0,0"/>
  <path class="cls-2" d="M136.2,708.76l18.91-5.4,5.4,18.91-18.91,5.4-5.4-18.91Zm0,0"/>
  <path class="cls-2" d="M165.91,703.36l-2.7,21.61,21.61,2.7,2.7-21.61-21.61-2.7Zm0,0"/>
  <path class="cls-2" d="M217.23,708.76l18.91-5.4,5.4,18.91-18.91,5.4-5.4-18.91Zm0,0"/>
  <path class="cls-2" d="M242.89,706.6l22.42-4.59,4.59,22.42-22.42,4.59-4.59-22.42Zm0,0"/>
  <path class="cls-2" d="M404.96,705.25l23.77-3.24,3.24,23.77-23.77,3.24-3.24-23.77Zm0,0"/>
  <path class="cls-2" d="M431.97,706.6l22.42-4.59,4.59,22.42-22.42,4.59-4.59-22.42Zm0,0"/>
  <path class="cls-2" d="M488.15,703.09l-1.08,23.77,23.77,1.08,1.08-23.77-23.77-1.08Zm0,0"/>
  <path class="cls-2" d="M515.16,703.09l-1.08,23.77,23.77,1.08,1.08-23.77-23.77-1.08Zm0,0"/>
  <path class="cls-2" d="M542.17,703.09l-1.08,23.77,23.77,1.08,1.08-23.77-23.77-1.08Zm0,0"/>
  <path class="cls-2" d="M623.2,703.09l-1.08,23.77,23.77,1.08,1.08-23.77-23.77-1.08Zm0,0"/>
  <path class="cls-2" d="M654,702.01l-5.94,21.07,21.07,5.94,5.94-21.07-21.07-5.94Zm0,0"/>
  <path class="cls-2" d="M702.08,705.25l23.77-3.24,3.24,23.77-23.77,3.24-3.24-23.77Zm0,0"/>
  <path class="cls-2" d="M731.25,703.09l-1.08,23.77,23.77,1.08,1.08-23.77-23.77-1.08Zm0,0"/>
  <path class="cls-2" d="M758.26,703.09l-1.08,23.77,23.77,1.08,1.08-23.77-23.77-1.08Zm0,0"/>
  <path class="cls-2" d="M785.27,703.09l-1.08,23.77,23.77,1.08,1.08-23.77-23.77-1.08Zm0,0"/>
  <path class="cls-2" d="M812.28,703.09l-1.08,23.77,23.77,1.08,1.08-23.77-23.77-1.08Zm0,0"/>
  <path class="cls-2" d="M920.33,703.09l-1.08,23.77,23.77,1.08,1.08-23.77-23.77-1.08Zm0,0"/>
  <path class="cls-2" d="M269.9,733.07l22.96-4.05,4.05,22.96-22.96,4.05-4.05-22.96Zm0,0"/>
  <path class="cls-2" d="M323.92,732.26l23.77-3.24,3.24,23.77-23.77,3.24-3.24-23.77Zm0,0"/>
  <path class="cls-2" d="M353.09,730.1l-1.08,23.77,23.77,1.08,1.08-23.77-23.77-1.08Zm0,0"/>
  <path class="cls-2" d="M380.1,730.1l-1.08,23.77,23.77,1.08,1.08-23.77-23.77-1.08Zm0,0"/>
  <path class="cls-2" d="M404.96,733.61l22.42-4.59,4.59,22.42-22.42,4.59-4.59-22.42Zm0,0"/>
  <path class="cls-2" d="M485.99,731.72l24.31-2.7,2.7,24.31-24.31,2.7-2.7-24.31Zm0,0"/>
  <path class="cls-2" d="M543.52,729.02l-3.51,23.5,23.5,3.51,3.51-23.5-23.5-3.51Zm0,0"/>
  <path class="cls-2" d="M569.18,730.1l-1.08,23.77,23.77,1.08,1.08-23.77-23.77-1.08Zm0,0"/>
  <path class="cls-2" d="M596.19,730.1l-1.08,23.77,23.77,1.08,1.08-23.77-23.77-1.08Zm0,0"/>
  <path class="cls-2" d="M623.2,730.1l-1.08,23.77,23.77,1.08,1.08-23.77-23.77-1.08Zm0,0"/>
  <path class="cls-2" d="M650.21,730.1l-1.08,23.77,23.77,1.08,1.08-23.77-23.77-1.08Zm0,0"/>
  <path class="cls-2" d="M677.23,730.1l-1.08,23.77,23.77,1.08,1.08-23.77-23.77-1.08Zm0,0"/>
  <path class="cls-2" d="M704.24,730.1l-1.08,23.77,23.77,1.08,1.08-23.77-23.77-1.08Zm0,0"/>
  <path class="cls-2" d="M812.28,730.1l-1.08,23.77,23.77,1.08,1.08-23.77-23.77-1.08Zm0,0"/>
  <path class="cls-2" d="M891.15,732.26l23.77-3.24,3.24,23.77-23.77,3.24-3.24-23.77Zm0,0"/>
  <path class="cls-2" d="M920.33,730.1l-1.08,23.77,23.77,1.08,1.08-23.77-23.77-1.08Zm0,0"/>
  <path class="cls-2" d="M298.26,762.78l18.91-5.4,5.4,18.91-18.91,5.4-5.4-18.91Zm0,0"/>
  <path class="cls-2" d="M326.08,757.11l-1.08,23.77,23.77,1.08,1.08-23.77-23.77-1.08Zm0,0"/>
  <path class="cls-2" d="M431.97,760.08l22.96-4.05,4.05,22.96-22.96,4.05-4.05-22.96Zm0,0"/>
  <path class="cls-2" d="M513,760.08l22.96-4.05,4.05,22.96-22.96,4.05-4.05-22.96Zm0,0"/>
  <path class="cls-2" d="M677.23,757.11l-1.08,23.77,23.77,1.08,1.08-23.77-23.77-1.08Zm0,0"/>
  <path class="cls-2" d="M704.24,757.11l-1.08,23.77,23.77,1.08,1.08-23.77-23.77-1.08Zm0,0"/>
  <path class="cls-2" d="M756.1,760.08l22.96-4.05,4.05,22.96-22.96,4.05-4.05-22.96Zm0,0"/>
  <path class="cls-2" d="M812.28,757.11l-1.08,23.77,23.77,1.08,1.08-23.77-23.77-1.08Zm0,0"/>
  <path class="cls-2" d="M865.5,762.78l18.91-5.4,5.4,18.91-18.91,5.4-5.4-18.91Zm0,0"/>
  <path class="cls-2" d="M893.31,757.11l-1.08,23.77,23.77,1.08,1.08-23.77-23.77-1.08Zm0,0"/>
  <path class="cls-2" d="M920.33,757.11l-1.08,23.77,23.77,1.08,1.08-23.77-23.77-1.08Zm0,0"/>
  <path class="cls-2" d="M269.9,784.39l25.66-1.35,1.35,25.66-25.66,1.35-1.35-25.66Zm0,0"/>
  <path class="cls-2" d="M327.44,783.04l-3.51,23.5,23.5,3.51,3.51-23.5-23.5-3.51Zm0,0"/>
  <path class="cls-2" d="M356.87,783.04l-5.94,21.07,21.07,5.94,5.94-21.07-21.07-5.94Zm0,0"/>
  <path class="cls-2" d="M404.96,787.09l22.96-4.05,4.05,22.96-22.96,4.05-4.05-22.96Zm0,0"/>
  <path class="cls-2" d="M460.33,789.79l18.91-5.4,5.4,18.91-18.91,5.4-5.4-18.91Zm0,0"/>
  <path class="cls-2" d="M490.04,784.39l-2.7,21.61,21.61,2.7,2.7-21.61-21.61-2.7Zm0,0"/>
  <path class="cls-2" d="M567.02,786.28l23.77-3.24,3.24,23.77-23.77,3.24-3.24-23.77Zm0,0"/>
  <path class="cls-2" d="M596.19,784.12l-1.08,23.77,23.77,1.08,1.08-23.77-23.77-1.08Zm0,0"/>
  <path class="cls-2" d="M625.1,784.39l-2.7,21.61,21.61,2.7,2.7-21.61-21.61-2.7Zm0,0"/>
  <path class="cls-2" d="M678.58,783.04l-3.51,23.5,23.5,3.51,3.51-23.5-23.5-3.51Zm0,0"/>
  <path class="cls-2" d="M704.24,784.12l-1.08,23.77,23.77,1.08,1.08-23.77-23.77-1.08Zm0,0"/>
  <path class="cls-2" d="M812.28,784.12l-1.08,23.77,23.77,1.08,1.08-23.77-23.77-1.08Zm0,0"/>
  <path class="cls-2" d="M918.17,785.74l24.31-2.7,2.7,24.31-24.31,2.7-2.7-24.31Zm0,0"/>
  <path class="cls-2" d="M269.9,812.75l24.31-2.7,2.7,24.31-24.31,2.7-2.7-24.31Zm0,0"/>
  <path class="cls-2" d="M354.45,810.05l-3.51,23.5,23.5,3.51,3.51-23.5-23.5-3.51Zm0,0"/>
  <path class="cls-2" d="M382,811.4l-2.7,21.61,21.61,2.7,2.7-21.61-21.61-2.7Zm0,0"/>
  <path class="cls-2" d="M541.36,816.8l18.91-5.4,5.4,18.91-18.91,5.4-5.4-18.91Zm0,0"/>
  <path class="cls-2" d="M567.02,814.64l22.42-4.59,4.59,22.42-22.42,4.59-4.59-22.42Zm0,0"/>
  <path class="cls-2" d="M648.06,814.1l22.96-4.05,4.05,22.96-22.96,4.05-4.05-22.96Zm0,0"/>
  <path class="cls-2" d="M705.59,810.05l-3.51,23.5,23.5,3.51,3.51-23.5-23.5-3.51Zm0,0"/>
  <path class="cls-2" d="M731.25,811.13l-1.08,23.77,23.77,1.08,1.08-23.77-23.77-1.08Zm0,0"/>
  <path class="cls-2" d="M758.26,811.13l-1.08,23.77,23.77,1.08,1.08-23.77-23.77-1.08Zm0,0"/>
  <path class="cls-2" d="M785.27,811.13l-1.08,23.77,23.77,1.08,1.08-23.77-23.77-1.08Zm0,0"/>
  <path class="cls-2" d="M812.28,811.13l-1.08,23.77,23.77,1.08,1.08-23.77-23.77-1.08Zm0,0"/>
  <path class="cls-2" d="M891.15,811.4l25.66-1.35,1.35,25.66-25.66,1.35-1.35-25.66Zm0,0"/>
  <path class="cls-2" d="M406.31,843.81l18.91-5.4,5.4,18.91-18.91,5.4-5.4-18.91Zm0,0"/>
  <path class="cls-2" d="M437.91,837.06l-5.94,21.07,21.07,5.94,5.94-21.07-21.07-5.94Zm0,0"/>
  <path class="cls-2" d="M513,838.41l25.66-1.35,1.35,25.66-25.66,1.35-1.35-25.66Zm0,0"/>
  <path class="cls-2" d="M595.39,843.81l18.91-5.4,5.4,18.91-18.91,5.4-5.4-18.91Zm0,0"/>
  <path class="cls-2" d="M626.98,837.06l-5.94,21.07,21.07,5.94,5.94-21.07-21.07-5.94Zm0,0"/>
  <path class="cls-2" d="M675.07,841.11l22.96-4.05,4.05,22.96-22.96,4.05-4.05-22.96Zm0,0"/>
  <path class="cls-2" d="M812.28,838.14l-1.08,23.77,23.77,1.08,1.08-23.77-23.77-1.08Zm0,0"/>
  <path class="cls-2" d="M841.18,838.41l-2.7,21.61,21.61,2.7,2.7-21.61-21.61-2.7Zm0,0"/>
  <path class="cls-2" d="M894.67,837.06l-3.51,23.5,23.5,3.51,3.51-23.5-23.5-3.51Zm0,0"/>
  <path class="cls-2" d="M924.11,837.06l-5.94,21.07,21.07,5.94,5.94-21.07-21.07-5.94Zm0,0"/>
  <path class="cls-2" d="M271.25,870.83l18.91-5.4,5.4,18.91-18.91,5.4-5.4-18.91Zm0,0"/>
  <path class="cls-2" d="M300.96,865.43l-2.7,21.61,21.61,2.7,2.7-21.61-21.61-2.7Zm0,0"/>
  <path class="cls-2" d="M434.13,865.15l-1.08,23.77,23.77,1.08,1.08-23.77-23.77-1.08Zm0,0"/>
  <path class="cls-2" d="M463.03,865.43l-2.7,21.61,21.61,2.7,2.7-21.61-21.61-2.7Zm0,0"/>
  <path class="cls-2" d="M515.16,865.15l-1.08,23.77,23.77,1.08,1.08-23.77-23.77-1.08Zm0,0"/>
  <path class="cls-2" d="M567.02,868.13l22.96-4.05,4.05,22.96-22.96,4.05-4.05-22.96Zm0,0"/>
  <path class="cls-2" d="M623.2,865.15l-1.08,23.77,23.77,1.08,1.08-23.77-23.77-1.08Zm0,0"/>
  <path class="cls-2" d="M702.08,867.31l23.77-3.24,3.24,23.77-23.77,3.24-3.24-23.77Zm0,0"/>
  <path class="cls-2" d="M733.14,865.43l-2.7,21.61,21.61,2.7,2.7-21.61-21.61-2.7Zm0,0"/>
  <path class="cls-2" d="M783.11,867.31l23.77-3.24,3.24,23.77-23.77,3.24-3.24-23.77Zm0,0"/>
  <path class="cls-2" d="M810.12,868.67l22.42-4.59,4.59,22.42-22.42,4.59-4.59-22.42Zm0,0"/>
  <path class="cls-2" d="M864.14,868.13l22.96-4.05,4.05,22.96-22.96,4.05-4.05-22.96Zm0,0"/>
  <path class="cls-2" d="M918.17,866.77l24.31-2.7,2.7,24.31-24.31,2.7-2.7-24.31Zm0,0"/>
  <path class="cls-2" d="M350.93,892.44l25.66-1.35,1.35,25.66-25.66,1.35-1.35-25.66Zm0,0"/>
  <path class="cls-2" d="M431.97,893.78l24.31-2.7,2.7,24.31-24.31,2.7-2.7-24.31Zm0,0"/>
  <path class="cls-2" d="M485.99,894.32l23.77-3.24,3.24,23.77-23.77,3.24-3.24-23.77Zm0,0"/>
  <path class="cls-2" d="M513,895.68l22.42-4.59,4.59,22.42-22.42,4.59-4.59-22.42Zm0,0"/>
  <path class="cls-2" d="M594.03,894.32l23.77-3.24,3.24,23.77-23.77,3.24-3.24-23.77Zm0,0"/>
  <path class="cls-2" d="M623.2,892.17l-1.08,23.77,23.77,1.08,1.08-23.77-23.77-1.08Zm0,0"/>
  <path class="cls-2" d="M675.07,894.32l23.77-3.24,3.24,23.77-23.77,3.24-3.24-23.77Zm0,0"/>
  <path class="cls-2" d="M704.24,892.17l-1.08,23.77,23.77,1.08,1.08-23.77-23.77-1.08Zm0,0"/>
  <path class="cls-2" d="M757.45,897.84l18.91-5.4,5.4,18.91-18.91,5.4-5.4-18.91Zm0,0"/>
  <path class="cls-2" d="M785.27,892.17l-1.08,23.77,23.77,1.08,1.08-23.77-23.77-1.08Zm0,0"/>
  <path class="cls-2" d="M837.13,892.44l25.66-1.35,1.35,25.66-25.66,1.35-1.35-25.66Zm0,0"/>
  <path class="cls-2" d="M891.15,892.44l25.66-1.35,1.35,25.66-25.66,1.35-1.35-25.66Zm0,0"/>
  <path class="cls-2" d="M298.26,924.85l18.91-5.4,5.4,18.91-18.91,5.4-5.4-18.91Zm0,0"/>
  <path class="cls-2" d="M326.08,919.18l-1.08,23.77,23.77,1.08,1.08-23.77-23.77-1.08Zm0,0"/>
  <path class="cls-2" d="M350.93,922.69l22.42-4.59,4.59,22.42-22.42,4.59-4.59-22.42Zm0,0"/>
  <path class="cls-2" d="M404.96,922.15l22.96-4.05,4.05,22.96-22.96,4.05-4.05-22.96Zm0,0"/>
  <path class="cls-2" d="M460.33,924.85l18.91-5.4,5.4,18.91-18.91,5.4-5.4-18.91Zm0,0"/>
  <path class="cls-2" d="M485.99,922.69l22.42-4.59,4.59,22.42-22.42,4.59-4.59-22.42Zm0,0"/>
  <path class="cls-2" d="M541.36,924.85l18.91-5.4,5.4,18.91-18.91,5.4-5.4-18.91Zm0,0"/>
  <path class="cls-2" d="M569.18,919.18l-1.08,23.77,23.77,1.08,1.08-23.77-23.77-1.08Zm0,0"/>
  <path class="cls-2" d="M596.19,919.18l-1.08,23.77,23.77,1.08,1.08-23.77-23.77-1.08Zm0,0"/>
  <path class="cls-2" d="M621.04,922.69l22.42-4.59,4.59,22.42-22.42,4.59-4.59-22.42Zm0,0"/>
  <path class="cls-2" d="M678.58,918.1l-3.51,23.5,23.5,3.51,3.51-23.5-23.5-3.51Zm0,0"/>
  <path class="cls-2" d="M702.08,922.69l22.42-4.59,4.59,22.42-22.42,4.59-4.59-22.42Zm0,0"/>
  <path class="cls-2" d="M786.62,918.1l-3.51,23.5,23.5,3.51,3.51-23.5-23.5-3.51Zm0,0"/>
  <path class="cls-2" d="M812.28,919.18l-1.08,23.77,23.77,1.08,1.08-23.77-23.77-1.08Zm0,0"/>
  <path class="cls-2" d="M837.13,922.69l22.42-4.59,4.59,22.42-22.42,4.59-4.59-22.42Zm0,0"/>
  <path class="cls-2" d="M894.67,918.1l-3.51,23.5,23.5,3.51,3.51-23.5-23.5-3.51Zm0,0"/>
  <path class="cls-2" d="M922.22,919.45l-2.7,21.61,21.61,2.7,2.7-21.61-21.61-2.7Zm0,0"/>
  <path class="cls-2" d="M178.34,53.76h-59.97c-29.23,0-53.99,19.31-61.91,45.7-.82,2.73-1.46,5.54-1.9,8.4-.49,3.17-.74,6.41-.74,9.71v61.4c0,35.2,28.97,63.83,64.55,63.83h59.97c35.59,0,64.55-28.63,64.55-63.83v-61.39c0-35.19-28.97-63.81-64.55-63.81h0Zm36.19,125.21c0,19.55-16.23,35.47-36.2,35.47h-59.96c-19.96,0-36.2-15.92-36.2-35.47v-61.4c0-6.11,1.58-11.86,4.37-16.89,2.69-4.83,6.48-8.99,11.06-12.14,5.88-4.05,13.04-6.43,20.76-6.43h59.97c19.96,0,36.19,15.9,36.19,35.45v61.4Zm0,0"/>
  <path class="cls-2" d="M880.62,53.76h-59.97c-29.23,0-53.99,19.31-61.91,45.7-.82,2.73-1.46,5.54-1.9,8.4-.49,3.17-.74,6.41-.74,9.71v61.4c0,35.2,28.97,63.83,64.55,63.83h59.97c35.59,0,64.55-28.63,64.55-63.83v-61.39c0-35.19-28.97-63.81-64.55-63.81h0Zm36.19,125.21c0,19.55-16.23,35.47-36.2,35.47h-59.96c-19.96,0-36.2-15.92-36.2-35.47v-61.4c0-6.11,1.58-11.86,4.37-16.89,2.69-4.83,6.48-8.99,11.06-12.14,5.88-4.05,13.04-6.43,20.76-6.43h59.97c19.96,0,36.19,15.9,36.19,35.45v61.4Zm0,0"/>
  <path class="cls-2" d="M178.34,756.04h-59.97c-29.23,0-53.99,19.31-61.91,45.7-.82,2.73-1.46,5.54-1.9,8.4-.49,3.17-.74,6.41-.74,9.71v61.4c0,35.2,28.97,63.83,64.55,63.83h59.97c35.59,0,64.55-28.63,64.55-63.83v-61.39c0-35.19-28.97-63.81-64.55-63.81h0Zm36.19,125.21c0,19.55-16.23,35.47-36.2,35.47h-59.96c-19.96,0-36.2-15.92-36.2-35.47v-61.4c0-6.11,1.58-11.86,4.37-16.89,2.69-4.83,6.48-8.99,11.06-12.14,5.88-4.05,13.04-6.43,20.76-6.43h59.97c19.96,0,36.19,15.9,36.19,35.45v61.4Zm0,0"/>
  <path class="cls-2" d="M130,188.8c-12.23,0-22.17-9.75-22.17-21.72v-37.6c0-3.74,.97-7.26,2.67-10.34,1.64-2.96,3.97-5.51,6.78-7.43,3.6-2.48,7.99-3.94,12.71-3.94h36.73c12.22,0,22.16,9.74,22.16,21.71v37.6c0,11.97-9.94,21.72-22.16,21.72h-36.72Zm0,0"/>
  <path class="cls-2" d="M832.29,188.8c-12.23,0-22.17-9.75-22.17-21.72v-37.6c0-3.74,.97-7.26,2.67-10.34,1.64-2.96,3.97-5.51,6.78-7.43,3.6-2.48,7.99-3.94,12.71-3.94h36.73c12.22,0,22.16,9.74,22.16,21.71v37.6c0,11.97-9.94,21.72-22.16,21.72h-36.72Zm0,0"/>
  <path class="cls-2" d="M130,891.08c-12.23,0-22.17-9.75-22.17-21.72v-37.6c0-3.74,.97-7.26,2.67-10.34,1.64-2.96,3.97-5.51,6.78-7.43,3.6-2.48,7.99-3.94,12.71-3.94h36.73c12.22,0,22.16,9.74,22.16,21.71v37.6c0,11.97-9.94,21.72-22.16,21.72h-36.72Zm0,0"/>
  <path class="cls-2" d="M786.62,566.95l-3.51,23.5,23.5,3.51,3.51-23.5-23.5-3.51Zm0,0"/>
  <path class="cls-2" d="M705.59,404.89l-3.51,23.5,23.5,3.51,3.51-23.5-23.5-3.51Zm0,0"/>
  <path class="cls-2" d="M731.25,405.97l-1.08,23.77,23.77,1.08,1.08-23.77-23.77-1.08Zm0,0"/>
  <path class="cls-2" d="M756.1,409.48l22.42-4.59,4.59,22.42-22.42,4.59-4.59-22.42Zm0,0"/>
  <path class="cls-2" d="M194.81,404.89m0,0l-5.94,21.07,21.07,5.94,5.94-21.07-21.07-5.94Z"/>
  <path class="cls-2" d="M244.24,573.7l18.91-5.4,5.4,18.91-18.91,5.4-5.4-18.91Zm0,0"/>
  <path class="cls-2" d="M272.06,568.03l-1.08,23.77,23.77,1.08,1.08-23.77-23.77-1.08Zm0,0"/>
  <path class="cls-2" d="M299.07,568.03l-1.08,23.77,23.77,1.08,1.08-23.77-23.77-1.08Zm0,0"/>
  <path class="cls-2" d="M350.93,569.65l24.31-2.7,2.7,24.31-24.31,2.7-2.7-24.31Zm0,0"/>
  <path class="cls-2" d="M461.14,568.03l-1.08,23.77,23.77,1.08,1.08-23.77-23.77-1.08Zm0,0"/>
  <path class="cls-2" d="M515.16,568.03l-1.08,23.77,23.77,1.08,1.08-23.77-23.77-1.08Zm0,0"/>
  <path class="cls-2" d="M569.18,568.03l-1.08,23.77,23.77,1.08,1.08-23.77-23.77-1.08Zm0,0"/>
  <path class="cls-2" d="M624.56,566.95l-3.51,23.5,23.5,3.51,3.51-23.5-23.5-3.51Zm0,0"/>
  <path class="cls-2" d="M731.25,568.03l-1.08,23.77,23.77,1.08,1.08-23.77-23.77-1.08Zm0,0"/>
  <path class="cls-2" d="M652.11,568.3m0,0l-2.7,21.61,21.61,2.7,2.7-21.61-21.61-2.7Z"/>
  <path class="cls-3" d="M253.19,549.44c-22.79,0-36.3-15.77-36.3-35.05,0-20.24,15.05-37.46,37.84-37.46,16.35,0,33.17,8.99,33.17,30.05,0,14.38-7.79,24.28-18.22,24.28-4.95,0-7.5-1.73-8.51-4.9-.29-.82-.48-.77-1.11-.1-2.79,3.61-6.92,6.35-12.93,6.35-7.21,0-13.41-6.54-13.37-16.59,0-11.83,7.45-21.68,18.22-21.68,5.19,0,8.61,2.36,10.72,5.77,.19,.24,.58,.24,.67-.34l.82-3.03h6.01l-3.56,21.35c-.96,5.43,.48,7.16,3.56,7.16,5.91,0,11.11-6.54,11.11-17.69,0-18.08-13.8-24.81-26.68-24.81-20.19,0-31.16,14.52-31.16,31.69s10.96,29.33,31.06,29.33c8.61,0,12.69-2.74,17.55-6.06l3.41,4.47c-5.58,4.28-13.32,7.26-22.31,7.26Zm-4.57-23.13c6.06,0,11.15-6.01,12.02-12.93,1.11-8.37-3.27-12.74-8.17-12.74-6.68,0-11.39,6.63-11.39,14.86,0,6.49,2.69,10.82,7.55,10.82Z"/>
  <path class="cls-3" d="M308.76,478.62h-9.09v-9.23h9.09v9.23Zm-.24,60.25h-8.61v-49.71h8.61v49.71Z"/>
  <path class="cls-3" d="M320.59,514.2c0-15.58,8.12-26.01,22.84-26.01,13.7,0,22.6,9.28,22.6,26.01,0,15.19-7.84,25.63-22.65,25.63-13.8,0-22.79-9.04-22.79-25.63Zm36.64-.19c0-10.63-4.04-18.85-13.8-18.85-9.04,0-13.99,7.02-13.99,18.85,0,10.48,4.04,18.8,13.99,18.8,8.89,0,13.8-7.12,13.8-18.8Z"/>
  <path class="cls-3" d="M389.72,495.64v30.92c0,5.29,1.39,5.77,6.06,5.77h5.43v5.96c-1.25,.48-3.75,.82-7.36,.82-10.34,0-13.08-4.28-13.08-12.26v-31.2h-8.08v-6.49h8.32l2.16-14.47h6.54v14.42h11.2v6.54h-11.2Z"/>
  <path class="cls-3" d="M433.62,517.51l-24.38,.05v-6.97l24.38-.1v7.02Z"/>
  <path class="cls-3" d="M444.48,524.39h8.08c1.25,5.82,6.25,8.8,12.55,8.8,6.73,0,11.2-2.45,11.2-7.64,0-3.65-2.12-5.77-6.64-6.83l-10.29-2.55c-8.03-1.92-13.17-5.72-13.22-13.13-.05-8.7,6.35-14.86,18.94-14.86,10.77,0,17.93,4.95,18.27,14.28h-7.88c-.67-4.76-4.33-7.74-10.48-7.74s-10.72,2.5-10.72,7.79c0,3.56,2.88,5.34,8.37,6.68l10,2.5c9.13,2.4,11.64,8.46,11.64,13.37,0,9.13-7.02,14.76-19.14,14.76-10.38,0-19.23-4.71-20.67-15.43Z"/>
  <path class="cls-3" d="M495.19,522.9v-33.75h8.89v32.84c0,6.49,3.94,10.91,12.07,10.91,7.31,0,12.16-3.85,12.16-11.4v-32.36h8.85v49.71h-7.07l-.91-9.52c-1.83,7.45-7.88,10.53-14.9,10.48-10.34-.1-19.09-5.72-19.09-16.92Z"/>
  <path class="cls-3" d="M552.45,489.15h8.85l.1,8.65c2.26-4.09,7.21-9.62,16.35-9.62,11.88,0,20.15,8.03,20.15,25.15s-7.79,26.49-20.87,26.49c-8.89,0-13.56-5.72-15.63-9.95v24.47h-8.94v-65.2Zm36.83,24.47c0-11.3-4.86-18.51-13.94-18.51s-14.04,7.55-14.04,18.51,4.81,19.28,14.04,19.28c8.17,0,13.94-6.06,13.94-19.28Z"/>
  <path class="cls-3" d="M609.71,489.15h8.85l.1,8.65c2.26-4.09,7.21-9.62,16.35-9.62,11.88,0,20.15,8.03,20.15,25.15s-7.79,26.49-20.87,26.49c-8.89,0-13.56-5.72-15.63-9.95v24.47h-8.94v-65.2Zm36.83,24.47c0-11.3-4.86-18.51-13.94-18.51s-14.04,7.55-14.04,18.51,4.81,19.28,14.04,19.28c8.17,0,13.94-6.06,13.94-19.28Z"/>
  <path class="cls-3" d="M664.08,514.2c0-15.58,8.12-26.01,22.84-26.01,13.7,0,22.6,9.28,22.6,26.01,0,15.19-7.84,25.63-22.65,25.63-13.8,0-22.79-9.04-22.79-25.63Zm36.64-.19c0-10.63-4.04-18.85-13.8-18.85-9.04,0-13.99,7.02-13.99,18.85,0,10.48,4.04,18.8,13.99,18.8,8.89,0,13.8-7.12,13.8-18.8Z"/>
  <path class="cls-3" d="M721.33,489.15h8.46v9.57c2.5-7.16,8.41-10.53,14.71-10.53,1.44,0,2.98,.19,3.8,.62v8.61c-.96-.43-2.74-.58-3.75-.58-7.93-.53-14.38,2.84-14.38,11.11v30.92h-8.85v-49.71Z"/>
  <path class="cls-3" d="M771.62,495.64v30.92c0,5.29,1.39,5.77,6.06,5.77h5.43v5.96c-1.25,.48-3.75,.82-7.36,.82-10.34,0-13.08-4.28-13.08-12.26v-31.2h-8.08v-6.49h8.32l2.16-14.47h6.54v14.42h11.2v6.54h-11.2Z"/>
  <path class="cls-1" d="M405.21,452.6h15.85v6h-23.32v-36.24h7.47v30.24Z"/>
  <path class="cls-1" d="M435.84,458.6h-7.47v-36.24h7.47v36.24Z"/>
  <path class="cls-1" d="M474.77,458.6h-7.47l-14.54-23.84v23.84h-7.47v-36.24h7.47l14.56,23.89v-23.89h7.44v36.24Z"/>
  <path class="cls-1" d="M505.65,442.9h-14.34v9.71h16.82v6h-24.29v-36.24h24.24v6.05h-16.77v8.64h14.34v5.85Z"/>
  <path class="cls-1" d="M540.06,422.36l9.31,26.28,9.26-26.28h9.81v36.24h-7.49v-9.91l.75-17.1-9.78,27h-5.13l-9.76-26.98,.75,17.07v9.91h-7.47v-36.24h9.76Z"/>
  <path class="cls-1" d="M599.31,442.9h-14.34v9.71h16.82v6h-24.29v-36.24h24.24v6.05h-16.77v8.64h14.34v5.85Z"/>
</svg>