<svg xmlns="http://www.w3.org/2000/svg" viewBox="0 0 72 72">
  <defs>
    <style>
      .cls-1 {
        fill: #e60012;
      }

      .cls-2 {
        font-size: 6.56px;
        fill: #003b87;
        font-family: PublicSans-Medium, Public Sans;
        font-weight: 500;
      }

      .cls-3 {
        letter-spacing: -0.02em;
      }

      .cls-4 {
        letter-spacing: -0.02em;
      }

      .cls-5 {
        letter-spacing: 0em;
      }

      .cls-6 {
        letter-spacing: 0.01em;
      }

      .cls-7 {
        letter-spacing: -0.01em;
      }

      .cls-8 {
        font-size: 3.18px;
        fill: #41c006;
        font-family: PublicSans-Black, Public Sans;
        font-weight: 800;
        letter-spacing: 0.05em;
      }
    </style>
  </defs>
  <g id="圖文">
    <g>
      <rect class="cls-1" x="13.72" y="31.21" width="1.71" height="1.71" transform="translate(-18.12 45.17) rotate(-87.4)"/>
      <g>
        <g>
          <text class="cls-2" transform="translate(15.36 39.43) scale(1.03 1)">@i<tspan class="cls-3" x="7.1" y="0">o</tspan><tspan class="cls-4" x="10.69" y="0">t</tspan><tspan class="cls-5" x="13.14" y="0">-</tspan><tspan x="15.67" y="0">s</tspan><tspan class="cls-6" x="19.04" y="0">u</tspan><tspan x="22.91" y="0">ppo</tspan><tspan class="cls-7" x="34.49" y="0">r</tspan><tspan x="37.01" y="0">t</tspan></text>
          <text class="cls-8" transform="translate(28.55 34.61) scale(1.03 1)">LINE ME</text>
        </g>
        <g>
          <path d="M20.89,4l-1.36.39.39,1.36,1.36-.39Z"/>
          <path d="M21.67,4l-.19,1.56L23,5.72l.2-1.55Z"/>
          <path d="M36.84,3.87,35,4l.1,1.85,1.85-.1Z"/>
          <path d="M40.59,3.87l-1.71.24.23,1.71,1.71-.23Z"/>
          <path d="M41.25,3.87l-.43,1.52,1.52.43.43-1.52Z"/>
          <path d="M48.37,3.87l-1.71.24.23,1.71,1.71-.23Z"/>
          <path d="M48.76,4l-.08,1.71,1.71.08L50.47,4Z"/>
          <path d="M50.84,4l-.2,1.56,1.56.19.19-1.55Z"/>
          <path d="M29.06,5.82l-1.85.1.1,1.84,1.85-.09Z"/>
          <path d="M32.76,5.82l-1.66.29.29,1.65,1.66-.29Z"/>
          <path d="M36.74,5.82,35,6l.2,1.75,1.75-.19Z"/>
          <path d="M39.13,5.82l-.25,1.69,1.69.25.25-1.69Z"/>
          <path d="M42.44,5.82l-1.62.33.34,1.61,1.61-.33Z"/>
          <path d="M46.17,5.92l-1.36.38.39,1.37,1.36-.39Z"/>
          <path d="M46.81,5.9l-.07,1.71,1.71.07L48.53,6Z"/>
          <path d="M48.76,5.9l-.08,1.71,1.71.07L50.47,6Z"/>
          <path d="M23,7.76l-1.65.29.29,1.66,1.65-.29Z"/>
          <path d="M27,7.76,25.27,8l.23,1.71,1.71-.24Z"/>
          <path d="M27.37,7.84l-.08,1.71L29,9.63l.08-1.71Z"/>
          <path d="M34.7,7.76l-1.65.29.29,1.66L35,9.42Z"/>
          <path d="M38.59,7.76l-1.65.29.29,1.66,1.65-.29Z"/>
          <path d="M44.42,7.76l-1.65.29.29,1.66,1.65-.29Z"/>
          <path d="M48.86,7.76l-.26,1.7,1.69.25L50.55,8Z"/>
          <path d="M50.84,7.86l-.2,1.56,1.56.19.19-1.56Z"/>
          <path d="M21.09,9.71,19.44,10l.29,1.65,1.65-.29Z"/>
          <path d="M25.52,9.71l-.25,1.69,1.69.25L27.21,10Z"/>
          <path d="M27.37,9.79l-.08,1.71,1.71.07.08-1.71Z"/>
          <path d="M32.76,9.71,31.1,10l.29,1.65,1.66-.29Z"/>
          <path d="M36.64,9.71,35,10l.29,1.65,1.66-.29Z"/>
          <path d="M40.59,9.71l-1.71.23.23,1.71,1.71-.23Z"/>
          <path d="M41.25,9.71l-.43,1.51,1.52.43.43-1.52Z"/>
          <path d="M22.84,11.75l-1.36.39.39,1.36,1.36-.39Z"/>
          <path d="M23.62,11.75l-.2,1.55,1.56.2.19-1.56Z"/>
          <path d="M27.37,11.73l-.08,1.71,1.71.08.08-1.71Z"/>
          <path d="M38.65,11.65l-1.71.24.23,1.71,1.71-.24Z"/>
          <path d="M39,11.73,39,13.44l1.71.08.08-1.71Z"/>
          <path d="M42.44,11.65,40.82,12l.34,1.62,1.61-.33Z"/>
          <path d="M48.37,11.65l-1.71.24.23,1.71,1.71-.24Z"/>
          <path d="M49,11.65l-.43,1.52,1.52.43.43-1.52Z"/>
          <path d="M27.37,13.67l-.08,1.72,1.71.07.08-1.71Z"/>
          <path d="M38.69,13.6l-1.75.19.19,1.75,1.75-.19Z"/>
          <path d="M46.17,13.69l-1.36.39.39,1.36,1.36-.39Z"/>
          <path d="M46.81,13.67l-.07,1.72,1.71.07.08-1.71Z"/>
          <path d="M48.76,13.67l-.08,1.72,1.71.07.08-1.71Z"/>
          <path d="M51,13.6l-.43,1.51,1.51.43L52.49,14Z"/>
          <path d="M21.09,15.54l-1.65.29.29,1.66,1.65-.3Z"/>
          <path d="M25,15.54l-1.66.29.3,1.66,1.65-.3Z"/>
          <path d="M27.37,15.62l-.08,1.71,1.71.08.08-1.71Z"/>
          <path d="M33,15.54l-1.85.1.1,1.85,1.85-.1Z"/>
          <path d="M36.84,15.54l-1.85.1.1,1.85,1.85-.1Z"/>
          <path d="M40.53,15.54l-1.65.29.29,1.66,1.65-.3Z"/>
          <path d="M44.62,15.54l-1.85.1.1,1.85,1.84-.1Z"/>
          <path d="M46.81,15.62l-.07,1.71,1.71.08.08-1.71Z"/>
          <path d="M50.7,15.62l-.07,1.71,1.71.08.07-1.71Z"/>
          <path d="M23.23,17.49l-1.85.09.1,1.85,1.84-.1Z"/>
          <path d="M26.73,17.58,25.37,18l.38,1.36,1.37-.39Z"/>
          <path d="M27.37,17.56l-.08,1.71,1.71.08.08-1.71Z"/>
          <path d="M29.31,17.56l-.07,1.71,1.71.08L31,17.64Z"/>
          <path d="M31.26,17.56l-.08,1.71,1.71.08L33,17.64Z"/>
          <path d="M35.15,17.56l-.08,1.71,1.71.08.08-1.71Z"/>
          <path d="M43,17.49l-.25,1.69,1.69.25.25-1.69Z"/>
          <path d="M44.87,17.56l-.08,1.71,1.71.08.08-1.71Z"/>
          <path d="M46.81,17.56l-.07,1.71,1.71.08.08-1.71Z"/>
          <path d="M50.7,17.56l-.07,1.71,1.71.08.07-1.71Z"/>
          <path d="M9.62,19.43l-1.85.1.1,1.84,1.84-.09Z"/>
          <path d="M13.12,19.53l-1.37.39.39,1.36,1.36-.39Z"/>
          <path d="M13.76,19.51l-.08,1.71,1.71.08.08-1.71Z"/>
          <path d="M15.84,19.53l-.2,1.55,1.56.2.19-1.56Z"/>
          <path d="M21.15,19.43l-1.71.23.23,1.71,1.71-.23Z"/>
          <path d="M21.53,19.51l-.07,1.71,1.71.08.08-1.71Z"/>
          <path d="M23.75,19.43,23.32,21l1.52.42.43-1.51Z"/>
          <path d="M31.26,19.51l-.08,1.71,1.71.08L33,19.59Z"/>
          <path d="M33.2,19.51l-.08,1.71,1.72.08.07-1.71Z"/>
          <path d="M36.6,19.43,35,19.76l.33,1.61L36.94,21Z"/>
          <path d="M44.87,19.51l-.08,1.71,1.71.08.08-1.71Z"/>
          <path d="M46.81,19.51l-.07,1.71,1.71.08.08-1.71Z"/>
          <path d="M50.8,19.43l-.25,1.69,1.69.25.25-1.69Z"/>
          <path d="M52.78,19.53l-.19,1.55,1.55.2.2-1.56Z"/>
          <path d="M61.92,19.43l-1.65.29.29,1.65,1.65-.29Z"/>
          <path d="M68,19.43l-1.85.1.1,1.84,1.85-.09Z"/>
          <path d="M7.92,21.45l-.07,1.71,1.71.08.07-1.71Z"/>
          <path d="M10,21.47,9.81,23l1.56.19.19-1.55Z"/>
          <path d="M15.35,21.37l-1.75.2.2,1.75,1.75-.2Z"/>
          <path d="M19.59,21.45l-.08,1.71,1.71.08.08-1.71Z"/>
          <path d="M21.53,21.45l-.07,1.71,1.71.08.08-1.71Z"/>
          <path d="M24.94,21.37l-1.62.34.33,1.61L25.27,23Z"/>
          <path d="M28.67,21.47l-1.36.39.39,1.36,1.36-.39Z"/>
          <path d="M29.31,21.45l-.07,1.71,1.71.08L31,21.53Z"/>
          <path d="M31.26,21.45l-.08,1.71,1.71.08L33,21.53Z"/>
          <path d="M33.2,21.45l-.08,1.71,1.72.08.07-1.71Z"/>
          <path d="M44.87,21.45l-.08,1.71,1.71.08.08-1.71Z"/>
          <path d="M48.27,21.37l-1.61.34L47,23.32,48.6,23Z"/>
          <path d="M56.28,21.37l-1.84.1.09,1.85,1.85-.1Z"/>
          <path d="M63.67,21.47l-1.36.39.39,1.36,1.36-.39Z"/>
          <path d="M64.31,21.45l-.07,1.71,1.71.08L66,21.53Z"/>
          <path d="M66.26,21.45l-.08,1.71,1.71.08L68,21.53Z"/>
          <path d="M5.53,23.32l-1.65.29.29,1.65L5.82,25Z"/>
          <path d="M7.92,23.4l-.07,1.71,1.71.08.07-1.72Z"/>
          <path d="M17,23.42l-1.36.39L16,25.17l1.36-.39Z"/>
          <path d="M17.65,23.4l-.08,1.71,1.71.08.08-1.72Z"/>
          <path d="M19.59,23.4l-.08,1.71,1.71.08.08-1.72Z"/>
          <path d="M21.53,23.4l-.07,1.71,1.71.08.08-1.72Z"/>
          <path d="M33.3,23.32,33.05,25l1.69.25L35,23.57Z"/>
          <path d="M35.42,23.32,35,24.84l1.52.42.43-1.51Z"/>
          <path d="M44.48,23.32l-1.71.23L43,25.26,44.71,25Z"/>
          <path d="M44.87,23.4l-.08,1.71,1.71.08.08-1.72Z"/>
          <path d="M54,23.42l-1.36.39L53,25.17l1.36-.39Z"/>
          <path d="M56.05,23.32l-1.61.33.33,1.61,1.61-.33Z"/>
          <path d="M59.78,23.42l-1.36.39.39,1.36,1.36-.39Z"/>
          <path d="M60.56,23.42,60.37,25l1.55.2.2-1.56Z"/>
          <path d="M64.31,23.4l-.07,1.71,1.71.08L66,23.47Z"/>
          <path d="M67.72,23.32l-1.62.33.33,1.61,1.62-.33Z"/>
          <path d="M9.52,25.26l-1.75.2L8,27.21,9.71,27Z"/>
          <path d="M13.31,25.26l-1.65.3L12,27.21l1.65-.29Z"/>
          <path d="M19.69,25.26,19.44,27l1.69.25.25-1.69Z"/>
          <path d="M23,25.26l-1.61.33.33,1.62,1.61-.33Z"/>
          <path d="M31,25.26l-1.85.1.1,1.85,1.84-.1Z"/>
          <path d="M35.24,25.26,35,27l1.69.25.26-1.69Z"/>
          <path d="M37.36,25.26l-.42,1.52,1.51.43.43-1.52Z"/>
          <path d="M42.28,25.36l-1.36.39.39,1.36,1.36-.39Z"/>
          <path d="M42.92,25.34l-.07,1.71,1.71.08.08-1.71Z"/>
          <path d="M44.87,25.34l-.08,1.71,1.71.08.08-1.71Z"/>
          <path d="M52.39,25.26l-1.84.1.09,1.85,1.85-.1Z"/>
          <path d="M64.31,25.34l-.07,1.71,1.71.08L66,25.42Z"/>
          <path d="M5.34,27.31,4,27.69l.39,1.37,1.36-.39Z"/>
          <path d="M6.12,27.31l-.2,1.55,1.56.2.19-1.56Z"/>
          <path d="M17.2,27.21l-1.65.29.29,1.65,1.65-.29Z"/>
          <path d="M25,27.21l-1.66.29.3,1.65,1.65-.29Z"/>
          <path d="M29.31,27.29,29.24,29l1.71.07L31,27.36Z"/>
          <path d="M37.09,27.29,37,29l1.71.07.08-1.71Z"/>
          <path d="M39.17,27.31,39,28.86l1.55.2.2-1.56Z"/>
          <path d="M46.46,27.21l-1.75.19.2,1.75L46.66,29Z"/>
          <path d="M50.06,27.31l-1.36.38.39,1.37,1.36-.39Z"/>
          <path d="M50.7,27.29,50.63,29l1.71.07.07-1.71Z"/>
          <path d="M56.28,27.21l-1.84.1.09,1.84,1.85-.09Z"/>
          <path d="M62.12,27.21l-1.85.1.1,1.84,1.84-.09Z"/>
          <path d="M64.31,27.29,64.24,29l1.71.07L66,27.36Z"/>
          <path d="M9.62,29.15l-1.85.1.1,1.85L9.71,31Z"/>
          <path d="M13.37,29.15l-1.71.24.23,1.71,1.71-.24Z"/>
          <path d="M62,29.15l-1.75.2.19,1.75,1.75-.2Z"/>
          <path d="M64.31,29.23l-.07,1.71L66,31,66,29.31Z"/>
          <path d="M66.53,29.15l-.43,1.52,1.52.43.43-1.52Z"/>
          <path d="M5.73,31.1l-1.85.09L4,33l1.84-.1Z"/>
          <path d="M8,31.1l-.25,1.69L9.46,33l.25-1.69Z"/>
          <path d="M9.87,31.18l-.08,1.71L11.5,33l.08-1.71Z"/>
          <path d="M11.81,31.18l-.07,1.71,1.71.07.07-1.71Z"/>
          <path d="M60.17,31.1l-1.82.09h0l0,.46L58.42,33l1.85-.1Z"/>
          <path d="M63.67,31.19l-1.36.39.39,1.36,1.36-.38Z"/>
          <path d="M64.31,31.18l-.07,1.71L66,33,66,31.25Z"/>
          <path d="M66.26,31.18l-.08,1.71,1.71.07L68,31.25Z"/>
          <path d="M5.63,33l-1.75.2L4.07,35l1.75-.2Z"/>
          <path d="M9.87,33.12l-.08,1.71,1.71.08.08-1.71Z"/>
          <path d="M11.81,33.12l-.07,1.71,1.71.08.07-1.71Z"/>
          <path d="M58.48,33.12l-.08,1.71,1.71.08.08-1.71Z"/>
          <path d="M60.7,33l-.43,1.52,1.52.43.42-1.52Z"/>
          <path d="M64.41,33l-.25,1.69,1.69.26.25-1.7Z"/>
          <path d="M66.26,33.12l-.08,1.71,1.71.08L68,33.2Z"/>
          <path d="M9.23,35.08l-1.36.39.38,1.36,1.37-.39Z"/>
          <path d="M9.87,35.06l-.08,1.72,1.71.07.08-1.71Z"/>
          <path d="M11.81,35.06l-.07,1.72,1.71.07.07-1.71Z"/>
          <path d="M60.43,35.06l-.08,1.72,1.71.07.08-1.71Z"/>
          <path d="M66.26,35.06l-.08,1.72,1.71.07L68,35.14Z"/>
          <path d="M9.87,37l-.08,1.71,1.71.08.08-1.71Z"/>
          <path d="M11.81,37l-.07,1.71,1.71.08.07-1.71Z"/>
          <path d="M60.52,36.93l-.25,1.69,1.69.26.25-1.7Z"/>
          <path d="M62.64,36.93l-.43,1.52,1.52.43.43-1.52Z"/>
          <path d="M66.26,37l-.08,1.71,1.71.08L68,37.09Z"/>
          <path d="M9.48,38.88l-1.71.23L8,40.82l1.71-.23Z"/>
          <path d="M11.33,38.88l-1.62.33L10,40.82l1.62-.33Z"/>
          <path d="M58.75,38.88l-.4,1.43,0,.08h0l1.49.42.43-1.52Z"/>
          <path d="M64,38.88l-1.75.19.2,1.75,1.75-.19Z"/>
          <path d="M67.85,38.88l-1.75.19.2,1.75,1.75-.19Z"/>
          <path d="M5.34,40.92,4,41.31l.39,1.36,1.36-.39Z"/>
          <path d="M6,40.9,5.9,42.61l1.71.08L7.69,41Z"/>
          <path d="M9.38,40.82l-1.61.33.33,1.61,1.61-.33Z"/>
          <path d="M13.31,40.82l-1.65.29L12,42.76l1.65-.29Z"/>
          <path d="M59.94,40.82l-1.59.33h0l0,.12.31,1.49,1.61-.33Z"/>
          <path d="M65.81,40.82l-1.65.29.29,1.65,1.65-.29Z"/>
          <path d="M7.57,42.76,5.82,43,6,44.71l1.75-.2Z"/>
          <path d="M15.06,42.86l-1.36.39.39,1.36,1.36-.39Z"/>
          <path d="M15.84,42.86l-.2,1.56,1.56.19.19-1.55Z"/>
          <path d="M23.13,42.76l-1.75.2.19,1.75,1.75-.2Z"/>
          <path d="M28.67,42.86l-1.36.39.39,1.36,1.36-.39Z"/>
          <path d="M29.31,42.84l-.07,1.71,1.71.08L31,42.92Z"/>
          <path d="M31.26,42.84l-.08,1.71,1.71.08L33,42.92Z"/>
          <path d="M33.2,42.84l-.08,1.71,1.72.08.07-1.71Z"/>
          <path d="M35.15,42.84l-.08,1.71,1.71.08.08-1.71Z"/>
          <path d="M38.55,42.76l-1.61.34.33,1.61,1.61-.33Z"/>
          <path d="M41,42.84l-.08,1.71,1.71.08.08-1.71Z"/>
          <path d="M52.26,42.76,50.55,43l.23,1.71,1.71-.23Z"/>
          <path d="M52.65,42.84l-.08,1.71,1.71.08.08-1.71Z"/>
          <path d="M54.86,42.76l-.42,1.52,1.51.43.43-1.52Z"/>
          <path d="M62.12,42.76l-1.85.1.1,1.85,1.84-.1Z"/>
          <path d="M68,42.76l-1.85.1.1,1.85,1.85-.1Z"/>
          <path d="M9.48,44.71l-1.71.23L8,46.65l1.71-.23Z"/>
          <path d="M9.87,44.79,9.79,46.5l1.71.08.08-1.72Z"/>
          <path d="M12.08,44.71l-.42,1.52,1.51.42.43-1.51Z"/>
          <path d="M30.91,44.71l-1.75.19.19,1.75,1.75-.19Z"/>
          <path d="M34.8,44.71l-1.75.19.19,1.75L35,46.46Z"/>
          <path d="M40.59,44.71l-1.71.23.23,1.71,1.71-.23Z"/>
          <path d="M41,44.79,40.9,46.5l1.71.08.08-1.72Z"/>
          <path d="M42.92,44.79l-.07,1.71,1.71.08.08-1.72Z"/>
          <path d="M44.87,44.79l-.08,1.71,1.71.08.08-1.72Z"/>
          <path d="M47,44.81l-.19,1.55,1.55.2.2-1.56Z"/>
          <path d="M50.7,44.79l-.07,1.71,1.71.08.07-1.72Z"/>
          <path d="M54.59,44.79l-.08,1.71,1.72.08.07-1.72Z"/>
          <path d="M60.43,44.79l-.08,1.71,1.71.08.08-1.72Z"/>
          <path d="M62.37,44.79l-.08,1.71,1.71.08.08-1.72Z"/>
          <path d="M64.31,44.79l-.07,1.71,1.71.08L66,44.86Z"/>
          <path d="M66.26,44.79l-.08,1.71,1.71.08L68,44.86Z"/>
          <path d="M5.53,46.65l-1.65.29.29,1.66,1.65-.29Z"/>
          <path d="M8,46.65l-.25,1.7,1.69.25.25-1.69Z"/>
          <path d="M9.87,46.73l-.08,1.71,1.71.08.08-1.71Z"/>
          <path d="M13.27,46.65,11.66,47,12,48.6l1.61-.33Z"/>
          <path d="M17,46.75l-1.36.39L16,48.5l1.36-.39Z"/>
          <path d="M17.65,46.73l-.08,1.71,1.71.08.08-1.71Z"/>
          <path d="M19.59,46.73l-.08,1.71,1.71.08.08-1.71Z"/>
          <path d="M21.67,46.75l-.19,1.56L23,48.5l.2-1.56Z"/>
          <path d="M26.92,46.65l-1.65.29.29,1.66,1.65-.29Z"/>
          <path d="M33,46.65l-1.85.1.1,1.85,1.85-.1Z"/>
          <path d="M36.84,46.65l-1.85.1.1,1.85,1.85-.1Z"/>
          <path d="M39,46.73,39,48.44l1.71.08.08-1.71Z"/>
          <path d="M41,46.73l-.08,1.71,1.71.08.08-1.71Z"/>
          <path d="M44.38,46.65,42.77,47l.33,1.62,1.61-.33Z"/>
          <path d="M52.3,46.65l-1.75.2.19,1.75,1.75-.2Z"/>
          <path d="M56.19,46.65l-1.75.2.19,1.75,1.75-.2Z"/>
          <path d="M60.52,46.65l-.25,1.7L62,48.6l.25-1.69Z"/>
          <path d="M63.83,46.65,62.21,47l.33,1.62,1.62-.33Z"/>
          <path d="M66.26,46.73l-.08,1.71,1.71.08L68,46.81Z"/>
          <path d="M7.48,48.6l-1.66.29.3,1.65,1.65-.29Z"/>
          <path d="M17.65,48.68l-.08,1.71,1.71.07.08-1.71Z"/>
          <path d="M28.87,48.6l-1.66.29.29,1.65,1.66-.29Z"/>
          <path d="M31.26,48.68l-.08,1.71,1.71.07L33,48.75Z"/>
          <path d="M35.15,48.68l-.08,1.71,1.71.07.08-1.71Z"/>
          <path d="M37.09,48.68,37,50.39l1.71.07.08-1.71Z"/>
          <path d="M39,48.68,39,50.39l1.71.07.08-1.71Z"/>
          <path d="M46.56,48.6l-1.85.1.1,1.84,1.85-.09Z"/>
          <path d="M50.26,48.6l-1.66.29.29,1.65,1.66-.29Z"/>
          <path d="M54.34,48.6l-1.85.1.1,1.84,1.85-.09Z"/>
          <path d="M60.17,48.6l-1.84.1.09,1.84,1.85-.09Z"/>
          <path d="M65.62,48.7l-1.36.38.39,1.37L66,50.06Z"/>
          <path d="M66.26,48.68l-.08,1.71,1.71.07L68,48.75Z"/>
          <path d="M5.53,50.54l-1.65.29.29,1.66,1.65-.29Z"/>
          <path d="M11.17,50.64,9.81,51l.39,1.36L11.56,52Z"/>
          <path d="M12,50.64l-.2,1.56,1.56.19.19-1.56Z"/>
          <path d="M17,50.64,15.64,51,16,52.39,17.39,52Z"/>
          <path d="M19.1,50.54l-1.61.33.33,1.62,1.62-.33Z"/>
          <path d="M30.87,50.54l-1.71.24.23,1.71,1.71-.24Z"/>
          <path d="M32.72,50.54l-1.62.33.33,1.62,1.62-.33Z"/>
          <path d="M35.15,50.62l-.08,1.71,1.71.08.08-1.71Z"/>
          <path d="M37.09,50.62,37,52.33l1.71.08.08-1.71Z"/>
          <path d="M39,50.62,39,52.33l1.71.08.08-1.71Z"/>
          <path d="M44.87,50.62l-.08,1.71,1.71.08.08-1.71Z"/>
          <path d="M47.09,50.54l-.43,1.52,1.52.43L48.6,51Z"/>
          <path d="M52.26,50.54l-1.71.24.23,1.71,1.71-.24Z"/>
          <path d="M52.65,50.62l-.08,1.71,1.71.08.08-1.71Z"/>
          <path d="M54.59,50.62l-.08,1.71,1.72.08.07-1.71Z"/>
          <path d="M56.54,50.62l-.08,1.71,1.71.08.08-1.71Z"/>
          <path d="M58.48,50.62l-.08,1.71,1.71.08.08-1.71Z"/>
          <path d="M66.26,50.62l-.08,1.71,1.71.08L68,50.7Z"/>
          <path d="M21.09,52.49l-1.65.29.29,1.65,1.65-.29Z"/>
          <path d="M25,52.49l-1.72.23.24,1.71,1.71-.23Z"/>
          <path d="M25.42,52.56l-.07,1.72,1.71.07.08-1.71Z"/>
          <path d="M27.37,52.56l-.08,1.72,1.71.07.08-1.71Z"/>
          <path d="M30.77,52.49l-1.61.33.33,1.61,1.61-.33Z"/>
          <path d="M36.74,52.49,35,52.68l.2,1.75,1.75-.19Z"/>
          <path d="M39.13,52.49l-.25,1.69,1.69.25.25-1.69Z"/>
          <path d="M41,52.56l-.08,1.72,1.71.07.08-1.71Z"/>
          <path d="M42.92,52.56l-.07,1.72,1.71.07.08-1.71Z"/>
          <path d="M44.87,52.56l-.08,1.72,1.71.07.08-1.71Z"/>
          <path d="M46.81,52.56l-.07,1.72,1.71.07.08-1.71Z"/>
          <path d="M48.76,52.56l-.08,1.72,1.71.07.08-1.71Z"/>
          <path d="M50.7,52.56l-.07,1.72,1.71.07.07-1.71Z"/>
          <path d="M58.48,52.56l-.08,1.72,1.71.07.08-1.71Z"/>
          <path d="M65.87,52.49l-1.71.23.23,1.71,1.71-.23Z"/>
          <path d="M66.26,52.56l-.08,1.72,1.71.07L68,52.64Z"/>
          <path d="M22.84,54.53l-1.36.39.39,1.36,1.36-.39Z"/>
          <path d="M23.48,54.51l-.08,1.71,1.71.08.08-1.71Z"/>
          <path d="M32.76,54.43l-1.66.29.29,1.66,1.66-.3Z"/>
          <path d="M38.59,54.43l-1.65.29.29,1.66,1.65-.3Z"/>
          <path d="M48.76,54.51l-.08,1.71,1.71.08.08-1.71Z"/>
          <path d="M50.7,54.51l-.07,1.71,1.71.08.07-1.71Z"/>
          <path d="M56.09,54.43l-1.65.29.29,1.66,1.65-.3Z"/>
          <path d="M58.48,54.51l-.08,1.71,1.71.08.08-1.71Z"/>
          <path d="M63.67,54.53l-1.36.39.39,1.36,1.36-.39Z"/>
          <path d="M64.31,54.51l-.07,1.71L66,56.3,66,54.59Z"/>
          <path d="M66.26,54.51l-.08,1.71,1.71.08L68,54.59Z"/>
          <path d="M21.28,56.38l-1.84.09.09,1.85,1.85-.1Z"/>
          <path d="M23.58,56.38l-.26,1.69,1.7.25.25-1.69Z"/>
          <path d="M25.7,56.38l-.43,1.51,1.52.43.42-1.52Z"/>
          <path d="M30.81,56.38l-1.65.29.29,1.65L31.1,58Z"/>
          <path d="M34.51,56.47l-1.37.39.39,1.36,1.36-.39Z"/>
          <path d="M35.28,56.47,35.09,58l1.55.19.2-1.55Z"/>
          <path d="M42.54,56.38l-1.72.23.24,1.71,1.71-.23Z"/>
          <path d="M42.92,56.45l-.07,1.72,1.71.07.08-1.71Z"/>
          <path d="M45,56.47,44.81,58l1.56.19.19-1.55Z"/>
          <path d="M48.86,56.38l-.26,1.69,1.69.25.26-1.69Z"/>
          <path d="M50.7,56.45l-.07,1.72,1.71.07.07-1.71Z"/>
          <path d="M58.48,56.45l-.08,1.72,1.71.07.08-1.71Z"/>
          <path d="M67.85,56.38l-1.75.19.2,1.75,1.75-.19Z"/>
          <path d="M21.19,58.32l-1.75.19.19,1.75,1.75-.19Z"/>
          <path d="M25.52,58.32,25.27,60l1.69.25.25-1.69Z"/>
          <path d="M27.5,58.42,27.31,60l1.56.2.19-1.56Z"/>
          <path d="M40.34,58.42,39,58.81l.39,1.36,1.36-.39Z"/>
          <path d="M42.44,58.32l-1.62.33.34,1.61,1.61-.33Z"/>
          <path d="M48.31,58.32l-1.65.29L47,60.26,48.6,60Z"/>
          <path d="M50.8,58.32,50.55,60l1.69.25.25-1.69Z"/>
          <path d="M52.65,58.4l-.08,1.71,1.71.08.08-1.71Z"/>
          <path d="M54.59,58.4l-.08,1.71,1.72.08.07-1.71Z"/>
          <path d="M56.54,58.4l-.08,1.71,1.71.08.08-1.71Z"/>
          <path d="M58.48,58.4l-.08,1.71,1.71.08.08-1.71Z"/>
          <path d="M66,58.32l-1.85.1.1,1.84,1.84-.09Z"/>
          <path d="M30.62,60.36l-1.36.39.38,1.36L31,61.72Z"/>
          <path d="M31.53,60.26l-.43,1.52,1.52.43.43-1.52Z"/>
          <path d="M38.78,60.26l-1.84.1L37,62.21l1.85-.1Z"/>
          <path d="M44.23,60.36l-1.36.39.39,1.36,1.36-.39Z"/>
          <path d="M45.14,60.26l-.43,1.52,1.52.43.43-1.52Z"/>
          <path d="M50.26,60.26l-1.66.3.29,1.65,1.66-.29Z"/>
          <path d="M58.48,60.34l-.08,1.71,1.71.08.08-1.71Z"/>
          <path d="M60.56,60.36l-.19,1.56,1.55.19.2-1.55Z"/>
          <path d="M64.41,60.26,64.16,62l1.69.25.25-1.69Z"/>
          <path d="M66.53,60.26l-.43,1.52,1.52.43.43-1.52Z"/>
          <path d="M20.89,62.31l-1.36.39.39,1.36,1.36-.39Z"/>
          <path d="M21.67,62.31l-.19,1.55,1.55.2.2-1.56Z"/>
          <path d="M31.26,62.29,31.18,64l1.71.08L33,62.37Z"/>
          <path d="M33.34,62.31l-.2,1.55,1.56.2.19-1.56Z"/>
          <path d="M37.09,62.29,37,64l1.71.08.08-1.71Z"/>
          <path d="M42.48,62.21l-1.66.29.3,1.65,1.65-.29Z"/>
          <path d="M44.87,62.29,44.79,64l1.71.08.08-1.71Z"/>
          <path d="M52.26,62.21l-1.71.23.23,1.71,1.71-.23Z"/>
          <path d="M52.78,62.31l-.19,1.55,1.55.2.2-1.56Z"/>
          <path d="M58.09,62.21l-1.71.23.23,1.71,1.72-.23Z"/>
          <path d="M59.94,62.21l-1.61.33.33,1.61,1.61-.33Z"/>
          <path d="M63.87,62.21l-1.66.29.3,1.65,1.65-.29Z"/>
          <path d="M67.85,62.21l-1.75.19.2,1.75L68.05,64Z"/>
          <path d="M27.12,64.15l-1.85.1.1,1.85,1.84-.1Z"/>
          <path d="M32.85,64.15l-1.75.2.2,1.75,1.75-.2Z"/>
          <path d="M36.7,64.15,35,64.39l.23,1.71,1.72-.23Z"/>
          <path d="M38.55,64.15l-1.61.34.33,1.61,1.61-.33Z"/>
          <path d="M44.48,64.15l-1.71.24L43,66.1l1.71-.23Z"/>
          <path d="M44.87,64.23l-.08,1.71L46.5,66l.08-1.71Z"/>
          <path d="M50.31,64.15l-1.71.24.24,1.71,1.71-.23Z"/>
          <path d="M50.7,64.23l-.07,1.71,1.71.08.07-1.71Z"/>
          <path d="M55.9,64.25l-1.37.39L54.92,66l1.36-.39Z"/>
          <path d="M56.54,64.23l-.08,1.71,1.71.08.08-1.71Z"/>
          <path d="M62.12,64.15l-1.85.1.1,1.85,1.84-.1Z"/>
          <path d="M66,64.15l-1.85.1.1,1.85L66.1,66Z"/>
          <path d="M22.84,66.2l-1.36.38L21.87,68l1.36-.39Z"/>
          <path d="M23.48,66.18l-.08,1.71,1.71.08.08-1.72Z"/>
          <path d="M26.88,66.1l-1.61.33L25.6,68l1.61-.33Z"/>
          <path d="M30.81,66.1l-1.65.29L29.45,68l1.65-.29Z"/>
          <path d="M34.51,66.2l-1.37.38L33.53,68l1.36-.39Z"/>
          <path d="M36.6,66.1,35,66.43,35.32,68l1.62-.33Z"/>
          <path d="M40.34,66.2,39,66.58,39.37,68l1.36-.39Z"/>
          <path d="M41,66.18l-.08,1.71,1.71.08.08-1.72Z"/>
          <path d="M42.92,66.18l-.07,1.71,1.71.08.08-1.72Z"/>
          <path d="M46.33,66.1l-1.62.33L45,68l1.62-.33Z"/>
          <path d="M48.86,66.1l-.26,1.69,1.69.25.26-1.69Z"/>
          <path d="M52.16,66.1l-1.61.33L50.88,68l1.61-.33Z"/>
          <path d="M56.63,66.1l-.25,1.69,1.69.25.26-1.69Z"/>
          <path d="M58.48,66.18l-.08,1.71,1.71.08.08-1.72Z"/>
          <path d="M61.88,66.1l-1.61.33L60.6,68l1.61-.33Z"/>
          <path d="M64.41,66.1l-.25,1.69,1.69.25.25-1.69Z"/>
          <path d="M66.4,66.2l-.2,1.55,1.56.2L68,66.39Z"/>
          <path d="M12.84,3.87H8.53a4.64,4.64,0,0,0-4.46,3.3,3.75,3.75,0,0,0-.14.6,5.36,5.36,0,0,0-.05.7v4.42a4.62,4.62,0,0,0,4.65,4.59h4.31a4.62,4.62,0,0,0,4.65-4.59V8.47A4.63,4.63,0,0,0,12.84,3.87Zm2.61,9a2.58,2.58,0,0,1-2.61,2.55H8.53a2.58,2.58,0,0,1-2.61-2.55V8.47a2.41,2.41,0,0,1,.32-1.22A2.63,2.63,0,0,1,7,6.38a2.66,2.66,0,0,1,1.5-.46h4.31a2.58,2.58,0,0,1,2.61,2.55Z"/>
          <path d="M63.4,3.87H59.08a4.64,4.64,0,0,0-4.45,3.3,3.75,3.75,0,0,0-.14.6,5.36,5.36,0,0,0-.05.7v4.42a4.62,4.62,0,0,0,4.64,4.59H63.4a4.63,4.63,0,0,0,4.65-4.59V8.47A4.64,4.64,0,0,0,63.4,3.87Zm2.61,9a2.58,2.58,0,0,1-2.61,2.55H59.08a2.58,2.58,0,0,1-2.6-2.55V8.47a2.51,2.51,0,0,1,.31-1.22,2.77,2.77,0,0,1,.8-.87,2.63,2.63,0,0,1,1.49-.46H63.4A2.58,2.58,0,0,1,66,8.47Z"/>
          <path d="M12.84,54.43H8.53a4.65,4.65,0,0,0-4.46,3.29,4.15,4.15,0,0,0-.14.61,5.36,5.36,0,0,0-.05.7v4.42A4.62,4.62,0,0,0,8.53,68h4.31a4.62,4.62,0,0,0,4.65-4.59V59A4.62,4.62,0,0,0,12.84,54.43Zm2.61,9A2.59,2.59,0,0,1,12.84,66H8.53a2.59,2.59,0,0,1-2.61-2.55V59a2.41,2.41,0,0,1,.32-1.22A2.45,2.45,0,0,1,7,56.94a2.67,2.67,0,0,1,1.5-.47h4.31A2.59,2.59,0,0,1,15.45,59Z"/>
          <path d="M12,7.76H9.36a1.59,1.59,0,0,0-.91.29A1.56,1.56,0,0,0,8,8.58a1.58,1.58,0,0,0-.19.75V12A1.58,1.58,0,0,0,9.36,13.6H12A1.58,1.58,0,0,0,13.6,12V9.33A1.58,1.58,0,0,0,12,7.76Z"/>
          <path d="M62.56,7.76H59.92a1.57,1.57,0,0,0-.91.29,1.56,1.56,0,0,0-.69,1.28V12a1.59,1.59,0,0,0,1.6,1.57h2.64A1.59,1.59,0,0,0,64.16,12V9.33A1.59,1.59,0,0,0,62.56,7.76Z"/>
          <path d="M12,58.32H9.36a1.66,1.66,0,0,0-.91.28,1.69,1.69,0,0,0-.49.54,1.54,1.54,0,0,0-.19.74v2.71a1.58,1.58,0,0,0,1.59,1.56H12a1.58,1.58,0,0,0,1.59-1.56V59.88A1.58,1.58,0,0,0,12,58.32Z"/>
          <path d="M56.63,40.82l-.11.8-.14.89,1.69.25.17-1.14.09-.55Z"/>
          <path d="M29.41,29.15l-.17,1.18-.08.51,1.69.26.11-.77.14-.92Z"/>
          <path d="M31.53,29.15l-.33,1.18-.1.34,1.52.43.22-.77.21-.75Z"/>
          <path d="M38.82,30.33l-.13-1.18-1.75.2.1,1,.09.77,1.75-.2Z"/>
          <path d="M42.59,30.33l-.31-1.08-1.36.39.2.69.19.67,1.36-.39Z"/>
          <path d="M43.2,29.15l-.33,1.18-.1.34,1.52.43.21-.77.21-.75Z"/>
          <path d="M50.8,29.15l-.17,1.18-.08.51,1.69.26.11-.77.14-.92Z"/>
          <path d="M52.65,29.23l0,1.1,0,.61,1.71.08,0-.69,0-1Z"/>
          <path d="M56.29,30.33l-.24-1.18-1.61.33.17.85.16.77,1.61-.33Z"/>
          <path d="M14,29.15l-.33,1.18-.09.33h0l1.51.43.22-.77.21-.75Z"/>
          <path d="M19.15,41.62l-.2-.7-1.36.39.09.31.3,1.05,1.36-.39Z"/>
          <path d="M19.59,40.9l0,.72,0,1,1.71.08.05-1.07,0-.64Z"/>
          <path d="M21.53,40.9l0,.72,0,1,1.71.08,0-1.07,0-.64Z"/>
          <path d="M27.11,41.62l-.09-.8L25.27,41l.07.61.12,1.14,1.75-.19Z"/>
          <path d="M33.2,40.9l0,.72-.05,1,1.72.08,0-1.07,0-.64Z"/>
          <path d="M37.09,40.9l0,.72-.05,1,1.71.08.05-1.07,0-.64Z"/>
          <path d="M41,40.9l0,.72-.05,1,1.71.08,0-1.07,0-.64Z"/>
          <path d="M45,40.82l-.12.8-.14.89,1.7.25.17-1.14.08-.55Z"/>
          <path d="M52.65,40.9l0,.72,0,1,1.71.08,0-1.07,0-.64Z"/>
          <path d="M47,40.92l-.09.7-.1.85,1.55.2.13-1.05.07-.51Z"/>
          <path d="M13.76,31.18l-.08,1.71,1.71.07.08-1.71Z"/>
        </g>
      </g>
    </g>
  </g>
</svg>
