<?xml version="1.0" encoding="UTF-8" standalone="no"?>
<svg
   xmlns:dc="http://purl.org/dc/elements/1.1/"
   xmlns:cc="http://creativecommons.org/ns#"
   xmlns:rdf="http://www.w3.org/1999/02/22-rdf-syntax-ns#"
   xmlns:svg="http://www.w3.org/2000/svg"
   xmlns="http://www.w3.org/2000/svg"
   xmlns:sodipodi="http://sodipodi.sourceforge.net/DTD/sodipodi-0.dtd"
   xmlns:inkscape="http://www.inkscape.org/namespaces/inkscape"
   width="63.499893mm"
   height="33.806629mm"
   viewBox="0 0 63.499893 33.806629"
   version="1.1"
   id="svg39"
   inkscape:version="1.0.1 (3bc2e813f5, 2020-09-07)"
   sodipodi:docname="ebay-now.svg">
  <defs
     id="defs33" />
  <sodipodi:namedview
     id="base"
     pagecolor="#ffffff"
     bordercolor="#666666"
     borderopacity="1.0"
     inkscape:pageopacity="0.0"
     inkscape:pageshadow="2"
     inkscape:zoom="0.35"
     inkscape:cx="388.57123"
     inkscape:cy="546.74368"
     inkscape:document-units="mm"
     inkscape:current-layer="layer1"
     inkscape:document-rotation="0"
     showgrid="false"
     inkscape:window-width="1920"
     inkscape:window-height="1013"
     inkscape:window-x="3831"
     inkscape:window-y="-9"
     inkscape:window-maximized="1"
     fit-margin-top="0"
     fit-margin-left="0"
     fit-margin-right="0"
     fit-margin-bottom="0" />
  <metadata
     id="metadata36">
    <rdf:RDF>
      <cc:Work
         rdf:about="">
        <dc:format>image/svg+xml</dc:format>
        <dc:type
           rdf:resource="http://purl.org/dc/dcmitype/StillImage" />
        <dc:title></dc:title>
      </cc:Work>
    </rdf:RDF>
  </metadata>
  <g
     inkscape:label="Layer 1"
     inkscape:groupmode="layer"
     id="layer1"
     transform="translate(-3.0238631,-3.507401)">
    <g
       id="g12"
       transform="matrix(0.03527778,0,0,-0.03527778,-73.176252,160.11084)">
      <path
         d="m 2613.91,4438.96 c 30.05,0.38 60.11,0.06 90.16,0.17 0.04,-75.44 -0.04,-150.88 0.04,-226.32 25.53,30.78 61.72,51.9 100.58,60.74 53.03,11.93 110.54,9.41 160.19,-14.06 36.71,-16.98 68.46,-45.03 88.47,-80.31 26.58,-46.36 32.43,-102.06 24.84,-154.26 -1.42,-7.36 -3.21,-14.65 -4.97,-21.94 -10.04,-32.36 -26.36,-63.37 -50.72,-87.27 -40.89,-42.3 -100.9,-62.71 -159.04,-61.19 -52.59,0.53 -106.87,17.07 -145.83,53.54 -5.36,4.61 -9.52,10.48 -15.06,14.89 -0.05,-15.93 -1.48,-31.77 -2.52,-47.67 -0.61,-1.98 0.32,-6.8 -3.28,-5.9 -28.56,-0.04 -57.13,0 -85.69,0 0,6.22 0.02,12.44 0.71,18.62 1.7,19.17 0.75,38.46 2.19,57.63 -0.15,33.14 0.25,66.27 -0.21,99.42 -0.66,17 0.18,34.02 -0.51,51.04 1.46,39.07 0.36,78.17 0.7,117.25 -0.03,75.21 0.1,150.41 -0.05,225.62 z m 210.72,-221.29 c -34.04,-4 -66.77,-21.06 -88.02,-48.19 -22.94,-28.62 -33,-65.97 -32.54,-102.25 -0.32,-33.19 8.1,-67.05 27.09,-94.57 18.48,-27.03 47.7,-46.12 79.64,-53.02 45.47,-10.12 97.31,-0.29 131.39,32.86 26.52,24.68 40.39,60.41 43.6,96 3.57,37.7 -3.04,77.43 -23.57,109.75 -14.85,23.62 -37.72,42.1 -63.98,51.57 -23.37,8.8 -48.95,10.87 -73.61,7.85"
         style="fill:#0a64d0;fill-opacity:1;fill-rule:evenodd;stroke:none"
         id="path14" />
      <path
         d="m 2991.75,3796.23 c 30.45,4.22 62.13,-0.59 89.85,-13.93 31.29,-14.83 57.34,-40.3 73.01,-71.14 15.87,-30.91 20.95,-67.16 14.46,-101.27 -5.52,-30 -20.13,-58.19 -41.25,-80.16 -24.34,-25.61 -57.52,-42.63 -92.55,-47.37 -32.84,-4.58 -67.09,1.34 -96.32,17.05 -31.45,16.7 -56.95,44.3 -71,77.01 -15.7,35.97 -17.2,77.85 -4.24,114.87 18.65,55.27 70.11,97.64 128.04,104.94 z m -1.98,-43.37 c -26.18,-5.37 -50.26,-20.21 -66.92,-41.1 -16.2,-20.07 -25.33,-45.73 -25.42,-71.53 -0.36,-27.38 9.48,-54.76 27.25,-75.63 17.91,-21.44 43.82,-36.01 71.49,-40.03 24.76,-3.74 50.71,0.76 72.68,12.82 25.03,13.57 44.72,36.66 54.04,63.59 9.81,27.77 8.45,59.29 -3.78,86.09 -11.42,25.41 -32.34,46.36 -57.73,57.84 -22.22,10.18 -47.7,12.9 -71.61,7.95"
         style="fill:#0a64d0;fill-opacity:1;fill-rule:evenodd;stroke:none"
         id="path16" />
      <path
         d="m 2698.45,3722.1 c 18.24,10.38 39.92,13.25 60.6,11.56 23.09,-2.26 46.57,-11.86 61.23,-30.46 10.74,-13.39 15.43,-30.79 15.47,-47.77 0.07,-38.88 0.02,-77.77 0.02,-116.65 -19,-0.06 -38.01,0.04 -57,-0.06 -0.19,30.68 -0.04,61.36 -0.08,92.04 0.11,14.97 -0.04,30.76 -7.08,44.38 -4.79,9.72 -14.28,16.59 -24.77,18.94 -16.49,3.72 -34.8,1.91 -49.05,-7.65 -21.34,-13.81 -27.76,-41.15 -26.18,-65.08 0.02,-27.53 -0.02,-55.04 0.02,-82.55 -19.04,-0.06 -38.06,-0.04 -57.1,-0.02 -0.01,48.35 0,96.71 -0.01,145.07 0,14.42 -0.67,28.82 -1.43,43.2 18.23,-0.03 36.47,0 54.7,-0.01 0.8,-10.54 1.42,-21.08 1.65,-31.63 7.97,10.53 17.36,20.22 29.01,26.69"
         style="fill:#0a64d0;fill-opacity:1;fill-rule:evenodd;stroke:none"
         id="path18" />
      <path
         d="m 3004.61,3717.91 c 2.92,14.97 30.41,13.97 31.12,-1.73 0.13,-28.52 0.06,-57.03 0.06,-85.57 0.5,-6.9 -5.66,-14.06 -12.77,-13.66 -27.86,0.04 -55.71,-0.19 -83.57,0.12 -16.24,2.57 -13.77,33.67 3.84,31.19 20.39,-0.06 40.77,-0.02 61.17,-0.04 0.15,23.22 -0.23,46.47 0.15,69.69"
         style="fill:#0a64d0;fill-opacity:1;fill-rule:evenodd;stroke:none"
         id="path20" />
      <path
         d="m 3176.09,3727.04 c 19.62,0.01 39.24,0 58.86,0 11.68,-47.38 22.88,-94.89 34.79,-142.21 13.89,47.26 26.66,94.85 40.17,142.21 20.38,-0.02 40.76,0.05 61.15,-0.04 13.38,-47.36 25.86,-95 39.87,-142.19 12.39,47.37 24.57,94.83 36.92,142.23 18.36,0.01 36.75,0.01 55.12,0 -21.56,-62.77 -43.26,-125.48 -64.82,-188.24 -20.13,-0.08 -40.26,-0.02 -60.39,-0.02 -12.96,46.94 -25.84,93.9 -38.82,140.84 -12.4,-41.34 -23.45,-83.1 -35.33,-124.6 -1.86,-5.31 -2.35,-11.38 -5.18,-16.14 -20.22,-0.2 -40.45,-0.21 -60.68,0.03 -20.3,62.79 -41.2,125.38 -61.66,188.13"
         style="fill:#0a64d0;fill-opacity:1;fill-rule:evenodd;stroke:none"
         id="path22" />
      <path
         d="m 2260.75,4252.47 c 29.73,15.44 62.9,23.09 96.09,26.2 47.13,4.19 95.85,0.99 140.17,-16.68 33.45,-13.3 63.41,-36.26 83.09,-66.58 19.77,-29.46 28.38,-64.62 33.16,-99.32 0.69,-17.02 -0.15,-34.04 0.51,-51.04 -120.89,-0.46 -241.83,-0.15 -362.75,-0.17 2.01,-32.62 12.92,-65.74 35.84,-89.73 21.73,-23.6 52.92,-36.99 84.55,-40.12 29.71,-3.15 60.79,0.41 87.86,13.58 22.68,11.1 41.42,30.89 49.22,55.12 30.8,0 61.57,0 92.36,0 -5.69,-31.94 -23.31,-61.32 -48.68,-81.5 -28.94,-23.43 -65.1,-35.95 -101.32,-42.59 -47.97,-8.05 -97.69,-6.75 -144.9,5.24 -40.95,10.51 -80.05,32.41 -105.93,66.42 -24.95,32.15 -37.06,72.67 -39.5,112.91 -2.43,45.58 3.36,92.86 24.81,133.73 16.44,32.05 43.42,58.17 75.42,74.53 z m 34.25,-62.33 c -24.93,-21.33 -38.42,-53.47 -41.89,-85.61 88.79,0.13 177.61,0.17 266.41,-0.02 -1.2,31.03 -11.64,63.13 -35.22,84.36 -25.54,23.4 -61.23,32.45 -95.19,31.9 -33.51,0.53 -68.25,-8.6 -94.11,-30.63"
         style="fill:#e43237;fill-opacity:1;fill-rule:evenodd;stroke:none"
         id="path24" />
      <path
         d="m 3237.17,4275.56 c 47.81,6.98 97.18,7.34 144.5,-3.32 36.67,-8.2 72.21,-26.7 95,-57.28 5.22,-9.17 10.11,-18.52 14.93,-27.91 7.04,-22.16 9.64,-45.46 9.37,-68.65 -0.02,-57.6 0,-115.19 0,-172.79 -0.38,-25.45 0.31,-50.87 2.43,-76.23 -27.91,-0.04 -55.81,0.01 -83.72,-0.04 -1.79,18.44 -2.84,36.92 -2.7,55.46 -7.34,-5.64 -12.52,-13.5 -19.56,-19.49 -23.66,-22.84 -54.15,-38.08 -86.29,-44.63 -14.9,-3.47 -30.17,-4.47 -45.35,-5.89 -29.26,-1.07 -58.89,-0.39 -87.35,7.2 -36.41,9.02 -71.76,29.64 -91.13,62.65 -14.19,23.32 -17.55,51.67 -14.08,78.34 1.76,7.29 3.55,14.58 4.97,21.94 6.07,15.52 14.78,30.24 27,41.72 20.98,19.62 48.38,30.57 75.85,37.55 51.27,12.66 104.41,13.1 156.91,13.32 23.98,1.57 48.06,0.4 72.1,0.78 1.1,21.51 -0.98,44.24 -13.15,62.67 -14.13,22.05 -39.94,33.07 -64.96,36.96 -33.37,5.08 -69.37,4.74 -100.16,-10.65 -18.58,-9.16 -32.9,-26.86 -35.6,-47.7 -31.38,0.22 -62.78,0 -94.18,0.12 2.43,25.9 13.2,51.38 32.05,69.59 27.22,27.57 65.8,39.88 103.12,46.28 z m -32.73,-234.47 c -14.69,-6.25 -28.2,-17.2 -33.76,-32.58 -7.66,-21.14 -4.04,-46.39 10.42,-63.85 15.29,-19.2 39.88,-28.21 63.62,-30.98 32.48,-3.12 66.39,-0.04 96.36,13.58 25.55,11.41 46.66,32.54 57.53,58.37 10.13,22.9 12.49,48.25 11.46,73 -14.53,-1.53 -29.14,-0.68 -43.71,-0.91 -25.2,-0.13 -50.41,0.14 -75.57,-1.4 -29.17,-1.5 -59.14,-3.7 -86.35,-15.23"
         style="fill:#f4ae13;fill-opacity:1;fill-rule:evenodd;stroke:none"
         id="path26" />
      <path
         d="m 3450.66,4265.43 c 35.04,-0.14 70.08,-0.04 105.13,-0.04 51.55,-102.89 102.8,-205.94 154.5,-308.76 5.44,8.81 9.39,18.42 14.04,27.65 46.88,93.65 93.5,187.42 140.21,281.15 31.82,-0.02 63.64,-0.29 95.46,0.15 -93.06,-182.37 -185.84,-364.86 -278.76,-547.29 -33.56,-0.82 -67.18,-0.15 -100.77,-0.34 26.57,50.68 53.24,101.3 80.05,151.84 -50.86,95.91 -101.75,191.8 -152.62,287.72 -5.08,10.03 -10.62,19.82 -16.3,29.54 -4.82,9.39 -9.71,18.74 -14.93,27.91 -7.95,17.19 -17.25,33.7 -26.01,50.47"
         style="fill:#84b720;fill-opacity:1;fill-rule:evenodd;stroke:none"
         id="path28" />
    </g>
  </g>
</svg>
