<?xml version="1.0" encoding="UTF-8"?>
<svg id="_圖層_1" data-name="圖層 1" xmlns="http://www.w3.org/2000/svg" viewBox="0 0 45 45">
  <defs>
    <style>
      .cls-1 {
        stroke-width: 0px;
        fill: #003B87;
      }
    </style>
  </defs>
  <path class="cls-1" d="m22.5,0C10.07,0,0,10.07,0,22.5s10.07,22.5,22.5,22.5,22.5-10.07,22.5-22.5S34.93,0,22.5,0Zm11.06,23.56c-.29.29-.68.44-1.06.44s-.77-.15-1.06-.44l-7.44-7.44v16.38c0,.83-.67,1.5-1.5,1.5s-1.5-.67-1.5-1.5v-16.38l-7.44,7.44c-.59.59-1.53.59-2.12,0-.59-.59-.59-1.53,0-2.12l10-10c.07-.07.14-.13.22-.18.08-.06.17-.1.26-.14.18-.08.37-.12.58-.12s.4.04.58.12c.09.04.18.08.26.14.08.05.15.11.22.18l10,10c.59.59.59,1.53,0,2.12Z"/>
</svg>