<?xml version="1.0" encoding="UTF-8"?>
<svg id="_圖層_1" data-name="圖層 1" xmlns="http://www.w3.org/2000/svg" viewBox="0 0 36 36">
  <defs>
    <style>
      .cls-1 {
        stroke-width: 0px;
        fill: #fff;
      }
    </style>
  </defs>
  <path class="cls-1" d="m18,0C8.06,0,0,8.05,0,18s8.06,18,18,18,18-8.06,18-18S27.94,0,18,0Zm-6.12,21.87c0,.28-.13.41-.41.41h-4.6c-.26,0-.38-.13-.42-.39-.01-.08-.01-.16-.01-.25v-6.77c0-.09,0-.18.02-.27.02-.22.15-.36.37-.37.37,0,.75-.02,1.13,0,.28.02.4.17.4.5.01.73.01,1.46.01,2.2v3.14c0,.3.02.33.32.33h2.64c.46,0,.55.1.55.55,0,.31.01.61,0,.92Zm2.93-.13c-.01.44-.11.54-.54.54-.31,0-.61,0-.92,0-.3-.01-.43-.14-.43-.44-.01-2.39-.01-4.78,0-7.16,0-.3.11-.43.41-.45.35-.02.69-.02,1.03,0,.33.01.44.14.44.47.01,1.18.01,2.37.01,3.56v3.48Zm8.16.07c0,.34-.13.47-.49.47-.27,0-.55-.01-.82,0-.3.02-.5-.11-.68-.35-.98-1.34-1.97-2.67-2.95-4-.05-.06-.08-.15-.17-.17-.08.09-.05.18-.05.28v3.54c0,.1,0,.21-.01.32-.03.22-.15.37-.38.37-.38,0-.75,0-1.12,0-.23-.01-.36-.14-.37-.38-.01-.06-.01-.13-.01-.19v-6.9c0-.49.1-.58.58-.59.25,0,.51,0,.77,0,.24-.01.41.09.56.29,1.02,1.38,2.05,2.75,3.07,4.13.04.05.05.12.13.14.07-.09.04-.19.04-.28.01-1.25,0-2.49.01-3.74,0-.42.11-.53.52-.54.3-.01.59-.01.89,0,.35,0,.48.13.48.48v7.1Zm6.58-6.15c-.01.33-.12.44-.45.44-.92,0-1.83,0-2.75,0-.34,0-.36.02-.36.37,0,.17.01.35,0,.52-.01.22.09.31.31.3h2.67c.48.01.58.12.58.59,0,.28.01.56,0,.84-.01.36-.13.49-.49.49-.89.01-1.79,0-2.68,0-.38.01-.39.01-.39.39,0,.17.01.33,0,.5-.02.22.08.3.3.3h2.9c.22.03.35.14.35.37.01.38.02.76,0,1.14,0,.25-.15.37-.42.37-.55,0-1.09,0-1.63,0h-2.83c-.43,0-.52-.09-.52-.52v-7c0-.43.1-.54.53-.54h4.31c.47,0,.57.12.57.57,0,.29.01.58,0,.87Z"/>
</svg>