<?xml version="1.0" encoding="UTF-8"?>
<svg id="_圖層_1" data-name="圖層 1" xmlns="http://www.w3.org/2000/svg" viewBox="0 0 36 36">
  <defs>
    <style>
      .cls-1 {
        stroke-width: 0px;
        fill: #fff;
      }
    </style>
  </defs>
  <path class="cls-1" d="m18,0C8.06,0,0,8.05,0,18s8.06,18,18,18,18-8.06,18-18S27.94,0,18,0Zm-4.81,25.71c0,.21-.18.39-.39.39h-2.23c-.21,0-.39-.18-.39-.39v-10.61c0-.21.18-.39.39-.39h2.23c.21,0,.39.18.39.39v10.61Zm-1.5-12.52c-.91,0-1.65-.74-1.65-1.65s.74-1.64,1.65-1.64,1.64.73,1.64,1.64-.73,1.65-1.64,1.65Zm14.94,12.52c0,.21-.18.39-.39.39h-2.23c-.21,0-.39-.18-.39-.39v-5.41c0-1.23-.06-2.03-.19-2.38-.13-.37-.34-.64-.63-.84-.29-.21-.65-.3-1.06-.3-.52,0-.99.14-1.41.42-.42.29-.7.67-.86,1.14-.16.47-.23,1.34-.23,2.61v4.76c0,.21-.18.39-.39.39h-2.23c-.21,0-.39-.18-.39-.39v-10.61c0-.21.18-.39.39-.39h2.01c.21,0,.39.18.39.39v.29c0,.16.09.29.23.36.14.06.3.03.42-.07.87-.81,1.91-1.21,3.12-1.21.66,0,1.27.12,1.82.36.56.24.98.55,1.26.92.28.37.48.79.59,1.26.11.47.17,1.14.17,2.02v6.68Z"/>
</svg>